<svg width="223" height="293" viewBox="0 0 223 293" fill="none" xmlns="http://www.w3.org/2000/svg">
<path d="M196.374 205.789C196.374 196.082 196.374 186.151 195.477 176.444C197.777 174.425 222.913 152.374 222.913 152.431C222.339 151.736 221.721 151.08 221.062 150.467C218.2 147.774 214.834 145.754 211.692 143.285L199.629 133.747C194.268 128.446 188.069 124.067 181.281 120.786C176.17 119.461 170.979 118.468 165.74 117.812C160.65 116.608 155.471 115.82 150.254 115.456C149.637 115.456 149.581 116.297 150.254 116.522C155.952 118.378 161.786 119.785 167.703 120.73C171.855 121.571 176.737 122.974 180.945 123.479C170.509 130.268 160.073 138.628 150.31 145.922C140.548 153.216 128.597 161.295 118.834 170.16C93.249 158.939 67.6079 147.1 41.518 137.169L46.7921 129.426L52.0101 127.687L47.241 132.793C46.3994 133.691 47.7459 135.037 48.5875 134.14L54.8155 127.463C54.9126 127.357 54.9875 127.234 55.0357 127.099C55.0839 126.964 55.1044 126.82 55.096 126.677L60.0896 124.938L51.0563 135.093C50.2708 135.991 51.5612 137.338 52.4028 136.44L62.8388 124.433C62.8913 124.309 62.9183 124.175 62.9183 124.04C62.9183 123.905 62.8913 123.772 62.8388 123.647L67.103 122.076L55.8815 137.001C55.1521 138.011 56.8353 138.909 57.5086 137.955L70.1889 121.123C73.5553 119.776 76.9218 118.429 80.2321 116.971C81.2981 116.522 80.5126 114.782 79.4466 115.119C62.8814 119.943 46.6188 125.751 30.7454 132.512C30.5429 132.598 30.3818 132.759 30.2965 132.961H29.8477C24.6221 138.724 19.8923 144.918 15.7086 151.477C12.23 156.19 8.63909 160.847 5.27265 165.616C4.63473 166.703 3.88235 167.719 3.02836 168.646C2.29896 169.319 1.28903 169.319 0.671848 170.104C-2.52627 173.92 6.61923 175.715 8.6952 176.949C14.7548 179.755 20.8705 182.56 27.0423 185.085C27.0423 188.676 27.0423 192.211 26.7618 195.802C26.6674 195.881 26.5916 195.979 26.5395 196.091C26.4875 196.202 26.4605 196.324 26.4605 196.447C26.4605 196.57 26.4875 196.691 26.5395 196.803C26.5916 196.914 26.6674 197.013 26.7618 197.092C26.7618 203.32 26.7618 209.548 26.7618 215.776C26.1065 225.368 26.2942 234.999 27.3228 244.559C27.2273 244.643 27.1508 244.747 27.0984 244.863C27.046 244.979 27.0189 245.105 27.0189 245.232C27.0189 245.359 27.046 245.485 27.0984 245.601C27.1508 245.718 27.2273 245.821 27.3228 245.905C55.5622 264.588 85.6435 280.324 117.095 292.867C117.246 292.931 117.408 292.965 117.572 292.966C117.735 292.966 117.898 292.934 118.049 292.872C118.201 292.809 118.338 292.717 118.454 292.601C118.569 292.484 118.66 292.346 118.722 292.194C118.968 292.184 119.203 292.089 119.387 291.926C119.571 291.762 119.693 291.54 119.732 291.296C132.636 283.161 144.868 273.959 157.436 265.319C170.004 256.678 182.965 247.813 195.364 238.611C195.546 238.55 195.703 238.432 195.813 238.275C195.965 238.214 196.1 238.118 196.206 237.994C196.369 237.868 196.501 237.707 196.592 237.522C196.683 237.337 196.73 237.134 196.73 236.928C196.73 236.722 196.683 236.519 196.592 236.334C196.501 236.15 196.369 235.988 196.206 235.862C196.791 225.848 196.848 215.809 196.374 205.789ZM123.435 176.332L118.946 181.157C118.946 178.577 118.666 175.996 118.497 173.415C120.068 174.425 121.752 175.435 123.435 176.332ZM116.029 186.824C115.945 186.708 115.836 186.614 115.709 186.549C115.582 186.484 115.442 186.45 115.299 186.45C115.157 186.45 115.016 186.484 114.889 186.549C114.762 186.614 114.653 186.708 114.57 186.824L106.21 196.363L107.5 193.782C110.474 188.171 113.56 182.897 116.253 177.286C116.253 179.699 116.253 182.055 116.253 184.468C116.155 184.562 116.076 184.675 116.023 184.801C115.969 184.926 115.942 185.061 115.942 185.197C115.942 185.334 115.969 185.468 116.023 185.594C116.076 185.719 116.155 185.832 116.253 185.927L116.029 186.824ZM119.058 183.795L125.118 177.286L129.046 179.53L119.002 189.517L119.058 183.795ZM43.9306 130.044L39.5543 136.44L32.1481 133.635L43.9306 130.044ZM3.19668 172.236C7.85359 166.626 12.0616 161.015 16.3819 155.124C21.6546 148.854 26.4734 142.217 30.8015 135.262C30.9048 135.451 31.0607 135.607 31.2504 135.711C58.8552 149.345 87.9749 160.51 116.421 172.293C116.343 172.491 116.343 172.711 116.421 172.91C112.213 179.53 108.286 186.544 104.527 193.445C101.026 199.128 97.8594 205.011 95.0444 211.063L93.3051 210.446C77.8756 202.927 61.7167 196.363 46.0066 189.854C31.8675 183.795 17.6724 177.454 3.19668 172.236ZM29.3427 186.095L35.5145 188.676L29.9038 193.389C29.6794 190.752 29.511 188.564 29.3427 186.095ZM29.3427 244.895C30.1473 235.247 30.2786 225.554 29.7355 215.888C29.7355 209.211 29.7355 202.534 29.7355 195.802L37.0294 189.854V189.461L39.8348 190.752L31.6431 196.363C30.6893 197.092 31.6431 198.719 32.5969 198.046L41.4058 191.706C41.5622 191.62 41.682 191.481 41.7424 191.313L45.9505 193.108L33.3263 200.627C32.3164 201.244 33.3263 202.927 34.2802 202.254C38.6004 199.729 42.8646 197.148 47.1287 194.567C47.2706 194.493 47.3882 194.379 47.4677 194.24C47.5472 194.101 47.5853 193.942 47.5776 193.782L52.9078 196.082L39.2737 204.33C39.0964 204.473 38.9764 204.676 38.9356 204.9C38.8948 205.125 38.9358 205.357 39.0512 205.553C39.1666 205.75 39.3487 205.899 39.5645 205.973C39.7804 206.047 40.0156 206.042 40.2275 205.957L53.7494 197.765C53.883 197.716 54.003 197.636 54.0996 197.532C54.1961 197.427 54.2665 197.301 54.3049 197.164C54.3432 197.027 54.3485 196.883 54.3202 196.744C54.2919 196.604 54.2309 196.474 54.1422 196.363L63.456 200.402L49.0925 209.772C48.0826 210.446 49.0925 212.073 50.0463 211.455L64.6904 201.973C64.8132 201.896 64.9139 201.788 64.9827 201.66C65.0515 201.532 65.0861 201.389 65.0831 201.244L69.1228 202.983L51.2246 215.271C50.2147 215.944 51.2246 217.627 52.1784 216.954L70.1889 204.666C70.3399 204.577 70.4589 204.442 70.5294 204.281C70.5998 204.12 70.6181 203.941 70.5816 203.769L78.605 207.135C74.796 210.659 70.5762 213.711 66.0369 216.225C64.9709 216.786 66.0369 218.469 66.9908 217.852C71.9076 215.139 76.4527 211.801 80.5126 207.921C84.1035 209.38 87.6383 210.782 91.2291 212.129L78.5489 223.07C77.6512 223.855 78.9977 225.202 79.8955 224.416L92.3513 213.195C92.4152 213.074 92.4485 212.939 92.4485 212.802C92.4485 212.665 92.4152 212.53 92.3513 212.409L95.7738 213.7L89.2093 220.545C88.3116 221.386 89.6581 222.677 90.5558 221.891L115.524 198.887C116.421 198.046 115.075 196.755 114.177 197.541L96.8399 213.475C99.2108 209.896 101.311 206.145 103.124 202.254C103.251 202.301 103.39 202.301 103.517 202.254L115.916 188.115C115.916 194.343 115.916 200.515 115.916 206.742C107.728 212.785 99.9492 219.364 92.6318 226.436C92.5095 226.617 92.4529 226.834 92.4713 227.051C92.4897 227.269 92.5821 227.473 92.733 227.631C92.884 227.788 93.0844 227.889 93.3008 227.917C93.5172 227.945 93.7366 227.897 93.9223 227.783C100.865 221.072 108.23 214.812 115.972 209.043C115.972 210.502 115.972 211.96 115.972 213.419C115.774 213.341 115.554 213.341 115.355 213.419C112.326 216.73 109.24 219.984 106.21 223.238C105.368 224.136 106.715 225.482 107.556 224.585L116.029 215.495C116.029 217.403 116.029 219.311 116.029 221.106C115.874 220.968 115.675 220.892 115.468 220.892C115.261 220.892 115.061 220.968 114.906 221.106L107.164 230.981C106.378 231.879 107.725 233.225 108.51 232.271C111.203 229.129 113.84 225.931 116.477 222.733C116.477 224.753 116.477 226.717 116.477 228.737C116.336 228.618 116.157 228.553 115.972 228.553C115.788 228.553 115.609 228.618 115.468 228.737L107.781 236.535C106.939 237.433 108.286 238.78 109.127 237.882L116.534 230.364V231.486C116.534 250.618 115.355 270.761 117.431 289.725C87.1555 276.725 57.7668 261.75 29.4549 244.895H29.3427ZM155.192 263.691C143.465 271.995 131.29 279.906 119.956 288.771C121.527 269.975 119.956 250.338 119.507 231.542C119.507 218.413 119.507 205.171 119.507 192.267L131.29 180.596L135.273 182.728C135.113 182.681 134.942 182.682 134.782 182.732C134.622 182.782 134.48 182.878 134.376 183.009L121.134 197.541C120.293 198.439 121.639 199.785 122.481 198.831L135.722 184.299C135.828 184.215 135.913 184.109 135.971 183.987C136.029 183.866 136.06 183.733 136.06 183.598C136.06 183.463 136.029 183.33 135.971 183.209C135.913 183.088 135.828 182.981 135.722 182.897C137.237 183.682 138.696 184.58 140.155 185.422L126.24 203.376C125.511 204.33 126.857 205.676 127.587 204.723L141.726 186.432C144.419 188.171 146.888 190.135 149.356 192.042L135.834 210.446C135.105 211.399 136.788 212.353 137.462 211.399L150.871 193.221L153.901 195.689L142.287 210.221C141.501 211.175 142.848 212.521 143.633 211.568C147.505 206.63 151.432 201.749 155.36 196.868L157.548 198.663C154.799 203.039 151.937 207.416 149.244 211.848C148.571 212.858 150.198 213.812 150.871 212.802L159.119 199.729C159.836 200.322 160.606 200.848 161.419 201.3H162.093L155.416 212.297C154.743 213.307 156.426 214.261 157.043 213.251L163.664 202.31C165.347 202.31 166.525 201.076 168.489 199.617C170.453 198.158 172.192 196.699 174.1 195.184C171.884 199.636 169.133 203.8 165.908 207.584C165.066 208.538 166.413 209.884 167.255 208.931C171.348 204.264 174.681 198.981 177.13 193.277C177.189 193.094 177.189 192.898 177.13 192.716L181.169 189.181C179.374 193.333 177.522 197.485 175.559 201.637C175.054 202.703 176.681 203.657 177.186 202.534C179.654 196.924 182.067 191.593 184.48 186.095C186.836 183.963 189.193 181.831 191.605 179.755C189.361 184.692 187.173 189.686 184.928 194.623C184.423 195.745 186.051 196.699 186.556 195.577L192.783 181.662C192.391 189.742 192.783 197.99 192.783 206.069C192.783 216.337 192.783 226.829 193.288 237.04C180.72 245.569 167.928 254.77 155.192 263.691ZM193.85 173.359L191.212 175.715C182.179 183.738 172.585 191.425 164.225 200.122C158.295 193.926 151.535 188.583 144.138 184.243C136.867 179.019 128.896 174.845 120.461 171.844C132.3 164.55 143.185 155.348 154.125 147.044C164.115 140.391 173.707 133.16 182.852 125.387C193.625 135.149 206.361 143.79 217.976 152.543C209.84 159.332 201.985 166.401 193.962 173.415L193.85 173.359Z" fill="#4FB7EB"/>
<path d="M68.8984 80.672C89.9289 103.342 106.101 130.073 116.421 159.222C116.926 160.737 119.451 161.074 119.844 159.222C120.237 157.371 120.798 155.014 121.359 152.938C121.526 152.949 121.693 152.906 121.835 152.815C121.976 152.724 122.085 152.59 122.144 152.433L135.778 121.855C136.283 120.789 134.656 119.835 134.151 120.901C130.841 128.363 127.474 135.826 124.164 143.344C127.423 133.414 131.573 123.799 136.564 114.617C140.081 107.959 144.016 101.532 148.346 95.3722C151.04 91.7252 153.957 88.2465 156.819 84.7679C158.053 83.253 164.954 77.025 161.195 75.5101H160.914C159.048 75.3522 157.171 75.3522 155.304 75.5101C152.947 75.5101 150.647 75.5101 148.29 75.5101C143.609 75.4262 138.927 75.5948 134.263 76.0151C134.768 63.8398 135.273 51.7206 135.666 39.5453C135.666 32.7563 136.452 26.0235 136.732 19.2906C136.732 15.5314 136.732 11.7161 137.013 8.06909C137.013 5.65648 136.732 3.29997 133.927 3.07554C131.121 2.85111 129.045 2.51446 126.352 2.34614L114.85 1.61674C111.035 1.61674 107.164 1.05567 103.292 0.999564C100.88 0.999564 97.6815 -0.62755 95.1566 0.270168C92.6318 1.16789 93.3051 1.61674 93.3051 3.24386C93.3051 4.87097 93.3051 8.40574 93.3051 10.8745C93.3051 19.7955 94.7078 28.6605 95.2127 37.5255C95.886 50.2057 96.5967 62.8486 97.3448 75.454C88.6829 75.0515 80.0036 75.2389 71.3671 76.0151C71.3059 75.9853 71.2388 75.9699 71.1707 75.9699C71.1027 75.9699 71.0355 75.9853 70.9744 76.0151L66.598 76.2957C66.4097 76.2961 66.2257 76.3523 66.0693 76.4571C65.9129 76.562 65.791 76.7108 65.719 76.8848C65.647 77.0588 65.6281 77.2502 65.6647 77.4349C65.7013 77.6196 65.7918 77.7894 65.9247 77.9228C66.9907 78.8205 67.8884 79.7743 68.8984 80.672ZM134.207 6.04923C132.749 16.4852 133.197 27.4822 132.749 37.8621C132.15 51.0286 131.589 64.2139 131.065 77.4178C131.065 78.9888 139.257 78.1472 140.547 78.3155C143.409 78.6522 146.158 78.6522 149.244 78.7083C150.535 78.7083 156.426 79.606 157.324 78.7083C147.59 89.1719 139.443 101.005 133.141 113.831C126.672 126.134 121.537 139.094 117.824 152.489C117.829 151.724 117.636 150.97 117.263 150.301C117.956 149.859 118.518 149.239 118.89 148.506C119.395 147.44 117.768 146.43 117.263 147.552C117.061 147.915 116.795 148.238 116.477 148.506C116.298 148.183 116.148 147.845 116.029 147.496L114.065 142.502L120.573 138.575C121.583 137.958 120.573 136.331 119.619 136.948L113.279 140.763C112.662 139.304 112.045 137.845 111.372 136.387L121.808 130.776C121.985 130.632 122.105 130.43 122.146 130.205C122.187 129.981 122.146 129.749 122.03 129.552C121.915 129.355 121.733 129.207 121.517 129.132C121.301 129.058 121.066 129.064 120.854 129.149L110.53 134.76C110.53 134.198 110.025 133.581 109.688 132.964L108.847 131.225L121.19 124.155C122.2 123.538 121.19 121.911 120.237 122.528L108.005 129.542L106.603 126.287L121.639 117.815C121.817 117.671 121.937 117.469 121.977 117.245C122.018 117.02 121.977 116.788 121.862 116.592C121.746 116.395 121.564 116.246 121.348 116.172C121.133 116.098 120.897 116.103 120.685 116.188L105.649 124.716L104.134 121.967L122.761 111.307C122.939 111.163 123.059 110.961 123.1 110.736C123.14 110.512 123.099 110.28 122.984 110.083C122.869 109.886 122.686 109.737 122.471 109.663C122.255 109.589 122.02 109.595 121.808 109.68L103.18 120.284L101.328 117.198L120.854 106.594C121.976 106.033 120.854 104.349 119.9 104.967L100.375 115.627L98.0742 112.036L118.105 101.937C119.171 101.376 118.105 99.7485 117.151 100.31L97.0082 110.465L94.7639 107.099L114.345 95.8771C114.523 95.7335 114.643 95.5311 114.683 95.3066C114.724 95.0821 114.683 94.8504 114.568 94.6535C114.452 94.4567 114.27 94.3077 114.055 94.2337C113.839 94.1596 113.603 94.1654 113.392 94.25L93.6417 105.471C92.6879 104.125 91.7341 102.778 90.7241 101.488L114.963 87.966C116.029 87.4049 114.963 85.7778 114.009 86.3389L89.7703 99.9168C89.2092 99.1875 88.6482 98.402 88.031 97.6726L108.959 85.8339C109.969 85.2167 108.959 83.5896 108.005 84.2068L86.7966 96.2138C86.0111 95.2038 85.1695 94.25 84.384 93.3523L111.035 77.1373C111.212 76.9937 111.332 76.7912 111.373 76.5667C111.414 76.3422 111.373 76.1105 111.258 75.9137C111.142 75.7168 110.96 75.5679 110.744 75.4938C110.528 75.4198 110.293 75.4256 110.081 75.5101L83.0935 91.8935L80.8492 89.4248L99.4208 78.8766C99.5582 78.8115 99.6737 78.7079 99.7534 78.5784C99.833 78.449 99.8734 78.2992 99.8696 78.1472H100.262L114.401 69.0578C115.411 68.3845 114.401 66.7574 113.448 67.4307L100.206 75.959V72.5365L116.197 63.1104C117.207 62.4932 116.197 60.81 115.243 61.4833L100.094 70.4044V68.104L115.467 59.4073C116.477 58.7902 115.467 57.163 114.514 57.7241L99.533 65.6353C99.533 64.0081 99.533 62.381 99.533 60.7539L116.814 50.4863C116.991 50.3426 117.111 50.1402 117.152 49.9157C117.193 49.6912 117.152 49.4595 117.037 49.2627C116.921 49.0658 116.739 48.9169 116.523 48.8428C116.307 48.7688 116.072 48.7746 115.86 48.8591L99.028 58.3974C99.028 57.0508 99.028 55.7042 99.028 54.3577L117.824 42.7434C118.834 42.1263 117.824 40.4991 116.87 41.1163L98.8597 52.3378V49.2519L117.151 37.1327C118.161 36.4594 117.151 34.8323 116.197 35.5056L98.5231 47.1759V43.9778L115.355 32.7563C116.365 32.083 115.355 30.4559 114.401 31.1292L98.1303 42.014C98.1303 40.8358 98.1303 39.7136 98.1303 38.5354H98.4109L114.458 29.2777C114.673 29.1437 114.827 28.9296 114.885 28.6823C114.943 28.4351 114.9 28.1749 114.766 27.9592C114.632 27.7434 114.418 27.5897 114.171 27.5318C113.924 27.4739 113.663 27.5166 113.448 27.6506L97.962 36.235C97.962 35.3373 97.962 34.4396 97.962 33.5418L114.289 23.5547C114.467 23.4111 114.587 23.2087 114.627 22.9842C114.668 22.7597 114.627 22.528 114.512 22.3311C114.396 22.1343 114.214 21.9853 113.998 21.9113C113.783 21.8373 113.547 21.843 113.335 21.9276L97.7937 31.3536C97.7937 30.3437 97.7937 29.3899 97.7937 28.38L113.784 19.0661C113.962 18.9225 114.082 18.7201 114.122 18.4956C114.163 18.2711 114.122 18.0394 114.007 17.8426C113.891 17.6457 113.709 17.4967 113.493 17.4227C113.278 17.3487 113.042 17.3545 112.83 17.439L97.6254 26.1918C97.6254 24.9574 97.6254 23.7792 97.6254 22.5448L113.055 11.8283C114.009 11.0989 113.055 9.47178 112.101 10.2012L97.5131 20.2444V16.2608L110.418 7.22748C111.428 6.55419 110.418 4.87097 109.464 5.60037L97.1765 14.0726L96.8399 10.1451L103.853 5.26372C104.018 5.15721 104.148 5.00496 104.228 4.8256C104.308 4.64624 104.334 4.44754 104.302 4.25379C114.177 5.60037 124.389 5.60037 134.207 6.04923ZM102.338 4.02936L96.7276 8.01298C96.7276 6.32976 96.2227 4.64654 95.886 3.01943C97.9059 3.41218 100.15 3.74883 102.338 4.02936ZM96.7276 78.2033L79.5027 87.966L76.8095 85.2728L89.7703 78.5399C91.2466 78.4565 92.7265 78.4565 94.2028 78.5399L96.7276 78.2033ZM85.0573 78.5399L75.5191 83.7018C75.4287 83.6673 75.3288 83.6673 75.2385 83.7018L73.387 81.9625L80.9615 78.5399H85.0573ZM76.6973 78.5399L72.377 80.5598L71.9843 80.9526L70.9744 79.9987C70.4694 79.606 69.4595 78.035 68.8984 77.9789C71.4793 78.5399 74.0603 78.5399 76.6973 78.5399Z" fill="#4FB7EB"/>
<path d="M57.2843 199.34L41.7987 209.046C40.7887 209.72 41.7987 211.347 42.7525 210.73L58.2381 200.967C59.248 200.294 58.2942 198.666 57.2843 199.34Z" fill="#4FB7EB"/>
<path d="M72.9372 205.512L60.6497 214.04C59.6398 214.713 60.6497 216.34 61.6036 215.667L73.8911 207.139C74.6205 206.465 73.6666 204.838 72.9372 205.512Z" fill="#4FB7EB"/>
<path d="M84.1588 210.388L70.2442 221.61C69.2904 222.339 70.637 223.686 71.5908 222.956L85.5054 211.735C86.4031 210.949 85.0566 209.603 84.1588 210.388Z" fill="#4FB7EB"/>
<path d="M143.073 189.243L130 206.804C129.27 207.814 130.898 208.712 131.627 207.758L144.7 190.197C145.429 189.243 143.802 188.289 143.073 189.243Z" fill="#4FB7EB"/>
<path d="M74.6198 119.725L63.3983 136.557C62.725 137.567 64.3521 138.521 65.0254 137.511L76.2469 120.679C76.9202 119.669 75.2931 118.715 74.6198 119.725Z" fill="#4FB7EB"/>
<path d="M70.1881 137.682L81.8024 118.718C82.4756 117.708 80.8485 116.754 80.1752 117.764L68.561 136.729C67.8877 137.738 69.571 138.692 70.1881 137.682Z" fill="#4FB7EB"/>
<path d="M72.4319 143.172L87.9175 117.194C88.0021 116.982 88.0078 116.747 87.9338 116.531C87.8598 116.315 87.7108 116.133 87.514 116.018C87.3171 115.902 87.0854 115.861 86.8609 115.902C86.6364 115.943 86.434 116.063 86.2904 116.24L70.8047 142.218C70.7202 142.43 70.7144 142.665 70.7884 142.881C70.8625 143.097 71.0114 143.279 71.2083 143.394C71.4051 143.51 71.6368 143.551 71.8613 143.51C72.0858 143.469 72.2882 143.349 72.4319 143.172Z" fill="#4FB7EB"/>
<path d="M78.0434 142.05C82.6442 133.821 87.2076 125.535 91.7336 117.194C91.8181 116.982 91.8239 116.747 91.7499 116.531C91.6758 116.315 91.5269 116.133 91.33 116.018C91.1332 115.902 90.9015 115.861 90.677 115.902C90.4525 115.943 90.25 116.063 90.1064 116.24L76.4162 141.096C75.7991 142.162 77.4823 143.116 78.0434 142.05Z" fill="#4FB7EB"/>
<path d="M81.4658 144.015C86.9384 135.704 91.6876 126.937 95.661 117.813C96.166 116.691 94.5389 115.737 94.0339 116.86C90.049 125.906 85.3001 134.597 79.8387 142.837C79.1654 144.128 80.7926 145.025 81.4658 144.015Z" fill="#4FB7EB"/>
<path d="M85.8982 147.719L97.9613 124.434C98.5224 123.312 96.8953 122.358 96.3342 123.481L84.1589 146.765C83.71 147.831 85.3371 148.785 85.8982 147.719Z" fill="#4FB7EB"/>
<path d="M89.7709 146.656L100.992 129.038C101.61 128.028 99.9824 127.075 99.3652 128.085C95.6622 133.976 92.0152 139.867 88.1438 145.758C87.5266 146.768 89.2098 147.722 89.7709 146.656Z" fill="#4FB7EB"/>
<path d="M95.7173 149.456C99.1931 144.3 102.073 138.766 104.302 132.961C104.694 131.782 102.899 131.278 102.45 132.456C100.307 138.116 97.5011 143.503 94.0902 148.502C93.4169 149.512 95.044 150.466 95.7173 149.456Z" fill="#4FB7EB"/>
<path d="M100.992 149.796L106.603 140.37C106.688 140.158 106.694 139.923 106.619 139.707C106.545 139.491 106.396 139.309 106.2 139.193C106.003 139.078 105.771 139.037 105.547 139.078C105.322 139.119 105.12 139.239 104.976 139.416L99.3653 148.842C99.2807 149.054 99.2749 149.289 99.349 149.505C99.423 149.721 99.572 149.903 99.7688 150.018C99.9657 150.134 100.197 150.175 100.422 150.134C100.646 150.093 100.849 149.973 100.992 149.796Z" fill="#4FB7EB"/>
<path d="M103.403 154.904L108.116 146.376C108.201 146.164 108.206 145.929 108.132 145.713C108.058 145.497 107.909 145.315 107.713 145.199C107.516 145.084 107.284 145.043 107.059 145.084C106.835 145.125 106.633 145.245 106.489 145.422L101.776 153.95C101.691 154.162 101.686 154.397 101.76 154.613C101.834 154.829 101.983 155.011 102.179 155.127C102.376 155.242 102.608 155.283 102.833 155.242C103.057 155.201 103.259 155.081 103.403 154.904Z" fill="#4FB7EB"/>
<path d="M142.175 119.27C136.901 130.155 131.683 141.095 126.409 152.036C125.848 153.159 127.531 154.112 128.036 152.99L143.802 120.223C144.363 119.101 142.736 118.148 142.175 119.27Z" fill="#4FB7EB"/>
<path d="M149.524 119.104L132.356 150.917C132.271 151.129 132.265 151.364 132.339 151.58C132.413 151.796 132.562 151.978 132.759 152.094C132.956 152.209 133.188 152.25 133.412 152.209C133.637 152.168 133.839 152.048 133.983 151.871L151.151 120.058C151.488 118.992 150.085 117.814 149.524 119.104Z" fill="#4FB7EB"/>
<path d="M155.023 119.67L140.659 145.872C140.042 146.938 141.725 147.892 142.287 146.826L156.65 120.736C157.099 119.557 155.584 118.604 155.023 119.67Z" fill="#4FB7EB"/>
<path d="M158.334 122.253C155.697 127.863 153.06 133.081 150.366 138.468C149.861 139.59 151.489 140.544 152.05 139.477L159.961 123.431C160.522 122.14 158.895 121.186 158.334 122.253Z" fill="#4FB7EB"/>
<path d="M161.814 124.321C160.074 128.08 158.335 131.839 156.652 135.542C156.147 136.664 157.774 137.618 158.279 136.496L163.441 125.274C163.946 124.152 162.319 123.423 161.814 124.321Z" fill="#4FB7EB"/>
<path d="M164.222 132.125L166.747 126.515C167.252 125.392 165.625 124.439 165.12 125.561L162.595 131.171C162.09 132.294 163.717 133.247 164.222 132.125Z" fill="#4FB7EB"/>
<path d="M76.0244 201.976C76.0406 202.109 76.0903 202.235 76.1688 202.343C76.2473 202.451 76.3521 202.537 76.4732 202.593L77.0904 202.93C78.2125 203.435 79.1664 201.808 78.0442 201.303L77.427 200.966C77.4204 200.824 77.3751 200.686 77.296 200.567C77.2169 200.449 77.1071 200.354 76.9782 200.293L15.2601 171.903C14.194 171.398 13.2402 173.025 14.3063 173.53L76.0244 201.976Z" fill="#4FB7EB"/>
<path d="M79.3341 203.43L89.1529 207.807C90.2751 208.311 91.2289 206.684 90.1067 206.179L80.288 201.971C79.1658 201.298 78.212 202.925 79.3341 203.43Z" fill="#4FB7EB"/>
<path d="M96.5585 202.252L109.295 177.733C109.856 176.611 108.229 175.657 107.668 176.779L94.9314 201.298C94.3703 202.364 95.9974 203.318 96.5585 202.252Z" fill="#4FB7EB"/>
<path d="M164.338 189.97C153.563 182.218 142.086 175.493 130.056 169.884C128.934 169.322 127.98 170.95 129.102 171.511C141.121 177.142 152.596 183.865 163.384 191.597C164.394 192.27 165.348 190.755 164.338 189.97Z" fill="#4FB7EB"/>
<path d="M208.661 155.739L164.785 192.377C163.832 193.163 165.178 194.453 166.132 193.668L210.008 157.086C210.962 156.3 209.615 155.01 208.661 155.739Z" fill="#4FB7EB"/>
<path d="M167.592 185.424L183.358 172.744C184.312 171.958 182.965 170.668 182.011 171.397L166.245 184.078C165.291 184.807 166.638 186.154 167.592 185.424Z" fill="#4FB7EB"/>
<path d="M81.4664 201.588C82.5886 202.037 83.0935 200.242 81.9714 199.793C74.7513 197.043 67.9669 193.263 61.8288 188.571C60.875 187.842 59.5284 189.132 60.4822 189.918C66.8685 194.813 73.9385 198.745 81.4664 201.588Z" fill="#4FB7EB"/>
</svg>
