<svg width="1440" height="294" viewBox="0 0 1440 294" fill="none" xmlns="http://www.w3.org/2000/svg">
<path d="M1281.55 293.012H1258.82C1257.6 291.981 1259.66 289.638 1261.81 289.48C1262.75 289.41 1263.93 289.604 1265.28 289.889C1265.6 285.741 1267.38 267.081 1274.12 267.838C1281.69 268.678 1274.12 276.052 1271.97 280.419C1270.38 283.653 1268.71 288.291 1267.94 290.48C1268.56 290.612 1269.2 290.743 1269.85 290.87C1270.85 287.793 1274.58 277.444 1279.33 278.049C1284.91 278.754 1282.67 282.903 1278.71 285.367C1275.81 287.177 1272.26 289.751 1270.56 290.994C1272.03 291.25 1273.52 291.369 1275.01 291.351C1278.91 291.25 1280.81 292.406 1281.55 293.012Z" fill="#4FB7EB"/>
<path d="M785.951 292.21C785.047 290.793 782.329 287.117 778.709 287.604C774.768 288.134 783.065 290.723 785.607 292.22C785.133 292.245 784.657 292.19 784.201 292.056C782.503 291.452 779.594 292.612 778.663 293.017H794.834C794.65 292.397 794.237 291.87 793.678 291.542C793.413 291.38 792.878 291.347 792.189 291.409C793.151 290.277 793.819 286.662 791.142 287.592C789.19 288.273 789.19 290.481 789.385 291.787C788.969 291.854 788.547 291.918 788.132 291.982C787.325 287.889 784.479 275.879 778.705 275.559C772.848 275.233 783.668 288.011 787.269 292.097C786.806 292.142 786.361 292.185 785.951 292.21Z" fill="#4FB7EB"/>
<path d="M1197.61 265.065L1195.85 272.452L1193.52 282.245H1186.23L1185.79 272.863L1185.46 265.627L1197.61 265.065Z" fill="#EBAF7D"/>
<path d="M1220.71 104.314C1220.71 104.314 1226.48 98.15 1230.23 102.982C1233.98 107.815 1238.14 111.078 1243.9 114.796C1249.66 118.513 1238.81 147.648 1231.6 147.05C1224.39 146.451 1194.97 123.48 1220.71 104.314Z" fill="#BA3F3F"/>
<path d="M1191.99 101.383C1193.43 100.308 1206.69 95.7626 1219.62 100.232C1232.54 104.702 1209.6 117.157 1209.6 117.157L1202.17 117.477L1191.99 101.383Z" fill="#DA711D"/>
<path d="M1183.34 293.006C1183.34 293.006 1183.34 289.44 1183.85 288.255C1184.36 287.07 1186.23 282.245 1186.23 282.245H1193.52C1193.52 282.245 1194.89 286.647 1194.96 288.093C1195.04 289.54 1194.96 293.011 1194.96 293.011L1183.34 293.006Z" fill="#364172"/>
<path d="M1229.64 293.006C1229.64 293.006 1229.64 289.44 1229.13 288.255C1228.62 287.07 1226.76 282.245 1226.76 282.245H1219.47C1219.47 282.245 1218.11 286.647 1218.02 288.093C1217.94 289.54 1218.02 293.011 1218.02 293.011L1229.64 293.006Z" fill="#364172"/>
<path d="M1200.43 92.9651C1200.43 92.9651 1200.17 100.901 1199.15 104.466L1191.1 121.785L1221.41 114.593L1214.18 104.62C1214.18 104.62 1212 93.9807 1213.15 90.0449C1214.29 86.1092 1200.43 92.9651 1200.43 92.9651Z" fill="#EBAF7D"/>
<path d="M1200.38 94.0615C1200.38 94.0615 1202.78 99.8219 1207.3 99.6952C1211.81 99.5685 1212.84 94.4709 1212.84 94.4709L1200.38 94.0615Z" fill="#E6965F"/>
<path d="M1197.69 89.3963C1197.69 89.3963 1196.23 82.129 1195.21 79.9282C1194.2 77.7273 1193.35 67.9084 1204.63 67.3996C1204.63 67.3996 1208.95 67.9084 1211.32 66.4697C1211.32 66.4697 1211.32 67.9084 1210.74 68.4191C1212.01 68.1958 1213.32 68.3046 1214.54 68.7349C1215.76 69.1653 1216.84 69.9025 1217.69 70.8753C1220.74 74.2614 1215.66 86.1116 1215.91 88.905L1197.69 89.3963Z" fill="#2D133B"/>
<path d="M1206.78 97.4688C1203.51 97.4123 1197.49 93.0613 1197.49 87.6771V79.2714C1197.49 77.3045 1198.85 75.6963 1200.54 75.6963H1213.02C1214.7 75.6963 1216.07 77.3045 1216.07 79.2714V87.2015C1216.07 92.8488 1210.53 97.5351 1206.78 97.4688Z" fill="#EBAF7D"/>
<path d="M1197.49 83.7581C1197.49 83.7581 1197.5 78.7092 1201.51 77.9314C1205.52 77.1536 1214.48 80.3934 1215.76 76.7111C1217.04 73.0287 1198.42 73.1008 1197.49 75.4401C1196.55 77.7793 1197.49 83.7581 1197.49 83.7581Z" fill="#2D133B"/>
<path d="M1211.45 171.273C1213.46 165.035 1213.42 197.087 1205.37 233.138C1204.14 238.639 1201.38 251.907 1199.41 264.747H1182.9C1182.67 254.379 1181.56 239.905 1180.86 229.062C1178.66 195.081 1184.27 169.579 1184.27 169.579L1211.45 171.273Z" fill="#4FB7EB"/>
<path d="M1232.63 229.062C1232.45 239.452 1230.34 253.256 1230.14 263.371H1213.4C1212.28 256.026 1210.49 248.464 1209.21 242.363C1208.29 238.031 1207.63 234.436 1207.65 232.177C1207.67 227.764 1204.87 215.038 1203.2 203.818C1203.2 203.8 1203.2 203.787 1203.2 203.773C1203.14 203.342 1203.08 202.909 1203.01 202.484C1200.78 186.71 1201.57 171.271 1201.57 171.271L1229.81 169.517C1229.81 169.517 1233.12 201.35 1232.63 229.062Z" fill="#4FB7EB"/>
<path d="M1182.02 182.656C1182.02 182.656 1188.38 190.347 1205.64 189.237C1222.91 188.128 1231.15 185.126 1231.15 185.126L1182.02 182.656Z" fill="#538C9F"/>
<path d="M1231.15 185.118C1225.51 185.884 1187.14 187.874 1182.02 182.648C1176.9 177.422 1190.37 106.127 1190.37 106.127C1190.37 106.127 1191.9 105.687 1194.47 105.201C1195.78 104.956 1197.37 104.698 1199.16 104.484C1199.18 105.04 1199.62 113.451 1206.61 116.917C1206.61 116.917 1215.01 113.56 1214.18 104.621C1214.18 104.515 1214.16 104.414 1214.15 104.314C1215.27 104.433 1216.4 104.589 1217.54 104.786C1219.9 105.184 1222.22 105.759 1224.49 106.504C1224.49 106.504 1236.78 184.354 1231.15 185.118Z" fill="#496087"/>
<path d="M1182.34 148.31C1182.12 148.607 1183.65 150.8 1185.81 153.622C1190.25 159.416 1197.35 167.853 1197.35 167.853C1197.31 169.432 1197.15 171.005 1196.85 172.557C1187.09 167.952 1180.5 163.648 1176.13 160.19C1169.98 155.316 1168.22 152.137 1168.22 152.137C1178.07 110.502 1190.72 106.167 1190.72 106.167L1194.85 131.255C1194.85 131.255 1183.04 147.408 1182.34 148.31Z" fill="#496087"/>
<path d="M1217.54 104.786L1215 112.506L1211.61 117.475L1206.75 120.108L1202.17 117.475L1194.47 105.194C1195.79 104.948 1197.37 104.691 1199.16 104.476C1199.18 105.032 1199.62 113.443 1206.61 116.909C1206.61 116.909 1215.01 113.553 1214.19 104.613C1214.19 104.507 1214.16 104.406 1214.15 104.307C1215.27 104.433 1216.4 104.589 1217.54 104.786Z" fill="#E69649"/>
<path d="M1197.35 167.851C1197.35 167.93 1197.35 168.01 1197.34 168.088C1197.32 168.617 1197.28 169.11 1197.25 169.556C1197 169.894 1196.73 170.213 1196.44 170.509C1196 170.945 1195.53 171.332 1195.01 171.663C1194.76 171.547 1194.52 171.426 1194.27 171.305C1185.92 167.174 1180.1 163.33 1176.12 160.193C1178.64 159.414 1182.17 157.646 1185.79 153.626C1190.25 159.416 1197.35 167.851 1197.35 167.851Z" fill="#EBAF7D"/>
<path d="M1245.8 150.603C1245.8 150.603 1244.1 153.825 1238.05 158.806C1233.74 162.346 1227.23 166.777 1217.56 171.564C1217.24 170.019 1217.04 168.449 1216.98 166.872C1216.98 166.872 1223.92 158.305 1228.25 152.427C1230.35 149.566 1231.84 147.341 1231.6 147.051C1231.05 146.359 1223.65 136.635 1220.34 132.298L1218.78 130.234L1222.96 105.568C1222.96 105.568 1235.15 109.165 1245.8 150.603Z" fill="#496087"/>
<path d="M1238.05 158.806C1234.12 162.034 1228.35 166.003 1220.03 170.307L1219.4 170.627C1218.34 169.346 1217.7 167.822 1217.3 166.461C1217.44 166.288 1217.62 166.062 1217.84 165.791C1219.84 163.307 1224.84 157.034 1228.24 152.418C1231.94 156.375 1235.51 158.077 1238.05 158.806Z" fill="#EBAF7D"/>
<path d="M1214.15 104.315C1209.16 103.813 1204.13 103.87 1199.16 104.484C1199.16 104.475 1199.16 104.465 1199.16 104.455C1199.16 104.455 1213.03 95.8877 1214.15 104.315Z" fill="#EBAF7D"/>
<path d="M1200.23 128.546H1199.95L1199.74 115.192H1200.46L1200.23 128.546Z" fill="#B9D2FC"/>
<path d="M1199.92 128.199C1199.66 128.589 1199.08 129.881 1199.46 130.018C1199.85 130.154 1200.53 130.162 1200.71 129.981C1200.9 129.799 1200.41 127.462 1199.92 128.199Z" fill="#E69649"/>
<path d="M1213.37 128.546H1213.08L1212.87 115.192H1213.59L1213.37 128.546Z" fill="#B9D2FC"/>
<path d="M1213.05 128.199C1212.79 128.589 1212.21 129.881 1212.6 130.018C1212.99 130.154 1213.66 130.162 1213.85 129.981C1214.03 129.799 1213.55 127.462 1213.05 128.199Z" fill="#E69649"/>
<path d="M1202.17 117.475L1190.37 106.128C1190.37 106.128 1187.72 104.245 1191.92 101.432C1196.11 98.6187 1202.17 117.475 1202.17 117.475Z" fill="#DA711D"/>
<path d="M1211.61 117.475L1223.41 106.128C1223.41 106.128 1226.06 104.245 1221.86 101.432C1217.67 98.6187 1211.61 117.475 1211.61 117.475Z" fill="#DA711D"/>
<path d="M1226.41 172.714C1224.12 172.909 1222.2 172.334 1220.72 171.014C1220.47 170.794 1220.24 170.557 1220.03 170.306C1218.86 168.942 1218.21 167.234 1217.84 165.79C1217.59 164.816 1217.43 163.819 1217.38 162.815L1217.37 162.481H1198.32L1198.34 162.836C1198.41 164.881 1198.08 166.637 1197.35 168.08C1196.99 168.795 1196.52 169.448 1195.96 170.014C1195.46 170.514 1194.9 170.945 1194.28 171.296C1191.73 172.772 1188.89 172.714 1188.86 172.714L1188.51 172.702V180.739H1226.79V172.69L1226.41 172.714Z" fill="#364172"/>
<path d="M1231.6 147.051C1231.6 147.051 1220.98 133.136 1229.39 129.087C1232.73 127.479 1237.42 146.571 1234.91 148.367C1232.39 150.162 1228.24 152.425 1228.24 152.425L1231.6 147.051Z" fill="#364172"/>
<path d="M1183.57 144.756C1183.57 144.756 1187.26 127.288 1184.02 129.087C1180.78 130.886 1175.98 146.571 1178.5 148.366C1181.02 150.162 1185.17 152.425 1185.17 152.425L1183.57 144.756Z" fill="#364172"/>
<path d="M1230.11 147.01C1225.27 140.998 1223.45 131.238 1223.7 121.167C1223.89 113.604 1224.93 106.779 1225 106.547L1228.98 109.633C1228.96 109.689 1226.69 113.828 1226.52 121.187C1226.36 127.918 1226.04 133.041 1229.85 144.756L1230.11 147.01Z" fill="#BA3F3F"/>
<path d="M1193.29 268.465H1184.75C1183.99 268.551 1182.81 267.445 1182.81 265.864C1182.81 265.864 1182.79 262.075 1182.54 261.4C1181.44 258.447 1183.08 258.281 1184.66 258.281H1200.25C1201.83 258.281 1199.41 263.166 1199.41 264.747L1199.97 266.819C1199.97 268.4 1194.88 268.465 1193.29 268.465Z" fill="#538C9F"/>
<path d="M1195.85 272.452L1193.52 282.246H1186.23L1185.79 272.863C1186.88 273.261 1190.54 274.277 1195.85 272.452Z" fill="#538C9F"/>
<path d="M1215.39 265.065L1217.15 272.34L1219.48 281.988H1226.77L1227.2 272.746L1227.54 265.619L1215.39 265.065Z" fill="#EBAF7D"/>
<path d="M1219.71 268.465H1228.25C1229 268.551 1230.19 267.445 1230.19 265.864C1230.19 265.864 1230.21 262.075 1230.46 261.4C1231.56 258.447 1229.92 258.281 1228.34 258.281H1212.75C1211.17 258.281 1213.59 263.166 1213.59 264.747L1213.03 266.819C1213.03 268.4 1218.12 268.465 1219.71 268.465Z" fill="#538C9F"/>
<path d="M1217.15 272.452L1219.49 282.246H1226.78L1227.21 272.863C1226.12 273.261 1222.46 274.277 1217.15 272.452Z" fill="#538C9F"/>
<path d="M854.6 74.4299C854.024 73.8061 852.741 73.1004 851.053 72.5234C854.02 71.192 856.545 69.6208 854.799 68.6617C854.044 68.2465 853.142 68.305 852.193 68.648C853.653 67.1724 854.358 65.9033 852.933 65.57C850.768 65.0632 848.515 67.8488 846.941 70.4181C847.962 68.2153 848.487 66.032 846.586 65.9989C844.393 65.9618 843.964 68.8683 844.003 71.3791L843.456 71.3908C842.839 68.611 841.64 65.1528 839.596 66.0788C838.567 66.5427 838.604 67.5408 839.143 68.6929C838.167 67.9521 837.222 67.6967 836.463 68.4804C835.305 69.6754 836.728 71.0926 838.61 72.2797C837.251 72.7582 835.993 73.4854 834.901 74.424C828.516 79.9914 835.486 92.598 835.486 92.598L853.714 92.1321C859.422 83.0597 856.668 76.6755 854.6 74.4299Z" fill="#2D133B"/>
<path d="M836.008 161.213L825.121 162.577C817.962 163.478 811.492 159.357 810.744 153.415L806.601 120.615C805.851 114.677 808.985 109.999 816.183 109.699C820.447 109.523 827.566 108.585 835.221 106.041C842.009 103.786 842.769 110.026 843.518 115.962L847.659 148.766C848.409 154.709 843.165 160.304 836.008 161.213Z" fill="#364172"/>
<path d="M821.611 294C821.611 294 821.611 290.505 822.111 289.343C822.61 288.181 824.444 283.448 824.444 283.448H831.595C831.595 283.448 832.925 287.764 833.009 289.177C833.093 290.591 833.009 294 833.009 294H821.611Z" fill="#364172"/>
<path d="M867.019 294C867.019 294 867.019 290.505 866.52 289.343C866.02 288.181 864.192 283.448 864.192 283.448H857.049C857.049 283.448 855.717 287.764 855.635 289.177C855.553 290.591 855.635 294 855.635 294H867.019Z" fill="#364172"/>
<path d="M838.368 97.7923C838.368 97.7923 838.116 105.576 837.119 109.064L829.221 114.565L858.95 119.007L851.859 109.225C851.859 109.225 849.711 98.7884 850.842 94.9286C851.972 91.0689 838.368 97.7923 838.368 97.7923Z" fill="#B46F40"/>
<path d="M838.325 98.8662C838.325 98.8662 840.668 104.519 845.104 104.393C849.54 104.266 850.539 99.2697 850.539 99.2697L838.325 98.8662Z" fill="#98592E"/>
<path d="M844.596 102.21C841.388 102.153 835.482 97.8881 835.482 92.6053V84.3614C835.482 82.4335 836.83 80.8525 838.475 80.8525H850.717C852.363 80.8525 853.71 82.4315 853.71 84.3614V92.1394C853.71 97.6775 848.276 102.274 844.596 102.21Z" fill="#B46F40"/>
<path d="M822.507 172.938C822.507 172.938 823.758 211.088 821.888 232.854C820.017 254.621 821.901 284.914 821.901 284.914C821.901 284.914 827.885 288.209 834.371 284.914C834.371 284.914 841.486 242.862 841.439 232.854C841.392 222.197 849.182 174.601 849.182 174.601L822.507 172.938Z" fill="#496087"/>
<path d="M866.761 284.914C866.761 284.914 860.777 288.208 854.292 284.914C854.292 284.914 847.179 242.862 847.224 232.854C847.244 228.353 845.867 217.259 844.268 205.953C842.08 190.481 839.477 174.601 839.477 174.601L867.185 172.872C867.185 172.872 864.901 211.08 866.771 232.854C868.642 254.629 866.761 284.914 866.761 284.914Z" fill="#496087"/>
<path d="M861.966 111.071V111.089C858.641 110.249 855.265 109.626 851.859 109.225C849.1 112.884 847.118 113.734 844.596 114.73C840.539 114.171 837.118 109.178 837.118 109.063C831.226 109.666 827.89 110.904 827.89 110.904C825.646 111.843 822.704 129.337 822.243 139.055C822.187 140.275 822.167 141.37 822.194 142.298C822.435 150.632 822.78 158.731 821.695 167.704C820.281 179.494 822.671 179.286 822.671 179.286C822.671 179.286 825.892 179.915 830.389 180.51C834.455 181.054 839.565 181.568 844.262 181.568C855.039 181.568 866.851 179.286 866.851 179.286C870.252 179.327 865.898 158.158 865.262 145.423C865.115 142.466 864.979 139.77 864.85 137.298C868.934 140.807 880.951 147.213 881.224 148.02C881.224 148.02 878.602 152.8 877.806 155.347C874.746 165.129 869.485 171.595 869.485 171.595C870.201 174.309 870 175.512 870 175.512C878.323 168.983 883.688 163.426 887.115 159.168C891.929 153.178 892.917 149.743 892.917 149.743C874.391 112.089 861.966 111.071 861.966 111.071Z" fill="#74AABC"/>
<path d="M830.394 180.512C825.904 179.927 822.677 179.288 822.677 179.288C822.677 179.288 820.281 179.496 821.7 167.707C822.776 158.739 822.44 150.634 822.2 142.3C822.173 141.372 822.2 140.277 822.249 139.057C822.938 140.158 830.613 152.533 832.679 161.728C834.176 168.426 831.909 176.336 830.394 180.512Z" fill="#568C99"/>
<path d="M847.224 232.854C847.243 228.353 845.867 217.259 844.268 205.953C845.928 199.196 849.969 192.697 849.969 192.697C855.082 207.023 847.224 232.854 847.224 232.854Z" fill="#364172"/>
<path d="M869.491 171.605C869.491 171.605 865 167.454 863.171 169.778C861.342 172.102 861.008 175.757 862.421 175.507C863.835 175.258 866.746 173.93 867.162 174.595C867.578 175.26 869.44 176.529 870.006 175.521C870.573 174.513 869.491 171.605 869.491 171.605Z" fill="#B46F40"/>
<path d="M869.491 171.605C870.207 174.319 870.006 175.522 870.006 175.522C878.327 168.993 883.694 163.436 887.119 159.178C884.538 158.983 882.15 158.412 877.812 155.357C874.229 166.268 869.491 171.605 869.491 171.605Z" fill="#B46F40"/>
<path d="M880.194 147.186C879.526 146.633 868.854 140.765 864.813 137.26C864.813 137.26 868.847 134.241 871.342 138.642C873.837 143.044 880.194 147.186 880.194 147.186Z" fill="#568C99"/>
<path d="M892.923 149.753C892.923 149.753 891.935 153.188 887.121 159.178C881.547 159.1 892.923 149.753 892.923 149.753Z" fill="#568C99"/>
<path d="M835.482 87.7045C835.482 87.7045 837.708 80.9167 845.006 81.9753C852.304 83.0338 852.935 84.5913 853.71 86.3964C854.485 88.2015 855.982 79.7959 855.982 79.7959L847.376 77.2422C847.376 77.2422 836.96 78.4255 836.213 80.1662L835.463 81.909L835.482 87.7045Z" fill="#2D133B"/>
<path d="M822.315 160.02L822.44 154.235C830.697 147.973 834.057 140.554 834.375 127.723C834.615 117.992 831.341 110.056 831.318 109.984C831.318 109.984 832.78 109.635 833.27 109.547C833.807 109.456 835.451 109.269 835.451 109.269C835.551 109.608 837.725 117.518 837.487 127.719C837.175 141.384 831.257 153.24 822.315 160.02Z" fill="#496087"/>
<path d="M845.209 158.345C842.419 158.764 828.128 162.076 817.942 163.359C812.2 164.082 807.762 164.164 807.421 162.72C806.472 158.714 809.695 133.194 814.82 122.923C819.945 112.652 829.438 110.432 829.438 110.432L832.138 126.695L818.407 154L821.751 154.06L844.695 154.468L845.209 158.345Z" fill="#74AABC"/>
<path d="M853.21 148.199H846.433C846.25 148.199 846.101 148.348 846.101 148.531V159.469C846.101 159.652 846.25 159.8 846.433 159.8H853.21C853.393 159.8 853.542 159.652 853.542 159.469V148.531C853.542 148.348 853.393 148.199 853.21 148.199Z" fill="#364172"/>
<path d="M853.21 149.132H846.433C846.25 149.132 846.101 149.28 846.101 149.463V160.401C846.101 160.584 846.25 160.733 846.433 160.733H853.21C853.393 160.733 853.542 160.584 853.542 160.401V149.463C853.542 149.28 853.393 149.132 853.21 149.132Z" fill="#496087"/>
<path d="M842.015 155.365C842.015 155.365 849.563 150.172 852.039 151.975C854.514 153.778 854.711 158.077 844.448 158.431L842.015 155.365Z" fill="#B46F40"/>
<path d="M845.209 158.345C842.419 158.764 828.128 162.076 817.942 163.359C818.835 159.02 820.238 156.068 821.751 154.059L844.696 154.466L845.209 158.345Z" fill="#B46F40"/>
<path d="M852.595 88.4469C852.376 88.2008 852.104 88.0065 851.8 87.878C851.497 87.7496 851.168 87.6902 850.838 87.7042H847.172C846.473 87.7042 845.985 87.8991 845.721 88.3007C845.604 88.4837 845.533 88.6924 845.514 88.9089C844.975 88.7861 844.414 88.7962 843.88 88.9381C843.865 88.7115 843.793 88.4923 843.671 88.3007C843.407 87.9108 842.919 87.7042 842.22 87.7042H838.546C838.216 87.69 837.888 87.7493 837.584 87.8778C837.28 88.0063 837.008 88.2007 836.789 88.4469C836.612 88.672 836.489 88.9344 836.43 89.2142C836.37 89.4939 836.375 89.7836 836.445 90.061C836.865 92.1332 839.257 92.4002 840.452 92.4002C840.819 92.4002 841.074 92.3749 841.121 92.371C842.24 92.371 843.027 91.7316 843.599 90.367C843.752 90.0084 843.847 89.6272 843.878 89.2383C844.405 89.0876 844.963 89.0761 845.496 89.2052C845.523 89.6083 845.618 90.0039 845.778 90.3748C846.35 91.7394 847.144 92.3749 848.255 92.3788C848.302 92.3788 848.556 92.408 848.925 92.408C850.12 92.408 852.511 92.1429 852.929 90.0688C853.002 89.791 853.009 89.5002 852.951 89.219C852.894 88.9378 852.772 88.6736 852.595 88.4469ZM843.382 90.2715C842.851 91.5367 842.133 92.1273 841.121 92.1273H841.106C840.425 92.1926 839.739 92.1605 839.067 92.0318C837.701 91.755 836.904 91.0766 836.689 90.0122C836.627 89.77 836.621 89.5166 836.671 89.2717C836.722 89.0267 836.828 88.7965 836.982 88.599C837.178 88.3818 837.42 88.2106 837.69 88.0977C837.96 87.9848 838.252 87.9329 838.544 87.9459H842.218C842.831 87.9459 843.251 88.1097 843.468 88.4333C843.575 88.6051 843.634 88.8022 843.64 89.0044C843.53 89.0386 843.423 89.0789 843.318 89.1253C843.3 89.1331 843.284 89.1443 843.27 89.1584C843.257 89.1726 843.247 89.1892 843.24 89.2074C843.233 89.2256 843.23 89.245 843.231 89.2644C843.232 89.2838 843.237 89.3028 843.245 89.3202C843.257 89.3452 843.276 89.3663 843.3 89.3811C843.323 89.3959 843.35 89.4039 843.378 89.404C843.399 89.4042 843.42 89.3995 843.439 89.3904C843.439 89.3904 843.515 89.3573 843.634 89.3163C843.596 89.645 843.511 89.9667 843.382 90.2715ZM852.699 90.0122C852.484 91.0766 851.684 91.755 850.319 92.0318C849.647 92.1604 848.961 92.1926 848.281 92.1273H848.263C847.252 92.1273 846.533 91.5425 846.002 90.2715C845.869 89.9577 845.784 89.6259 845.748 89.2871C845.817 89.3144 845.887 89.3475 845.957 89.3826C845.974 89.3918 845.992 89.3976 846.011 89.3996C846.03 89.4016 846.049 89.3998 846.067 89.3944C846.085 89.3889 846.102 89.3799 846.117 89.3678C846.132 89.3558 846.144 89.3409 846.152 89.3241C846.161 89.3074 846.167 89.289 846.169 89.2701C846.17 89.2513 846.168 89.2322 846.163 89.2141C846.157 89.196 846.148 89.1792 846.136 89.1646C846.124 89.1501 846.109 89.138 846.092 89.1292C845.981 89.0696 845.864 89.0201 845.744 88.981C845.754 88.7868 845.813 88.5982 845.916 88.4333C846.133 88.1097 846.553 87.9459 847.166 87.9459H850.84C851.133 87.9329 851.424 87.9848 851.694 88.0977C851.964 88.2106 852.206 88.3818 852.402 88.599C852.556 88.7963 852.663 89.0262 852.715 89.2711C852.767 89.516 852.762 89.7695 852.701 90.0122H852.699Z" fill="#2C3A64"/>
<path d="M841.66 96.8833C841.66 96.8833 845.697 96.4427 847.575 96.8833C847.575 96.8833 846.578 98.5188 844.938 98.5188C843.298 98.5188 842.06 97.9184 841.66 96.8833Z" fill="#F9EDE4"/>
<path d="M1027.05 84.2125C1025.08 83.5653 1022.95 83.8811 1021.48 84.2671C1021.78 83.7973 1022.5 83.5029 1022.5 83.5029C1021.55 83.5517 1019.69 84.8675 1019.69 84.8675C1005.93 82.5282 1007.71 101.7 1008.86 106.008C1010.01 110.317 1003.36 122.802 998.773 128.894C985.905 145.986 1006.48 163.788 1006.48 163.788C1023.16 177.782 1015.58 150.649 1015.58 150.649C1014.55 147.189 1027.08 125.307 1034.45 118.032C1035.91 114.576 1035.56 109.065 1035.53 108.623C1036.03 112.954 1035.78 115.488 1035.4 116.966C1041.26 108.905 1032.26 85.9202 1027.05 84.2125Z" fill="#2D133B"/>
<path d="M1061.29 147.225C1061.29 149.077 1060.36 151.452 1059.03 153.894C1055.71 159.986 1049.91 166.518 1049.91 166.518L1046.54 161.738C1046.54 161.738 1048.59 156.67 1049.94 152.498C1050.76 149.988 1051.32 147.8 1051.05 147.235C1050.31 145.699 1035.75 128.504 1035.75 128.504L1031.8 115.199C1031.8 115.199 1041.48 115.71 1045.61 121.739C1049.73 127.769 1061.29 142.231 1061.29 147.225Z" fill="#D24A32"/>
<path d="M1059.02 153.895C1055.71 159.987 1049.91 166.519 1049.91 166.519L1046.54 161.739C1046.54 161.739 1048.59 156.671 1049.94 152.499C1051.57 153.462 1054.4 154.39 1059.02 153.895Z" fill="#EBAF7D"/>
<path d="M1018.78 267.142L1022.27 281.793L1027.49 281.762L1027.68 267.142H1018.78Z" fill="#EBAF7D"/>
<path d="M1062.68 267.765L1072.59 281.793L1076.46 276.839L1070.49 265.837L1062.68 267.765Z" fill="#EBAF7D"/>
<path d="M1032.49 119.485C1032.54 119.505 1028.31 121.698 1025.13 120.828C1022.13 120.013 1020.18 116.15 1020.22 116.132C1021.49 115.881 1021.85 114.142 1021.82 106.672L1022.4 106.785L1032.03 108.689C1032.03 108.689 1031.81 111.715 1031.8 114.567C1031.8 116.963 1031.94 119.23 1032.49 119.485Z" fill="#EBAF7D"/>
<path d="M1017.04 89.4175C1017.04 89.4175 1020.7 83.5304 1027.5 87.051C1027.49 87.051 1023.98 87.1485 1017.04 89.4175Z" fill="#60A9B5"/>
<path d="M1032.03 108.689C1032.03 108.689 1031.81 111.714 1031.8 114.566C1026.41 114.414 1023.57 109.498 1022.4 106.784L1032.03 108.689Z" fill="#E79C67"/>
<path d="M1020.41 107.122C1020.41 107.122 1016.77 103.311 1015.34 99.7146C1014.33 97.1434 1013.69 86.9852 1023.93 86.4063C1025.99 86.2812 1028.05 86.6189 1029.96 87.3946C1032.42 88.4161 1036.17 90.9347 1034.42 100.26L1034.11 103.356L1020.41 107.122Z" fill="#2D133B"/>
<path d="M1075.53 273.635C1075.53 273.635 1072.97 274.075 1070.87 274.235C1070.4 274.27 1069.96 274.292 1069.57 274.292C1068.56 274.292 1066.73 273.912 1065.51 273.627L1065.42 273.606C1064.88 273.479 1064.47 273.374 1064.32 273.335L1064.26 273.319C1064.26 273.319 1051.49 259.13 1044.34 236.384C1044.17 235.854 1044 235.32 1043.81 234.778C1039.89 223.37 1031.77 209.046 1027.49 196.089C1026.81 194.027 1026.19 192.077 1025.65 190.241C1025.47 189.656 1025.3 189.071 1025.14 188.506C1021.98 177.56 1021.07 170.377 1020.23 162.696L1045.97 169.234C1045.97 169.234 1056.76 216.01 1075.53 273.635Z" fill="#4FB7EB"/>
<path d="M1033.71 110.209C1033.71 110.209 1021.26 112.938 1019.68 105.158C1018.1 97.3779 1015.43 92.5025 1023.32 90.4362C1031.21 88.3698 1033.36 91.021 1034.51 93.4889C1035.67 95.9568 1036.91 109.3 1033.71 110.209Z" fill="#EBAF7D"/>
<path d="M1028.97 89.0994C1028.97 89.0994 1027.39 98.9086 1022.41 101.314C1017.43 103.72 1014.87 102.774 1014.87 102.774C1014.87 102.774 1018.25 98.7682 1017.96 93.0273C1017.96 93.0215 1025.51 85.2786 1028.97 89.0994Z" fill="#2D133B"/>
<path d="M1028.27 90.0115C1028.27 90.0115 1031.24 91.532 1032.26 93.3878C1033.28 95.2436 1034.39 99.2593 1035.55 98.8831C1035.55 98.8831 1036.88 92.1636 1033.27 89.2395C1029.44 86.14 1028.27 90.0115 1028.27 90.0115Z" fill="#2D133B"/>
<path d="M1022.09 280.975C1022.31 283.001 1022.08 285.05 1021.43 286.981C1021.43 286.981 1020.57 290.866 1024.41 290.94C1028.24 291.014 1029.18 290.649 1028.75 288.267C1028.31 285.885 1027.49 281.762 1027.49 281.762L1022.09 280.975Z" fill="#EBAF7D"/>
<path d="M1021.44 286.98C1021.44 286.98 1020.59 291.062 1021.02 293.012C1021.02 293.012 1022.32 293.466 1025.1 293.466C1027.74 293.466 1029.29 293.012 1029.29 293.012C1029.29 293.012 1029.2 288.579 1028.49 286.881C1028.48 286.881 1025.77 290.953 1021.44 286.98Z" fill="#364172"/>
<path d="M1085.69 288.657C1085.69 288.657 1078.63 280.824 1076.46 276.84L1071.2 279.528L1082.95 290.542L1085.7 290.179L1085.69 288.657Z" fill="#EBAF7D"/>
<path d="M1090.18 293.246C1090.18 293.246 1082.59 293.246 1081.29 293.102C1079.99 292.957 1078.94 291.08 1077.53 288.263C1076.94 287.111 1075.66 286.478 1074.33 286.119L1074.35 293.002H1072.26L1070.42 285.708C1069.17 283.413 1070.32 281.331 1071.2 279.519C1072.23 279.519 1074.98 280.214 1080.2 286.088C1081.92 288.016 1083.81 288.704 1085.69 288.647L1085.77 288.688C1090.11 290.651 1090.18 293.246 1090.18 293.246Z" fill="#364172"/>
<path d="M1070.87 274.235C1070.4 274.271 1069.96 274.292 1069.57 274.292C1068.56 274.292 1066.73 273.912 1065.51 273.627L1065.42 273.606L1064.32 273.335L1064.26 273.319C1064.26 273.319 1051.49 259.13 1044.34 236.385C1044.17 235.854 1044 235.32 1043.81 234.778C1039.89 223.371 1031.77 209.047 1027.49 196.089C1026.81 194.027 1026.19 192.077 1025.65 190.241C1025.47 189.656 1025.3 189.071 1025.14 188.506L1029.69 185.056C1029.69 185.056 1043.36 207.152 1047.59 227.942C1051.08 245.184 1066.18 267.53 1070.87 274.235Z" fill="#538C9F"/>
<path d="M1030.16 229.885C1030.23 239.996 1029.72 263.244 1028.4 272.87C1028.4 272.87 1027.15 273.976 1024.04 273.989C1020.87 274.003 1019.45 272.831 1019.45 272.831C1016.13 256.096 1013.79 242.25 1012.07 230.318C1010.66 220.526 1009.42 212.132 1008.45 204.904C1007.6 198.502 1006.98 193.012 1006.68 188.281C1006.64 187.64 1006.6 187.01 1006.57 186.398C1006.54 185.587 1006.51 184.798 1006.49 184.036C1006.48 183.273 1006.47 182.517 1006.48 181.792L1006.59 181.78L1012.98 181.158L1033.19 179.191C1032.85 196.909 1030.11 224.007 1030.16 229.885Z" fill="#4FB7EB"/>
<path d="M1024.05 273.99C1022.43 274.083 1020.83 273.679 1019.45 272.832C1016.13 256.097 1013.79 242.25 1012.07 230.318C1010.67 220.527 1009.42 212.133 1008.46 204.904C1007.61 198.503 1006.98 193.013 1006.68 188.282C1006.65 185.943 1006.62 183.719 1006.59 181.781C1006.57 179.843 1006.53 178.157 1006.48 177.001L1012.99 181.159L1019.84 185.533C1019.84 185.533 1010.11 194.352 1012.51 211.039C1014.91 227.726 1020.73 271.627 1024.05 273.99Z" fill="#538C9F"/>
<path d="M1049.51 183.721C1041.76 185.73 1005.59 189.701 1005.28 180.656C1005.2 178.449 1005.28 175.783 1005.45 172.902C1005.99 163.968 1007.46 152.926 1008.17 146.852C1008.49 144.068 1007.42 131.596 1008.24 124.799C1008.33 123.921 1008.5 123.052 1008.74 122.202C1010.3 117.074 1017.33 115.684 1020.92 115.561L1031.8 115.19C1031.8 115.19 1043.03 127.713 1044.59 131.565C1046.15 135.417 1046.66 148.583 1047.87 154.958C1049.09 161.332 1053.28 182.742 1049.51 183.721Z" fill="#D24A32"/>
<path d="M1028.15 153.153C1028.15 153.153 1022.1 171.688 1005.45 172.9C1005.99 163.967 1007.46 152.925 1008.17 146.851C1008.49 144.067 1007.42 131.595 1008.24 124.798C1008.46 124.845 1008.65 124.966 1008.88 125.008C1027.21 128.545 1029.82 149.288 1028.15 153.153Z" fill="#B03321"/>
<path d="M1042.9 134.449L1023.59 132.396L1020.46 161.739L1039.77 163.793L1042.9 134.449Z" fill="#E7B62C"/>
<path d="M1023.59 132.393L1022.35 132.296L1019.44 161.616L1020.46 161.737L1023.59 132.393Z" fill="#DA711D"/>
<path d="M1007.31 145.386C1007.31 145.386 1020.93 149.542 1033.95 151.401C1033.95 151.401 1038.25 153.257 1036.23 153.764C1035.72 153.895 1009.64 159.571 1005.78 155.887L1007.31 145.386Z" fill="#EBAF7D"/>
<path d="M1020.92 115.561C1020.92 115.561 1013.76 115.6 1010.7 119.083C1005.12 125.442 1004.01 152.491 1005.77 155.887C1006.53 157.349 1012.35 157.466 1014.8 150.394C1016.07 146.725 1021.62 122.225 1020.92 115.561Z" fill="#D24A32"/>
<path d="M1032.67 151.211C1032.67 151.211 1034.27 151.062 1034.58 150.552C1035.18 149.53 1036.14 149.544 1036.94 149.407C1037.75 149.271 1038.64 148.398 1038.8 148.575C1038.96 148.752 1038.22 149.715 1037.79 150.074C1037.79 150.074 1038.65 150.127 1039.22 149.856C1039.79 149.585 1041.52 147.351 1041.8 148.296C1042.51 150.77 1041.77 153.148 1039.78 153.343C1037.63 153.55 1032.31 154.575 1032.31 154.575L1032.67 151.211Z" fill="#EBAF7D"/>
<path d="M1099.61 162.698C1089.43 160.113 1078.25 144.349 1078.25 144.349L1081.12 141.867C1084.08 145.36 1096.42 151.374 1096.42 151.374C1096.35 148.179 1096.44 145.263 1096.64 142.602C1098 124.57 1104.82 118.562 1106.67 117.245C1106.82 117.134 1106.98 117.032 1107.15 116.94C1107.15 116.94 1107.15 117.071 1107.16 117.33C1107.19 117.866 1107.24 118.946 1107.29 120.428C1107.66 131.461 1108.11 164.862 1099.61 162.698Z" fill="#D7915C"/>
<path d="M1081.11 141.867C1081.07 141.442 1080.78 135.239 1079.55 134.069C1078.31 132.9 1075.88 131.284 1075.18 131.413C1074.48 131.541 1072.11 135.489 1073.23 138.204C1074.35 140.92 1078.25 144.349 1078.25 144.349L1081.11 141.867Z" fill="#D7915C"/>
<path d="M1083.64 142.589L1076.94 142.867C1076.89 142.87 1076.83 142.861 1076.78 142.843C1076.73 142.825 1076.69 142.796 1076.65 142.76C1076.61 142.724 1076.58 142.68 1076.55 142.632C1076.53 142.583 1076.52 142.531 1076.52 142.477L1075.98 129.717C1075.98 129.664 1075.99 129.611 1076.01 129.561C1076.03 129.511 1076.06 129.465 1076.09 129.426C1076.13 129.387 1076.17 129.356 1076.22 129.334C1076.27 129.312 1076.32 129.299 1076.37 129.298L1083.07 129.017C1083.13 129.015 1083.18 129.023 1083.23 129.041C1083.28 129.06 1083.33 129.088 1083.37 129.124C1083.41 129.16 1083.44 129.204 1083.46 129.253C1083.48 129.301 1083.49 129.354 1083.49 129.407L1084.03 142.167C1084.03 142.221 1084.02 142.274 1084.01 142.324C1083.99 142.374 1083.96 142.42 1083.92 142.459C1083.89 142.499 1083.84 142.53 1083.79 142.552C1083.74 142.574 1083.69 142.587 1083.64 142.589Z" fill="#E7B62C"/>
<path d="M1081.9 142.66L1075.82 142.914C1075.73 142.918 1075.63 142.903 1075.54 142.871C1075.46 142.839 1075.37 142.79 1075.31 142.727C1075.24 142.663 1075.18 142.587 1075.14 142.502C1075.1 142.417 1075.08 142.325 1075.08 142.231L1074.57 130.093C1074.56 129.999 1074.58 129.905 1074.61 129.817C1074.64 129.729 1074.69 129.648 1074.75 129.579C1074.82 129.51 1074.89 129.455 1074.98 129.415C1075.07 129.376 1075.16 129.354 1075.25 129.35L1081.33 129.096C1081.42 129.092 1081.52 129.107 1081.61 129.139C1081.69 129.171 1081.77 129.22 1081.84 129.283C1081.91 129.346 1081.97 129.423 1082.01 129.508C1082.05 129.593 1082.07 129.685 1082.07 129.779L1082.58 141.917C1082.59 142.106 1082.52 142.291 1082.39 142.43C1082.27 142.569 1082.09 142.652 1081.9 142.66Z" fill="#DA711D"/>
<path d="M1074.68 131.884C1074.68 131.884 1076.5 129.847 1078.33 131.405C1080.16 132.962 1078.21 136.278 1076.62 137.193C1075.04 138.107 1074.53 138.575 1074.53 138.575L1074.68 131.884Z" fill="#D7915C"/>
<path d="M1121.77 267.535C1121.15 269.997 1120.47 272.34 1119.77 274.521C1119.62 274.987 1119.48 275.449 1119.33 275.898L1119.11 276.561C1118.96 276.991 1118.81 277.416 1118.67 277.83C1118.47 278.37 1118.3 278.896 1118.11 279.405C1117.97 279.783 1117.84 280.153 1117.7 280.514C1115.64 286.04 1113.91 289.543 1113.91 289.543L1109.8 289.261C1109.8 289.261 1111.34 281.927 1111.65 271.424C1111.65 271.05 1111.67 270.671 1111.68 270.289C1111.69 269.475 1111.7 268.644 1111.7 267.798C1111.7 267.451 1111.7 267.098 1111.7 266.743C1111.62 257.698 1110.5 247.008 1106.92 236.801C1104.27 229.249 1102.08 221.541 1100.37 213.721C1095.45 191.071 1096.61 176.191 1096.61 176.191L1119.74 178.893L1120.82 179.02C1120.92 189.628 1121.19 204.03 1121.43 215.292C1121.47 217.241 1121.51 219.107 1121.55 220.836C1121.71 228.064 1121.83 233.008 1121.83 233.008C1126.28 242.571 1124.66 256.069 1121.77 267.535Z" fill="#C97D45"/>
<path d="M1115.15 96.8835C1115.15 96.8835 1120.62 101.537 1115.61 106.892C1115.61 106.892 1119.79 107.301 1121.2 106.145C1121.06 106.439 1120.88 106.713 1120.67 106.962C1120.67 106.962 1125.34 107.129 1127.27 105.673C1129.2 104.217 1127.96 80.3314 1114.99 83.0078C1114.99 83.0078 1103.99 82.1774 1105.01 94.8834C1106.04 107.589 1101.88 107.605 1101.88 107.605C1101.88 107.605 1103.03 108.172 1103.59 108.172C1103.59 108.172 1104.4 107.862 1104.56 107.412C1104.56 107.412 1104.4 108.12 1104.2 108.344C1104.2 108.344 1108.68 108.769 1110.92 107.079C1113.15 105.389 1115.78 99.5112 1115.15 96.8835Z" fill="#2D133B"/>
<path d="M1132.8 173.599C1128.43 163.812 1126.34 161.043 1126.27 157.963C1126.21 155.527 1127.41 152.895 1129.75 146.462C1130.3 144.952 1130.69 143.392 1130.92 141.805C1132.77 129.382 1125.58 115.953 1121.1 115.036C1119.86 114.709 1117.75 110.221 1117.79 102.991L1117.23 103.102L1107.81 104.964C1107.81 104.964 1108.02 107.923 1108.03 110.709C1108.03 113.032 1107.91 115.387 1107.38 115.674C1106.71 115.734 1106.09 115.857 1106.09 115.857C1106.09 115.857 1098.1 121.446 1097.58 129.017C1096.89 139.14 1104.04 151.141 1097.7 171.375C1091.24 192.04 1135.22 179.009 1132.8 173.599Z" fill="#D7915C"/>
<path d="M1107.79 104.955C1107.79 104.955 1108.01 107.915 1108.01 110.7C1113.28 110.552 1116.07 105.753 1117.21 103.098L1107.79 104.955Z" fill="#C97D45"/>
<path d="M1118.18 102.071C1118.18 102.071 1120.94 97.7139 1121.6 93.9887C1122.08 91.3297 1120.72 81.4718 1110.8 82.8909C1108.8 83.1684 1106.89 83.8898 1105.21 85.0021C1103.06 86.4543 1099.94 89.5889 1103.42 98.1915L1104.33 101.098L1118.18 102.071Z" fill="#2D133B"/>
<path d="M1106.03 107.605C1106.03 107.605 1118.5 107.8 1118.51 100.055C1118.52 92.3102 1120.13 87.1073 1112.17 86.6473C1104.21 86.1872 1102.66 89.1463 1102.02 91.7332C1101.38 94.32 1102.79 107.342 1106.03 107.605Z" fill="#D7915C"/>
<path d="M1106.49 86.4493C1106.49 86.4493 1109.91 95.545 1115.15 96.8843C1120.4 98.2235 1122.66 96.8277 1122.66 96.8277C1122.66 96.8277 1118.64 93.6405 1117.81 88.077C1117.8 88.0829 1109.07 82.1197 1106.49 86.4493Z" fill="#2D133B"/>
<path d="M1107.34 87.188C1107.34 87.188 1104.79 89.2173 1104.17 91.192C1103.55 93.1667 1103.27 97.235 1102.08 97.0927C1102.08 97.0927 1099.51 90.9113 1102.4 87.4122C1105.46 83.7045 1107.34 87.188 1107.34 87.188Z" fill="#2D133B"/>
<path d="M1149.02 183.997L1145.28 185.117C1145.28 185.117 1132.93 164.665 1131.81 159.343C1131.44 157.61 1130.54 154.142 1129.5 150.259C1127.33 142.214 1124.52 132.362 1124.52 132.362L1123.6 128.377L1120.46 114.788C1120.46 114.788 1126.48 115.402 1130 116.872C1131.17 117.357 1132.05 117.936 1132.36 118.617C1134.95 124.293 1137.53 138.621 1139.34 148.842C1140.36 154.538 1141.13 158.959 1141.53 159.895C1142.66 162.516 1146.09 176.901 1149.02 183.997Z" fill="#D7915C"/>
<path d="M1106.87 87.4935C1106.87 87.4935 1109.3 97.0201 1115.91 100.071C1115.91 100.071 1109.3 94.2228 1108.74 87.9302C1108.17 81.6376 1106.87 87.4935 1106.87 87.4935Z" fill="#2D133B"/>
<path d="M1135.04 265.547C1133.71 279.719 1127.85 288.885 1127.85 288.885L1125.85 290.702C1125.85 290.702 1124.03 280.325 1122.72 268.446C1121.46 257.153 1119.74 245.205 1117.8 241.556C1114.9 236.098 1112.75 224.961 1111.21 213.187C1108.68 193.703 1107.76 172.49 1107.76 172.49L1131.22 171.32C1133.58 175.279 1134.6 181.775 1134.85 189.157C1135.11 196.921 1134.49 205.67 1133.64 213.487C1132.46 224.433 1130.81 233.566 1130.42 235.607C1130.38 235.876 1130.44 236.151 1130.58 236.386C1135.24 245.63 1135.92 256.182 1135.04 265.547Z" fill="#D7915C"/>
<path d="M1107.67 141.058C1107.14 153.924 1105.21 166.659 1099.6 165.841C1092.73 164.839 1090.94 158.433 1090.57 153.667C1090.43 151.903 1090.47 150.131 1090.67 148.374C1090.67 148.374 1094.06 148.359 1094.6 147.856C1097.2 145.46 1096.43 121.95 1097.73 119.51C1099.02 117.069 1107.34 115.502 1107.34 115.502C1107.34 115.502 1108.19 128.342 1107.67 141.058Z" fill="#364172"/>
<path d="M1107.67 141.058C1107.14 153.924 1105.21 166.659 1099.6 165.841C1092.73 164.839 1090.94 158.433 1090.57 153.667C1092.26 153.583 1095.23 153.172 1096.41 151.372C1098.1 148.799 1103.38 132.228 1103.38 132.228C1103.38 132.228 1105.45 135.949 1107.67 141.058Z" fill="#496087"/>
<path d="M1121.77 267.536C1121.15 269.998 1120.47 272.341 1119.77 274.522C1119.62 274.988 1119.48 275.45 1119.33 275.898L1119.11 276.561C1118.96 276.992 1118.81 277.417 1118.67 277.83C1118.47 278.37 1118.3 278.896 1118.11 279.405C1117.97 279.783 1117.84 280.154 1117.7 280.514C1115.64 286.041 1113.91 289.544 1113.91 289.544L1109.8 289.261C1109.8 289.261 1111.34 281.928 1111.65 271.425C1111.65 271.05 1111.67 270.672 1111.68 270.29C1111.69 269.475 1111.7 268.645 1111.7 267.799C1111.7 267.452 1111.7 267.099 1111.7 266.744C1111.62 257.699 1110.5 247.009 1106.92 236.802C1104.27 229.25 1102.08 221.542 1100.37 213.721C1102.82 214.226 1104.97 213.721 1111.22 213.187C1111.87 213.133 1115.01 217.014 1118.11 222.154C1118.27 229.384 1121.82 233.014 1121.82 233.014C1126.28 242.572 1124.66 256.069 1121.77 267.536Z" fill="#538C9F"/>
<path d="M1135.04 265.548C1133.71 279.719 1127.85 288.885 1127.85 288.885L1125.85 290.702C1125.85 290.702 1124.03 280.326 1122.72 268.446C1121.46 257.154 1119.74 245.206 1117.8 241.557C1114.9 236.098 1112.75 224.962 1111.21 213.188C1113.37 214.084 1120.72 216.416 1133.64 213.495C1132.46 224.441 1130.81 233.574 1130.42 235.615C1130.38 235.885 1130.44 236.16 1130.58 236.395C1135.24 245.631 1135.92 256.183 1135.04 265.548Z" fill="#4FB7EB"/>
<path d="M1139.53 196.586C1139.53 196.586 1134.62 198.098 1127.39 199.097C1118.44 200.332 1105.93 200.779 1094.76 196.586C1094.76 196.586 1093.84 179.983 1096.48 171.33C1099.13 162.676 1100.37 158.532 1100.37 158.532C1100.37 158.532 1110.98 161.187 1121.75 159.129C1123.28 158.84 1124.79 158.449 1126.27 157.959C1126.27 157.959 1132.91 172.047 1134.74 178.084C1136.58 184.121 1139.53 196.586 1139.53 196.586Z" fill="#4FB7EB"/>
<path d="M1139.53 196.586C1139.53 196.586 1134.62 198.098 1127.4 199.097C1114.14 191.593 1120.6 160.012 1120.6 160.012C1120.99 159.692 1121.38 159.398 1121.75 159.129C1123.28 158.84 1124.79 158.449 1126.27 157.959C1126.27 157.959 1132.91 172.047 1134.74 178.084C1136.58 184.121 1139.53 196.586 1139.53 196.586Z" fill="#538C9F"/>
<path d="M1150.38 164.985C1150.38 168.217 1147.08 170.203 1143.55 171.168C1140.14 172.098 1136.52 172.086 1135.38 171.328C1133.42 170.018 1130.23 155.45 1129.3 151.016C1129.13 150.213 1129.03 149.743 1129.03 149.743C1129.03 149.743 1126.5 155.805 1126.41 156.371C1126.37 156.624 1126.34 156.975 1126.32 157.283C1126.29 157.655 1126.28 157.963 1126.28 157.963C1126.28 157.963 1112.47 164.922 1100.38 158.53C1100.38 158.53 1095.47 130.173 1097.6 125.292C1098.66 122.867 1104.19 117.861 1106.4 115.703C1106.9 115.217 1106.85 114.256 1106.66 113.377C1106.62 113.208 1106.62 113.032 1106.67 112.865C1106.72 112.699 1106.82 112.549 1106.94 112.428C1107.07 112.307 1107.22 112.221 1107.39 112.176C1107.56 112.131 1107.73 112.13 1107.9 112.173C1109.32 112.543 1111.88 112.479 1114.63 111.588C1116.09 111.116 1117.47 110.44 1118.74 109.58C1118.83 109.52 1118.93 109.484 1119.04 109.476C1119.15 109.467 1119.25 109.486 1119.35 109.53C1119.45 109.575 1119.53 109.644 1119.6 109.73C1119.66 109.817 1119.7 109.918 1119.71 110.024C1119.92 111.716 1120.44 114.804 1121.37 114.804C1122.65 114.804 1131.43 115.872 1132.08 116.948C1132.3 117.327 1134.58 122.483 1137.47 129.315C1137.47 129.321 1137.47 129.327 1137.47 129.333C1142.88 142.148 1150.38 160.85 1150.38 164.985Z" fill="#496087"/>
<path d="M1129.02 149.742C1129.02 149.742 1126.49 155.805 1126.4 156.37C1126.36 156.624 1126.33 156.975 1126.31 157.283C1125.05 158.287 1123.62 159.042 1122.08 159.505C1117.78 160.807 1115.9 152.567 1116.16 148.458C1116.42 144.349 1122.5 132.613 1124.53 132.37C1126.56 132.126 1129.02 149.742 1129.02 149.742Z" fill="#364172"/>
<path d="M1129.29 151.015C1129.12 150.212 1129.02 149.742 1129.02 149.742C1129.15 150.156 1129.24 150.583 1129.29 151.015Z" fill="#538C9F"/>
<path d="M1111.64 161.657C1103.78 161.657 1100.54 158.957 1100.3 158.772L1099.79 155.068C1099.87 155.123 1110.41 161.445 1126.73 155.39L1126.39 158.191C1120.1 160.529 1115.72 161.657 1111.64 161.657Z" fill="#364172"/>
<path d="M1150.38 164.985C1150.38 168.217 1147.08 170.203 1143.55 171.168C1148.43 165.363 1137.75 130.232 1137.47 129.333C1142.88 142.148 1150.38 160.85 1150.38 164.985Z" fill="#364172"/>
<path d="M1121.36 114.796C1121.36 114.796 1114.78 118.952 1109.81 117.97C1109.81 117.97 1108.62 117.216 1110.26 116.459C1111.81 115.75 1115.41 113.65 1114.62 111.586C1116.08 111.114 1117.46 110.438 1118.73 109.578C1118.82 109.518 1118.92 109.482 1119.03 109.474C1119.14 109.465 1119.24 109.484 1119.34 109.528C1119.44 109.573 1119.52 109.642 1119.59 109.728C1119.65 109.815 1119.69 109.916 1119.7 110.022C1119.91 111.709 1120.42 114.796 1121.36 114.796Z" fill="#364172"/>
<path d="M1116.28 292.99H1113.65C1112.77 292.851 1112.12 292.6 1111.22 292.479C1109.86 292.299 1109.22 292.869 1109.1 292.99L1109.07 293.015H1097.92C1097.64 292.625 1097.91 291.689 1098.18 291.007C1098.26 290.778 1098.4 290.573 1098.59 290.408C1098.77 290.243 1098.98 290.122 1099.22 290.056C1100.39 289.713 1102.73 289.409 1104.87 287.479C1106.07 286.395 1110.67 283.494 1110.67 283.494H1110.69C1110.79 283.494 1111.28 283.642 1113.36 285.406C1114.45 286.317 1116.29 284.122 1116.29 284.122C1116.55 284.352 1116.75 284.63 1116.9 284.939C1117.16 285.469 1117.24 286.068 1117.14 286.648C1116.97 287.65 1117.51 289.516 1117.93 290.777C1118.19 291.539 1118.41 292.081 1118.41 292.081C1118.41 292.081 1118.54 292.703 1116.28 292.99Z" fill="#364172"/>
<path d="M1116.89 284.931C1116.27 285.371 1114.94 286.241 1114.07 286.354C1112.88 286.51 1110.67 283.49 1110.67 283.49H1110.69C1110.79 283.49 1111.28 283.638 1113.36 285.403C1114.44 286.313 1116.29 284.118 1116.29 284.118C1116.54 284.347 1116.75 284.624 1116.89 284.931Z" fill="#466AA3"/>
<path d="M1116.28 292.991H1113.65C1112.77 292.852 1112.12 292.601 1111.22 292.48C1109.86 292.301 1109.22 292.87 1109.1 292.991L1109.07 293.016H1097.92C1097.64 292.626 1097.91 291.691 1098.18 291.008C1098.52 290.708 1098.61 292.314 1098.8 292.568C1098.98 292.821 1107.89 292.661 1108.41 292.289C1108.92 291.917 1110.46 291.26 1112.62 291.774C1114.49 292.221 1117.25 291.077 1117.93 290.772C1118.19 291.535 1118.41 292.077 1118.41 292.077C1118.41 292.077 1118.54 292.704 1116.28 292.991Z" fill="#466AA3"/>
<path d="M1130.28 292.99H1127.66C1126.78 292.851 1126.13 292.6 1125.23 292.479C1123.86 292.299 1123.23 292.869 1123.1 292.99L1123.08 293.015H1111.93C1111.65 292.625 1111.93 291.689 1112.18 291.007C1112.27 290.779 1112.41 290.574 1112.59 290.409C1112.77 290.244 1112.99 290.123 1113.23 290.056C1114.41 289.713 1116.74 289.409 1118.87 287.479C1120.07 286.395 1124.67 283.494 1124.67 283.494H1124.7C1124.8 283.494 1125.28 283.642 1127.37 285.406C1128.45 286.317 1130.3 284.122 1130.3 284.122C1130.55 284.352 1130.76 284.629 1130.9 284.939C1131.16 285.468 1131.25 286.067 1131.14 286.648C1130.98 287.65 1131.51 289.516 1131.94 290.777C1132.2 291.539 1132.42 292.081 1132.42 292.081C1132.42 292.081 1132.54 292.703 1130.28 292.99Z" fill="#364172"/>
<path d="M1130.9 284.931C1130.27 285.371 1128.95 286.241 1128.07 286.354C1126.89 286.51 1124.67 283.49 1124.67 283.49H1124.7C1124.8 283.49 1125.28 283.638 1127.37 285.403C1128.45 286.313 1130.3 284.118 1130.3 284.118C1130.55 284.347 1130.75 284.623 1130.9 284.931Z" fill="#466AA3"/>
<path d="M1130.28 292.991H1127.66C1126.78 292.852 1126.13 292.601 1125.23 292.48C1123.86 292.301 1123.23 292.87 1123.1 292.991L1123.08 293.016H1111.93C1111.65 292.626 1111.93 291.691 1112.18 291.008C1112.52 290.708 1112.62 292.314 1112.8 292.568C1112.99 292.821 1121.9 292.661 1122.41 292.289C1122.93 291.917 1124.47 291.26 1126.62 291.774C1128.49 292.221 1131.25 291.077 1131.94 290.772C1132.2 291.535 1132.42 292.077 1132.42 292.077C1132.42 292.077 1132.54 292.704 1130.28 292.991Z" fill="#466AA3"/>
<path d="M1158.3 199.922C1158.17 199.284 1157.88 198.69 1157.46 198.196C1157.03 197.702 1156.49 197.325 1155.88 197.101C1153.86 196.353 1150.55 195.678 1146.48 196.873C1139.62 198.889 1138.94 203.111 1139.4 206.133C1139.85 209.154 1138.51 213.993 1138.7 217.439C1138.9 220.886 1139.89 229.51 1144.97 229.057C1150.05 228.605 1166.45 224.205 1166.45 224.205C1166.45 224.205 1169.28 218.827 1163.46 211.035C1160 206.404 1158.75 202.191 1158.3 199.922Z" fill="#D17129"/>
<path d="M1155.15 195.95L1153.78 196.073C1153.67 195.5 1153.4 194.969 1153 194.545C1152.52 194.093 1151.85 193.927 1151.03 194.062C1150.25 194.186 1149.68 194.547 1149.4 195.124C1148.99 195.937 1149.22 196.984 1149.22 196.995L1147.9 197.301C1147.88 197.229 1147.5 195.527 1148.19 194.099C1148.67 193.11 1149.52 192.539 1150.7 192.321C1151.92 192.126 1152.95 192.422 1153.76 193.204C1154.89 194.282 1155.14 195.884 1155.15 195.95Z" fill="#D17129"/>
<path d="M1169.8 223.429C1169.8 223.429 1153.42 227.836 1148.33 228.281C1143.24 228.725 1142.25 220.107 1142.07 216.661C1141.88 213.214 1143.21 208.399 1142.76 205.354C1142.66 204.743 1142.62 204.122 1142.66 203.502C1142.79 200.799 1144.31 197.726 1149.84 196.106C1153.91 194.908 1157.21 195.592 1159.24 196.34C1159.85 196.564 1160.39 196.939 1160.82 197.432C1161.24 197.924 1161.53 198.517 1161.66 199.153C1161.72 199.418 1161.78 199.738 1161.86 200.058C1162.45 202.469 1163.8 206.212 1166.83 210.261C1172.64 218.052 1169.8 223.429 1169.8 223.429Z" fill="#E7B62C"/>
<path d="M1144.54 217.386L1154.42 215.154C1154.42 215.154 1156.72 222.217 1152.05 223.503C1147.39 224.79 1145.45 222.055 1144.54 217.386Z" fill="#DA711D"/>
<path d="M1144.54 217.386C1144.54 217.386 1146.82 219.577 1149.9 218.805C1152.98 218.034 1154.42 215.154 1154.42 215.154L1144.54 217.386Z" fill="#D17129"/>
<path d="M1156.42 214.702L1166.3 212.47C1166.3 212.47 1168.6 219.532 1163.93 220.819C1159.26 222.105 1157.32 219.371 1156.42 214.702Z" fill="#DA711D"/>
<path d="M1156.42 214.702C1156.42 214.702 1158.71 216.893 1161.78 216.121C1164.86 215.349 1166.3 212.47 1166.3 212.47L1156.42 214.702Z" fill="#D17129"/>
<path d="M1161.67 199.161C1161.72 199.426 1161.78 199.746 1161.86 200.066C1160.55 202.756 1158.08 206.192 1153.89 206.992C1146.77 208.378 1142.67 203.51 1142.67 203.51C1142.8 200.806 1144.32 197.734 1149.85 196.114C1153.92 194.915 1157.22 195.6 1159.25 196.348C1159.86 196.573 1160.4 196.949 1160.82 197.441C1161.25 197.934 1161.54 198.526 1161.67 199.161Z" fill="#DA711D"/>
<path d="M1153.98 208.481C1153.77 208.529 1153.54 208.49 1153.35 208.373C1153.17 208.256 1153.04 208.07 1152.99 207.855L1152.82 207.119C1152.77 206.904 1152.81 206.679 1152.93 206.493C1153.05 206.308 1153.23 206.176 1153.45 206.126C1153.66 206.079 1153.89 206.118 1154.07 206.235C1154.26 206.352 1154.39 206.538 1154.44 206.752L1154.61 207.489C1154.66 207.704 1154.62 207.928 1154.5 208.114C1154.38 208.301 1154.2 208.432 1153.98 208.481Z" fill="#DA711D"/>
<path d="M1148.75 183.375C1148.75 183.375 1149.89 186.053 1151.08 186.8C1152.26 187.547 1153.39 189.334 1153.63 190.785C1154.09 193.436 1152.05 195.073 1150.55 195.073C1149.06 195.073 1147.63 193.034 1146.75 188.169C1146.7 187.901 1145.28 185.112 1145.28 185.112L1148.75 183.375Z" fill="#D7915C"/>
<path d="M953.081 82.965C951.293 80.2534 944.194 81.772 937.224 86.353C930.254 90.934 926.055 96.8503 927.853 99.5619C929.651 102.273 936.74 100.755 943.71 96.172C950.68 91.589 954.862 85.6766 953.081 82.965Z" fill="#538C9F"/>
<path d="M916.672 183.697L918.038 183.781C918.026 183.749 918.573 159.786 920.68 150.091C924.602 132.029 934.852 117.888 934.965 117.767L932.503 116.987C932.38 117.118 930.436 120.126 927.683 125.674C925.145 130.785 921.066 139.302 919.266 149.22C917.495 159.004 916.621 183.568 916.672 183.697Z" fill="#D24A32"/>
<path d="M941.539 82.7533C941.539 82.7533 932.544 80.8371 928.228 88.1413C923.911 95.4456 923.671 108.136 920.793 112.284C917.915 116.433 912.839 133.955 918.235 137.876C923.632 141.796 956.875 137.731 958.739 135.944C960.604 134.156 958.628 115.758 955.379 110.43C952.131 105.103 960.046 80.0398 941.539 82.7533Z" fill="#2D133B"/>
<path d="M954.938 162.698C965.114 160.113 976.301 144.349 976.301 144.349L973.435 141.867C970.47 145.36 958.135 151.374 958.135 151.374C958.199 148.179 958.117 145.263 957.914 142.602C956.547 124.57 949.737 118.562 947.879 117.245C947.728 117.134 947.57 117.032 947.406 116.94C947.406 116.94 947.406 117.071 947.389 117.33C947.363 117.866 947.313 118.946 947.262 120.428C946.885 131.461 946.434 164.862 954.938 162.698Z" fill="#EBAF7D"/>
<path d="M973.435 141.867C973.478 141.442 973.765 135.239 974.997 134.069C976.229 132.9 978.664 131.284 979.362 131.413C980.061 131.541 982.437 135.489 981.315 138.204C980.192 140.92 976.299 144.35 976.299 144.35L973.435 141.867Z" fill="#EBAF7D"/>
<path d="M932.777 267.535C933.397 269.997 934.079 272.34 934.774 274.521C934.924 274.987 935.071 275.449 935.219 275.898C935.293 276.122 935.369 276.342 935.442 276.561C935.588 276.991 935.731 277.416 935.875 277.83C936.07 278.37 936.252 278.896 936.437 279.405C936.572 279.783 936.709 280.153 936.843 280.514C938.907 286.04 940.637 289.543 940.637 289.543L944.749 289.261C944.749 289.261 943.204 281.927 942.896 271.424C942.884 271.05 942.874 270.671 942.866 270.289C942.851 269.475 942.842 268.644 942.841 267.798C942.841 267.451 942.841 267.098 942.841 266.743C942.923 257.698 944.044 247.008 947.624 236.801C950.277 229.249 952.464 221.541 954.171 213.721C959.095 191.071 957.937 176.191 957.937 176.191L934.811 178.893L933.733 179.02C933.634 189.628 933.362 204.03 933.122 215.292C933.081 217.241 933.042 219.107 933.003 220.836C932.845 228.064 932.724 233.008 932.724 233.008C928.274 242.571 929.891 256.069 932.777 267.535Z" fill="#EBAF7D"/>
<path d="M921.74 173.599C926.111 163.812 928.202 161.043 928.276 157.963C928.335 155.527 927.13 152.895 924.795 146.462C924.249 144.953 923.857 143.393 923.624 141.805C921.775 129.382 928.969 115.953 933.442 115.036C934.686 114.709 936.795 110.221 936.761 102.991L937.322 103.102L946.738 104.964C946.738 104.964 946.523 107.923 946.517 110.709C946.517 113.032 946.636 115.387 947.164 115.674C947.841 115.734 955.235 117.054 956.578 119.171C957.898 121.253 956.428 121.446 956.941 129.025C957.628 139.148 950.481 151.148 956.82 171.383C963.308 192.04 919.329 179.009 921.74 173.599Z" fill="#EBAF7D"/>
<path d="M946.754 104.955C946.754 104.955 946.539 107.915 946.533 110.7C941.262 110.552 938.48 105.753 937.337 103.098L946.754 104.955Z" fill="#E79C67"/>
<path d="M948.513 107.605C948.513 107.605 936.047 107.8 936.039 100.055C936.031 92.3102 934.415 87.0975 942.367 86.6375C950.319 86.1774 951.875 89.1366 952.519 91.7234C953.163 94.3102 951.756 107.342 948.513 107.605Z" fill="#EBAF7D"/>
<path d="M948.052 86.4493C948.052 86.4493 944.64 95.545 939.401 96.8843C934.163 98.2235 931.891 96.8277 931.891 96.8277C931.891 96.8277 935.909 93.6405 936.742 88.077C936.742 88.0829 945.477 82.1197 948.052 86.4493Z" fill="#2D133B"/>
<path d="M947.207 87.188C947.207 87.188 949.755 89.2173 950.372 91.192C950.989 93.1667 951.272 97.235 952.459 97.0927C952.459 97.0927 955.03 90.9113 952.141 87.4122C949.081 83.7045 947.207 87.188 947.207 87.188Z" fill="#2D133B"/>
<path d="M905.525 183.997L909.268 185.117C909.268 185.117 921.615 164.665 922.739 159.343C923.106 157.61 924.003 154.142 925.051 150.259C927.216 142.214 930.014 132.362 930.014 132.362L930.936 128.377L934.079 114.788C934.079 114.788 928.062 115.402 924.541 116.88C923.37 117.365 922.488 117.944 922.177 118.624C919.59 124.301 917.009 138.629 915.194 148.849C914.184 154.545 913.411 158.967 913.009 159.902C911.886 162.516 908.456 176.901 905.525 183.997Z" fill="#EBAF7D"/>
<path d="M947.679 87.4935C947.679 87.4935 945.248 97.0201 938.638 100.071C938.638 100.071 945.248 94.2228 945.809 87.9302C946.369 81.6376 947.679 87.4935 947.679 87.4935Z" fill="#2D133B"/>
<path d="M919.509 265.547C920.838 279.719 926.695 288.885 926.695 288.885L928.695 290.702C928.695 290.702 930.516 280.319 931.824 268.446C933.076 257.153 934.796 245.205 936.738 241.556C939.644 236.098 941.783 224.961 943.326 213.187C945.864 193.703 946.776 172.49 946.776 172.49L923.322 171.32C920.961 175.279 919.936 181.775 919.69 189.157C919.435 196.921 920.046 205.67 920.895 213.487C922.082 224.433 923.734 233.566 924.116 235.607C924.153 235.877 924.098 236.151 923.96 236.386C919.306 245.63 918.63 256.182 919.509 265.547Z" fill="#EBAF7D"/>
<path d="M963.974 153.669C963.609 158.431 961.826 164.838 954.944 165.84C952.512 166.195 950.772 164.004 949.538 160.357C947.924 155.591 947.176 148.345 946.879 141.058C946.592 134.155 946.711 127.218 946.879 122.313C949.698 121.993 954.874 119.609 956.461 119.015C956.508 119.063 956.553 119.112 956.594 119.163C956.635 119.213 956.658 119.243 956.688 119.284C956.74 119.355 956.787 119.431 956.828 119.51C957.516 120.81 957.609 128.107 957.957 134.994C958.252 141.021 958.738 146.735 959.942 147.859C960.491 148.362 963.872 148.38 963.872 148.38C964.079 150.135 964.113 151.907 963.974 153.669Z" fill="#DA711D"/>
<path d="M946.879 141.058C947.406 153.924 949.333 166.659 954.942 165.841C961.818 164.839 963.609 158.433 963.974 153.667C962.287 153.583 959.314 153.172 958.132 151.372C956.444 148.799 951.168 132.228 951.168 132.228C951.168 132.228 949.095 135.949 946.879 141.058Z" fill="#E7B62C"/>
<path d="M954.177 158.53C954.177 158.53 940.38 161.992 928.277 157.963C928.277 157.963 921.639 172.049 919.804 178.086C917.968 184.123 904.165 261.394 904.165 261.394C904.165 261.394 934.558 270.167 954.757 262.591C954.757 262.591 960.71 179.983 958.062 171.328C955.415 162.673 954.177 158.53 954.177 158.53Z" fill="#4FB7EB"/>
<path d="M957.957 134.941C956.945 144.901 954.177 158.408 954.177 158.408C952.703 159.185 951.147 159.795 949.538 160.227C938.818 163.135 928.279 157.843 928.279 157.843C928.279 157.843 928.261 157.535 928.236 157.162C928.214 156.854 928.183 156.507 928.146 156.252C928.068 155.689 925.522 149.644 925.522 149.644C925.522 149.644 925.426 150.113 925.258 150.916C924.329 155.336 921.137 169.858 919.179 171.167C918.044 171.921 914.417 171.933 911.01 171.007C907.467 170.046 904.165 168.063 904.165 164.843C904.165 160.72 911.674 142.072 917.086 129.298C917.085 129.292 917.085 129.285 917.086 129.278C919.968 122.467 921.641 117.728 923.843 117.192C923.843 117.192 938.663 123.216 946.881 122.292C949.7 121.974 954.876 119.596 956.463 119.003C956.51 119.052 956.555 119.101 956.596 119.151C956.637 119.202 956.66 119.229 956.69 119.27C956.719 119.311 956.75 119.358 956.776 119.403C957.978 121.173 957.789 124.109 957.849 125.228C957.969 127.423 958.408 130.483 957.957 134.941Z" fill="#DA711D"/>
<path d="M925.522 149.742C925.522 149.742 928.06 155.805 928.146 156.37C928.183 156.624 928.212 156.975 928.236 157.283C929.491 158.287 930.928 159.042 932.469 159.505C936.773 160.807 938.644 152.567 938.388 148.458C938.132 144.349 932.043 132.613 930.014 132.37C927.986 132.126 925.522 149.742 925.522 149.742Z" fill="#E7B62C"/>
<path d="M925.258 151.015C925.426 150.212 925.522 149.742 925.522 149.742C925.392 150.157 925.304 150.583 925.258 151.015Z" fill="#538C9F"/>
<path d="M943.033 161.158C950.891 161.158 954.009 158.957 954.249 158.772L954.757 155.068C954.681 155.123 944.138 161.445 927.814 155.39L928.16 158.191C934.44 160.529 938.95 161.158 943.033 161.158Z" fill="#538C9F"/>
<path d="M904.165 164.985C904.165 168.217 907.466 170.203 911.01 171.168C906.129 165.363 916.813 130.232 917.084 129.333C911.676 142.148 904.165 160.85 904.165 164.985Z" fill="#E7B62C"/>
<path d="M938.267 292.99H940.893C941.771 292.851 942.419 292.6 943.321 292.479C944.688 292.299 945.321 292.869 945.448 292.99L945.471 293.015H956.619C956.9 292.625 956.631 291.689 956.365 291.007C956.277 290.779 956.137 290.574 955.956 290.409C955.775 290.244 955.558 290.123 955.323 290.056C954.14 289.713 951.808 289.409 949.674 287.479C948.474 286.395 943.876 283.494 943.876 283.494H943.851C943.751 283.494 943.265 283.642 941.178 285.406C940.096 286.317 938.249 284.122 938.249 284.122C937.995 284.352 937.79 284.629 937.644 284.939C937.384 285.469 937.3 286.067 937.404 286.648C937.572 287.65 937.035 289.516 936.605 290.777C936.346 291.539 936.127 292.081 936.127 292.081C936.127 292.081 936.012 292.703 938.267 292.99Z" fill="#364172"/>
<path d="M937.654 284.931C938.281 285.371 939.606 286.241 940.481 286.354C941.664 286.51 943.88 283.49 943.88 283.49H943.855C943.755 283.49 943.269 283.638 941.182 285.403C940.1 286.313 938.253 284.118 938.253 284.118C938.002 284.347 937.798 284.623 937.654 284.931Z" fill="#466AA3"/>
<path d="M938.267 292.991H940.893C941.771 292.852 942.42 292.601 943.322 292.48C944.688 292.301 945.321 292.87 945.448 292.991L945.471 293.016H956.619C956.9 292.626 956.631 291.691 956.365 291.008C956.028 290.708 955.932 292.314 955.745 292.568C955.557 292.821 946.65 292.661 946.135 292.289C945.62 291.917 944.077 291.26 941.926 291.774C940.053 292.221 937.295 291.077 936.611 290.772C936.352 291.535 936.133 292.077 936.133 292.077C936.133 292.077 936.012 292.704 938.267 292.991Z" fill="#466AA3"/>
<path d="M924.262 292.99H926.888C927.767 292.851 928.415 292.6 929.317 292.479C930.684 292.299 931.318 292.869 931.443 292.99L931.467 293.015H942.617C942.898 292.625 942.628 291.689 942.365 291.007C942.276 290.779 942.136 290.574 941.955 290.409C941.773 290.244 941.556 290.123 941.32 290.056C940.137 289.713 937.806 289.409 935.672 287.479C934.471 286.395 929.874 283.494 929.874 283.494H929.85C929.749 283.494 929.264 283.642 927.175 285.406C926.094 286.317 924.247 284.122 924.247 284.122C923.993 284.352 923.787 284.629 923.642 284.939C923.382 285.469 923.298 286.067 923.401 286.648C923.569 287.65 923.032 289.516 922.603 290.777C922.343 291.539 922.125 292.081 922.125 292.081C922.125 292.081 922.006 292.703 924.262 292.99Z" fill="#364172"/>
<path d="M923.647 284.931C924.274 285.371 925.6 286.241 926.474 286.354C927.66 286.51 929.874 283.49 929.874 283.49H929.85C929.749 283.49 929.264 283.638 927.175 285.403C926.094 286.313 924.247 284.118 924.247 284.118C923.996 284.347 923.792 284.623 923.647 284.931Z" fill="#466AA3"/>
<path d="M924.263 292.991H926.889C927.767 292.852 928.415 292.601 929.317 292.48C930.684 292.301 931.319 292.87 931.443 292.991L931.467 293.016H942.617C942.898 292.626 942.629 291.691 942.365 291.008C942.025 290.708 941.93 292.314 941.744 292.568C941.559 292.821 932.648 292.661 932.133 292.289C931.617 291.917 930.075 291.26 927.923 291.774C926.051 292.221 923.292 291.077 922.609 290.772C922.349 291.535 922.131 292.077 922.131 292.077C922.131 292.077 922.006 292.704 924.263 292.991Z" fill="#466AA3"/>
<path d="M905.791 183.375C905.791 183.375 904.653 186.053 903.468 186.8C902.283 187.547 901.158 189.334 900.912 190.785C900.461 193.436 902.495 195.073 903.993 195.073C905.49 195.073 906.921 193.034 907.8 188.169C907.847 187.901 909.268 185.112 909.268 185.112L905.791 183.375Z" fill="#EBAF7D"/>
<path d="M979.095 128.053L978.921 129.85L978.369 135.505L978.015 139.129H970.782L970.339 135.505L969.643 129.85L969.423 128.053H979.095Z" fill="#E69649"/>
<path d="M979.611 128.052H968.853L969.064 126.976H979.347L979.611 128.052Z" fill="#CF7A33"/>
<path d="M978.921 129.85L978.369 135.505H970.339L969.644 129.85H978.921Z" fill="#CF7A33"/>
<path d="M979.872 131.884C979.872 131.884 978.045 129.847 976.217 131.405C974.39 132.962 976.338 136.278 977.924 137.193C979.509 138.107 980.017 138.575 980.017 138.575L979.872 131.884Z" fill="#EBAF7D"/>
<path d="M938.41 183.808L937.043 183.705C937.058 183.676 939.731 159.696 938.946 149.743C937.484 131.195 929.224 115.707 929.128 115.57L931.666 115.116C931.769 115.264 933.292 118.526 935.276 124.43C937.103 129.871 940.005 138.916 940.458 149.053C940.909 159.069 938.478 183.685 938.41 183.808Z" fill="#D24A32"/>
<path d="M921.754 178.533C921.754 178.533 923.089 175.252 925.212 174.439L936.053 176.478C936.053 176.478 933.378 179.013 933.125 180.679L921.754 178.533Z" fill="#BDF4F7"/>
<path d="M935.366 197.056L916.836 193.572C916.629 193.534 916.431 193.455 916.255 193.34C916.078 193.225 915.926 193.076 915.807 192.903C915.688 192.729 915.605 192.534 915.562 192.328C915.518 192.122 915.516 191.909 915.555 191.703L917.871 179.437C917.909 179.23 917.989 179.033 918.104 178.857C918.219 178.681 918.368 178.529 918.542 178.41C918.716 178.291 918.912 178.208 919.119 178.165C919.325 178.122 919.538 178.12 919.745 178.159L938.267 181.642C938.685 181.721 939.055 181.962 939.294 182.313C939.534 182.664 939.625 183.096 939.546 183.513L937.23 195.779C937.152 196.195 936.911 196.562 936.562 196.801C936.213 197.041 935.782 197.132 935.366 197.056Z" fill="#D24A32"/>
<path d="M928.7 171.794L919.839 171.717L919.74 183.058L928.601 183.135L928.7 171.794Z" fill="#538C9F"/>
<path d="M928.189 171.794L919.328 171.717L919.229 183.058L928.09 183.135L928.189 171.794Z" fill="#E69649"/>
<path d="M933.584 178.572L926.546 173.194L919.643 182.201L926.68 187.578L933.584 178.572Z" fill="#568C99"/>
<path d="M932.791 177.972L925.754 172.594L918.85 181.6L925.887 186.978L932.791 177.972Z" fill="#364172"/>
<path d="M930.848 196.204L913.105 192.867C912.582 192.768 912.12 192.466 911.82 192.028C911.521 191.589 911.407 191.049 911.506 190.528L913.667 179.05C913.716 178.791 913.815 178.545 913.959 178.324C914.103 178.104 914.289 177.914 914.507 177.766C914.724 177.618 914.969 177.514 915.227 177.46C915.485 177.406 915.751 177.404 916.01 177.453L933.751 180.79C934.274 180.889 934.736 181.191 935.035 181.63C935.335 182.068 935.448 182.608 935.35 183.13L933.183 194.608C933.085 195.128 932.784 195.589 932.346 195.888C931.908 196.187 931.37 196.301 930.848 196.204Z" fill="#B03321"/>
<path d="M926.644 92.8311C926.644 92.8311 920.971 81.5579 928.895 77.1017C936.82 72.6454 942.622 74.3959 946.984 79.8464L926.644 92.8311Z" fill="#538C9F"/>
<path d="M958.572 78.6068C956.94 75.9965 951.233 76.4196 944.345 79.2345C941.414 80.4489 938.591 81.9069 935.905 83.5932C932.616 85.6135 929.551 87.9778 926.764 90.6461C922.201 95.1004 919.975 99.3636 921.453 101.728C921.906 102.449 922.582 102.917 923.601 103.188C924.61 101.015 927.506 98.9816 928.332 97.2895C929.491 94.8976 932.432 90.5622 937.795 87.2171C941.92 84.6479 946.024 83.1371 948.847 82.9539C950.489 82.8486 951.701 83.1917 952.232 84.0435C952.648 84.7102 952.605 85.603 952.176 86.6518C952.705 87.5619 953.12 88.5335 953.412 89.5447C957.875 85.1469 960.038 80.9479 958.572 78.6068Z" fill="#4FB7EB"/>
<path d="M1145.28 0C1127.03 0 1112.18 14.825 1112.18 33.0457C1112.18 51.2665 1127.03 66.0836 1145.28 66.0836C1163.53 66.0836 1178.37 51.2684 1178.37 33.0399C1178.37 14.8113 1163.53 0 1145.28 0ZM1145.28 63.9393C1128.22 63.9393 1114.34 50.0812 1114.34 33.0496C1114.34 16.018 1128.22 2.1599 1145.28 2.1599C1162.34 2.1599 1176.22 16.016 1176.22 33.0496C1176.22 50.0832 1162.34 63.9393 1145.28 63.9393Z" fill="#4FB7EB"/>
<path d="M1145.28 7.99199C1145.54 7.99199 1145.79 7.91471 1146.01 7.76991C1146.23 7.62511 1146.4 7.4193 1146.5 7.17851C1146.6 6.93772 1146.62 6.67276 1146.57 6.41713C1146.52 6.16151 1146.4 5.92671 1146.21 5.74241C1146.03 5.55812 1145.79 5.43261 1145.54 5.38177C1145.28 5.33092 1145.01 5.35702 1144.77 5.45676C1144.53 5.55649 1144.33 5.7254 1144.18 5.9421C1144.04 6.15881 1143.96 6.41359 1143.96 6.67422C1143.96 7.02372 1144.1 7.3589 1144.35 7.60603C1144.59 7.85316 1144.93 7.99199 1145.28 7.99199Z" fill="#4FB7EB"/>
<path d="M1145.28 58.5215C1145.02 58.5211 1144.76 58.5981 1144.54 58.7428C1144.33 58.8874 1144.16 59.0932 1144.06 59.3341C1143.96 59.5749 1143.93 59.8401 1143.98 60.0959C1144.03 60.3517 1144.16 60.5867 1144.34 60.7711C1144.53 60.9555 1144.76 61.081 1145.02 61.1318C1145.28 61.1826 1145.54 61.1563 1145.78 61.0563C1146.02 60.9564 1146.23 60.7872 1146.38 60.5702C1146.52 60.3532 1146.6 60.0981 1146.6 59.8373C1146.6 59.4883 1146.46 59.1537 1146.21 58.9069C1145.96 58.6601 1145.63 58.5215 1145.28 58.5215Z" fill="#4FB7EB"/>
<path d="M1170.58 31.9404C1170.32 31.94 1170.07 32.017 1169.85 32.1616C1169.63 32.3061 1169.46 32.5118 1169.36 32.7526C1169.26 32.9933 1169.23 33.2583 1169.28 33.5141C1169.34 33.7698 1169.46 34.0048 1169.65 34.1893C1169.83 34.3738 1170.07 34.4995 1170.32 34.5505C1170.58 34.6015 1170.84 34.5755 1171.08 34.4759C1171.33 34.3762 1171.53 34.2073 1171.68 33.9905C1171.82 33.7738 1171.9 33.5189 1171.9 33.2582C1171.9 32.909 1171.76 32.5742 1171.51 32.3271C1171.27 32.08 1170.93 31.9409 1170.58 31.9404Z" fill="#4FB7EB"/>
<path d="M1157.59 54.1742C1157.41 54.3626 1157.29 54.6002 1157.24 54.857C1157.2 55.1138 1157.23 55.3782 1157.34 55.6167C1157.44 55.8553 1157.62 56.0573 1157.84 56.1971C1158.06 56.337 1158.31 56.4084 1158.57 56.4024C1158.84 56.3964 1159.09 56.3132 1159.3 56.1634C1159.52 56.0136 1159.68 55.8038 1159.78 55.5606C1159.87 55.3175 1159.89 55.0519 1159.83 54.7975C1159.78 54.543 1159.64 54.3112 1159.46 54.1313C1159.33 54.0115 1159.18 53.9176 1159.02 53.8549C1158.86 53.7922 1158.69 53.762 1158.51 53.766C1158.34 53.77 1158.17 53.8081 1158.01 53.8781C1157.85 53.9482 1157.71 54.0488 1157.59 54.1742Z" fill="#4FB7EB"/>
<path d="M1166.22 45.9812C1166.04 46.1697 1165.92 46.4071 1165.88 46.6634C1165.84 46.9197 1165.87 47.1835 1165.97 47.4214C1166.08 47.6592 1166.25 47.8605 1166.47 47.9997C1166.69 48.139 1166.95 48.21 1167.21 48.2037C1167.47 48.1974 1167.72 48.1142 1167.94 47.9645C1168.15 47.8149 1168.31 47.6055 1168.41 47.3628C1168.5 47.1202 1168.52 46.8551 1168.46 46.6012C1168.41 46.3473 1168.28 46.116 1168.09 45.9363C1167.84 45.6957 1167.5 45.5652 1167.15 45.5736C1166.8 45.582 1166.47 45.7286 1166.22 45.9812Z" fill="#4FB7EB"/>
<path d="M1167.75 21.8721C1167.99 21.7594 1168.18 21.5796 1168.32 21.3555C1168.45 21.1314 1168.51 20.873 1168.5 20.613C1168.48 20.353 1168.39 20.1032 1168.23 19.8951C1168.08 19.687 1167.86 19.53 1167.62 19.444C1167.37 19.358 1167.1 19.3468 1166.85 19.4119C1166.6 19.477 1166.37 19.6154 1166.2 19.8096C1166.02 20.0038 1165.91 20.2451 1165.88 20.503C1165.84 20.7608 1165.88 21.0236 1165.99 21.2581C1166.15 21.5715 1166.42 21.8121 1166.75 21.9271C1167.07 22.0422 1167.44 22.0224 1167.75 21.8721Z" fill="#4FB7EB"/>
<path d="M1159.26 10.6301C1159.04 10.4882 1158.78 10.4145 1158.52 10.4181C1158.26 10.4217 1158.01 10.5026 1157.79 10.6505C1157.58 10.7984 1157.41 11.0067 1157.32 11.249C1157.22 11.4913 1157.2 11.7567 1157.25 12.0117C1157.31 12.2666 1157.43 12.4996 1157.62 12.6813C1157.81 12.8629 1158.05 12.9849 1158.3 13.0319C1158.56 13.0789 1158.83 13.0488 1159.07 12.9454C1159.3 12.8419 1159.51 12.6698 1159.65 12.4508C1159.84 12.1576 1159.91 11.8012 1159.83 11.4598C1159.76 11.1185 1159.55 10.8201 1159.26 10.6301Z" fill="#4FB7EB"/>
<path d="M1121.89 31.5C1121.63 31.4996 1121.37 31.5766 1121.15 31.7213C1120.94 31.8659 1120.77 32.0717 1120.67 32.3126C1120.57 32.5535 1120.54 32.8186 1120.59 33.0744C1120.64 33.3302 1120.77 33.5652 1120.95 33.7496C1121.14 33.934 1121.37 34.0595 1121.63 34.1103C1121.88 34.1611 1122.15 34.1348 1122.39 34.0349C1122.63 33.9349 1122.84 33.7657 1122.98 33.5487C1123.13 33.3317 1123.21 33.0766 1123.21 32.8158C1123.2 32.467 1123.07 32.1326 1122.82 31.886C1122.57 31.6393 1122.24 31.5005 1121.89 31.5Z" fill="#4FB7EB"/>
<path d="M1133.01 53.6891C1132.83 53.8687 1132.69 54.1001 1132.64 54.354C1132.58 54.6079 1132.6 54.8729 1132.69 55.1156C1132.79 55.3582 1132.95 55.5676 1133.17 55.7173C1133.38 55.867 1133.63 55.9502 1133.89 55.9565C1134.15 55.9627 1134.41 55.8918 1134.63 55.7525C1134.85 55.6133 1135.02 55.412 1135.13 55.1741C1135.23 54.9363 1135.27 54.6725 1135.22 54.4162C1135.18 54.1598 1135.06 53.9224 1134.88 53.7339C1134.76 53.6087 1134.62 53.5081 1134.46 53.438C1134.3 53.368 1134.13 53.3297 1133.96 53.3256C1133.78 53.3214 1133.61 53.3514 1133.45 53.4138C1133.29 53.4761 1133.14 53.5697 1133.01 53.6891Z" fill="#4FB7EB"/>
<path d="M1124.38 45.4967C1124.19 45.6765 1124.06 45.908 1124 46.162C1123.95 46.4159 1123.97 46.6809 1124.06 46.9235C1124.16 47.1661 1124.32 47.3753 1124.53 47.5247C1124.75 47.6742 1125 47.7571 1125.26 47.7631C1125.52 47.7691 1125.78 47.6979 1126 47.5584C1126.22 47.4189 1126.39 47.2175 1126.49 46.9795C1126.6 46.7415 1126.63 46.4777 1126.59 46.2214C1126.54 45.9651 1126.42 45.7278 1126.24 45.5396C1126.12 45.4144 1125.98 45.314 1125.82 45.2441C1125.66 45.1742 1125.49 45.1362 1125.32 45.1322C1125.15 45.1282 1124.97 45.1583 1124.81 45.2209C1124.65 45.2834 1124.5 45.3771 1124.38 45.4967Z" fill="#4FB7EB"/>
<path d="M1124.72 21.4313C1124.95 21.5451 1125.22 21.5867 1125.48 21.5507C1125.73 21.5147 1125.98 21.4028 1126.17 21.2292C1126.37 21.0555 1126.51 20.828 1126.57 20.5754C1126.64 20.3228 1126.63 20.0565 1126.54 19.8102C1126.45 19.5639 1126.3 19.3488 1126.09 19.192C1125.88 19.0353 1125.63 18.944 1125.37 18.9297C1125.11 18.9154 1124.85 18.9788 1124.62 19.1118C1124.4 19.2449 1124.22 19.4415 1124.1 19.6769C1123.95 19.9911 1123.93 20.3522 1124.05 20.6811C1124.16 21.01 1124.4 21.2798 1124.72 21.4313Z" fill="#4FB7EB"/>
<path d="M1133.21 10.1893C1132.99 10.331 1132.82 10.5344 1132.71 10.7737C1132.61 11.013 1132.58 11.2776 1132.63 11.5339C1132.67 11.7902 1132.8 12.0268 1132.98 12.2137C1133.16 12.4006 1133.39 12.5294 1133.65 12.5839C1133.9 12.6384 1134.17 12.6162 1134.41 12.5199C1134.65 12.4237 1134.86 12.2578 1135.01 12.0432C1135.16 11.8286 1135.24 11.575 1135.24 11.3144C1135.25 11.0538 1135.17 10.798 1135.03 10.5792C1134.94 10.4339 1134.82 10.3086 1134.67 10.2103C1134.53 10.1121 1134.37 10.0429 1134.2 10.0067C1134.03 9.97048 1133.86 9.96798 1133.69 9.99931C1133.52 10.0307 1133.35 10.0952 1133.21 10.1893Z" fill="#4FB7EB"/>
<path d="M1157.71 23.392L1146.93 30.8308C1146.89 30.8064 1146.85 30.7843 1146.81 30.7645L1145.66 10.4268V30.7587C1145.44 30.862 1145.26 31.0201 1145.13 31.2164C1145 31.4128 1144.93 31.6402 1144.92 31.8752C1144.91 32.1101 1144.96 32.344 1145.07 32.5526C1145.18 32.7611 1145.34 32.9366 1145.54 33.061C1145.74 33.1854 1145.97 33.254 1146.2 33.2598C1146.44 33.2656 1146.67 33.2083 1146.88 33.0939C1147.08 32.9795 1147.25 32.8122 1147.37 32.6093C1147.49 32.4063 1147.56 32.1753 1147.56 31.94C1147.55 31.8748 1147.55 31.8097 1147.54 31.7451L1157.71 23.392Z" fill="#4FB7EB"/>
<line x1="-8.74228e-08" y1="293" x2="1440" y2="293" stroke="#3D3D3D" stroke-width="2"/>
</svg>
