<svg width="266" height="201" viewBox="0 0 266 201" fill="none" xmlns="http://www.w3.org/2000/svg">
<path d="M18.1206 99.9098C19.8201 96.4082 21.259 92.786 22.4258 89.0727C22.4258 89.5675 22.7722 90.1119 22.9206 90.6067C22.8335 90.5665 22.738 90.5479 22.6422 90.5527C22.5464 90.5574 22.4532 90.5853 22.3705 90.6339C22.2878 90.6826 22.2181 90.7505 22.1674 90.832C22.1167 90.9134 22.0865 91.0059 22.0794 91.1016C21.5845 100.151 21.5845 109.22 22.0794 118.269C22.1321 118.512 22.2664 118.729 22.4599 118.885C22.6535 119.041 22.8947 119.127 23.1433 119.127C23.3919 119.127 23.6331 119.041 23.8267 118.885C24.0202 118.729 24.1545 118.512 24.2072 118.269C24.4633 109.472 24.2486 100.667 23.5639 91.8933C24.2988 94.3361 25.2597 96.7051 26.434 98.9696C26.4997 99.1271 26.6252 99.2521 26.7829 99.3171C26.9407 99.382 27.1178 99.3816 27.2753 99.316C27.4328 99.2504 27.5577 99.1249 27.6227 98.9672C27.6877 98.8094 27.6873 98.6323 27.6217 98.4748C26.508 94.2268 25.0176 90.0867 23.168 86.1036C23.168 85.9067 23.0898 85.7179 22.9506 85.5787C22.8114 85.4395 22.6226 85.3613 22.4258 85.3613C22.2289 85.3613 22.0401 85.4395 21.9009 85.5787C21.7617 85.7179 21.6835 85.9067 21.6835 86.1036C19.8951 90.4383 18.3909 94.8848 17.1804 99.415C17.0814 100.058 17.8732 100.454 18.1206 99.9098Z" fill="#495CB5"/>
<path d="M32.4213 100.059C33.1141 97.9309 33.7574 95.7536 34.3018 93.5268C34.3018 96.6938 34.3018 100.009 34.6976 103.127C34.6976 107.58 35.044 112.084 35.2914 116.587C35.2914 117.675 37.0234 117.675 36.9739 116.587C36.9739 112.084 36.5781 107.58 36.3801 103.127C36.3319 99.7337 36.084 96.3464 35.6378 92.9824C36.3886 95.4887 37.2808 97.9503 38.31 100.356C38.7059 101.197 40.042 100.356 39.7946 99.7124C38.6564 95.6546 36.677 91.7948 35.3409 87.7865C35.3409 87.6028 35.2679 87.4266 35.138 87.2967C35.0081 87.1667 34.8319 87.0938 34.6481 87.0938C34.4644 87.0938 34.2882 87.1667 34.1583 87.2967C34.0284 87.4266 33.9554 87.6028 33.9554 87.7865C32.8915 91.7615 32.0489 95.7925 31.4316 99.8608C31.5801 100.356 32.2729 100.603 32.4213 100.059Z" fill="#495CB5"/>
<path d="M46.3769 98.6735C49.3863 98.9617 52.4108 99.0608 55.4326 98.9704H55.779C55.3567 101.26 55.3567 103.608 55.779 105.898C56.1249 107.863 56.1249 109.872 55.779 111.836C55.4554 112.994 54.8423 114.05 53.9976 114.904C50.2862 115.795 48.3563 114.904 48.1584 112.628C48.1584 112.084 47.3171 112.183 47.2182 112.628C46.0305 116.636 51.2264 118.616 54.245 116.636C59.9852 112.925 56.6203 104.612 57.4615 99.0199C60.0807 99.2307 62.7132 99.2142 65.3296 98.9704C65.4955 98.9348 65.6425 98.8395 65.7428 98.7027C65.8432 98.5659 65.8898 98.397 65.8739 98.2281C67.111 92.092 63.845 83.3827 56.5213 83.3827C57.2733 81.8464 57.6142 80.1415 57.511 78.4342C57.511 77.395 55.8285 77.0981 55.6306 78.4342C55.1659 80.051 55.1659 81.7659 55.6306 83.3827C48.8017 84.2239 45.7336 91.7456 45.4862 97.9807C45.3777 98.1133 45.3184 98.2794 45.3184 98.4508C45.3184 98.6222 45.3777 98.7883 45.4862 98.9209C45.5357 98.9704 46.179 98.9704 46.3769 98.6735ZM55.4326 85.1641C63.1028 83.5806 63.4492 92.2405 64.9337 97.2384C61.8367 97.0154 58.7276 97.0154 55.6306 97.2384C52.6592 97.1478 49.6851 97.2304 46.7233 97.4858C47.8615 92.191 49.5934 86.3518 55.4326 85.1641Z" fill="#495CB5"/>
<path d="M76.9078 84.1243C79.3325 84.1243 81.8562 84.4212 84.2315 84.3717H84.5779C85.5232 87.1421 85.7111 90.1147 85.1222 92.9821C84.7085 94.4271 83.8296 95.6953 82.6218 96.59C81.414 97.4847 79.9447 97.9559 78.4418 97.9305C72.0088 97.2872 71.7119 89.3697 71.3655 84.5202C71.3351 84.4328 71.2783 84.3571 71.2029 84.3035C71.1275 84.25 71.0373 84.2212 70.9449 84.2212C70.8524 84.2212 70.7622 84.25 70.6868 84.3035C70.6115 84.3571 70.5546 84.4328 70.5242 84.5202C70.1778 89.8645 71.316 99.0192 77.848 100.009C77.4338 102.11 77.2677 104.253 77.3531 106.392C77.3531 109.114 77.3531 111.885 77.3531 114.607C75.4979 114.563 73.6465 114.796 71.8603 115.3C71.7846 115.328 71.7192 115.378 71.6731 115.445C71.6269 115.511 71.6022 115.59 71.6022 115.671C71.6022 115.752 71.6269 115.831 71.6731 115.897C71.7192 115.963 71.7846 116.014 71.8603 116.042C73.9583 116.481 76.1108 116.597 78.2439 116.388C80.3818 116.587 82.5378 116.437 84.6274 115.943C84.7618 115.905 84.8801 115.823 84.9643 115.712C85.0485 115.6 85.094 115.464 85.094 115.324C85.094 115.185 85.0485 115.049 84.9643 114.937C84.8801 114.825 84.7618 114.744 84.6274 114.706C82.875 114.408 81.0849 114.408 79.3325 114.706C79.3325 111.984 79.3325 109.312 79.3325 106.59C79.4975 104.477 79.4144 102.351 79.0851 100.256H79.5305C87.547 99.7615 88.1903 89.1717 85.8645 83.5305C85.8378 83.4419 85.7923 83.3601 85.7311 83.2907C85.6699 83.2213 85.5944 83.166 85.5099 83.1284C85.4253 83.0908 85.3337 83.0719 85.2411 83.073C85.1486 83.074 85.0574 83.0951 84.9738 83.1346C84.8083 82.9451 84.5798 82.822 84.3305 82.7882C81.9057 82.7882 79.382 82.7882 77.0067 82.4418C74.8769 82.1944 72.7209 82.2946 70.6232 82.7387C70.5359 82.7691 70.4602 82.8259 70.4066 82.9013C70.353 82.9767 70.3242 83.0669 70.3242 83.1593C70.3242 83.2518 70.353 83.342 70.4066 83.4174C70.4602 83.4927 70.5359 83.5496 70.6232 83.58C72.6755 84.0962 74.7973 84.28 76.9078 84.1243Z" fill="#495CB5"/>
<path d="M24.9978 184.728L12.1317 194.625C11.5874 195.07 12.1317 195.961 12.6761 195.565L25.74 185.668C26.0864 185.272 25.74 184.332 24.9978 184.728Z" fill="#495CB5"/>
<path d="M28.9582 186.211L14.954 196.454C14.4097 196.85 14.954 197.79 15.4983 197.394L29.5025 187.151C30.0468 186.755 29.5025 185.815 28.9582 186.211Z" fill="#495CB5"/>
<path d="M43.8517 159.836L37.0723 165.18C36.528 165.626 37.0723 166.368 37.8146 165.923L44.594 160.628C45.1383 160.182 44.3961 159.44 43.8517 159.836Z" fill="#495CB5"/>
<path d="M50.4841 164.041L41.6758 171.216C41.1315 171.612 41.6758 172.404 42.4181 171.958L51.3254 164.783C51.8697 164.338 51.1274 163.595 50.4841 164.041Z" fill="#495CB5"/>
<path d="M81.0647 176.116C73.2131 181.955 65.378 187.828 57.5595 193.733C57.0151 194.129 57.5595 195.069 58.1038 194.623L81.609 177.007C82.1534 176.611 81.609 175.671 81.0647 176.116Z" fill="#495CB5"/>
<path d="M103.135 177.7L85.419 191.456C84.8747 191.852 85.419 192.594 86.1613 192.199L103.926 178.442C104.471 178.145 103.679 177.254 103.135 177.7Z" fill="#495CB5"/>
<path d="M106.996 178.987L91.3096 192.249C90.7653 192.694 91.557 193.486 92.0519 193.041L107.739 179.779C108.283 179.333 107.491 178.542 106.996 178.987Z" fill="#495CB5"/>
<path d="M111.35 179.777L96.8018 192.446C96.2575 192.891 97.0492 193.633 97.5441 193.188L112.093 180.569C112.637 180.074 111.845 179.332 111.35 179.777Z" fill="#495CB5"/>
<path d="M133.173 183.095L122.831 191.705C122.287 192.151 123.079 192.893 123.573 192.447L133.916 183.837C134.608 183.342 133.718 182.6 133.173 183.095Z" fill="#495CB5"/>
<path d="M5.60207 58.8873C5.69065 58.8702 5.77359 58.8313 5.84343 58.7742C5.91326 58.7171 5.96781 58.6435 6.00216 58.5601C6.03651 58.4767 6.04959 58.386 6.04021 58.2963C6.03084 58.2066 5.99931 58.1206 5.94847 58.0461C5.99004 58.0895 6.03997 58.124 6.09525 58.1476C6.15053 58.1712 6.21001 58.1834 6.27012 58.1834C6.33022 58.1834 6.38971 58.1712 6.44499 58.1476C6.50027 58.124 6.5502 58.0895 6.59177 58.0461L10.8969 54.4337C11.3918 53.9883 10.6495 53.1966 10.1052 53.6914L5.94847 57.2543C5.90506 57.2959 5.87051 57.3458 5.84691 57.4011C5.82331 57.4564 5.81115 57.5158 5.81115 57.576C5.81115 57.6361 5.82331 57.6955 5.84691 57.7508C5.87051 57.8061 5.90506 57.856 5.94847 57.8976H5.65156C5.55441 57.9361 5.47039 58.0017 5.40952 58.0866C5.34865 58.1715 5.31351 58.2722 5.3083 58.3765C5.30308 58.4809 5.328 58.5845 5.3801 58.6751C5.43219 58.7657 5.50925 58.8393 5.60207 58.8873Z" fill="#495CB5"/>
<path d="M7.08717 60.8665L15.3016 54.4335C15.846 53.9881 15.3016 53.2459 14.5594 53.6417L6.29541 60.0747C5.94902 60.5696 6.54283 61.3119 7.08717 60.8665Z" fill="#495CB5"/>
<path d="M10.3016 63.3901L19.6048 55.9179C20.1491 55.4725 19.6048 54.7302 18.8625 55.1261L9.55938 62.6478C9.01505 63.0931 9.75732 63.8354 10.3016 63.3901Z" fill="#495CB5"/>
<path d="M62.4096 63.1932C62.5539 63.1932 62.6924 63.1358 62.7945 63.0337C62.8965 62.9316 62.9539 62.7932 62.9539 62.6488C62.9539 62.5045 62.8965 62.366 62.7945 62.2639C62.6924 62.1618 62.5539 62.1045 62.4096 62.1045C62.2652 62.1045 62.1267 62.1618 62.0247 62.2639C61.9226 62.366 61.8652 62.5045 61.8652 62.6488C61.8652 62.7932 61.9226 62.9316 62.0247 63.0337C62.1267 63.1358 62.2652 63.1932 62.4096 63.1932Z" fill="#495CB5"/>
<path d="M84.5776 64.3312L90.0704 59.3827C90.6148 58.8878 90.0704 58.1456 89.3282 58.5909L83.9838 63.5394C83.291 64.3312 84.0828 64.8755 84.5776 64.3312Z" fill="#495CB5"/>
<path d="M89.182 61.9059L85.6191 64.776C85.0747 65.1719 85.6191 65.9636 86.4108 65.5183L89.9737 62.6482C90.5181 62.2028 89.7263 61.4605 89.182 61.9059Z" fill="#495CB5"/>
<path d="M91.8039 117.031L104.225 105.501C104.719 105.006 103.928 104.264 103.433 104.709L91.0122 116.239C90.5173 116.734 91.2596 117.476 91.8039 117.031Z" fill="#495CB5"/>
<path d="M96.009 116.784C95.8983 116.819 95.8015 116.888 95.7328 116.981C95.664 117.075 95.627 117.188 95.627 117.304C95.627 117.42 95.664 117.533 95.7328 117.626C95.8015 117.72 95.8983 117.789 96.009 117.823C96.1198 117.789 96.2166 117.72 96.2853 117.626C96.354 117.533 96.3911 117.42 96.3911 117.304C96.3911 117.188 96.354 117.075 96.2853 116.981C96.2166 116.888 96.1198 116.819 96.009 116.784Z" fill="#495CB5"/>
<path d="M100.265 112.281C99.2259 113.37 98.1372 114.409 97.0485 115.498C95.9599 116.587 97.3454 116.735 97.8403 116.24L101.057 113.024C101.552 112.529 100.76 111.787 100.265 112.281Z" fill="#495CB5"/>
<path d="M96.1074 54.434V61.6588C96.1074 61.8031 96.1648 61.9416 96.2669 62.0437C96.3689 62.1457 96.5074 62.2031 96.6518 62.2031C96.7961 62.2031 96.9346 62.1457 97.0367 62.0437C97.1387 61.9416 97.1961 61.8031 97.1961 61.6588V54.434C97.1961 54.2896 97.1387 54.1512 97.0367 54.0491C96.9346 53.947 96.7961 53.8896 96.6518 53.8896C96.5074 53.8896 96.3689 53.947 96.2669 54.0491C96.1648 54.1512 96.1074 54.2896 96.1074 54.434Z" fill="#495CB5"/>
<path d="M98.7308 56.3646C98.7308 57.9976 98.7308 59.5812 98.4834 61.3131C98.4834 62.0059 99.5226 62.0059 99.5226 61.3131L99.8195 56.3646C99.8195 56.2203 99.7621 56.0818 99.6601 55.9797C99.558 55.8777 99.4195 55.8203 99.2752 55.8203C99.1308 55.8203 98.9923 55.8777 98.8903 55.9797C98.7882 56.0818 98.7308 56.2203 98.7308 56.3646Z" fill="#495CB5"/>
<path d="M39.7961 47.7528L79.3839 46.8621C79.5283 46.8621 79.6667 46.8048 79.7688 46.7027C79.8709 46.6006 79.9283 46.4621 79.9283 46.3178C79.9283 46.1734 79.8709 46.0349 79.7688 45.9329C79.6667 45.8308 79.5283 45.7734 79.3839 45.7734L39.7961 46.7136C39.1528 46.7136 39.1033 47.8023 39.7961 47.7528Z" fill="#495CB5"/>
<path d="M123.918 47.1588C135.659 44.1907 147.954 44.1907 159.695 47.1588C160.388 47.1588 160.636 46.2681 159.992 46.1196C148.056 43.1034 135.557 43.1034 123.621 46.1196C123.498 46.1713 123.399 46.2661 123.342 46.386C123.284 46.506 123.272 46.6429 123.309 46.7708C123.346 46.8987 123.428 47.0088 123.54 47.0803C123.652 47.1518 123.787 47.1797 123.918 47.1588Z" fill="#495CB5"/>
<path d="M22.9208 176.017L6.83828 175.571C6.69391 175.571 6.55546 175.629 6.45338 175.731C6.35129 175.833 6.29395 175.971 6.29395 176.116C6.29395 176.26 6.35129 176.398 6.45338 176.501C6.55546 176.603 6.69391 176.66 6.83828 176.66L22.9208 177.056C23.6136 177.105 23.6136 176.017 22.9208 176.017Z" fill="#495CB5"/>
<path d="M11.6869 174.731L19.2086 174.236C19.8519 174.236 19.8519 173.098 19.2086 173.147L11.6869 173.642C11.5425 173.642 11.4041 173.699 11.302 173.801C11.1999 173.903 11.1426 174.042 11.1426 174.186C11.1426 174.331 11.1999 174.469 11.302 174.571C11.4041 174.673 11.5425 174.731 11.6869 174.731Z" fill="#495CB5"/>
<path d="M230.559 72.0012L230.064 71.4569C225.613 67.7278 220.603 64.722 215.218 62.5496C215.188 62.4402 215.123 62.3433 215.035 62.2723C214.946 62.2013 214.837 62.1598 214.724 62.1538H214.476H213.932C207.589 59.7939 200.903 58.49 194.138 58.2939H192.95C186.716 58.4437 180.521 59.324 174.493 60.9166C161.234 63.5224 148.994 69.857 139.21 79.1765C119.416 99.4158 116.595 132.769 131.936 160.332C137.865 171.825 147.535 180.954 159.35 186.212C168.339 190.068 178.023 192.038 187.804 192.002C190.466 192.001 193.126 191.853 195.771 191.556C212.4 190.048 227.829 182.263 238.922 169.783C248.518 158.278 254.447 144.162 255.944 129.255C255.946 114.555 251.608 100.181 243.474 87.9353C240.067 81.955 235.704 76.5726 230.559 72.0012ZM230.559 73.5352L231.598 74.4755L223.235 81.6507C222.839 81.0074 222.394 80.4136 221.948 79.7703L230.559 73.5352ZM228.629 71.7538L229.816 72.694L221.355 78.6817L220.612 77.7415L228.381 71.7538C228.461 71.7843 228.549 71.7843 228.629 71.7538ZM225.907 69.7744L227.936 71.2589L219.722 77.1476L218.732 76.0095L225.561 70.3682C225.634 70.29 225.682 70.1919 225.7 70.0862C225.717 69.9806 225.703 69.8721 225.66 69.7744H225.907ZM225.264 69.2796H224.917L217.891 75.2177L216.901 74.2775L220.315 71.3579L223.68 68.3888L225.264 69.2796ZM222.74 67.6466L216.06 73.3868C215.918 73.2285 215.75 73.0947 215.565 72.9909L221.701 67.0527L222.74 67.6466ZM216.95 64.5785L220.711 66.4589L214.724 72.2486L213.486 71.3084L218.435 66.36C218.483 66.2683 218.508 66.1664 218.508 66.0631C218.508 65.9597 218.483 65.8578 218.435 65.7661C218.387 65.6621 218.311 65.574 218.214 65.5126C218.117 65.4511 218.005 65.4189 217.891 65.4198C217.796 65.4248 217.703 65.4494 217.617 65.4919C217.532 65.5345 217.457 65.5942 217.396 65.6672L212.447 70.6157L211.606 70.0218L216.555 65.0734C216.649 65.0651 216.738 65.0271 216.809 64.9648C216.88 64.9026 216.93 64.8193 216.95 64.727V64.5785ZM214.278 63.4404L215.961 64.1331L211.012 69.4775L209.676 68.6363L214.278 63.4404ZM213.19 62.995L208.241 67.9435L207.152 67.3497L211.804 62.4012L213.19 62.995ZM208.835 61.7084L210.913 62.3022L206.311 67.2507C205.685 66.9316 205.041 66.6507 204.381 66.4094L208.686 62.2032C208.744 62.1355 208.787 62.0565 208.813 61.9714C208.838 61.8862 208.846 61.7967 208.835 61.7084ZM204.975 60.7187L207.796 61.4115L203.293 65.8651L200.868 65.0239L204.926 60.8177L204.975 60.7187ZM202.056 60.1744H203.243H203.886L199.878 64.4301L197.948 63.9352L202.006 59.8775L202.056 60.1744ZM198.938 59.7785H200.472L196.612 63.6878C196.018 63.6878 195.375 63.4404 194.732 63.3909L198.889 60.1249C198.943 60.018 198.96 59.8963 198.938 59.7785ZM191.664 59.3826H192.95C194.583 59.3826 196.216 59.3826 197.899 59.3826L194.583 61.9558L193.198 63.1435H191.416L194.484 60.6692C194.545 60.5913 194.577 60.4955 194.577 60.397C194.577 60.2986 194.545 60.2028 194.484 60.1249C194.451 60.0074 194.379 59.9045 194.281 59.8327C194.182 59.7609 194.062 59.7244 193.94 59.729H193.594L189.734 62.896H187.705L191.565 59.63C191.615 59.5554 191.648 59.4711 191.664 59.3826ZM236.596 113.321C236.636 113.434 236.709 113.533 236.807 113.603C236.904 113.674 237.02 113.714 237.14 113.717C237.195 113.74 237.254 113.752 237.313 113.752C237.373 113.752 237.432 113.74 237.487 113.717L249.858 103.82C249.858 104.562 250.402 105.354 250.65 106.146C250.65 106.146 250.402 106.146 250.155 106.393L237.041 116.587C236.596 114.558 236.151 112.48 235.606 110.451H235.854L247.087 102.038C247.148 101.943 247.181 101.831 247.181 101.717C247.181 101.603 247.148 101.491 247.087 101.395C247.056 101.286 246.992 101.189 246.903 101.118C246.814 101.047 246.705 101.005 246.592 100.999H246.344L235.161 109.362L234.616 107.333L246.443 98.9704C246.505 98.8745 246.538 98.7628 246.538 98.6488C246.538 98.5347 246.505 98.423 246.443 98.3271C246.412 98.2177 246.348 98.1207 246.259 98.0497C246.171 97.9787 246.062 97.9373 245.948 97.9312L234.518 106.245L234.072 104.661L243.969 97.7828C244.021 97.6835 244.048 97.5732 244.048 97.4611C244.048 97.3491 244.021 97.2387 243.969 97.1395C243.938 97.0301 243.874 96.9331 243.785 96.8621C243.696 96.7911 243.588 96.7497 243.474 96.7436L233.577 103.622L232.983 101.841H233.577L243.474 94.6652C243.536 94.5693 243.569 94.4577 243.569 94.3436C243.569 94.2295 243.536 94.1178 243.474 94.0219C243.443 93.9125 243.379 93.8156 243.29 93.7446C243.202 93.6736 243.093 93.6321 242.979 93.6261H242.732L232.835 100.752C232.588 100.059 232.39 99.3168 232.142 98.6735L242.039 91.4982C242.097 91.4099 242.127 91.3067 242.127 91.2013C242.127 91.0959 242.097 90.9927 242.039 90.9044C241.999 90.7911 241.926 90.6926 241.829 90.6219C241.731 90.5512 241.615 90.5117 241.495 90.5085L231.598 97.5353C231.598 96.7931 231.054 96.1003 230.757 95.358C230.868 95.3998 230.991 95.3998 231.103 95.358H231.449L240.258 88.2817C240.318 88.2037 240.351 88.108 240.351 88.0095C240.351 87.911 240.318 87.8153 240.258 87.7374C240.2 87.6268 240.115 87.5326 240.012 87.4634C239.908 87.3942 239.788 87.3523 239.664 87.3415C239.552 87.3038 239.43 87.3038 239.318 87.3415L230.509 94.3683C230.509 94.3683 230.509 94.3683 230.509 94.6158C230.364 94.314 230.248 93.9992 230.163 93.6755C230.057 93.5246 229.898 93.4188 229.718 93.3786C232.637 91.2013 235.507 89.0735 238.179 86.9456C238.232 86.8019 238.232 86.644 238.179 86.5002C238.248 86.3254 238.248 86.1308 238.179 85.9559L234.616 82.3435C234.455 82.2968 234.283 82.2968 234.122 82.3435H233.775L223.186 90.3601C223.105 90.4762 223.061 90.6144 223.061 90.7559C223.061 90.8975 223.105 91.0357 223.186 91.1518C223.207 91.2598 223.255 91.3611 223.324 91.4472C223.392 91.5332 223.481 91.6016 223.581 91.6467C223.928 92.5869 224.373 93.5766 224.819 94.5168C225.264 95.457 225.264 95.4075 225.462 95.8529C225.522 95.9573 225.609 96.0442 225.713 96.1049C225.817 96.1657 225.935 96.1982 226.056 96.1993H226.402L229.371 94.0219C232.598 102.004 235.003 110.294 236.546 118.764C236.57 118.878 236.632 118.98 236.722 119.052C236.813 119.124 236.925 119.163 237.041 119.16C237.185 119.213 237.343 119.213 237.487 119.16C237.522 119.083 237.541 118.998 237.541 118.913C237.541 118.827 237.522 118.743 237.487 118.665V118.022V117.676L251.144 106.641L251.887 108.917H251.59C251.462 108.867 251.321 108.867 251.194 108.917L238.971 119.111C238.902 119.184 238.863 119.282 238.863 119.383C238.863 119.484 238.902 119.582 238.971 119.655C239.011 119.768 239.085 119.867 239.182 119.938C239.279 120.008 239.395 120.048 239.515 120.051C239.628 120.089 239.749 120.089 239.862 120.051L252.134 109.857C252.975 112.727 253.668 115.597 254.212 118.418C256.736 132.719 252.678 147.812 241.643 164.637C235.283 174.131 226.113 181.398 215.416 185.42C216.681 184.491 217.872 183.465 218.979 182.352L222.691 181.363C222.814 181.328 222.919 181.246 222.984 181.136C223.048 181.025 223.068 180.893 223.037 180.769C223.037 180.472 223.037 180.274 222.443 180.274L220.662 180.769C221.57 179.807 222.429 178.799 223.235 177.75H223.581L230.113 175.573C230.237 175.538 230.342 175.457 230.407 175.346C230.471 175.235 230.49 175.104 230.46 174.979C230.436 174.843 230.361 174.722 230.251 174.639C230.14 174.557 230.003 174.519 229.866 174.534L224.175 176.414C224.72 175.672 225.214 174.88 225.709 174.138C225.722 174.26 225.779 174.374 225.871 174.456C225.962 174.538 226.081 174.584 226.204 174.583L232.588 172.802C232.705 172.758 232.803 172.675 232.866 172.566C232.93 172.458 232.953 172.332 232.934 172.208C232.934 171.911 232.934 171.713 232.34 171.713L225.808 173.198C226.442 172.191 227.02 171.15 227.54 170.08C227.571 170.189 227.635 170.286 227.724 170.357C227.813 170.428 227.922 170.47 228.035 170.476L232.142 169.585C232.26 169.552 232.363 169.48 232.434 169.382C232.506 169.283 232.543 169.163 232.538 169.041C232.514 168.892 232.434 168.758 232.314 168.666C232.195 168.574 232.045 168.531 231.895 168.546L227.837 169.437C227.837 168.942 228.282 168.496 228.48 168.002L231.598 167.358L234.171 170.426C234.25 170.459 234.334 170.476 234.419 170.476C234.503 170.476 234.588 170.459 234.666 170.426C234.801 170.433 234.936 170.404 235.058 170.344C235.179 170.283 235.283 170.192 235.359 170.08L239.12 165.132C239.241 164.995 239.309 164.819 239.309 164.637C239.309 164.454 239.241 164.278 239.12 164.142L232.538 158.698L229.322 156.076C229.129 156.012 228.921 156.012 228.728 156.076C228.553 156.007 228.358 156.007 228.183 156.076C227.978 156.331 227.746 156.563 227.491 156.769C226.402 157.758 224.917 159.193 225.214 160.381C225.266 160.654 225.405 160.903 225.611 161.09C225.816 161.277 226.076 161.393 226.353 161.42C226.548 161.374 226.751 161.374 226.946 161.42C227.569 161.97 228.133 162.584 228.629 163.251L229.025 163.795C228.942 163.818 228.866 163.862 228.806 163.923C228.745 163.983 228.701 164.059 228.678 164.142L227.788 166.666C227.788 166.666 227.441 167.061 227.788 167.16C225.669 172.186 222.554 176.731 218.633 180.521L216.604 181.115C216.538 181.127 216.476 181.152 216.42 181.188C216.364 181.225 216.317 181.272 216.28 181.328C216.243 181.383 216.217 181.445 216.205 181.511C216.193 181.577 216.194 181.644 216.208 181.709C216.232 181.845 216.307 181.966 216.417 182.049C216.528 182.131 216.665 182.169 216.802 182.154C215.756 183.05 214.666 183.892 213.536 184.678C213.474 184.774 213.441 184.886 213.441 185C213.441 185.114 213.474 185.225 213.536 185.321C205.777 188.084 197.622 189.571 189.387 189.725H187.705C181.934 189.739 176.183 189.041 170.583 187.647C158.24 184.827 147.246 177.836 139.457 167.853C121.098 143.111 118.921 110.946 134.063 87.5394C141.699 76.2826 152.938 67.9584 165.932 63.9352C171.148 62.0964 176.512 60.7058 181.965 59.7785L179.392 62.9455C179.356 63.0231 179.338 63.1075 179.338 63.1929C179.338 63.2783 179.356 63.3627 179.392 63.4404C178.154 63.4404 176.917 63.4404 175.631 63.8362C175.579 63.7645 175.513 63.7051 175.436 63.6623C175.359 63.6195 175.273 63.5944 175.185 63.5888C175.087 63.4576 174.94 63.3708 174.778 63.3476C174.616 63.3244 174.451 63.3667 174.319 63.4651C174.188 63.5635 174.101 63.7101 174.078 63.8725C174.055 64.0349 174.097 64.1998 174.196 64.3311V64.628C171.066 65.1322 167.998 65.9614 165.041 67.1022C164.916 67.1644 164.814 67.2657 164.752 67.3906C164.689 67.5156 164.669 67.6576 164.695 67.795C164.718 67.9085 164.78 68.0102 164.87 68.0826C164.961 68.1549 165.074 68.1932 165.189 68.1909C167.914 67.1393 170.73 66.3441 173.602 65.8156C173.646 65.9124 173.715 65.9955 173.802 66.0564C173.889 66.1174 173.991 66.1538 174.097 66.162C174.195 66.1505 174.289 66.1121 174.368 66.051C174.446 65.99 174.507 65.9085 174.542 65.8156C176.898 65.4377 179.282 65.2556 181.668 65.2713H183.4C183.469 65.2782 183.539 65.2706 183.604 65.2488C183.67 65.2271 183.731 65.1917 183.782 65.1451C183.833 65.0984 183.874 65.0415 183.902 64.978C183.93 64.9145 183.944 64.8458 183.944 64.7764C183.951 64.7009 183.942 64.6248 183.918 64.5529C183.894 64.4811 183.855 64.4151 183.803 64.3591C183.752 64.3032 183.69 64.2586 183.62 64.2283C183.551 64.1979 183.476 64.1823 183.4 64.1826H179.936L182.46 61.0651C182.524 60.9794 182.559 60.8753 182.559 60.7682C182.559 60.6611 182.524 60.5569 182.46 60.4713C183.697 60.4713 184.983 60.0754 186.27 59.9764L183.103 63.094C183.045 63.1823 183.015 63.2855 183.015 63.3909C183.015 63.4963 183.045 63.5994 183.103 63.6878C183.136 63.7921 183.202 63.8826 183.291 63.9452C183.381 64.0079 183.489 64.0392 183.598 64.0342C183.725 64.0839 183.866 64.0839 183.994 64.0342L187.606 60.4218C187.641 60.3527 187.659 60.2765 187.659 60.1991C187.659 60.1218 187.641 60.0455 187.606 59.9764H190.031L186.27 63.1929C186.212 63.3358 186.212 63.4955 186.27 63.6383H184.835C184.686 63.6507 184.547 63.7188 184.447 63.8288C184.346 63.9388 184.29 64.0828 184.291 64.2321C184.297 64.3037 184.317 64.3734 184.35 64.4371C184.384 64.5008 184.429 64.5572 184.484 64.6032C184.54 64.6492 184.603 64.6839 184.672 64.7051C184.741 64.7263 184.813 64.7338 184.884 64.727C186.121 64.727 187.408 64.727 188.645 64.727C189.882 64.727 191.367 64.727 192.554 64.727C192.611 64.8053 192.685 64.8687 192.771 64.9118C192.858 64.9549 192.953 64.9764 193.049 64.9744C194.938 65.1723 196.808 65.5197 198.641 66.0136C198.606 66.0826 198.588 66.1589 198.588 66.2362C198.588 66.3136 198.606 66.3899 198.641 66.4589C198.681 66.5722 198.755 66.6708 198.852 66.7414C198.949 66.8121 199.065 66.8517 199.185 66.8548C199.185 66.8548 199.433 66.8548 199.581 66.8548L199.829 66.5579C200.917 66.8548 201.957 67.2507 202.946 67.5971C211.804 71.0067 219.156 77.4636 223.68 85.8075C223.724 85.9022 223.793 85.9825 223.881 86.0388C223.969 86.0951 224.071 86.125 224.175 86.125C224.279 86.125 224.381 86.0951 224.469 86.0388C224.557 85.9825 224.627 85.9022 224.67 85.8075C224.718 85.7247 224.743 85.6308 224.743 85.5353C224.743 85.4397 224.718 85.3459 224.67 85.2631C224.274 84.5209 223.829 83.7291 223.334 82.9868L231.746 75.7621L232.885 76.9992C232.885 76.9992 232.637 76.9992 232.538 76.9992L225.363 84.125C225.299 84.2106 225.264 84.3148 225.264 84.4219C225.264 84.529 225.299 84.6331 225.363 84.7188C225.411 84.8229 225.487 84.9109 225.584 84.9724C225.68 85.0338 225.793 85.0661 225.907 85.0652C226.02 85.1029 226.141 85.1029 226.254 85.0652L233.973 77.6425L236.744 80.7105C242.16 87.6123 246.513 95.2847 249.66 103.474C249.605 103.45 249.546 103.438 249.487 103.438C249.427 103.438 249.368 103.45 249.313 103.474L236.942 113.37C236.892 113.336 236.835 113.314 236.775 113.305C236.715 113.297 236.654 113.302 236.596 113.321ZM236.596 86.6487C233.132 89.0735 229.569 91.5972 225.957 94.6652V94.2199C225.462 93.3292 224.967 92.3394 224.423 91.4487L230.856 86.5002C231.152 86.2898 231.433 86.0583 231.697 85.8075C232.277 85.1588 232.984 84.6366 233.775 84.2734C234.814 84.4714 235.903 85.7085 236.744 86.6487H236.596ZM230.856 166.517L228.975 166.913C228.975 166.27 229.421 165.676 229.619 165.033L230.856 166.517ZM226.996 159.985L228.777 158.006L235.359 163.301L235.854 163.696C236.222 163.908 236.556 164.175 236.843 164.488C237.289 165.082 237.289 165.132 236.843 165.577L236.596 165.973C236.097 166.834 235.517 167.646 234.864 168.397L234.567 168.793L233.577 167.606C231.548 165.082 229.322 162.459 226.996 159.985Z" fill="#495CB5"/>
<path d="M250.848 82.4913C247.004 75.8846 242.125 69.9369 236.398 64.8748L235.656 64.3304C235.618 64.3087 235.575 64.2973 235.532 64.2973C235.489 64.2973 235.446 64.3087 235.408 64.3304C229.77 59.5913 223.336 55.8887 216.406 53.3943C210.658 51.2821 204.647 49.9668 198.542 49.485H198.938C210.468 49.485 214.278 36.1241 214.724 28.2066C215.335 22.8772 214.151 17.4961 211.359 12.9158C208.385 8.48243 204.215 4.98233 199.334 2.8209C195.1 0.984098 190.538 0.0245658 185.924 0.000269719C180.227 -0.0240048 174.645 1.59072 169.841 4.65184C166.101 7.03008 163.02 10.3125 160.884 14.1958C158.748 18.0792 157.625 22.4383 157.618 26.8705L156.876 26.5241C156.816 26.5087 156.754 26.5074 156.694 26.5202C156.634 26.5331 156.578 26.5598 156.53 26.5982C156.481 26.6366 156.443 26.6857 156.417 26.7416C156.392 26.7974 156.379 26.8585 156.381 26.92C156.297 26.82 156.19 26.7411 156.07 26.6896C155.95 26.638 155.819 26.6153 155.688 26.6231C146.732 26.6231 137.824 26.6231 128.868 26.6231C122.187 26.6231 115.507 26.6231 108.777 26.6231C104.125 26.6231 85.3705 26.1282 80.62 26.3756L63.8447 27.2169C54.1951 27.7117 44.4467 27.5633 34.8466 28.6519C27.7208 29.3447 22.6239 36.0252 17.5764 40.2314C12.529 44.4376 8.81764 43.8932 2.08771 53.4438C0.99905 60.4706 3.12689 72.149 3.22586 80.1161C3.37432 89.6171 3.47329 98.9698 3.57226 108.867C3.57226 115.993 3.67123 123.118 3.86917 130.244C3.17638 130.244 3.17638 131.333 3.86917 131.283C3.86917 132.125 3.86917 132.966 3.86917 133.807C3.79728 133.863 3.73907 133.934 3.69902 134.015C3.65897 134.097 3.63814 134.186 3.63814 134.277C3.63814 134.368 3.65897 134.458 3.69902 134.539C3.73907 134.621 3.79728 134.692 3.86917 134.747C3.86917 135.391 3.86917 136.034 3.86917 136.677C3.86917 140.982 3.86917 145.287 4.11659 149.642C4.36401 153.997 4.11659 158.995 3.86917 163.696C3.07741 163.993 2.08771 163.993 1.54338 164.784C0.926553 166.356 0.722132 168.06 0.949566 169.733C0.949566 174.286 0.949566 178.888 0.949566 183.44C0.961613 183.699 1.06975 183.944 1.25281 184.127C1.43587 184.31 1.68066 184.418 1.93926 184.43H5.40319C0.108325 208.034 43.8528 199.275 55.1848 198.879C86.3602 197.89 117.734 195.762 148.909 196.752C152.472 196.752 157.965 197.395 163.754 197.593C160.935 197.058 158.225 196.054 155.738 194.624C165.791 198.797 176.573 200.933 187.458 200.908C190.399 200.908 193.339 200.759 196.266 200.463C215.188 198.736 232.749 189.893 245.404 175.721C250.679 169.083 255.055 161.779 258.419 153.997C261.968 146.435 264.178 138.314 264.951 129.997C266.188 116.339 261.388 100.157 250.848 82.4913ZM167.416 8.26422C172.564 3.76043 179.183 1.2962 186.023 1.33636C188.578 1.34551 191.122 1.67805 193.594 2.32605C201.808 4.40441 211.903 10.59 213.388 21.1797C214.598 28.8351 212.827 36.663 208.439 43.052C207.278 44.4208 205.816 45.5034 204.168 46.2157C202.521 46.928 200.731 47.2509 198.938 47.1592H198.196V45.9716H198.691C200.069 45.9941 201.437 45.7284 202.706 45.1916C203.976 44.6547 205.12 43.8585 206.064 42.8541C209.36 38.7537 210.971 33.5513 210.567 28.3055C210.171 21.2292 208.835 11.2828 199.284 7.42298C195.785 6.07151 192.047 5.44848 188.299 5.59205H184.241C179.694 5.53832 175.21 6.66353 171.227 8.85804C168.27 11.167 165.966 14.2071 164.543 17.6783C163.12 21.1495 162.626 24.9318 163.111 28.6519C163.248 32.8697 164.873 36.9029 167.699 40.0368C170.525 43.1707 174.369 45.2031 178.55 45.7737V46.12C178.55 46.6644 178.55 47.3077 178.55 48.0005C175.318 47.1568 172.312 45.6107 169.746 43.4724C167.18 41.334 165.118 38.6561 163.705 35.6293C162.232 32.3212 161.571 28.7088 161.777 25.0934C161.984 21.478 163.052 17.9644 164.893 14.8457C164.94 14.7629 164.965 14.6691 164.965 14.5735C164.965 14.478 164.94 14.3841 164.893 14.3014C164.868 14.1658 164.794 14.0444 164.683 13.9618C164.573 13.8791 164.436 13.8413 164.299 13.856C164.21 13.8578 164.123 13.8813 164.045 13.9244C163.968 13.9675 163.902 14.029 163.853 14.1034C161.879 17.3461 160.706 21.0124 160.43 24.7987C160.155 28.5851 160.786 32.3825 162.27 35.8767C164.492 40.8316 168.354 44.8687 173.206 47.3077C169.948 46.0563 167.027 44.0632 164.673 41.4864C162.32 38.9095 160.599 35.8198 159.647 32.4623C158.545 28.0909 158.689 23.4982 160.062 19.2042C161.435 14.9102 163.982 11.0863 167.416 8.16525V8.26422ZM184.39 49.485L182.41 49.7819L186.666 46.6644V47.1097L184.39 48.8912C184.344 49.0193 184.344 49.159 184.39 49.2871V49.485ZM181.767 49.485C181.807 49.58 181.868 49.6648 181.945 49.7333C182.022 49.8018 182.113 49.8522 182.212 49.8809L180.134 50.2273V49.485L186.715 44.5365V45.1798L181.767 48.6933C181.713 48.7441 181.67 48.8055 181.641 48.8736C181.611 48.9417 181.596 49.015 181.596 49.0891C181.596 49.1633 181.611 49.2366 181.641 49.3047C181.67 49.3728 181.713 49.4341 181.767 49.485ZM179.194 50.3757L177.214 50.7716C177.214 50.7716 177.214 50.2273 177.214 49.9304C177.849 50.1 178.494 50.2322 179.144 50.3263L179.194 50.3757ZM178.55 49.485C178.55 49.485 178.55 49.485 178.897 49.485C178.979 49.4756 179.062 49.4756 179.144 49.485H178.55ZM179.144 40.3303L180.53 39.3406C180.598 39.2473 180.635 39.1347 180.635 39.019C180.635 38.9033 180.598 38.7907 180.53 38.6973C180.499 38.588 180.435 38.491 180.346 38.42C180.257 38.349 180.148 38.3075 180.035 38.3015H179.688L175.878 40.9736H175.383C175.039 41.0291 174.688 41.0291 174.344 40.9736L180.035 37.0149C180.477 37.6963 181.049 38.2846 181.717 38.7468L179.144 40.3303ZM178.798 41.0231H178.055L178.946 40.3798C178.903 40.464 178.88 40.5573 178.88 40.652C178.88 40.7467 178.903 40.84 178.946 40.9242L178.798 41.0231ZM170.732 36.8169C170.761 36.896 170.808 36.9678 170.868 37.0275C170.927 37.0872 170.999 37.1335 171.078 37.1633V37.7571C171.078 37.7571 171.078 38.3509 171.078 38.4499C171.099 39.0421 171.216 39.627 171.424 40.1819C171.356 40.2752 171.319 40.3879 171.319 40.5035C171.319 40.6192 171.356 40.7319 171.424 40.8252C171.448 40.9386 171.51 41.0404 171.6 41.1127C171.691 41.1851 171.804 41.2234 171.919 41.2211L172.266 41.7159C172.579 42.1336 172.993 42.4658 173.469 42.682C173.944 42.8982 174.466 42.9914 174.987 42.953C175.803 42.9275 176.615 42.8281 177.412 42.6561H178.204C178.204 43.3489 178.204 44.0417 178.204 44.7345V45.0809C175.259 44.709 172.487 43.4855 170.228 41.5603C167.969 39.6352 166.321 37.0922 165.486 34.2437C165.051 32.9561 164.736 31.6308 164.546 30.2849L170.583 35.6293V36.421C170.568 36.4943 170.574 36.5704 170.6 36.6405C170.626 36.7105 170.672 36.7717 170.732 36.8169ZM171.622 31.8684C171.622 30.8787 172.167 30.3344 174.146 30.0375L171.622 31.8684ZM176.175 29.6911H176.868L171.919 33.452C171.919 33.452 171.919 33.155 171.919 33.0066L173.552 31.819L176.175 29.6911ZM178.649 35.7283C178.626 35.6148 178.564 35.513 178.474 35.4407C178.383 35.3684 178.27 35.33 178.154 35.3324L172.711 39.5881C172.711 39.2252 172.612 38.8293 172.414 38.4004L178.699 34.0458C178.748 34.9425 178.984 35.819 179.392 36.619L173.305 40.8252L178.6 37.0149C178.744 37.0214 178.885 36.9704 178.992 36.8729C179.099 36.7755 179.162 36.6396 179.169 36.4953C179.175 36.3509 179.124 36.2098 179.027 36.1031C178.929 35.9964 178.794 35.9328 178.649 35.9262V35.7283ZM182.707 39.2912H183.301L182.361 39.9345L181.519 40.5778H180.084L182.707 39.5881V39.2912ZM182.707 41.9138H183.598L180.381 44.5365L182.608 42.5077C182.658 42.3804 182.658 42.2391 182.608 42.1118L182.707 41.9138ZM179.392 43.2499C179.572 42.9433 179.824 42.6844 180.125 42.4949C180.426 42.3055 180.769 42.1911 181.124 42.1613L179.342 43.8438C179.359 43.7084 179.393 43.5755 179.441 43.4479L179.392 43.2499ZM180.134 48.0005L182.559 45.9221L186.616 42.4582V42.953L180.035 48.3963C180.011 48.2489 180.011 48.0985 180.035 47.951L180.134 48.0005ZM186.963 48.6933H187.309C187.383 48.701 187.457 48.6923 187.526 48.6677C187.596 48.6431 187.659 48.6033 187.711 48.5511C187.763 48.4989 187.803 48.4357 187.828 48.3661C187.853 48.2965 187.861 48.2223 187.853 48.1489V42.5077C187.852 42.4189 187.828 42.3319 187.785 42.2542C187.742 42.1766 187.68 42.1107 187.606 42.0623H190.179C191.846 42.0138 193.511 42.197 195.128 42.6066C196.662 43.052 196.662 43.4479 196.81 44.9324C196.81 44.9324 197.107 48.1489 197.157 49.1386C196.167 49.1386 195.128 49.1386 194.089 49.1386H193.247C190.971 49.1386 188.645 49.1386 186.171 49.5345L186.963 48.6933ZM194.732 41.2705C193.495 41.2705 192.208 41.2705 190.971 41.2705H187.111H186.814H183.4L184.093 40.6272C184.15 40.5389 184.181 40.4357 184.181 40.3303C184.181 40.2249 184.15 40.1218 184.093 40.0334C184.635 40.1062 185.184 40.1062 185.726 40.0334C186.334 40.1056 186.948 40.1056 187.557 40.0334C187.662 40.0123 187.758 39.9574 187.829 39.877C187.9 39.7967 187.944 39.6952 187.952 39.5881C187.946 39.5165 187.926 39.4468 187.893 39.3831C187.859 39.3194 187.814 39.2629 187.759 39.2169C187.703 39.1709 187.64 39.1363 187.571 39.1151C187.502 39.0938 187.43 39.0864 187.359 39.0932C186.832 39.1385 186.302 39.1385 185.775 39.0932C184.92 39.0854 184.077 38.8961 183.3 38.5378C182.524 38.1795 181.833 37.6604 181.272 37.0149C180.699 36.3398 180.286 35.5443 180.064 34.6875C179.841 33.8308 179.814 32.9349 179.985 32.0664C180.02 31.9973 180.038 31.921 180.038 31.8437C180.038 31.7664 180.02 31.6901 179.985 31.621C179.907 31.5884 179.823 31.5715 179.738 31.5715C179.653 31.5715 179.569 31.5884 179.491 31.621C179.375 31.6187 179.262 31.657 179.171 31.7294C179.081 31.8017 179.019 31.9034 178.996 32.0169C178.996 32.3633 178.996 32.7592 178.996 33.1056C178.884 33.0638 178.761 33.0638 178.649 33.1056H178.154L172.216 37.2623V36.6685L179.144 30.8787C179.192 30.796 179.217 30.7021 179.217 30.6066C179.217 30.511 179.192 30.4172 179.144 30.3344C179.089 30.2625 179.017 30.2043 178.936 30.1643C178.854 30.1242 178.765 30.1034 178.674 30.1034C178.583 30.1034 178.494 30.1242 178.412 30.1643C178.331 30.2043 178.259 30.2625 178.204 30.3344L172.612 34.6396L175.581 32.4128L178.6 29.6911H180.431H186.369H192.406H197.899H199.086H200.571C201.61 29.6911 202.204 29.988 202.501 30.6313C202.867 31.7507 203.068 32.9178 203.095 34.0953C203.095 34.6891 203.095 35.2829 203.095 35.7777L203.886 40.7262L201.462 41.0726C199.238 41.2314 197.007 41.248 194.781 41.1221L194.732 41.2705ZM202.501 41.8644L204.777 41.5675C204.972 41.5299 205.147 41.4248 205.272 41.2705C205.309 41.1845 205.328 41.0919 205.328 40.9984C205.328 40.9048 205.309 40.8122 205.272 40.7262C204.777 37.7076 204.332 34.6891 203.886 31.6705L203.392 28.4045C203.359 28.2557 203.279 28.1217 203.162 28.0233C203.046 27.9249 202.901 27.8676 202.748 27.8602C198.196 27.8602 193.544 27.8602 189.091 28.2066H186.171H182.064H176.274H174.097H171.771C171.241 28.1474 170.706 28.251 170.237 28.5035C169.925 28.7644 169.722 29.1321 169.667 29.5347C169.612 29.9374 169.71 30.346 169.94 30.6808C169.952 30.8455 169.952 31.0109 169.94 31.1757C169.916 31.5712 169.916 31.9678 169.94 32.3633L164.299 27.4148C164.031 24.5331 164.368 21.6273 165.288 18.8835C166.209 16.1396 167.692 13.6182 169.643 11.4807C174.257 7.77325 180.128 5.99939 186.023 6.53226C188.173 6.52214 190.322 6.65439 192.456 6.92813C196.674 7.22883 200.659 8.9768 203.738 11.8766C206.312 14.789 207.89 18.4469 208.241 22.3179C209.231 28.6025 208.934 36.8664 205.272 41.1221C204.463 42.1671 203.429 43.0166 202.247 43.6077C201.065 44.1987 199.765 44.5162 198.443 44.5365H197.998L197.75 42.3592C199.383 42.1613 200.967 41.9138 202.55 41.7159L202.501 41.8644ZM175.73 51.217L171.523 52.2067C167.392 53.2086 163.327 54.4646 159.35 55.9675L165.239 51.6623H166.476C166.476 52.1077 166.971 52.5036 167.317 52.0582L167.614 51.6129L175.73 51.217ZM128.868 28.454H145.593C149.6 27.9102 153.661 27.9102 157.668 28.454V28.8499C157.966 31.6221 158.754 34.3194 159.994 36.8169C159.924 36.7821 159.848 36.764 159.771 36.764C159.693 36.764 159.617 36.7821 159.548 36.8169L155.886 38.8458C155.342 39.1427 155.886 39.9839 156.381 39.687L160.043 37.6582C160.043 37.6582 160.043 37.6582 160.043 37.3613C160.043 37.0643 160.587 38.3509 160.884 38.8458L155.639 41.9633C155.095 42.2602 155.639 43.1015 156.134 42.8046L161.627 39.5881C164.228 43.4147 167.867 46.4191 172.117 48.2479L171.771 48.5448H169.693C170.088 48.05 169.247 47.5551 168.851 48.05L168.257 48.7922H165.387L167.862 47.4067C167.933 47.3623 167.992 47.3003 168.033 47.2267C168.074 47.1531 168.096 47.0703 168.096 46.986C168.096 46.9018 168.074 46.8189 168.033 46.7453C167.992 46.6717 167.933 46.6098 167.862 46.5654L165.288 44.5365C165.261 44.5049 165.226 44.4796 165.188 44.4623C165.149 44.445 165.108 44.436 165.066 44.436C165.024 44.436 164.982 44.445 164.944 44.4623C164.905 44.4796 164.871 44.5049 164.843 44.5365L161.181 46.1695C160.637 46.417 161.181 47.2582 161.676 46.9613L165.041 45.5262L166.971 46.9118C165.981 47.4561 164.991 48.0005 164.051 48.5943C159.103 48.5943 154.154 48.8912 149.206 48.9407L129.659 49.485H119.762C116.424 49.8686 113.041 49.4966 109.865 48.3963C108.586 41.3575 106.338 34.5297 103.185 28.1076C111.733 28.7002 120.307 28.8159 128.868 28.454ZM114.814 51.6129H118.278L110.954 58.4912C110.954 57.4521 110.954 56.3634 110.954 55.3242L114.814 51.6129ZM110.707 53.9881C110.707 52.9489 110.707 51.8603 110.36 50.8211C111.323 51.1561 112.318 51.3883 113.329 51.5139L110.707 53.9881ZM98.1871 28.5035C98.4345 32.0664 98.6819 35.6293 98.8799 39.2417C98.8799 39.885 100.018 39.9345 99.9685 39.2417L99.2758 28.5035C100.063 28.6268 100.864 28.6268 101.651 28.5035C105.637 37.041 108.051 46.2271 108.777 55.6211L107.985 56.3634C107.926 56.467 107.903 56.5871 107.919 56.7053C107.935 56.8235 107.989 56.9331 108.073 57.0174C108.158 57.1017 108.267 57.156 108.385 57.172C108.504 57.1879 108.624 57.1646 108.727 57.1057C108.998 61.8971 108.799 66.7036 108.134 71.4562L107.886 71.1098C107.811 70.9645 107.698 70.8425 107.558 70.7574C107.418 70.6722 107.258 70.6272 107.094 70.6272C106.931 70.6272 106.77 70.6722 106.631 70.7574C106.491 70.8425 106.378 70.9645 106.303 71.1098C106.281 71.2076 106.281 71.309 106.303 71.4068C105.511 69.3779 104.769 67.349 103.977 65.3696C103.914 65.1833 103.794 65.0214 103.634 64.9067C103.474 64.7921 103.283 64.7304 103.086 64.7304C102.889 64.7304 102.698 64.7921 102.538 64.9067C102.378 65.0214 102.258 65.1833 102.195 65.3696C101.552 67.8439 100.958 70.3181 100.315 72.8913L97.7417 66.6067C97.7015 66.4803 97.6302 66.3661 97.5344 66.2744C97.4385 66.1827 97.3211 66.1166 97.193 66.0821C97.065 66.0476 96.9303 66.0459 96.8013 66.077C96.6724 66.1082 96.5534 66.1712 96.4551 66.2603L92.9417 70.0212C92.5465 63.8419 92.5465 57.6437 92.9417 51.4644C96.397 51.1178 99.8782 51.1178 103.334 51.4644C103.977 51.4644 103.977 50.4252 103.334 50.3757C99.8936 50.0537 96.4311 50.0537 92.9912 50.3757C93.3903 43.0005 94.283 35.6604 95.6634 28.4045C96.4994 28.5196 97.3446 28.5527 98.1871 28.5035ZM12.4795 46.8128C14.4589 45.2788 16.2898 43.5963 18.2692 41.8644L27.3249 34.6396C29.527 32.0673 32.6207 30.4232 35.9848 30.0375C40.191 30.0375 44.4467 30.0375 48.7023 29.7901C54.0467 29.7901 59.3416 29.2952 64.6364 29.0478C69.9313 28.8004 74.7808 28.6024 79.8282 28.3055C83.8365 28.3055 93.684 28.3055 94.4262 28.3055C92.9715 33.8313 91.9131 39.4539 91.2592 45.1304C90.8633 48.3469 91.2592 49.6335 87.7458 49.7324H64.9828C64.9319 49.6785 64.8706 49.6356 64.8025 49.6062C64.7344 49.5769 64.6611 49.5617 64.5869 49.5617C64.5128 49.5617 64.4395 49.5769 64.3714 49.6062C64.3033 49.6356 64.242 49.6785 64.1911 49.7324H46.3271H24.8507H24.0095L33.1641 41.9138C33.659 41.4685 33.1641 40.7262 32.3724 41.1716L22.7229 49.7324C22.6997 49.7873 22.6878 49.8461 22.6878 49.9056C22.6878 49.9651 22.6997 50.024 22.7229 50.0788H18.2692L28.9579 40.9736C29.4528 40.4788 28.7105 39.7365 28.1662 40.1819L16.5867 50.0788C15.795 50.0788 14.5579 50.0788 13.3702 50.0788L25.7414 39.5881C26.2858 39.1427 25.7414 38.4004 24.9992 38.8458L11.6383 50.1283C11.3743 50.0771 11.1224 49.9764 10.896 49.8314C9.01558 48.6438 11.3414 47.7036 12.4795 46.8128ZM5.0568 52.6026C7.03619 50.8706 11.4403 52.6026 13.7166 52.6026H14.7558C14.8533 52.683 14.9758 52.727 15.1022 52.727C15.2286 52.727 15.3511 52.683 15.4486 52.6026H25.7414L12.3805 63.6871C11.8362 64.1325 12.628 64.8748 13.1228 64.4294L27.3744 52.5036H29.9476L19.5063 62.9449C19.4335 62.9863 19.3712 63.044 19.3243 63.1134C19.2774 63.1829 19.2472 63.2622 19.236 63.3452C19.2248 63.4283 19.2329 63.5128 19.2597 63.5922C19.2865 63.6715 19.3313 63.7437 19.3906 63.8029C19.4498 63.8622 19.5219 63.9069 19.6013 63.9337C19.6807 63.9605 19.7652 63.9687 19.8483 63.9575C19.9313 63.9463 20.0106 63.916 20.0801 63.8691C20.1495 63.8223 20.2072 63.76 20.2486 63.6871L31.4322 52.5036H34.7476L23.6136 64.3304C23.1682 64.8748 23.9105 65.617 24.4053 65.1222L36.2322 52.652H40.2405L25.9888 65.815C25.4445 66.3098 25.9888 67.0521 26.7311 66.6067L41.824 52.4541H45.5353L31.1847 66.6067C31.0925 66.708 31.0418 66.8403 31.0428 66.9772C31.0438 67.1141 31.0964 67.2457 31.19 67.3456C31.2837 67.4455 31.4116 67.5064 31.5482 67.5162C31.6848 67.526 31.82 67.484 31.927 67.3985L47.0693 52.5531H50.4838L39.4982 63.2913C39.0033 63.7366 39.4982 64.5284 40.2405 64.0335L52.1168 52.4541H55.4323L43.5064 63.7366C43.0116 64.182 43.7539 64.9243 44.2487 64.4789L56.9663 52.5036H61.222L46.3766 65.9634C46.2843 66.0647 46.2337 66.197 46.2346 66.3339C46.2356 66.4708 46.2882 66.6024 46.3819 66.7023C46.4755 66.8022 46.6034 66.8631 46.74 66.8729C46.8766 66.8827 47.0119 66.8407 47.1188 66.7552L62.9045 52.5036H67.8529L55.7292 63.8356C55.2343 64.281 56.0261 65.0727 56.5209 64.5779L69.5354 52.4046H72.554L63.4983 61.1634C63.0034 61.6088 63.4983 62.351 64.2406 61.9057L73.5437 52.9489C73.6039 52.871 73.6365 52.7753 73.6365 52.6768C73.6365 52.5783 73.6039 52.4826 73.5437 52.4046H76.7107L69.5354 59.6789C69.0406 60.1737 69.8323 60.916 70.2777 60.4211L78.1458 52.4541H81.8076L72.356 62.351C71.8612 62.8459 72.653 63.6376 73.0983 63.0933L83.3417 52.2067H86.5087L75.3746 64.5284C74.9293 65.0232 75.6715 65.815 76.1169 65.2706L87.6468 52.5036C87.6903 52.4284 87.7131 52.343 87.7131 52.2562C87.7131 52.1693 87.6903 52.084 87.6468 52.0087H88.5871C88.7767 51.9585 88.9483 51.8555 89.0819 51.7118H89.6262L78.0468 65.1717C77.6014 65.6665 78.3437 66.4583 78.7891 65.9139L90.4675 52.4046C90.1029 59.0042 90.2518 65.622 90.9128 72.1985C90.9128 72.9903 92.0015 73.6336 92.5953 72.8913C93.9314 71.3573 95.218 69.7738 96.5541 68.1902C97.5438 70.8129 98.5335 73.4356 99.4242 76.0583C99.4893 76.2563 99.6152 76.4287 99.7841 76.551C99.9529 76.6732 100.156 76.739 100.364 76.739C100.573 76.739 100.776 76.6732 100.945 76.551C101.114 76.4287 101.24 76.2563 101.305 76.0583L103.086 68.6356C103.729 70.4665 104.422 72.248 105.115 74.0294C105.178 74.2158 105.298 74.3776 105.458 74.4923C105.617 74.607 105.809 74.6687 106.006 74.6687C106.202 74.6687 106.394 74.607 106.554 74.4923C106.714 74.3776 106.833 74.2158 106.896 74.0294C106.896 73.7325 106.896 73.4851 107.243 73.1882C107.589 72.8913 107.589 73.782 107.787 74.0294C107.985 74.2769 109.272 74.6233 109.42 74.0294C110.261 69.3099 110.659 64.522 110.608 59.7284C110.608 59.7284 110.608 59.7284 111.004 59.7284L119.762 51.6623H123.424L111.251 63.0933C110.707 63.5882 111.251 64.3304 111.993 63.8851L124.711 51.6623H128.026L115.309 64.5284C115.223 64.6353 115.181 64.7706 115.191 64.9072C115.201 65.0438 115.262 65.1717 115.362 65.2654C115.462 65.359 115.593 65.4116 115.73 65.4126C115.867 65.4135 115.999 65.3629 116.101 65.2706L129.659 51.7118H133.816L125.206 59.6789C124.711 60.1737 125.503 60.916 125.998 60.4211L133.569 53.3943C133.074 53.8892 133.816 54.6314 134.36 54.1366L137.132 51.7118H148.958H156.332L150.196 56.6603C149.701 57.0067 150.196 57.8479 150.69 57.5015L157.569 52.2067C157.603 52.1106 157.603 52.0058 157.569 51.9098H163.606L158.113 55.918C158.051 55.9691 158.001 56.0333 157.967 56.106C157.932 56.1788 157.914 56.2582 157.914 56.3386C157.914 56.4191 157.932 56.4985 157.967 56.5713C158.001 56.644 158.051 56.7082 158.113 56.7593C148.23 60.3795 139.26 66.1226 131.837 73.5841C124.096 81.8166 118.533 91.8523 115.655 102.78C115.632 102.696 115.588 102.618 115.529 102.554C115.469 102.49 115.394 102.442 115.312 102.413C115.229 102.383 115.141 102.375 115.054 102.387C114.968 102.399 114.885 102.432 114.814 102.483L104.917 111.786C104.472 112.232 105.164 112.875 105.61 112.479L115.507 103.176C114.222 108.035 113.41 113.006 113.082 118.021C112.989 117.953 112.876 117.916 112.76 117.916C112.645 117.916 112.532 117.953 112.439 118.021L106.303 122.97C105.808 123.316 106.303 124.009 106.995 123.613L113.033 118.912C113.033 120.743 113.033 122.574 113.033 124.454H95.8613L51.0281 124.702C43.5559 124.702 36.1827 124.702 28.6115 124.702C21.3484 124.155 14.0473 124.404 6.83825 125.444C6.7275 125.479 6.6307 125.548 6.56197 125.641C6.49324 125.735 6.45616 125.848 6.45616 125.964C6.45616 126.08 6.49324 126.193 6.56197 126.286C6.6307 126.38 6.7275 126.449 6.83825 126.483C13.793 127.408 20.8264 127.59 27.8198 127.028H50.4838H96.1087H113.379C113.379 128.413 113.379 129.799 113.379 131.184L79.7293 132.322C79.5849 132.322 79.4465 132.38 79.3444 132.482C79.2423 132.584 79.1849 132.722 79.1849 132.867C79.1849 133.011 79.2423 133.15 79.3444 133.252C79.4465 133.354 79.5849 133.411 79.7293 133.411L113.478 132.273C113.709 134.582 114.055 136.908 114.517 139.25H113.973L97.0984 138.558C67.1107 139.052 36.9745 138.558 7.03619 140.389H6.6898V138.657L12.7764 138.558C13.4692 138.558 13.4692 137.419 12.7764 137.469L6.64031 137.865V137.419C6.64031 136.43 6.64031 135.49 6.64031 134.549L16.5373 133.708C17.1806 133.708 17.1806 132.57 16.5373 132.619L6.64031 133.461V131.135L17.6754 130.788C17.8198 130.788 17.9582 130.731 18.0603 130.629C18.1624 130.527 18.2197 130.388 18.2197 130.244C18.2197 130.1 18.1624 129.961 18.0603 129.859C17.9582 129.757 17.8198 129.7 17.6754 129.7L6.64031 130.046C6.64031 122.92 6.39289 115.844 6.29392 108.718C5.94753 99.4151 5.94752 90.1615 5.94752 80.8583C5.94752 75.9099 5.94753 70.9614 5.55165 66.0129C5.55165 62.5985 4.90835 59.1345 4.51247 55.7201C4.36428 55.1928 4.33626 54.639 4.43046 54.0995C4.52467 53.5599 4.7387 53.0484 5.0568 52.6026ZM14.063 142.417L6.83825 148.455C6.83825 146.376 6.83825 144.298 6.83825 142.269H7.13516L14.063 142.417ZM5.0568 162.211C5.0568 160.677 5.0568 159.143 5.0568 157.659C5.36891 159.243 5.36891 160.874 5.0568 162.459V162.211ZM3.17638 182.005C3.24547 176.742 2.91462 171.482 2.18668 166.269C14.3224 166.21 26.451 166.871 38.5085 168.248C35.094 168.694 31.7291 169.189 28.3146 169.535C27.6713 169.535 27.226 170.525 27.9188 170.871L37.3209 175.374H33.0652C32.9037 175.379 32.7483 175.437 32.6225 175.538C32.4968 175.64 32.4075 175.779 32.3683 175.936C32.3292 176.093 32.3422 176.258 32.4054 176.407C32.4687 176.555 32.5787 176.679 32.7188 176.76C35.7373 178.64 38.7559 180.719 41.9229 182.302C35.5959 181.881 29.2478 181.881 22.9208 182.302C16.3413 182.005 9.75068 182.054 3.17638 182.451V182.005ZM39.8446 176.413L38.1126 178.145L35.6384 176.809L39.8446 176.413ZM7.77846 184.727C8.76816 184.727 9.70837 184.727 10.6486 184.727L8.27331 186.954C8.21402 186.192 8.04743 185.442 7.77846 184.727ZM9.01558 191.506L15.4981 186.112C16.0424 185.717 15.4981 184.925 14.7558 185.37L8.6197 190.319C8.44381 189.622 8.34425 188.909 8.32279 188.191L11.6878 185.073C11.744 185.003 11.7746 184.916 11.7746 184.826C11.7746 184.736 11.744 184.649 11.6878 184.578H20.2981L9.51043 192.595C9.31588 192.246 9.15037 191.882 9.01558 191.506ZM127.482 192.991L137.379 183.737C137.923 183.292 137.132 182.549 136.637 182.995L126.245 192.595C126.202 192.74 126.202 192.895 126.245 193.04H121.692L107.886 193.337L119.861 183.44L119.466 183.886C119.413 183.932 119.371 183.989 119.342 184.053C119.313 184.117 119.298 184.187 119.298 184.257C119.298 184.327 119.313 184.396 119.342 184.46C119.371 184.524 119.413 184.581 119.466 184.628L111.35 191.952C110.806 192.397 111.597 193.139 112.092 192.694L121.989 183.737C122.534 183.292 121.989 182.549 121.247 182.995L128.076 175.275C128.472 174.83 127.828 174.137 127.383 174.582C124.81 177.552 122.435 180.471 119.614 183.391C119.96 182.945 119.317 182.302 118.773 182.698C114.764 186.063 110.707 189.378 106.649 192.595C106.649 192.595 106.649 192.595 106.649 192.842C106.576 192.835 106.501 192.843 106.432 192.868C106.362 192.892 106.299 192.932 106.247 192.984C106.195 193.037 106.155 193.1 106.13 193.169C106.106 193.239 106.097 193.313 106.105 193.387H103.432L116.892 182.104C117.387 181.659 116.645 180.916 116.15 181.362L101.75 193.436H96.4056C96.3933 193.314 96.3358 193.2 96.2443 193.118C96.1528 193.035 96.0339 192.99 95.9108 192.991C95.8483 192.984 95.785 192.99 95.7251 193.009C95.6653 193.029 95.6101 193.06 95.5634 193.102C95.5166 193.144 95.4793 193.196 95.4539 193.253C95.4285 193.311 95.4156 193.373 95.4159 193.436L79.7293 194.03L97.9397 179.976C98.4345 179.58 97.9397 178.64 97.3953 179.086L78.5911 193.535C78.5379 193.616 78.5096 193.711 78.5096 193.807C78.5096 193.904 78.5379 193.999 78.5911 194.079H73.1478H72.4055L94.6737 178.145C95.218 177.749 94.6737 176.809 94.1293 177.205L70.7231 194.277C70.684 194.345 70.6634 194.422 70.6634 194.5C70.6634 194.578 70.684 194.655 70.7231 194.723H66.3684L88.7355 177.453C89.2798 177.057 88.7355 176.116 88.1912 176.562L64.488 194.822L53.057 195.317L79.2344 173.197C79.7788 172.752 79.2344 172.009 78.4922 172.405L51.424 195.366L46.1291 195.613L74.0385 172.207C74.5334 171.762 73.7911 170.97 73.2468 171.415L44.1992 195.861L39.6961 196.108H37.9642L70.5746 168.941C71.1189 168.496 70.5746 167.754 69.8323 168.199L36.1332 196.306L29.5023 196.702C42.1021 188.058 53.8352 178.214 64.5375 167.308C64.6103 167.267 64.6726 167.209 64.7195 167.14C64.7664 167.07 64.7966 166.991 64.8078 166.908C64.819 166.825 64.8109 166.74 64.7841 166.661C64.7573 166.582 64.7125 166.509 64.6532 166.45C64.594 166.391 64.5219 166.346 64.4425 166.319C64.3631 166.292 64.2786 166.284 64.1956 166.296C64.1125 166.307 64.0332 166.337 63.9637 166.384C63.8943 166.431 63.8366 166.493 63.7952 166.566C52.9492 177.599 41.0491 187.543 28.2651 196.257C28.2217 196.332 28.1988 196.417 28.1988 196.504C28.1988 196.591 28.2217 196.676 28.2651 196.752L13.4692 197.939C12.3311 196.554 11.1434 195.317 10.2032 193.931L22.327 184.875H22.9703C28.3641 184.875 34.0054 184.875 39.4487 184.331C33.1806 188.026 26.962 191.902 20.7929 195.96C20.2486 196.356 20.7929 197.246 21.3373 196.9L40.191 184.578C40.2626 184.534 40.3217 184.472 40.3626 184.398C40.4036 184.325 40.4251 184.242 40.4251 184.158C40.4251 184.073 40.4036 183.991 40.3626 183.917C40.3217 183.843 40.2626 183.782 40.191 183.737L42.1704 183.44C42.2876 183.391 42.3877 183.309 42.4582 183.203C42.5286 183.098 42.5662 182.973 42.5662 182.846C42.5662 182.719 42.5286 182.595 42.4582 182.49C42.3877 182.384 42.2876 182.301 42.1704 182.253C42.3077 182.255 42.4416 182.21 42.5493 182.124C42.657 182.039 42.7318 181.919 42.7609 181.785C42.7901 181.651 42.7719 181.511 42.7093 181.388C42.6467 181.266 42.5437 181.169 42.4178 181.114L41.626 180.521L61.4199 164.933C61.9643 164.488 61.4199 163.745 60.6777 164.191L40.8838 179.877L39.0528 178.739L49.4941 171.02C50.0384 170.624 49.4941 169.683 48.9498 170.079L41.1807 175.869C41.1594 175.799 41.1212 175.735 41.0694 175.683C41.0176 175.632 40.9538 175.593 40.8838 175.572L37.4693 173.939C37.5534 173.934 37.6347 173.907 37.7055 173.861C37.7763 173.816 37.8342 173.753 37.8739 173.678C37.9135 173.604 37.9335 173.521 37.932 173.436C37.9305 173.352 37.9075 173.27 37.8652 173.197C37.9612 173.231 38.066 173.231 38.1621 173.197L41.0322 170.723C41.5271 170.277 40.7848 169.486 40.2405 169.98L37.3703 172.455C37.2973 172.536 37.2569 172.642 37.2569 172.752C37.2569 172.861 37.2973 172.967 37.3703 173.048C37.2935 173.074 37.2233 173.117 37.165 173.173C37.1067 173.229 37.0617 173.298 37.0332 173.374C37.0048 173.449 36.9936 173.531 37.0006 173.611C37.0075 173.692 37.0324 173.77 37.0734 173.84L30.6899 170.624L42.0714 168.793C42.1704 168.76 42.2566 168.697 42.3177 168.613C42.3788 168.528 42.4117 168.427 42.4117 168.323C42.4117 168.218 42.3788 168.117 42.3177 168.032C42.2566 167.948 42.1704 167.885 42.0714 167.853L41.0322 167.556L48.5044 161.568C49.0487 161.123 48.257 160.38 47.7621 160.776L40.1415 166.863C40.098 166.938 40.0752 167.023 40.0752 167.11C40.0752 167.197 40.098 167.282 40.1415 167.358C37.7167 166.764 35.193 166.22 32.8177 165.725L38.558 161.37C39.1023 160.925 38.558 160.034 38.0136 160.43L31.927 165.081C31.8956 165.151 31.8794 165.227 31.8794 165.304C31.8794 165.381 31.8956 165.457 31.927 165.527L25.7414 164.685L39.3002 155.333C39.8446 154.937 39.3002 153.997 38.7559 154.393L24.1579 164.29L17.7744 163.844L33.8074 153.403C34.3518 153.057 33.8074 152.116 33.2631 152.512L15.8445 164.042C14.1125 164.042 12.3805 164.042 10.896 164.042L29.0569 150.929C29.6012 150.533 29.0569 149.593 28.5126 149.989L8.71867 164.389L6.73928 164.636C6.73928 163.894 6.73928 163.151 6.9867 162.459L25.7414 149.494C26.2858 149.098 25.7414 148.158 25.1971 148.553L7.13516 161.123V158.351L23.6136 146.871C24.1579 146.475 23.6136 145.535 23.0692 145.931L7.08567 157.114V153.255L19.5558 144.842C20.1496 144.496 19.5558 143.556 19.0115 143.951L6.93722 152.017C6.93722 151.275 6.93722 150.533 6.93722 149.791L15.0032 143.11C15.0939 143.018 15.1447 142.893 15.1447 142.764C15.1447 142.634 15.0939 142.51 15.0032 142.417C42.3188 142.714 69.7829 141.626 97.0984 141.23L110.954 140.982L102.096 148.801C101.602 149.246 102.096 149.89 102.789 149.494L112.439 140.982H114.814L115.111 142.17C115.045 142.125 114.968 142.101 114.888 142.101C114.809 142.101 114.731 142.125 114.666 142.17L104.026 152.562C103.581 152.958 104.274 153.65 104.719 153.205L115.309 142.863C115.556 143.902 115.804 144.941 116.101 145.931C116.046 145.908 115.987 145.896 115.927 145.896C115.868 145.896 115.809 145.908 115.754 145.931C112.29 149.197 108.826 152.463 105.412 155.828C104.917 156.224 105.412 156.916 106.055 156.471C109.519 153.255 112.934 149.989 116.348 146.574C116.694 147.91 117.189 149.197 117.635 150.483L107.243 160.38C107.171 160.476 107.137 160.593 107.145 160.712C107.154 160.831 107.205 160.943 107.289 161.027C107.373 161.111 107.485 161.162 107.604 161.171C107.722 161.179 107.84 161.145 107.936 161.073L117.833 151.523C119.437 156.03 121.407 160.399 123.721 164.587C127.366 171.485 132.057 177.778 137.626 183.242L139.556 184.875L130.748 192.991H127.482ZM136.241 192.199C136.153 192.201 136.068 192.224 135.991 192.266C135.914 192.308 135.849 192.368 135.8 192.441C135.752 192.514 135.721 192.598 135.712 192.685C135.702 192.772 135.714 192.86 135.746 192.941H132.579L140.892 185.815L142.13 186.855L136.587 191.803C136.587 191.803 136.241 192.1 136.241 192.199ZM136.538 192.892C136.626 192.949 136.729 192.98 136.835 192.98C136.94 192.98 137.043 192.949 137.132 192.892L142.872 187.646C144.455 188.834 146.187 189.923 147.82 191.011L145.593 192.941L136.538 192.892ZM150.245 192.892H147.474L149.057 191.506L150.69 192.446L150.245 192.892ZM251.392 165.675C247.526 172.409 242.5 178.407 236.546 183.391C230.425 188.18 223.575 191.956 216.258 194.574C206.867 197.895 196.973 199.569 187.012 199.523C180.056 199.581 173.122 198.749 166.377 197.049C160.654 195.555 155.148 193.326 149.998 190.418L149.453 189.576C146.654 187.964 143.989 186.127 141.486 184.084C137.953 181.188 134.795 177.863 132.084 174.187C126.793 167.024 122.621 159.098 119.713 150.681L120.059 150.335C120.131 150.24 120.166 150.122 120.157 150.003C120.149 149.884 120.098 149.772 120.013 149.688C119.929 149.604 119.817 149.553 119.699 149.544C119.58 149.536 119.462 149.571 119.367 149.642C118.408 146.766 117.599 143.843 116.942 140.883H117.585C117.204 140.097 116.874 139.287 116.595 138.459C112.51 119.708 115.713 100.105 125.552 83.6295C134.018 70.8606 146.532 61.3096 161.082 56.5118C171.42 52.6031 182.346 50.4781 193.396 50.2273C209.939 50.234 225.861 56.5319 237.932 67.8439C239.812 69.9717 241.742 72.0501 243.623 74.1284C253.569 86.7835 260.309 101.655 263.268 117.477C265.693 132.273 261.784 148.454 251.392 165.675Z" fill="#495CB5"/>
<path d="M209.082 82.4417C208.889 82.3775 208.681 82.3775 208.488 82.4417C204.484 85.9655 200.913 89.9522 197.849 94.318C197.779 94.3462 197.718 94.3937 197.674 94.4551C197.631 94.5165 197.605 94.5891 197.601 94.6644C195.336 97.9569 193.413 101.472 191.861 105.155L191.515 105.403C191.483 105.473 191.467 105.549 191.467 105.625C191.467 105.702 191.483 105.778 191.515 105.848C191.473 105.96 191.473 106.083 191.515 106.194C189.802 110.225 188.572 114.444 187.853 118.763C186.728 119.113 185.731 119.784 184.983 120.693C184.545 121.238 184.179 121.837 183.894 122.475C183.822 122.508 183.759 122.556 183.707 122.615C183.656 122.675 183.619 122.745 183.597 122.821V123.118C183.282 124.168 183.198 125.273 183.352 126.358C183.506 127.443 183.893 128.482 184.488 129.403C183.653 130.651 182.909 131.957 182.261 133.312H181.865C181.778 133.35 181.704 133.412 181.651 133.491C181.599 133.57 181.57 133.662 181.568 133.757C181.518 133.885 181.518 134.026 181.568 134.153C179.914 137.673 178.685 141.378 177.906 145.188C177.477 147.465 177.131 149.79 176.867 152.166C176.798 152.341 176.798 152.535 176.867 152.71C177.058 152.782 177.27 152.782 177.461 152.71H177.807C181.345 150.145 184.424 146.999 186.913 143.407C188.26 141.89 189.484 140.268 190.574 138.557C191.069 137.469 191.515 136.43 191.91 135.44C192.103 134.713 192.203 133.965 192.207 133.213V132.174C193.821 131.824 195.238 130.867 196.166 129.502C197.075 128.168 197.479 126.554 197.304 124.949C202.248 119.529 205.842 113.018 207.795 105.947C210.09 98.5748 210.815 90.8038 209.923 83.1344C209.888 82.9379 209.784 82.7603 209.63 82.6334C209.476 82.5065 209.281 82.4385 209.082 82.4417ZM206.558 87.1427L206.162 87.984C206.05 87.9422 205.927 87.9422 205.816 87.984L206.558 87.1427ZM200.224 94.318L204.084 91.8438C204.152 91.7504 204.189 91.6378 204.189 91.5221C204.189 91.4064 204.152 91.2938 204.084 91.2005C204.061 91.087 203.998 90.9853 203.908 90.9129C203.818 90.8406 203.705 90.8023 203.589 90.8046L202.896 91.25L205.618 89.1716L203.045 94.5159C203.005 94.4026 202.931 94.3041 202.834 94.2334C202.737 94.1628 202.62 94.1232 202.5 94.1201H202.253L198.789 96.4953L200.224 94.318ZM192.306 108.867L198.492 103.918C198.545 103.837 198.574 103.743 198.574 103.646C198.574 103.549 198.545 103.455 198.492 103.374C198.443 103.256 198.361 103.156 198.255 103.086C198.149 103.015 198.025 102.978 197.898 102.978H197.552L193.049 106.64L193.642 105.304L198.937 101.345C199.052 101.292 199.145 101.202 199.201 101.089C199.256 100.975 199.27 100.846 199.241 100.723C199.212 100.601 199.141 100.492 199.04 100.416C198.94 100.34 198.816 100.301 198.69 100.306L195.028 103.027C195.275 102.582 195.473 102.137 195.671 101.691L201.214 97.6335C201.282 97.5402 201.319 97.4275 201.319 97.3118C201.319 97.1962 201.282 97.0835 201.214 96.9902C201.19 96.8767 201.128 96.775 201.038 96.7026C200.947 96.6303 200.835 96.592 200.719 96.5943H200.471L196.809 99.316L197.106 98.7221L202.698 94.9118L196.612 107.58C196.578 107.462 196.507 107.36 196.408 107.288C196.309 107.216 196.189 107.179 196.067 107.184H195.721L191.663 110.351L192.306 108.867ZM190.97 112.528L196.463 108.223L194.929 111.489C194.868 111.459 194.8 111.443 194.731 111.443C194.662 111.443 194.595 111.459 194.533 111.489L190.673 114.458C190.624 113.815 190.822 112.974 190.97 112.429V112.528ZM189.832 116.19L194.335 112.677L193.989 113.815L190.08 116.784L189.832 116.19ZM193.346 115.349L191.713 116.537L189.238 118.318H189.04L193.346 115.349ZM188.842 120.297L185.774 121.832C186.165 121.328 186.658 120.913 187.221 120.615C187.784 120.316 188.404 120.141 189.04 120.1L188.842 120.297ZM190.376 120.842C190.481 120.798 190.567 120.721 190.621 120.622C190.675 120.523 190.693 120.408 190.673 120.297C191.068 120.246 191.467 120.246 191.861 120.297C190.857 120.72 189.961 121.363 189.238 122.178C189.192 122.087 189.121 122.011 189.033 121.958C188.946 121.906 188.845 121.879 188.743 121.881L185.329 123.415L190.376 120.842ZM188.546 123.316L188.249 123.86L185.032 125.642C184.983 125.397 184.983 125.145 185.032 124.9L188.546 123.316ZM185.329 127.572V126.978L187.803 125.592C187.754 125.754 187.754 125.926 187.803 126.087L185.329 127.572ZM187.655 128.759C187.632 128.907 187.632 129.057 187.655 129.205H187.358L186.913 129.502L187.655 128.759ZM187.655 130.145C187.685 130.048 187.685 129.945 187.655 129.848C187.752 130.183 187.902 130.501 188.1 130.788C187.738 130.68 187.389 130.531 187.061 130.343L187.655 130.145ZM185.181 130.788C185.404 131.044 185.652 131.276 185.923 131.481L184.488 132.174L185.181 130.788ZM183.201 134.895L186.566 133.213C186.624 133.125 186.654 133.022 186.654 132.916C186.654 132.811 186.624 132.708 186.566 132.619C186.6 132.523 186.6 132.418 186.566 132.322C186.604 132.21 186.604 132.088 186.566 131.976C186.813 132.153 187.078 132.303 187.358 132.421L186.467 133.856H185.972L182.558 135.984C182.85 135.531 183.099 135.05 183.3 134.549L183.201 134.895ZM182.014 137.766L185.725 135.44L185.082 136.627H184.636L181.865 138.161L182.014 137.766ZM181.222 139.794L184.24 138.112C184.24 138.458 183.894 138.755 183.746 139.102H183.597L181.123 140.586C181.224 140.214 181.291 139.833 181.321 139.448L181.222 139.794ZM180.43 142.219L182.904 140.784V141.279L180.578 142.665C180.632 142.401 180.615 142.128 180.529 141.873L180.43 142.219ZM179.886 144.248L181.816 143.11L181.37 144.05H181.123L179.836 144.891L179.886 144.248ZM179.341 146.574L180.677 145.634L180.381 146.425L179.143 146.97C179.391 146.673 179.391 146.425 179.44 146.227L179.341 146.574ZM178.599 151.522C178.716 150.489 178.898 149.465 179.143 148.454L179.737 147.959C179.737 148.454 179.391 148.949 179.242 149.395C179.203 149.471 179.183 149.556 179.183 149.642C179.183 149.728 179.203 149.813 179.242 149.889C179.294 149.961 179.36 150.02 179.437 150.063C179.514 150.106 179.6 150.131 179.688 150.137H180.034L178.599 151.522ZM180.084 150.186C181.044 147.44 182.15 144.748 183.399 142.12C183.537 142.045 183.643 141.922 183.696 141.774C185.169 138.79 186.822 135.898 188.644 133.114C189.186 133.187 189.736 133.187 190.277 133.114H190.871C188.832 139.57 185.148 145.386 180.183 149.988L180.084 150.186ZM194.632 128.561C194.145 129.307 193.476 129.916 192.688 130.332C191.9 130.748 191.02 130.956 190.129 130.937H189.238C189.286 130.854 189.311 130.76 189.311 130.665C189.311 130.569 189.286 130.475 189.238 130.392C188.597 129.303 188.319 128.038 188.447 126.78C188.482 126.702 188.501 126.618 188.501 126.533C188.501 126.447 188.482 126.363 188.447 126.285C188.47 126.23 188.482 126.171 188.482 126.112C188.482 126.052 188.47 125.994 188.447 125.939C188.496 125.551 188.631 125.179 188.842 124.85C188.865 124.736 188.865 124.618 188.842 124.504C189.257 123.774 189.819 123.137 190.492 122.635C191.164 122.133 191.934 121.775 192.752 121.584C193.137 121.838 193.458 122.176 193.692 122.574C194.407 123.335 194.886 124.287 195.07 125.315C195.255 126.342 195.137 127.401 194.731 128.364L194.632 128.561ZM206.212 105.403C205.12 108.991 203.661 112.457 201.857 115.745C200.69 117.709 199.418 119.609 198.047 121.436L196.908 122.97C196.534 122.184 196.032 121.465 195.424 120.842C194.74 120.156 193.912 119.632 192.999 119.308H192.702L193.989 118.763C194.119 118.719 194.23 118.63 194.302 118.513C194.374 118.396 194.404 118.257 194.385 118.12C194.372 117.998 194.315 117.884 194.223 117.802C194.132 117.719 194.013 117.674 193.89 117.675L191.861 118.467L195.473 115.893C195.542 115.8 195.579 115.687 195.579 115.572C195.579 115.456 195.542 115.343 195.473 115.25C195.45 115.137 195.388 115.035 195.298 114.963C195.207 114.89 195.094 114.852 194.979 114.854L208.29 87.2417C208.338 87.1589 208.363 87.0651 208.363 86.9695C208.363 86.874 208.338 86.7801 208.29 86.6974C208.29 86.6974 208.29 86.6974 208.043 86.4499L208.884 85.8561C209.231 92.4093 208.359 98.9701 206.311 105.205L206.212 105.403Z" fill="#495CB5"/>
<path d="M186.467 68.4875C186.544 69.112 186.544 69.7435 186.467 70.368C186.443 70.7965 186.443 71.226 186.467 71.6546C186.467 72.6443 186.467 73.634 186.467 74.6237V74.9206C186.674 77.0583 186.757 79.2063 186.715 81.3536C186.67 81.4548 186.646 81.5644 186.646 81.6752C186.646 81.786 186.67 81.8956 186.715 81.9969C186.931 82.1939 187.214 82.3002 187.506 82.2938H188.397C189.403 82.2636 190.388 81.992 191.267 81.502C191.96 80.9082 191.762 80.0175 191.564 79.1763V78.3845V76.9989V74.4257C191.564 72.7927 191.317 71.1597 191.168 69.4772V66.6566C191.157 66.4767 191.08 66.3072 190.952 66.1797C190.825 66.0522 190.655 65.9755 190.475 65.9638H189.04C188.515 65.8949 187.983 65.8949 187.457 65.9638C186.566 65.9638 186.17 66.4587 186.17 67.0525C186.103 67.3623 186.103 67.6829 186.17 67.9927L186.467 68.4875ZM188.595 67.2999C188.841 67.2658 189.091 67.2833 189.33 67.3515C189.568 67.4197 189.79 67.5369 189.981 67.6958C190.175 68.7592 190.175 69.8489 189.981 70.9123V71.902V74.0793C189.981 75.9597 189.981 77.8896 190.426 79.9185L188.496 80.2154C188.225 78.3467 188.076 76.4623 188.051 74.5742C187.983 72.1485 187.718 69.7323 187.259 67.3494L188.595 67.2999Z" fill="#495CB5"/>
<path d="M149.157 99.9104C149.498 98.1072 150.483 96.4893 151.928 95.3578C152.078 95.2157 152.167 95.0203 152.175 94.8135C152.17 94.68 152.137 94.5492 152.077 94.4298C152.017 94.3103 151.933 94.205 151.829 94.1207L145.347 89.1722L144.357 88.3805C143.275 87.3319 141.974 86.5374 140.547 86.0547H139.705C137.874 86.0547 136.538 87.6382 135.796 90.5578C135.748 90.6582 135.723 90.7681 135.723 90.8795C135.723 90.9908 135.748 91.1007 135.796 91.2011C135.844 91.2755 135.91 91.337 135.988 91.3801C136.066 91.4233 136.153 91.4467 136.241 91.4485C138.963 93.8733 141.932 96.1496 144.802 98.3764L147.474 100.455C147.669 100.503 147.873 100.503 148.068 100.455C148.17 100.526 148.29 100.568 148.414 100.577C148.538 100.587 148.663 100.562 148.774 100.506C148.886 100.45 148.98 100.366 149.047 100.261C149.115 100.156 149.153 100.035 149.157 99.9104ZM146.237 96.9908C143.367 94.7145 140.448 92.3887 137.429 90.3104C137.413 90.0797 137.413 89.8482 137.429 89.6176V89.2712C137.429 89.0238 137.676 88.7763 137.775 88.5784C137.874 88.3805 138.567 87.3908 139.408 87.3908H140.25C140.916 87.6138 141.512 88.006 141.982 88.5289L142.377 88.9248C144.735 90.9995 147.214 92.9328 149.8 94.7145C148.781 95.6655 148.015 96.8563 147.573 98.1785L146.237 96.9908Z" fill="#495CB5"/>
<path d="M143.515 127.225H143.169C140.346 126.67 137.483 126.339 134.608 126.236C132.036 126.112 129.482 126.712 127.235 127.968C127.38 128.719 127.38 129.492 127.235 130.244C126.938 132.025 126.591 134.005 129.362 134.5H130.501C131.631 134.463 132.757 134.33 133.866 134.104L135.647 133.856L143.466 132.966C143.672 132.954 143.866 132.867 144.012 132.721C144.158 132.575 144.246 132.38 144.257 132.174C144.257 132.174 144.257 128.957 144.257 127.77C144.195 127.62 144.093 127.49 143.962 127.394C143.831 127.298 143.677 127.24 143.515 127.225ZM142.476 131.58L135.004 132.471C134.333 132.541 133.67 132.673 133.024 132.867C131.934 133.238 130.805 133.487 129.659 133.609H129.164C128.992 132.51 128.992 131.392 129.164 130.293V129.749C129.164 129.106 129.164 129.106 129.758 128.957H130.204C131.425 128.606 132.695 128.456 133.964 128.512H137.478C138.789 128.5 140.098 128.616 141.387 128.858C142.327 129.106 142.327 129.106 142.426 129.7V130.095C142.497 130.587 142.514 131.085 142.476 131.58Z" fill="#495CB5"/>
<path d="M157.718 166.119C157.243 166.112 156.777 166.25 156.382 166.515C155.281 167.22 154.324 168.127 153.561 169.187C153.265 169.583 152.918 169.93 152.621 170.276L151.731 171.266C150.543 172.552 149.355 173.839 148.217 175.225C148.182 175.285 148.164 175.353 148.164 175.423C148.164 175.492 148.182 175.56 148.217 175.621C148.292 176.329 148.637 176.982 149.181 177.443C149.725 177.903 150.425 178.137 151.137 178.095C151.614 178.091 152.085 177.99 152.522 177.798C153.636 177.239 154.615 176.446 155.392 175.472L155.838 175.027L160.044 170.474L161.083 169.336C161.179 169.207 161.232 169.051 161.232 168.891C161.232 168.73 161.179 168.574 161.083 168.445C160.093 166.961 158.906 166.119 157.718 166.119ZM157.025 172.058C156.723 172.297 156.441 172.562 156.184 172.849L155.541 173.542C154.353 174.977 152.522 177.056 150.939 177.056C150.246 177.056 149.85 177.056 149.702 176.511C149.553 175.967 150.543 174.185 152.968 171.563L153.265 171.315L153.611 170.919C154.551 169.88 156.778 167.505 158.263 167.505C158.505 167.51 158.738 167.595 158.926 167.747C159.115 167.9 159.247 168.11 159.302 168.346C159.747 169.534 158.114 171.068 157.025 172.058Z" fill="#495CB5"/>
<path d="M193.396 171.911C193.412 171.755 193.37 171.599 193.279 171.471C193.188 171.343 193.054 171.254 192.901 171.218L188.695 170.377H187.754C187.535 170.389 187.328 170.481 187.173 170.637C187.017 170.792 186.925 170.999 186.913 171.218C186.878 171.296 186.859 171.38 186.859 171.466C186.859 171.551 186.878 171.635 186.913 171.713V172.01C186.716 173.834 186.616 175.668 186.616 177.503V179.185C186.616 179.829 186.616 180.472 186.616 181.115C186.442 182.76 186.442 184.419 186.616 186.064C186.689 186.562 186.859 187.041 187.118 187.472C187.376 187.904 187.718 188.281 188.123 188.58C188.528 188.879 188.988 189.095 189.477 189.215C189.966 189.335 190.473 189.357 190.971 189.28C191.768 189.264 192.563 189.181 193.346 189.033C193.46 189.024 193.57 188.989 193.669 188.931C193.767 188.873 193.85 188.793 193.913 188.697C193.975 188.601 194.014 188.492 194.028 188.379C194.041 188.266 194.028 188.151 193.989 188.043C193.261 182.698 193.062 177.295 193.396 171.911ZM192.06 187.499C191.766 187.563 191.462 187.563 191.169 187.499H189.734C187.705 186.806 187.804 184.728 187.853 182.897C187.875 182.6 187.875 182.302 187.853 182.006C187.853 181.066 187.853 180.125 187.853 179.235C188.052 176.798 188.052 174.348 187.853 171.911H188.744C189.738 171.907 190.726 172.074 191.664 172.406C192.257 172.802 192.01 174.534 191.664 175.622C191.317 176.711 191.664 176.414 191.664 176.662C191.567 179.683 191.666 182.708 191.961 185.717C191.961 185.717 191.961 185.717 191.961 186.163C191.961 186.608 192.257 187.251 192.06 187.499Z" fill="#495CB5"/>
<path d="M232.341 123.712C232.341 124.653 232.341 125.543 232.687 126.484C232.7 126.672 232.783 126.848 232.921 126.977C233.059 127.105 233.241 127.177 233.429 127.176C235.013 127.176 236.695 127.176 238.675 127.176H242.683L238.774 129.898C238.659 129.95 238.566 130.041 238.511 130.154C238.455 130.268 238.441 130.397 238.47 130.519C238.499 130.642 238.57 130.751 238.671 130.827C238.771 130.903 238.895 130.942 239.021 130.937L241.693 129.106L244.316 127.176H247.632L239.021 134.748C238.961 134.825 238.928 134.921 238.928 135.02C238.928 135.118 238.961 135.214 239.021 135.292C239.061 135.405 239.135 135.504 239.232 135.574C239.329 135.645 239.445 135.685 239.566 135.688C239.62 135.711 239.679 135.723 239.739 135.723C239.798 135.723 239.857 135.711 239.912 135.688L249.809 127.473C250.205 127.473 250.551 127.176 250.551 126.929L252.63 125.197C252.69 125.119 252.722 125.023 252.722 124.925C252.722 124.826 252.69 124.731 252.63 124.653C252.589 124.539 252.516 124.441 252.419 124.37C252.322 124.299 252.205 124.26 252.085 124.257H251.739L250.254 125.494L249.71 123.465C249.71 122.624 249.265 121.733 249.067 120.842L252.085 119.209C252.179 119.144 252.249 119.05 252.287 118.942C252.324 118.834 252.327 118.717 252.294 118.607C252.261 118.498 252.195 118.401 252.104 118.332C252.013 118.262 251.903 118.223 251.788 118.22L248.77 119.853C248.77 119.556 248.423 119.358 247.928 119.358L245.603 119.803L252.728 114.31C252.776 114.228 252.801 114.134 252.801 114.038C252.801 113.943 252.776 113.849 252.728 113.766C252.688 113.653 252.615 113.554 252.518 113.483C252.421 113.413 252.304 113.373 252.184 113.37H251.838L244.662 118.912C244.593 118.986 244.554 119.083 244.554 119.185C244.554 119.286 244.593 119.383 244.662 119.457C244.662 119.457 244.662 119.754 245.058 119.853C242.679 120.325 240.26 120.573 237.834 120.595C236.399 120.595 234.914 120.595 233.33 120.347C233.108 120.348 232.894 120.437 232.737 120.595C232.682 120.572 232.623 120.56 232.563 120.56C232.504 120.56 232.445 120.572 232.39 120.595C232.093 122.129 232.242 123.02 232.341 123.712ZM237.289 122.178C240.628 122.15 243.951 121.718 247.186 120.892L248.275 125.444H238.972H237.735C237.141 125.444 236.448 125.444 235.805 125.444C235.253 125.514 234.694 125.392 234.221 125.098C233.627 124.702 233.38 122.921 233.182 121.733C234.555 122.022 235.943 122.237 237.339 122.376L237.289 122.178Z" fill="#495CB5"/>
<path d="M167.415 10.9365C167.527 10.9742 167.649 10.9742 167.761 10.9365C172.74 6.66993 179.069 4.30336 185.625 4.25609H187.704C187.84 4.25665 187.971 4.20614 188.072 4.11453C188.173 4.02292 188.236 3.89686 188.248 3.76124C188.238 3.61508 188.179 3.47656 188.08 3.36858C187.981 3.26061 187.848 3.18964 187.704 3.16742H185.625C178.821 3.13013 172.225 5.51578 167.019 9.89735C166.966 9.97815 166.938 10.0728 166.938 10.1695C166.938 10.2663 166.966 10.3609 167.019 10.4417C167.044 10.5483 167.093 10.6479 167.162 10.7335C167.23 10.819 167.317 10.8884 167.415 10.9365Z" fill="#495CB5"/>
<path d="M120.604 106.788C124.238 91.0261 133.832 77.2822 147.375 68.4377C147.444 68.3444 147.481 68.2317 147.481 68.1161C147.481 68.0004 147.444 67.8877 147.375 67.7944C147.352 67.681 147.29 67.5792 147.2 67.5069C147.109 67.4345 146.996 67.3962 146.881 67.3985H146.584C132.943 76.5115 123.337 90.5299 119.763 106.541C119.728 106.61 119.71 106.686 119.71 106.764C119.71 106.841 119.728 106.917 119.763 106.986C119.819 107.065 119.894 107.128 119.98 107.171C120.066 107.214 120.161 107.236 120.258 107.234C120.351 107.198 120.432 107.138 120.493 107.059C120.554 106.981 120.593 106.887 120.604 106.788Z" fill="#495CB5"/>
<path d="M120.999 124.405C121.026 124.343 121.041 124.276 121.041 124.207C121.041 124.139 121.026 124.072 120.999 124.01C120.871 123.964 120.731 123.964 120.603 124.01C120.528 124.003 120.452 124.012 120.38 124.036C120.308 124.06 120.242 124.099 120.186 124.15C120.13 124.202 120.086 124.264 120.055 124.333C120.025 124.403 120.009 124.478 120.01 124.554C119.592 134.9 121.536 145.205 125.695 154.688C129.853 164.171 136.116 172.582 144.01 179.284C144.065 179.356 144.136 179.414 144.218 179.454C144.299 179.494 144.389 179.515 144.48 179.515C144.571 179.515 144.66 179.494 144.742 179.454C144.823 179.414 144.894 179.356 144.95 179.284C145.101 179.225 145.222 179.108 145.287 178.96C145.352 178.811 145.355 178.643 145.296 178.492C145.237 178.341 145.121 178.22 144.972 178.155C144.824 178.09 144.655 178.087 144.504 178.146C136.765 171.56 130.626 163.298 126.554 153.987C122.481 144.676 120.582 134.56 120.999 124.405Z" fill="#495CB5"/>
<path d="M221.255 185.715C210.25 190.176 198.49 192.477 186.615 192.495C180.484 192.476 174.369 191.863 168.356 190.664C168.206 190.663 168.062 190.719 167.952 190.82C167.842 190.921 167.774 191.06 167.762 191.208C167.76 191.337 167.803 191.462 167.885 191.562C167.966 191.662 168.081 191.729 168.207 191.753C174.266 192.981 180.433 193.595 186.615 193.584C198.692 193.616 210.659 191.296 221.849 186.755C221.97 186.701 222.07 186.609 222.132 186.493C222.195 186.376 222.217 186.242 222.195 186.111C222.248 185.987 222.248 185.846 222.197 185.721C222.146 185.596 222.048 185.496 221.923 185.443C221.798 185.391 221.658 185.39 221.532 185.441C221.407 185.492 221.307 185.591 221.255 185.715Z" fill="#495CB5"/>
<path d="M233.578 79.4716C233.465 79.4339 233.344 79.4339 233.231 79.4716L226.699 85.4098C226.639 85.4878 226.606 85.5835 226.606 85.682C226.606 85.7805 226.639 85.8762 226.699 85.9542C226.739 86.0675 226.813 86.166 226.91 86.2367C227.007 86.3073 227.123 86.3469 227.244 86.35C227.298 86.3732 227.357 86.3851 227.417 86.3851C227.476 86.3851 227.535 86.3732 227.59 86.35L233.578 80.4119C233.647 80.3383 233.686 80.2409 233.686 80.1397C233.686 80.0384 233.647 79.941 233.578 79.8675C233.623 79.7395 233.623 79.5997 233.578 79.4716Z" fill="#495CB5"/>
<path d="M239.219 138.557C239.259 138.67 239.332 138.769 239.43 138.839C239.527 138.91 239.643 138.95 239.763 138.953H240.159L254.163 127.571C254.211 127.488 254.236 127.395 254.236 127.299C254.236 127.204 254.211 127.11 254.163 127.027C254.118 126.917 254.043 126.822 253.947 126.752C253.851 126.682 253.737 126.64 253.619 126.631C253.492 126.581 253.35 126.581 253.223 126.631L239.219 137.963C239.161 138.051 239.131 138.155 239.131 138.26C239.131 138.365 239.161 138.468 239.219 138.557Z" fill="#495CB5"/>
<path d="M253.371 131.63L240.059 140.785C239.991 140.878 239.954 140.991 239.954 141.106C239.954 141.222 239.991 141.335 240.059 141.428C240.082 141.541 240.145 141.643 240.235 141.715C240.325 141.788 240.438 141.826 240.554 141.824H240.802L253.371 132.669C253.427 132.571 253.457 132.46 253.457 132.347C253.457 132.234 253.427 132.124 253.371 132.026C253.42 131.898 253.42 131.757 253.371 131.63Z" fill="#495CB5"/>
<path d="M252.53 136.578L237.685 146.475C238.803 141.543 239.088 136.458 238.526 131.432C238.494 131.296 238.419 131.175 238.312 131.085C238.205 130.996 238.071 130.944 237.932 130.937C237.871 130.907 237.803 130.891 237.734 130.891C237.665 130.891 237.598 130.907 237.536 130.937C237.496 130.995 237.474 131.064 237.474 131.135C237.474 131.206 237.496 131.275 237.536 131.333C238.52 139.316 237.341 147.417 234.122 154.789C234.074 154.871 234.049 154.965 234.049 155.061C234.049 155.156 234.074 155.25 234.122 155.333C234.178 155.411 234.252 155.475 234.339 155.518C234.425 155.561 234.52 155.582 234.617 155.58C234.531 155.629 234.461 155.702 234.417 155.79C234.373 155.878 234.356 155.978 234.369 156.075C234.401 156.211 234.476 156.333 234.583 156.422C234.691 156.511 234.824 156.563 234.963 156.57L247.037 150.978C247.136 150.919 247.214 150.829 247.258 150.722C247.303 150.615 247.312 150.497 247.285 150.385C247.253 150.262 247.183 150.153 247.086 150.073C246.988 149.992 246.867 149.946 246.74 149.939L234.716 155.531C235.267 154.289 235.746 153.017 236.151 151.721C236.278 151.77 236.419 151.77 236.546 151.721L249.66 144.595C249.768 144.542 249.856 144.456 249.909 144.348C249.963 144.241 249.98 144.119 249.957 144.001C249.919 143.882 249.848 143.776 249.751 143.697C249.654 143.618 249.537 143.569 249.413 143.556H249.165L236.25 150.582C236.25 149.791 236.794 148.999 236.992 148.158L252.332 137.519C252.396 137.433 252.431 137.329 252.431 137.222C252.431 137.115 252.396 137.01 252.332 136.925C252.926 136.776 252.728 136.578 252.53 136.578Z" fill="#495CB5"/>
<path d="M243.722 156.125L233.825 158.698C233.76 158.71 233.697 158.735 233.642 158.771C233.586 158.808 233.538 158.855 233.501 158.911C233.464 158.966 233.439 159.029 233.426 159.094C233.414 159.16 233.415 159.227 233.43 159.292C233.429 159.361 233.444 159.43 233.471 159.494C233.499 159.557 233.54 159.614 233.592 159.661C233.643 159.707 233.703 159.743 233.769 159.764C233.835 159.786 233.905 159.794 233.974 159.787L243.871 157.214C243.937 157.202 243.999 157.177 244.055 157.14C244.111 157.104 244.158 157.057 244.195 157.001C244.232 156.946 244.258 156.883 244.27 156.818C244.282 156.752 244.281 156.685 244.267 156.62C244.316 156.323 244.069 156.125 243.722 156.125Z" fill="#495CB5"/>
<path d="M241.988 158.352L236.1 160.628C235.972 160.673 235.866 160.764 235.802 160.883C235.738 161.002 235.721 161.14 235.753 161.271C235.775 161.39 235.835 161.498 235.925 161.578C236.014 161.659 236.128 161.708 236.248 161.717L242.087 159.44C242.214 159.395 242.32 159.304 242.384 159.185C242.448 159.066 242.466 158.928 242.434 158.797C242.434 158.797 242.335 158.352 241.988 158.352Z" fill="#495CB5"/>
<path d="M153.907 31.5713L156.679 29.6909C157.223 29.3939 156.679 28.5527 156.184 28.8496C155.689 29.1465 154.353 29.9878 153.413 30.5321C152.472 31.0764 153.363 31.9177 153.907 31.5713Z" fill="#495CB5"/>
<path d="M153.56 35.7273L158.013 32.9067C158.508 32.5603 158.013 31.719 157.518 32.0654L153.065 34.8861C152.57 35.2324 153.015 36.0737 153.56 35.7273Z" fill="#495CB5"/>
<path d="M154.402 37.3101C153.857 37.607 154.402 38.4483 154.896 38.1514L158.509 36.1225C159.053 35.8256 158.509 34.9843 158.014 35.2812L154.402 37.3101Z" fill="#495CB5"/>
<path d="M158.41 45.4261L162.863 43.0014C162.915 42.9689 162.96 42.9265 162.996 42.8766C163.032 42.8267 163.057 42.7702 163.071 42.7105C163.085 42.6507 163.086 42.5889 163.076 42.5284C163.066 42.468 163.044 42.4101 163.012 42.3581C162.979 42.3061 162.937 42.261 162.887 42.2254C162.837 42.1898 162.781 42.1644 162.721 42.1506C162.661 42.1368 162.599 42.135 162.539 42.1451C162.478 42.1552 162.42 42.1771 162.368 42.2096L157.915 44.5849C157.371 44.8818 157.865 45.7231 158.41 45.4261Z" fill="#495CB5"/>
<path d="M154.402 57.4518L160.192 52.5034C160.686 52.1075 160.192 51.4147 159.499 51.8106L153.709 56.7591C153.313 57.1549 154.006 57.8477 154.402 57.4518Z" fill="#495CB5"/>
<path d="M109.865 90.8548L123.028 80.6609C123.522 80.265 123.028 79.6217 122.335 79.9681L109.172 90.2114C108.776 90.5578 109.469 91.2506 109.865 90.8548Z" fill="#495CB5"/>
<path d="M120.258 87.045L109.272 95.8533C108.827 96.2491 109.52 96.9419 109.965 96.546L120.951 87.7377C121.446 87.3419 120.753 86.6491 120.258 87.045Z" fill="#495CB5"/>
<path d="M106.749 103.028L118.526 93.4282C119.021 93.0323 118.526 92.3395 117.883 92.7354L106.106 102.335C105.611 102.731 106.303 103.424 106.749 103.028Z" fill="#495CB5"/>
<path d="M115.902 97.2364L106.847 105.154C106.401 105.55 107.094 106.243 107.539 105.797L116.595 97.9292C117.041 97.5333 116.397 96.8405 115.902 97.2364Z" fill="#495CB5"/>
<path d="M105.61 116.389L113.329 110.005C113.775 109.609 113.082 108.917 112.637 109.313L104.917 115.696C104.422 116.092 104.917 116.785 105.61 116.389Z" fill="#495CB5"/>
<path d="M111.3 114.855L102.838 122.525C102.393 122.921 103.085 123.614 103.531 123.218L111.993 115.498C112.438 115.103 111.745 114.41 111.3 114.855Z" fill="#495CB5"/>
<path d="M114.813 77.2944L140.1 53.2943C140.545 52.8984 140.1 52.2056 139.407 52.651L114.12 76.6016C114.049 76.6969 114.014 76.8148 114.023 76.9336C114.031 77.0524 114.082 77.1642 114.166 77.2484C114.251 77.3326 114.362 77.3837 114.481 77.3921C114.6 77.4005 114.718 77.3658 114.813 77.2944Z" fill="#495CB5"/>
<path d="M119.465 78.1868L142.03 57.7991C142.03 58.1455 142.574 58.3434 142.871 58.0465C144.949 56.3146 146.978 54.5331 149.007 52.7517C149.551 52.3063 148.76 51.564 148.265 52.0094L142.92 56.6115C142.869 56.5576 142.808 56.5146 142.74 56.4853C142.672 56.4559 142.599 56.4407 142.524 56.4407C142.45 56.4407 142.377 56.4559 142.309 56.4853C142.241 56.5146 142.179 56.5576 142.129 56.6115L118.772 77.494C118.326 77.8899 118.97 78.5827 119.465 78.1868Z" fill="#495CB5"/>
<path d="M142.626 62.7967L125.207 76.0586C124.712 76.4545 125.207 77.2957 125.702 76.8999L143.12 63.638C143.615 63.2916 143.12 62.4008 142.626 62.7967Z" fill="#495CB5"/>
<path d="M107.638 166.862L119.465 156.965C119.911 156.569 119.218 155.877 118.772 156.273L106.946 166.169C106.451 166.565 107.144 167.258 107.638 166.862Z" fill="#495CB5"/>
<path d="M110.113 171.415L121.099 160.578C121.17 160.483 121.205 160.365 121.196 160.246C121.188 160.127 121.137 160.015 121.053 159.931C120.968 159.847 120.857 159.796 120.738 159.787C120.619 159.779 120.501 159.814 120.406 159.885L109.47 170.722C109.024 171.168 109.866 171.86 110.113 171.415Z" fill="#495CB5"/>
<path d="M108.083 176.661L122.929 163.597C123.424 163.201 122.929 162.508 122.236 162.954L107.391 175.968C106.945 176.364 107.638 177.057 108.083 176.661Z" fill="#495CB5"/>
<path d="M110.163 179.086C110.092 179.182 110.057 179.299 110.066 179.418C110.074 179.537 110.125 179.649 110.209 179.733C110.294 179.817 110.405 179.868 110.524 179.877C110.643 179.885 110.761 179.851 110.856 179.779L123.524 167.853C123.596 167.758 123.63 167.64 123.622 167.521C123.614 167.402 123.563 167.291 123.478 167.206C123.394 167.122 123.282 167.071 123.164 167.063C123.045 167.054 122.927 167.089 122.832 167.16L110.163 179.086Z" fill="#495CB5"/>
<path d="M123.968 171.565L113.328 181.858C113.257 181.953 113.222 182.071 113.231 182.19C113.239 182.309 113.29 182.42 113.374 182.505C113.459 182.589 113.57 182.64 113.689 182.648C113.808 182.657 113.926 182.622 114.021 182.551L124.71 172.208C125.106 171.812 124.71 171.12 123.968 171.565Z" fill="#495CB5"/>
<path d="M126.295 185.37L127.086 184.331L128.175 183.391C128.248 183.309 128.289 183.204 128.289 183.094C128.289 182.985 128.248 182.879 128.175 182.797L131.639 178.146C131.985 177.601 131.144 177.156 130.798 177.651C129.412 179.482 128.076 181.362 126.691 183.243L117.734 191.16C117.239 191.605 117.981 192.348 118.526 191.902L125.75 185.469C125.836 185.527 125.941 185.549 126.043 185.531C126.144 185.512 126.235 185.455 126.295 185.37Z" fill="#495CB5"/>
<path d="M105.708 162.954L90.0705 178.146C89.5757 178.541 90.0705 179.234 90.7138 178.789L106.45 163.943C106.581 163.845 106.668 163.699 106.691 163.536C106.714 163.374 106.672 163.209 106.574 163.078C106.475 162.946 106.329 162.859 106.166 162.836C106.004 162.813 105.839 162.855 105.708 162.954Z" fill="#495CB5"/>
<path d="M105.164 157.115C99.473 162.905 93.7822 168.645 88.141 174.435C88.0695 174.53 88.0348 174.648 88.0432 174.767C88.0517 174.886 88.1027 174.997 88.1869 175.082C88.2712 175.166 88.3829 175.217 88.5018 175.225C88.6206 175.234 88.7385 175.199 88.8337 175.128L105.807 157.808C106.252 157.363 105.56 156.67 105.164 157.115Z" fill="#495CB5"/>
<path d="M104.422 153.402L79.6798 175.473C79.1849 175.918 79.6798 176.611 80.3726 176.165L105.115 154.095C105.56 153.897 104.917 153.402 104.422 153.402Z" fill="#495CB5"/>
<path d="M98.3858 148.454L75.2269 172.256C75.1554 172.352 75.1207 172.47 75.1292 172.588C75.1376 172.707 75.1886 172.819 75.2729 172.903C75.3571 172.987 75.4689 173.039 75.5877 173.047C75.7065 173.055 75.8244 173.021 75.9197 172.949L99.227 149.048C99.3057 148.937 99.337 148.798 99.3138 148.664C99.2906 148.529 99.2148 148.409 99.1033 148.331C98.9917 148.252 98.8535 148.221 98.7189 148.244C98.5843 148.267 98.4645 148.343 98.3858 148.454Z" fill="#495CB5"/>
<path d="M97.9396 143.061L73.5931 165.923C73.5216 166.018 73.4869 166.136 73.4954 166.255C73.5038 166.374 73.5548 166.485 73.6391 166.57C73.7233 166.654 73.8351 166.705 73.9539 166.713C74.0727 166.722 74.1906 166.687 74.2859 166.616L98.6324 143.754C98.7039 143.658 98.7386 143.54 98.7301 143.422C98.7217 143.303 98.6707 143.191 98.5864 143.107C98.5022 143.023 98.3904 142.972 98.2716 142.963C98.1528 142.955 98.0349 142.989 97.9396 143.061Z" fill="#495CB5"/>
<path d="M105.313 144.891C105.61 144.198 105.857 143.505 106.154 142.862C106.451 142.219 105.412 142.021 105.214 142.565C105.016 143.109 104.67 143.951 104.373 144.594C104.076 145.237 104.917 145.435 105.313 144.891Z" fill="#495CB5"/>
</svg>
