<svg width="520" height="511" viewBox="0 0 520 511" fill="none" xmlns="http://www.w3.org/2000/svg">
<path d="M510.246 351.083C518.113 350.064 521.566 337.273 519.245 330.934C515.34 321.142 505.322 324.878 500.058 330.934C498.926 329.01 497.794 327.142 496.606 325.274C492.757 319.048 488.512 313.049 484.098 307.163C488.677 304.015 492.018 299.373 493.55 294.032C493.55 300.597 492.927 307.106 493.153 313.671C493.153 313.972 493.273 314.26 493.485 314.472C493.697 314.684 493.985 314.803 494.285 314.803C494.586 314.803 494.873 314.684 495.086 314.472C495.298 314.26 495.417 313.972 495.417 313.671C499.266 299.126 497.681 281.693 496.097 266.864C495.238 252.089 491.89 237.565 486.192 223.906C490.946 217.454 496.436 209.36 495.87 201.266C495.417 194.475 499.266 187.287 497.625 180.438C496.793 177.308 495.31 174.389 493.271 171.872C491.233 169.356 488.685 167.299 485.796 165.836C480.763 163.502 475.18 162.616 469.672 163.276C464.164 163.936 458.949 166.115 454.61 169.571C440.743 141.272 412.896 118.179 385.672 103.69C357.072 88.2293 324.658 81.2399 292.228 83.5411C291.662 83.5411 291.605 84.5598 292.228 84.5032C340.135 83.312 386.595 100.973 421.613 133.688C433.105 145.151 443.368 157.784 452.233 171.382C444.809 172.734 437.763 175.668 431.574 179.985C419.434 187.055 408.409 195.886 398.86 206.191C398.011 205.228 397.105 204.266 396.2 203.361C396.257 203.119 396.257 202.867 396.2 202.625C388.513 192.957 379.782 184.169 370.164 176.42C376.503 171.835 380.352 160.855 374.239 154.969C368.127 149.082 357.656 155.308 352.845 161.138C346.506 155.704 340.092 150.403 333.602 145.234L331.055 143.196C331.267 143.161 331.465 143.062 331.621 142.913C337.28 137.819 340.167 125.934 331.904 121.858C325.055 118.462 315.66 123.896 312.32 130.235C299.303 122.594 284.927 117.5 269.985 120.67C269.022 120.67 269.136 122.311 269.985 122.481L272.984 126.103C273.384 126.825 273.922 127.46 274.569 127.971L279.04 133.631V134.423C279.04 134.423 279.04 134.423 279.04 134.706C279.04 151.177 279.72 167.647 280.625 184.174C251.922 183.09 223.187 185.159 194.935 190.343C187.294 191.701 179.71 193.286 172.295 195.097C179.157 176.608 188.081 158.951 198.897 142.46C212.22 122.657 227.899 104.544 245.591 88.5217L246.666 87.5596L247.571 86.7106C247.911 86.4276 247.571 86.0314 247.571 85.8616C253.231 84.956 259.287 84.107 265.23 83.3713C265.44 83.3713 265.642 83.2878 265.791 83.1392C265.939 82.9906 266.023 82.789 266.023 82.5789C266.023 82.3687 265.939 82.1672 265.791 82.0186C265.642 81.87 265.44 81.7865 265.23 81.7865C236.422 79.5792 206.141 88.8613 180.332 101.596C154.029 114.662 130.698 133.003 111.791 155.478C82.9385 190.676 65.3645 233.753 61.3617 279.09C60.4561 288.655 59.6071 298.22 59.2675 307.785C59.552 315.382 60.3843 322.948 61.7579 330.425C63.4413 347.802 67.2428 364.909 73.0776 381.364C74.913 386.373 77.1267 391.236 79.6997 395.909C67.1733 381.422 57.4262 364.748 50.9475 346.725C36.9971 307.712 36.9971 265.07 50.9475 226.057C58.2467 205.397 68.6479 185.969 81.7938 168.439C82.8692 166.968 87.0575 163.062 86.2651 160.912C85.4727 158.761 79.9827 159.666 78.0583 160.289C74.436 161.364 71.1533 163.345 67.6441 164.704C61.9843 166.798 56.3244 164.421 51.4003 168.439C48.4964 170.966 45.8081 173.73 43.3633 176.703C36.7663 184.733 31.0723 193.463 26.3837 202.738C22.6482 209.983 18.6296 216.718 15.4035 224.132C8.79635 238.302 4.31458 253.368 2.10282 268.845C0.612529 280.197 -0.0872067 291.639 0.00866572 303.088C0.775417 325.123 5.29254 346.866 13.366 367.384C23.5533 394.437 40.8358 418.25 63.3992 436.321C84.0012 452.055 112.244 462.3 138.166 456.074L137.147 457.262C137.039 457.406 136.968 457.574 136.942 457.752C136.915 457.93 136.934 458.112 136.995 458.281C137.057 458.45 137.161 458.601 137.296 458.72C137.431 458.838 137.594 458.921 137.77 458.96C136.808 466.714 136.468 474.525 135.959 482.336C135.959 483.977 137.827 484.373 138.902 483.524C143.43 479.845 147.958 476.166 152.429 472.204C179.992 491.226 211.55 503.674 244.676 508.592C277.803 513.51 311.616 510.766 343.516 500.572C375.416 490.377 404.554 473.004 428.689 449.787C452.825 426.571 471.315 398.129 482.739 366.648L485.626 369.704V370.666C485.604 370.885 485.653 371.106 485.767 371.294C485.88 371.483 486.052 371.629 486.256 371.712C486.46 371.795 486.685 371.809 486.898 371.754C487.111 371.698 487.3 371.574 487.437 371.402C492.418 376.722 497.172 382.156 502.209 387.42C504.756 390.08 512.114 400.041 516.189 399.815C524.679 399.475 516.529 367.836 515.17 363.422C513.75 359.224 512.106 355.106 510.246 351.083ZM272.532 123.443L271.966 122.821H272.701L272.532 123.443ZM509.001 327.651C510.39 327.304 511.857 327.461 513.142 328.093C514.427 328.725 515.446 329.792 516.019 331.104C515.859 331.086 515.696 331.104 515.544 331.158C515.392 331.211 515.253 331.298 515.139 331.412C515.025 331.526 514.938 331.665 514.884 331.817C514.831 331.97 514.813 332.132 514.831 332.292C515.227 334.67 515.623 337.103 516.076 339.424C516.08 339.547 516.113 339.667 516.172 339.775C516.231 339.883 516.314 339.976 516.415 340.046C516.12 340.911 515.741 341.746 515.284 342.537C515 339.367 514.661 336.198 514.378 333.028C514.378 331.84 512.284 331.783 512.397 333.028L513.416 343.103C513.429 343.339 513.529 343.561 513.696 343.728C513.863 343.895 514.086 343.995 514.321 344.008C513.664 344.874 512.882 345.637 512.001 346.272C511.661 342.537 511.265 338.858 510.925 334.953C510.925 333.764 508.831 333.707 509.001 334.953C509.397 339.141 509.793 343.329 510.246 347.517L509.454 348.31C509.114 347.574 508.718 346.838 508.378 346.046C508.41 345.916 508.41 345.78 508.378 345.65C507.926 342.084 507.473 338.518 507.077 334.953C507.077 333.764 504.982 333.707 505.096 334.953C505.209 336.198 505.605 338.971 505.888 341.009C504.417 338.122 502.888 335.349 501.247 332.519C503.405 330.3 506.064 328.63 509.001 327.651ZM489.418 295.673C488.739 292.843 488.116 290.013 487.437 287.24C487.154 285.995 485.286 286.504 485.569 287.749C486.248 290.523 486.871 293.409 487.493 296.182C487.53 296.327 487.601 296.46 487.7 296.57C487.8 296.68 487.925 296.764 488.065 296.814C488.205 296.865 488.355 296.88 488.502 296.859C488.649 296.837 488.789 296.78 488.908 296.692C488.376 297.594 487.79 298.463 487.154 299.295C486.588 295.673 486.022 292.107 485.513 288.542C485.513 287.296 483.418 287.806 483.588 289.051C484.211 292.843 484.777 296.579 485.399 300.371C485.416 300.504 485.466 300.632 485.545 300.741C485.624 300.85 485.73 300.937 485.852 300.993L484.154 303.088C483.532 298.446 482.852 293.805 482.173 289.164C482.173 287.919 480.136 288.485 480.305 289.674L482.343 303.936C482.343 304.117 482.415 304.289 482.542 304.417C482.669 304.544 482.842 304.616 483.022 304.616C482.886 304.833 482.734 305.041 482.569 305.238C481.834 304.276 481.098 303.257 480.305 302.295C480.521 302.207 480.697 302.043 480.801 301.835C480.905 301.627 480.93 301.388 480.871 301.163C480.136 297.484 479.4 293.805 478.607 290.183C478.607 288.938 476.513 289.447 476.74 290.692C477.419 293.919 478.098 297.088 478.721 300.314L476.004 297.031C476.184 296.925 476.322 296.76 476.394 296.564C476.466 296.368 476.468 296.154 476.4 295.956C476.004 294.484 475.664 292.956 475.268 291.428C475.201 291.18 475.037 290.97 474.815 290.842C474.592 290.715 474.327 290.681 474.08 290.749C473.832 290.817 473.621 290.98 473.494 291.203C473.366 291.426 473.333 291.69 473.4 291.938L474.08 294.711L470.457 290.523C472.449 288.189 474.71 286.099 477.193 284.297C478.183 283.469 479.353 282.886 480.61 282.592C481.866 282.298 483.174 282.303 484.428 282.605C485.683 282.908 486.849 283.5 487.833 284.334C488.818 285.169 489.593 286.222 490.097 287.41C490.569 288.758 490.753 290.19 490.636 291.614C490.519 293.037 490.104 294.42 489.418 295.673ZM493.493 269.751C493.832 275.67 493.832 281.604 493.493 287.523C493.099 285.661 492.243 283.929 491.003 282.486C483.871 274.109 473.457 281.92 468.703 288.768C462.647 281.92 456.251 275.298 449.686 269.015C449.289 267.883 448.723 266.864 448.384 265.732C448.443 265.433 448.443 265.126 448.384 264.827C448.391 264.695 448.391 264.563 448.384 264.431C448.306 263.069 448.62 261.714 449.289 260.525C462.22 252.251 473.456 241.59 482.4 229.113L485.343 225.321C487.663 240.263 492.418 254.526 493.493 269.751ZM491.342 207.209L490.493 192.607C492.432 197.235 492.732 202.387 491.342 207.209ZM371.749 157.572C373.173 158.835 374.038 160.61 374.154 162.509C374.271 164.408 373.63 166.276 372.372 167.703C372.173 165.344 371.659 163.021 370.844 160.798C370.391 159.61 368.523 160.119 368.976 161.308C370.036 164.209 370.572 167.275 370.561 170.364L368.976 172.458C368.636 169.118 368.24 165.722 367.9 162.326C367.9 161.138 365.863 161.081 365.976 162.326L367.165 173.929L366.825 173.59L365.353 172.288L363.995 163.685C363.995 162.496 361.957 163.006 362.127 164.194C362.297 165.383 362.75 168.269 363.09 170.25L360.486 167.986L360.146 163.968C360.146 162.723 358.052 162.723 358.165 163.968C358.279 165.213 358.165 165.383 358.165 166.062L354.147 162.609C359.128 158.931 366.712 152.988 371.749 157.572ZM328.281 124.179C334.337 125.594 333.941 129.839 332.47 134.027C332.017 132.273 331.564 130.461 331.168 128.707C331.243 128.556 331.28 128.389 331.274 128.221C331.269 128.053 331.223 127.889 331.139 127.743C331.055 127.597 330.936 127.475 330.793 127.386C330.65 127.297 330.487 127.246 330.319 127.235C330.149 127.239 329.984 127.288 329.839 127.377C329.694 127.466 329.576 127.592 329.495 127.741C329.415 127.89 329.375 128.058 329.381 128.228C329.386 128.398 329.437 128.563 329.526 128.707C329.456 128.817 329.418 128.944 329.418 129.075C329.418 129.205 329.456 129.333 329.526 129.443C330.036 131.593 330.602 133.801 331.111 135.951C331.148 136.102 331.226 136.24 331.335 136.35C331.445 136.46 331.583 136.537 331.734 136.574L330.772 138.612C330.319 135.612 329.923 132.612 329.47 129.556C329.47 128.367 327.432 128.877 327.602 130.122L329.13 141.102C329.111 141.271 329.111 141.442 329.13 141.611C329.144 141.705 329.144 141.801 329.13 141.894L326.81 140.14C326.131 136.8 325.395 133.405 324.716 130.065C324.716 128.82 322.565 129.329 322.848 130.575C323.357 133.178 323.923 135.782 324.489 138.385L323.187 137.48C322.735 135.102 322.338 132.725 321.942 130.348C321.942 129.103 319.848 129.612 320.074 130.858L320.923 135.895L319.452 134.876C319.452 133.631 319.452 132.442 319.056 131.254C318.659 130.065 316.962 130.009 317.075 131.254C317.188 132.499 317.075 132.725 317.075 133.461L313.735 131.367C318.546 128.084 321.772 122.594 328.281 124.179ZM280.512 136.008C288.209 145.177 296.077 154.289 304 163.289C303.999 163.51 304.078 163.725 304.224 163.892C304.371 164.059 304.573 164.167 304.793 164.194L318.15 179.363L339.714 203.757V204.719C339.698 204.903 339.737 205.087 339.828 205.247C339.919 205.408 340.057 205.537 340.223 205.617C340.389 205.697 340.576 205.724 340.758 205.695C340.94 205.666 341.109 205.582 341.242 205.455L342.261 206.587C349.989 216.521 358.568 225.763 367.9 234.207C346.789 258.488 324.546 281.58 302.246 304.616C297.888 304.616 293.53 304.616 289.172 304.616C288.662 278.524 286.398 252.205 285.096 226.17C284.474 213.548 284.021 200.87 283.512 188.192C297.039 188.871 310.622 190.116 324.319 191.701C325.508 191.701 325.734 189.89 324.602 189.607C310.993 186.874 297.203 185.134 283.342 184.4C283.002 168.213 282.04 152.026 280.512 136.008ZM194.255 192.946C222.81 188.091 251.819 186.458 280.738 188.079C281.418 200.757 282.153 213.492 282.719 226.17C283.795 252.205 284.078 278.637 286.002 304.672C272.249 304.955 258.495 305.634 244.855 305.861C224.026 306.2 203.198 306.257 182.596 306.37H157.127C156.089 293.51 155.957 280.592 156.731 267.713C158.281 243.824 163.197 220.272 171.333 197.757C178.747 195.946 186.445 194.305 194.255 192.946ZM172.522 110.708C195.525 98.1353 220.601 89.7961 246.553 86.088L244.628 87.6728C244.508 87.6728 244.393 87.7205 244.308 87.8054C244.223 87.8903 244.176 88.0055 244.176 88.1256C209.749 116.59 183.71 153.879 168.843 196.003C135.904 203.998 104.243 216.552 74.7756 233.301C90.5061 181.454 125.479 137.59 172.522 110.708ZM71.4929 245.13C72.3418 241.734 73.2474 238.395 74.2096 235.056C103.891 219.221 135.356 206.984 167.937 198.606C155.879 233.1 151.006 269.697 153.618 306.144H64.5878C64.2523 285.594 66.5731 265.086 71.4929 245.13ZM139.411 478.6C139.411 474.751 139.864 470.846 140.034 467.28C140.242 467.207 140.421 467.068 140.543 466.884L156.051 444.98C156.731 443.962 155.089 443 154.353 444.018L140.487 463.601C140.831 461.867 141.02 460.106 141.053 458.338C141.008 457.658 140.855 456.989 140.6 456.357C144.222 451.999 147.845 447.584 151.523 443.226C152.316 442.264 150.957 440.905 150.165 441.868L139.411 454.772L139.072 454.489C137.311 453.652 135.346 453.337 133.412 453.584C136.525 450.584 139.581 447.527 142.637 444.471C143.543 443.622 142.185 442.207 141.279 443.113L130.469 453.81H129.167C122.113 453.993 115.059 453.462 108.112 452.225C103.388 451.365 98.7337 450.154 94.1889 448.603L103.981 442.547C104.143 442.386 104.247 442.176 104.276 441.949C104.305 441.723 104.256 441.493 104.139 441.297C104.021 441.101 103.841 440.951 103.628 440.869C103.414 440.788 103.18 440.781 102.962 440.849L92.774 447.188C92.6456 447.275 92.5417 447.394 92.4724 447.532C92.403 447.671 92.3704 447.825 92.3778 447.98C88.4955 446.58 84.7134 444.916 81.058 443L93.1702 433.774C94.1889 432.982 93.1702 431.284 92.208 432.076L80.3223 441.075C80.1709 441.181 80.0531 441.328 79.9829 441.498C79.9126 441.669 79.8929 441.856 79.9261 442.037C76.6802 440.347 73.5424 438.457 70.5307 436.378C69.3987 435.642 68.3233 434.849 67.2479 434.057C72.0688 432.227 76.6192 429.752 80.775 426.699C81.7938 425.963 80.775 424.265 79.8129 425.058C75.4259 428.289 70.5803 430.845 65.4368 432.642C62.2673 430.321 59.2109 427.548 56.6074 424.662L68.9459 416.342C70.0213 415.662 68.9459 413.964 67.9837 414.7L54.9094 423.416C53.9472 422.511 53.0417 421.605 52.1361 420.643C56.8378 417.803 61.2876 414.565 65.4368 410.965C66.3424 410.116 64.984 408.757 64.0218 409.55C59.9463 413.074 55.5717 416.236 50.9475 419.002C49.9287 417.87 48.91 416.794 47.9478 415.662L60.2297 406.663C61.1919 405.927 60.2297 404.229 59.2109 404.965L46.4196 414.417C45.0047 412.719 43.5897 411.021 42.2313 409.267L54.5698 402.362C55.6452 401.796 54.5698 400.098 53.6077 400.72L41.0427 407.682L37.6468 402.984C37.794 403.032 37.9524 403.032 38.0996 402.984L43.4199 399.079C44.4387 398.4 43.4199 396.702 42.4577 397.438L37.1374 401.343C36.9435 401.454 36.8011 401.637 36.7412 401.852L34.8169 399.022C39.0052 396.306 43.1369 393.362 47.2686 390.759C48.2874 390.08 47.2686 388.382 46.3064 389.061L33.9679 397.324L31.7606 393.815C34.5667 392.648 37.1808 391.064 39.5146 389.118C40.4768 388.325 39.0618 386.967 38.0996 387.759C35.8952 389.595 33.4112 391.066 30.7418 392.117L29.723 390.363L39.6278 383.514C40.7031 382.779 39.6278 381.137 38.6656 381.816L28.308 388.721C27.6854 387.533 27.0063 386.401 26.3837 385.269L35.4395 379.609C35.6646 379.481 35.8299 379.27 35.8989 379.02C35.9679 378.771 35.935 378.504 35.8074 378.279C35.6798 378.054 35.468 377.888 35.2185 377.82C34.9691 377.751 34.7025 377.783 34.4773 377.911L25.4781 383.571L24.4593 381.59C23.4405 379.666 22.4784 377.685 21.5728 375.93L31.138 370.723C31.3631 370.595 31.5284 370.384 31.5974 370.134C31.6664 369.885 31.6334 369.618 31.5059 369.393C31.3783 369.168 31.1665 369.003 30.917 368.934C30.6676 368.865 30.4009 368.897 30.1758 369.025L20.8936 373.723C20.8936 373.157 20.3842 372.534 20.1012 371.912L34.7037 362.403C35.7225 361.724 34.7037 360.026 33.6849 360.705L19.3088 370.27C18.9692 369.421 18.573 368.629 18.2335 367.78C18.3998 367.829 18.5765 367.829 18.7428 367.78L30.3456 360.365C31.3644 359.686 30.3456 358.045 29.3268 358.724L18.0071 366.139L16.8185 363.082L31.138 354.14C32.2133 353.46 31.138 351.762 30.1758 352.442L15.6865 361.271C15.0073 359.46 14.3847 357.649 13.7622 355.611C13.9049 355.731 14.0852 355.797 14.2715 355.797C14.4579 355.797 14.6382 355.731 14.7809 355.611L26.1007 347.744C27.1195 347.065 26.1007 345.367 25.1385 346.103L13.8188 353.97C13.656 354.101 13.5375 354.279 13.4792 354.479C12.9698 352.951 12.4604 351.423 12.0076 349.895C12.1076 349.996 12.2266 350.076 12.3577 350.13C12.4889 350.185 12.6296 350.213 12.7717 350.213C12.9138 350.213 13.0545 350.185 13.1856 350.13C13.3168 350.076 13.4358 349.996 13.5358 349.895L23.7235 341.631C24.6857 340.839 23.3273 339.48 22.3652 340.273L12.0642 348.876C12.0255 349.043 12.0255 349.218 12.0642 349.385C11.668 347.97 11.2152 346.499 10.8756 345.084C14.6659 342.995 18.0883 340.299 21.0068 337.103C21.8558 336.198 20.4408 334.783 19.6484 335.745C16.9404 338.672 13.789 341.155 10.3096 343.103C9.85684 341.292 9.46065 339.48 9.00786 337.443L25.9875 324.821C26.9497 324.086 25.9875 322.388 25.0253 323.123L8.32868 335.632C7.76269 333.028 7.2533 330.425 6.80051 327.765L21.0634 318.426C22.1388 317.747 21.0634 316.049 20.1012 316.728L6.46092 325.67C6.06473 323.067 5.72514 320.407 5.44214 317.747C5.64394 317.816 5.86294 317.816 6.06473 317.747L20.2144 306.427C21.2332 305.634 19.8182 304.276 18.856 305.012L5.21575 315.822C5.21575 315.03 5.21575 314.294 5.21575 313.558L16.0827 305.068C17.1015 304.276 15.6865 302.918 14.7243 303.653L4.81956 311.464C4.81956 309.804 4.70636 308.163 4.47997 306.54C4.56963 306.577 4.66582 306.597 4.76296 306.597C4.8601 306.597 4.95628 306.577 5.04595 306.54C9.91418 303.87 14.3743 300.515 18.2901 296.579C19.1956 295.673 17.7807 294.315 16.9317 295.164C13.1966 298.813 8.96685 301.918 4.36677 304.389C4.36677 302.918 4.36677 301.446 4.36677 299.975C10.5278 296.74 16.3816 292.951 21.8558 288.655C22.818 287.919 21.4596 286.504 20.4974 287.296C15.396 291.25 9.96103 294.754 4.25357 297.767C4.25357 295.22 4.25357 292.673 4.25357 290.183C9.89181 287.286 15.2045 283.795 20.1012 279.769C21.0634 278.976 19.705 277.618 18.7428 278.41C14.3037 282.056 9.50592 285.242 4.42337 287.919C4.42337 286.787 4.42337 285.712 4.42337 284.636L15.7431 277.052C16.7619 276.373 15.7431 274.675 14.7243 275.411L4.81956 282.146C4.81956 280.448 5.10255 278.693 5.27235 276.995L19.0824 267.77C20.1578 267.091 19.0824 265.449 18.1203 266.129L5.66854 274.505C5.66854 273.034 6.00813 271.619 6.23453 270.147L20.1578 262.45C21.2898 261.884 20.1578 260.186 19.1956 260.808L6.46092 267.713C6.74391 266.015 7.02691 264.374 7.3665 262.676C13.7025 259.925 19.6568 256.368 25.0819 252.092C26.1007 251.3 24.6857 249.941 23.7235 250.677C18.8272 254.602 13.4666 257.909 7.76269 260.525L8.78147 255.884L24.5159 245.187C25.5347 244.508 24.5159 242.81 23.4971 243.546L9.46065 252.884C9.85684 251.3 10.253 249.658 10.7058 248.017L20.1012 242.64C20.2127 242.577 20.3107 242.492 20.3895 242.391C20.4683 242.29 20.5265 242.175 20.5606 242.051C20.5948 241.928 20.6043 241.799 20.5886 241.672C20.5729 241.544 20.5323 241.421 20.4691 241.31C20.4059 241.199 20.3214 241.101 20.2204 241.022C20.1193 240.943 20.0038 240.885 19.8803 240.851C19.7568 240.816 19.6277 240.807 19.5005 240.823C19.3734 240.838 19.2505 240.879 19.139 240.942L11.3284 245.357L12.3472 241.791L26.8931 232.226C27.9118 231.547 26.8931 229.849 25.8743 230.528L13.4226 238.735C13.4226 238.735 13.4226 238.225 13.4226 237.942L14.6677 234.49L39.7976 218.699C40.8729 218.02 39.7976 216.322 38.8354 217.001L15.9695 231.603C16.7619 229.566 17.5543 227.585 18.4033 225.604C18.6237 225.677 18.862 225.677 19.0824 225.604C27.459 220.17 35.8734 214.831 44.3255 209.586C45.4008 208.907 44.3255 207.209 43.3633 207.888L19.5352 222.831C20.4408 220.793 21.403 218.812 22.3652 216.831C28.8174 213.435 35.2131 209.869 41.4389 206.077C42.5143 205.455 41.4389 203.757 40.4768 204.436C34.8169 207.719 29.44 210.832 23.8367 213.831L26.6101 208.171L43.5897 197.927C44.6651 197.304 43.5897 195.607 42.6275 196.286L28.308 205.115C29.0438 203.813 29.7796 202.512 30.572 201.266C36.8544 197.644 43.0237 193.739 48.9666 189.55C49.9853 188.815 48.9666 187.117 48.0044 187.853C43.0237 191.362 37.9298 194.644 32.7227 197.757C33.6849 196.173 34.6471 194.644 35.6659 193.116C35.7817 193.168 35.907 193.194 36.0338 193.194C36.1605 193.194 36.2858 193.168 36.4016 193.116C43.4576 188.513 50.5702 183.966 57.7394 179.476C58.7581 178.797 57.7394 177.099 56.7206 177.778L38.043 189.72C39.8542 187.117 41.6653 184.513 43.7029 181.966C43.756 182.084 43.8336 182.188 43.9303 182.273C44.0271 182.358 44.1409 182.421 44.2641 182.459C44.3873 182.496 44.5171 182.507 44.6448 182.491C44.7725 182.474 44.8952 182.43 45.0047 182.362L59.3241 173.193C60.3429 172.514 59.3241 170.816 58.3619 171.495L45.2876 179.759C47.6648 176.646 50.0985 173.533 52.6455 170.533C52.7577 170.695 52.912 170.822 53.0916 170.902C53.2712 170.982 53.4693 171.011 53.6643 170.986C62.8578 170.615 71.9002 168.522 80.3223 164.817C54.0878 198.694 38.8766 239.804 36.7412 282.599C34.9626 325.881 49.9674 368.178 78.6243 400.664C87.1647 410.587 97.5675 418.74 109.244 424.662C115.189 427.562 121.656 429.237 128.261 429.586C132.167 429.586 140.147 429.586 142.751 426.246C144.505 423.813 142.751 419.964 142.751 417.134C142.742 410.929 142.364 404.73 141.619 398.57C163.884 410.74 188.61 417.724 213.952 419.002C209.764 421.888 205.632 424.945 201.613 428.057C202.802 425.907 203.934 423.699 205.066 421.549C205.688 420.473 203.99 419.454 203.424 420.586L199.01 428.85C198.89 429.014 198.826 429.212 198.826 429.416C198.826 429.619 198.89 429.817 199.01 429.982L193.35 434.566C195.149 430.746 197.536 427.232 200.425 424.152C200.605 423.965 200.703 423.713 200.698 423.453C200.692 423.193 200.584 422.946 200.396 422.766C200.209 422.585 199.957 422.487 199.697 422.492C199.437 422.498 199.19 422.606 199.01 422.794C195.726 426.276 193.065 430.296 191.143 434.68C191.085 434.794 191.051 434.92 191.043 435.048C191.035 435.176 191.052 435.305 191.094 435.426C191.137 435.547 191.203 435.659 191.289 435.754C191.375 435.85 191.479 435.927 191.595 435.981L176.597 448.376C164.145 458.621 151.863 468.412 139.638 478.6H139.411ZM235.007 504.183C228.158 502.881 221.479 501.24 214.857 499.372C214.937 499.269 214.992 499.15 215.018 499.022C215.044 498.895 215.041 498.763 215.008 498.637C214.975 498.512 214.914 498.395 214.829 498.297C214.744 498.198 214.638 498.121 214.518 498.07C197.336 490.597 181.109 481.097 166.183 469.771C165.164 468.978 164.202 470.676 165.22 471.412C178.644 481.608 193.122 490.336 208.405 497.448C189.069 491.218 170.631 482.484 153.561 471.469L177.785 451.659C183.049 447.358 188.482 443.169 193.916 438.868C199.583 455.406 209.314 470.255 222.215 482.053C233.316 493.239 246.692 501.906 261.438 507.465C252.645 506.903 243.894 505.807 235.233 504.183H235.007ZM387.314 477.298C351.767 498.699 310.771 509.317 269.305 507.862C252.766 501.337 237.528 491.906 224.309 480.015C212.388 467.689 202.613 453.456 195.387 437.906C201.896 432.755 208.518 427.548 214.574 421.832C216.612 419.907 218.933 417.36 215.706 415.21C214.122 414.134 211.122 415.21 209.254 414.644L199.18 413.002C192.388 411.757 185.652 410.342 178.917 408.588C165.616 405.163 152.7 400.384 140.374 394.325C139.468 393.872 137.94 394.325 138.11 395.626C139.355 405.361 139.298 415.04 139.977 424.718C126.324 425.987 112.651 422.508 101.264 414.87C101.195 414.629 101.057 414.412 100.868 414.247C92.0886 406.353 85.0526 396.715 80.2091 385.948C97.0271 397.344 116.546 404.117 136.808 405.588C137.031 405.579 137.244 405.492 137.41 405.343C137.577 405.194 137.686 404.991 137.719 404.771C137.753 404.55 137.708 404.324 137.594 404.132C137.479 403.941 137.301 403.795 137.091 403.72C127.299 401.343 117.508 399.758 107.942 396.589C98.0031 393.173 88.3977 388.853 79.2469 383.684C73.1017 368.642 69.0087 352.841 67.0782 336.707C65.7196 327.178 64.9259 317.578 64.701 307.955C94.4719 309.012 124.243 309.596 154.014 309.71C154.542 315.709 155.278 321.652 156.221 327.538C158.311 340.975 161.471 354.224 165.673 367.157C169.359 380.326 174.744 392.96 181.691 404.739C182.426 405.871 184.577 405.192 184.011 403.777C180.049 393.136 174.842 383.005 171.05 372.251C167.124 361.162 163.966 349.815 161.598 338.292C159.667 328.943 158.25 319.496 157.353 309.993C165.73 309.993 174.333 309.993 182.54 309.993C202.858 309.993 223.177 309.54 243.496 309.2C257.703 309.2 272.135 309.2 286.398 308.691C286.681 311.691 286.908 314.747 287.191 317.803C287.191 319.218 289.511 319.275 289.511 317.803C289.511 314.69 289.511 311.634 289.511 308.578C292.907 308.578 296.246 308.578 299.586 308.068C294.718 313.049 289.907 318.03 285.096 323.067C282.053 327.12 278.198 330.493 273.777 332.972C266.532 335.575 259.344 326.519 253.571 323.576C244.366 318.493 233.768 316.508 223.347 317.916H222.102C222.028 317.928 221.957 317.957 221.895 317.999C221.833 318.042 221.782 318.098 221.744 318.163C221.706 318.227 221.683 318.3 221.676 318.375C221.67 318.45 221.68 318.525 221.706 318.596C220.928 319.846 220.59 321.32 220.744 322.784C220.763 323.792 221.032 324.779 221.526 325.658C222.02 326.537 222.723 327.28 223.574 327.821L224.649 329.632C228.994 335.366 233.641 340.864 238.572 346.103L259.061 369.534C263.532 374.628 267.268 380.288 271.739 385.382C276.21 390.476 280.965 394.494 285.266 399.475C286.625 400.947 287.926 402.588 289.228 404.173C289.228 410.285 289.228 416.342 289.738 422.398C270.473 422.825 251.202 421.918 232.063 419.681C231.497 419.681 231.328 420.643 232.063 420.756C251.171 423.602 270.477 424.908 289.794 424.662C290.247 434.057 290.813 443.452 291.266 452.961C292.058 469.941 292.171 486.92 294.265 503.9C294.265 504.919 295.907 504.975 295.907 503.9C296.246 486.92 294.605 469.941 293.643 452.961C293.077 443.566 292.681 434.17 292.171 424.662C313.649 424.354 335.063 422.234 356.184 418.323C364.052 416.851 371.919 415.153 379.673 413.229C371.295 430.585 360.944 446.917 348.827 461.904C336.166 476.63 322.268 490.245 307.283 502.598C306.434 503.334 307.566 504.805 308.528 504.183C341.469 483.298 367.278 447.584 383.522 412.719V412.153C394.841 409.21 406.161 405.814 417.085 401.852C437.58 395.533 457.189 386.632 475.438 375.364C475.643 375.192 475.78 374.953 475.826 374.689C475.871 374.425 475.822 374.154 475.686 373.923C475.55 373.692 475.337 373.517 475.084 373.429C474.832 373.34 474.556 373.344 474.306 373.44C455.006 381.873 436.781 392.004 416.858 399.249C406.557 403.022 396.124 406.305 385.559 409.097C392.868 392.462 398.334 375.077 401.86 357.253C403.83 347.63 405.21 337.895 405.991 328.104C407.463 318.406 407.463 308.541 405.991 298.843C405.991 298.39 405.086 298.333 405.029 298.843C403.671 307.615 404.633 316.954 403.954 325.897C403.089 336.267 401.558 346.57 399.369 356.743C395.367 375.241 389.271 393.223 381.201 410.342C373.107 412.436 364.957 414.247 356.694 416.002C335.35 420.018 313.714 422.29 292.001 422.794C291.718 417.134 291.322 412.04 290.813 406.72C293.543 410.018 296.617 413.015 299.982 415.662C303.548 418.549 309.943 418.832 311.698 414.983L312.037 414.53C314.868 402.225 313.472 389.326 308.076 377.911C309.555 372.377 310.223 366.657 310.056 360.931C316.735 356.064 323.074 350.291 329.526 345.48C338.846 338.537 348.279 331.802 357.826 325.274C367.504 318.765 377.239 312.426 387.144 306.37C391.728 303.54 396.37 300.71 400.954 298.107C403.023 296.565 405.22 295.202 407.52 294.032C413.179 291.938 417.934 299.295 421.613 302.578C425.292 305.861 430.499 311.068 434.687 315.596C434.659 315.753 434.668 315.915 434.715 316.068C434.761 316.221 434.842 316.361 434.952 316.476C435.062 316.592 435.198 316.68 435.349 316.734C435.499 316.787 435.66 316.805 435.819 316.784L438.083 319.218C446.346 328.01 454.572 336.745 462.76 345.423C463.552 346.329 464.401 347.178 465.194 348.027C465.986 348.876 465.194 348.536 465.194 348.763C465.145 348.976 465.166 349.2 465.255 349.4C465.343 349.601 465.494 349.767 465.685 349.875C465.875 349.983 466.096 350.027 466.313 350C466.53 349.973 466.733 349.876 466.892 349.725L478.551 362.403C478.577 362.549 478.644 362.685 478.744 362.796C478.845 362.906 478.974 362.985 479.117 363.026L480.249 364.214C462.9 411.305 430.151 451.154 387.314 477.298ZM303.434 369.761C302.782 368.752 302.063 367.788 301.284 366.874C301.397 366.79 301.488 366.678 301.547 366.549C301.606 366.421 301.632 366.28 301.623 366.139C303.567 365.085 305.457 363.932 307.283 362.686C307.303 362.835 307.367 362.975 307.468 363.086C307.57 363.197 307.702 363.275 307.849 363.309C307.795 367.287 307.34 371.25 306.491 375.138C305.812 373.723 305.019 372.364 304.227 371.063C304.243 370.944 304.235 370.822 304.203 370.707C304.172 370.591 304.118 370.482 304.044 370.387C303.97 370.292 303.878 370.213 303.774 370.154C303.669 370.095 303.554 370.058 303.434 370.044V369.761ZM510.982 391.155C510.642 390.816 510.303 390.533 509.963 390.136C510.193 390.251 510.456 390.28 510.705 390.218C510.954 390.156 511.173 390.006 511.322 389.797L510.982 391.155ZM515.114 394.042C514.097 393.607 513.145 393.036 512.284 392.344C512.436 392.292 512.573 392.202 512.682 392.083C512.79 391.965 512.868 391.821 512.906 391.664L515.057 383.571C515.057 382.326 513.472 381.816 513.189 383.005C512.737 385.212 512.227 387.42 511.718 389.627C511.718 384.703 512.114 379.779 512.34 374.855C512.34 373.553 510.473 373.609 510.416 374.855L509.397 389.74C509.373 389.871 509.373 390.005 509.397 390.136C508.095 388.778 506.907 387.306 505.775 385.948C506.017 385.772 506.18 385.508 506.228 385.212L507.586 369.648C507.586 368.402 505.718 368.402 505.605 369.648C505.209 374.515 504.756 379.383 504.36 384.25L503.737 383.401L502.096 381.703C502.13 381.573 502.13 381.437 502.096 381.307L503.737 361.894C503.737 360.648 501.87 360.648 501.813 361.894C501.304 367.893 500.851 373.892 500.398 379.892C499.04 378.534 497.738 377.119 496.379 375.704C496.579 375.652 496.755 375.535 496.878 375.37C497.001 375.205 497.065 375.004 497.059 374.798L497.738 357.818C497.738 356.573 495.814 356.573 495.757 357.818C495.757 363.478 495.361 368.742 495.134 374.232L491.738 370.723V370.383C491.957 365.972 492.775 361.612 494.172 357.422C494.568 356.234 492.644 355.724 492.304 356.913C491.088 360.588 490.272 364.383 489.871 368.233L488.342 366.591C489.54 360.197 490.316 353.731 490.663 347.235C490.683 347.078 490.657 346.919 490.586 346.778C490.515 346.637 490.404 346.52 490.267 346.442C490.239 346.207 490.125 345.99 489.948 345.834C489.77 345.677 489.541 345.591 489.305 345.593C489.113 345.618 488.932 345.696 488.783 345.82C488.635 345.944 488.524 346.107 488.465 346.291C488.406 346.475 488.4 346.672 488.448 346.859C488.497 347.046 488.597 347.216 488.739 347.348C488.436 353.344 487.774 359.316 486.758 365.233L481.098 359.177C481.834 352.555 482.626 345.876 483.418 339.198C483.418 338.009 481.607 338.009 481.494 339.198C480.758 345.254 480.079 351.31 479.343 357.366L476.966 354.819L478.834 335.349C478.834 334.104 476.966 334.104 476.853 335.349C476.344 341.009 475.778 347.065 475.212 352.951L472.551 350.121L475.098 330.821C475.098 329.576 473.344 329.576 473.174 330.821C472.382 336.481 471.646 342.48 470.853 348.31L467.571 345.423C468.759 338.179 469.891 330.877 471.023 323.633C471.023 322.388 469.325 321.878 469.156 323.123L465.929 343.669L463.665 341.292C464.118 334.104 464.118 327.708 464.118 321.086C464.065 320.864 463.938 320.666 463.758 320.524C463.579 320.383 463.356 320.306 463.128 320.306C462.899 320.306 462.677 320.383 462.497 320.524C462.318 320.666 462.191 320.864 462.137 321.086L461.628 339.028C458.685 335.915 455.968 332.858 452.855 329.745C453.364 323.067 453.817 316.388 454.327 309.71C454.327 308.464 452.459 308.464 452.402 309.71L451.044 328.161L447.139 323.803C447.761 316.728 448.44 309.596 449.063 302.465C449.063 301.22 447.252 301.22 447.139 302.465C446.516 309.03 445.95 315.539 445.327 322.105L442.554 319.218C443.007 312.087 443.403 305.012 443.799 297.88C443.799 296.635 441.932 296.692 441.818 297.88C441.479 304.389 441.139 310.842 440.743 317.294V316.954L437.29 313.275C438.376 306.252 438.924 299.157 438.932 292.051C438.932 290.806 437.007 290.806 437.007 292.051C437.064 298.542 436.667 305.029 435.819 311.464L433.555 309.03C433.797 308.855 433.96 308.59 434.008 308.295C434.63 299.182 435.309 290.126 435.989 281.071C435.989 279.825 434.121 279.825 434.064 281.071C433.385 289.843 432.763 298.673 432.083 307.446L426.933 301.786C427.074 301.839 427.227 301.859 427.377 301.843C427.528 301.826 427.673 301.775 427.799 301.692C427.926 301.609 428.032 301.498 428.107 301.366C428.183 301.235 428.227 301.088 428.235 300.937C429.027 283.957 428.97 266.355 428.235 249.092C428.235 247.847 426.254 247.847 426.31 249.092C427.216 266.072 427.272 283.674 426.31 300.937C426.275 301.028 426.275 301.129 426.31 301.22C424.726 299.692 423.141 298.163 421.499 296.692L421.839 246.489C421.785 246.266 421.659 246.069 421.479 245.927C421.299 245.785 421.077 245.708 420.849 245.708C420.62 245.708 420.398 245.785 420.218 245.927C420.038 246.069 419.912 246.266 419.858 246.489C419.858 262.676 419.858 278.807 419.575 294.994L416.462 292.504L413.179 288.485C412.863 288.242 412.475 288.11 412.076 288.11C411.677 288.11 411.289 288.242 410.972 288.485C409.84 289.164 408.708 289.843 407.52 290.466V252.375C407.52 252.12 407.418 251.875 407.238 251.695C407.057 251.514 406.813 251.413 406.557 251.413C406.302 251.413 406.057 251.514 405.877 251.695C405.697 251.875 405.595 252.12 405.595 252.375V291.315L397.841 295.786C398.369 284.127 398.86 272.468 399.313 260.808C399.313 259.563 397.445 259.563 397.388 260.808C396.879 272.468 396.426 284.127 395.917 295.786C395.881 295.966 395.913 296.152 396.007 296.309C396.102 296.466 396.251 296.582 396.426 296.635L392.351 299.069C392.747 288.938 393.143 278.75 393.483 268.619C393.483 268.364 393.382 268.119 393.201 267.939C393.021 267.758 392.776 267.657 392.521 267.657C392.266 267.657 392.021 267.758 391.84 267.939C391.66 268.119 391.559 268.364 391.559 268.619L389.974 300.144C384.314 303.484 379.05 306.88 373.617 310.389C373.617 302.239 374.013 294.088 374.239 285.995C374.186 285.772 374.059 285.574 373.879 285.433C373.7 285.291 373.478 285.214 373.249 285.214C373.02 285.214 372.798 285.291 372.619 285.433C372.439 285.574 372.312 285.772 372.258 285.995C372.258 294.541 371.862 302.974 371.636 311.634C370.334 312.539 368.976 313.332 367.617 314.237V288.032C367.617 287.777 367.516 287.532 367.336 287.352C367.155 287.171 366.91 287.07 366.655 287.07C366.4 287.07 366.155 287.171 365.975 287.352C365.794 287.532 365.693 287.777 365.693 288.032V315.256C365.667 315.368 365.667 315.484 365.693 315.596L361.731 318.256V293.183C361.731 292.928 361.63 292.683 361.449 292.502C361.269 292.322 361.024 292.221 360.769 292.221C360.514 292.221 360.269 292.322 360.089 292.502C359.908 292.683 359.807 292.928 359.807 293.183V319.558L356.807 321.595L357.656 297.088C357.656 295.843 355.732 295.843 355.675 297.088C355.392 305.691 355.109 314.068 354.769 322.897L352.506 324.482L350.864 325.614L349.676 303.54C349.676 302.295 347.695 302.295 347.751 303.54C348.204 311.351 348.6 319.105 348.996 326.859C345.714 329.123 342.488 331.443 339.261 333.764C339.714 325.84 340.11 317.916 340.507 309.993C340.507 308.747 338.639 308.747 338.582 309.993C338.129 317.973 337.733 325.953 337.337 333.99C337.313 334.169 337.35 334.35 337.443 334.504C337.535 334.659 337.678 334.777 337.846 334.839C333.602 337.896 329.413 341.009 325.282 344.122C319.112 348.819 312.094 353.46 306.208 358.837C306.491 352.272 306.774 345.706 307.113 339.141C307.113 337.896 305.189 337.896 305.132 339.141C305.132 345.82 304.51 352.555 304.227 359.233C304.217 359.432 304.273 359.628 304.385 359.791C304.498 359.955 304.661 360.077 304.849 360.139C303.661 361.271 302.529 362.46 301.453 363.648C301.453 357.649 301.057 351.649 300.887 345.593C300.834 345.371 300.707 345.173 300.527 345.031C300.348 344.89 300.126 344.813 299.897 344.813C299.668 344.813 299.446 344.89 299.267 345.031C299.087 345.173 298.96 345.371 298.907 345.593C298.907 352.102 299.303 358.611 299.529 365.12L299.133 364.667C298.68 364.214 298.058 364.667 298.284 365.346C299.529 368.063 300.831 370.666 302.076 373.327V408.474C302.13 408.697 302.256 408.895 302.436 409.036C302.616 409.178 302.838 409.255 303.067 409.255C303.295 409.255 303.517 409.178 303.697 409.036C303.877 408.895 304.003 408.697 304.057 408.474V377.628C304.849 379.496 305.642 381.364 306.321 383.288C306.267 383.473 306.267 383.669 306.321 383.854L305.642 409.833C305.642 411.078 307.51 411.078 307.566 409.833C307.566 402.814 307.566 395.796 308.019 388.835C309.334 396.305 309.79 403.9 309.377 411.474C309.361 411.587 309.361 411.701 309.377 411.814C306.264 420.077 294.945 405.135 293.643 403.72L291.888 402.022C292.822 385.943 292.822 369.823 291.888 353.743C291.888 352.498 289.851 352.498 289.964 353.743C290.785 369.127 290.785 384.544 289.964 399.928L286.568 396.079C286.757 396.017 286.92 395.895 287.032 395.732C287.145 395.568 287.2 395.372 287.191 395.174V353.46C287.191 353.205 287.089 352.96 286.909 352.78C286.728 352.6 286.484 352.498 286.228 352.498C285.973 352.498 285.728 352.6 285.548 352.78C285.368 352.96 285.266 353.205 285.266 353.46V394.268C284.757 393.759 284.304 393.193 283.851 392.683C282.606 391.212 281.304 389.797 280.059 388.382V354.083C280.059 353.828 279.958 353.583 279.777 353.403C279.597 353.222 279.352 353.121 279.097 353.121C278.842 353.121 278.597 353.222 278.417 353.403C278.236 353.583 278.135 353.828 278.135 354.083V386.174L273.324 380.515L275.022 362.29C275.022 361.045 273.154 361.045 273.041 362.29C272.588 367.95 272.079 373.1 271.569 378.477L269.702 376.326V353.46C269.702 353.205 269.6 352.96 269.42 352.78C269.239 352.6 268.995 352.498 268.739 352.498C268.484 352.498 268.239 352.6 268.059 352.78C267.879 352.96 267.777 353.205 267.777 353.46V374.345C266.928 373.44 266.136 372.534 265.343 371.572C265.343 363.592 265.74 355.611 265.966 347.631C265.966 346.386 264.042 346.386 264.042 347.631C264.042 354.932 263.646 362.177 263.419 369.478L260.646 366.252V343.612C260.592 343.39 260.465 343.192 260.286 343.05C260.106 342.909 259.884 342.832 259.655 342.832C259.427 342.832 259.204 342.909 259.025 343.05C258.845 343.192 258.718 343.39 258.665 343.612V363.931L254.25 358.95C254.25 352.725 254.25 346.555 253.854 340.386C253.8 340.164 253.674 339.966 253.494 339.824C253.314 339.683 253.092 339.606 252.863 339.606C252.635 339.606 252.413 339.683 252.233 339.824C252.053 339.966 251.927 340.164 251.873 340.386C251.873 346.046 251.873 351.253 252.269 356.687L249.043 353.064V336.594C248.99 336.372 248.863 336.174 248.683 336.032C248.503 335.891 248.281 335.814 248.053 335.814C247.824 335.814 247.602 335.891 247.422 336.032C247.242 336.174 247.116 336.372 247.062 336.594V351.083L244.685 348.366L243.836 347.404V332.745C243.836 332.49 243.735 332.245 243.554 332.065C243.374 331.884 243.129 331.783 242.874 331.783C242.619 331.783 242.374 331.884 242.193 332.065C242.013 332.245 241.912 332.49 241.912 332.745V345.027L240.044 342.933L240.723 328.217C240.669 327.995 240.543 327.797 240.363 327.656C240.183 327.514 239.961 327.437 239.733 327.437C239.504 327.437 239.282 327.514 239.102 327.656C238.922 327.797 238.796 327.995 238.742 328.217L238.233 340.839L235.403 337.726V325.614C235.403 325.359 235.301 325.114 235.121 324.933C234.94 324.753 234.696 324.652 234.441 324.652C234.185 324.652 233.941 324.753 233.76 324.933C233.58 325.114 233.478 325.359 233.478 325.614V335.632C229.064 331.16 222.555 325.104 224.14 318.992C233.097 319.287 241.852 321.733 249.666 326.123C254.533 328.783 258.382 333.141 263.193 336.028C272.701 341.688 282.153 328.897 288.379 323.293L296.926 315.369C313.169 300.088 328.677 283.957 343.733 267.374C351.279 258.997 358.826 250.545 366.372 242.017C369.598 238.339 371.466 236.641 370.108 232.849C371.742 229.069 372.663 225.02 372.824 220.906C372.771 220.684 372.644 220.486 372.464 220.344C372.285 220.203 372.063 220.126 371.834 220.126C371.605 220.126 371.383 220.203 371.204 220.344C371.024 220.486 370.897 220.684 370.844 220.906C370.784 224.276 370.133 227.61 368.919 230.754V216.095C368.919 215.84 368.818 215.595 368.637 215.415C368.457 215.234 368.212 215.133 367.957 215.133C367.702 215.133 367.457 215.234 367.277 215.415C367.096 215.595 366.995 215.84 366.995 216.095V227.415C365.127 225.038 362.976 222.831 360.995 220.623C358.052 217.34 354.996 214.171 351.996 211.001L353.128 196.456C353.128 195.154 351.26 195.21 351.147 196.456C351.147 200.644 350.525 204.889 350.185 209.077C349.506 208.341 348.883 207.605 348.204 206.926V190.852C348.204 190.597 348.103 190.352 347.922 190.172C347.742 189.991 347.497 189.89 347.242 189.89C346.987 189.89 346.742 189.991 346.561 190.172C346.381 190.352 346.28 190.597 346.28 190.852V204.945C344.865 203.417 343.506 201.889 342.148 200.304L343.167 183.721C343.167 182.476 341.299 182.476 341.242 183.721C340.903 188.588 340.62 193.456 340.337 198.267L337.79 195.38C337.835 195.283 337.859 195.176 337.859 195.069C337.859 194.961 337.835 194.855 337.79 194.758L338.299 176.589C338.299 175.344 336.431 175.344 336.375 176.589L335.866 193.569L332.809 190.116C332.863 189.932 332.863 189.735 332.809 189.55V171.382C332.756 171.16 332.629 170.962 332.449 170.82C332.27 170.679 332.047 170.602 331.819 170.602C331.59 170.602 331.368 170.679 331.188 170.82C331.009 170.962 330.882 171.16 330.828 171.382V188.362L327.432 184.513C327.489 184.329 327.489 184.132 327.432 183.947V166.968C327.432 166.712 327.331 166.468 327.15 166.287C326.97 166.107 326.725 166.005 326.47 166.005C326.215 166.005 325.97 166.107 325.79 166.287C325.609 166.468 325.508 166.712 325.508 166.968V182.419L323.527 180.212V166.854C323.527 166.599 323.426 166.354 323.245 166.174C323.065 165.994 322.82 165.892 322.565 165.892C322.31 165.892 322.065 165.994 321.884 166.174C321.704 166.354 321.603 166.599 321.603 166.854V177.891V177.552C320.923 176.816 320.244 176.08 319.622 175.288C320.357 170.194 321.15 165.1 321.942 160.006C321.942 158.817 320.244 158.251 320.074 159.497C319.339 164.138 318.659 168.779 317.924 173.42C316.679 172.005 315.377 170.59 314.132 169.118V157.176C314.078 156.954 313.951 156.756 313.772 156.614C313.592 156.473 313.37 156.396 313.141 156.396C312.912 156.396 312.69 156.473 312.511 156.614C312.331 156.756 312.204 156.954 312.151 157.176V166.968L310.226 164.76V151.969C310.226 151.714 310.125 151.469 309.944 151.289C309.764 151.108 309.519 151.007 309.264 151.007C309.009 151.007 308.764 151.108 308.584 151.289C308.403 151.469 308.302 151.714 308.302 151.969V162.553L305.981 160.006C305.981 155.818 305.981 151.629 306.434 147.441C306.434 146.196 304.566 146.196 304.51 147.441C304.51 150.95 304.51 154.403 304.114 157.912L302.472 156.101V141.668C302.419 141.446 302.292 141.248 302.112 141.106C301.933 140.965 301.71 140.888 301.482 140.888C301.253 140.888 301.031 140.965 300.851 141.106C300.672 141.248 300.545 141.446 300.491 141.668V153.95L298.907 152.139C299.035 152.065 299.139 151.957 299.21 151.827C299.28 151.697 299.312 151.55 299.303 151.403L299.982 137.14C299.982 135.895 298.058 135.895 298.001 137.14C298.001 141.611 297.605 146.083 297.435 150.497L293.36 146.083V135.159C293.36 134.904 293.258 134.659 293.078 134.479C292.898 134.298 292.653 134.197 292.398 134.197C292.142 134.197 291.898 134.298 291.717 134.479C291.537 134.659 291.436 134.904 291.436 135.159V143.875L290.077 142.46V129.952C290.077 129.697 289.976 129.452 289.795 129.272C289.615 129.091 289.37 128.99 289.115 128.99C288.86 128.99 288.615 129.091 288.435 129.272C288.254 129.452 288.153 129.697 288.153 129.952V140.366L285.493 137.423C285.493 137.423 285.493 137.423 285.493 137.083V127.348C285.493 127.093 285.391 126.849 285.211 126.668C285.03 126.488 284.786 126.386 284.53 126.386C284.275 126.386 284.031 126.488 283.85 126.668C283.67 126.849 283.568 127.093 283.568 127.348V135.442C282.606 134.367 281.644 133.405 280.682 132.386C280.682 129.839 280.682 127.292 281.078 124.745C281.078 123.5 279.154 123.5 279.097 124.745C279.04 125.99 279.097 128.537 279.097 130.405L278.191 129.443C278.246 129.348 278.275 129.241 278.275 129.131C278.275 129.022 278.246 128.915 278.191 128.82C277.107 127.868 276.103 126.826 275.192 125.707C274.929 125.241 274.791 124.714 274.791 124.179C274.791 123.644 274.929 123.117 275.192 122.651C299.925 123.556 319.791 138.555 338.469 153.95C348.317 162.043 357.882 170.42 367.278 179.08C376.673 187.739 384.257 197.418 394.219 204.719H394.615C395.634 206.19 396.709 207.662 397.785 209.077C397.907 209.269 398.07 209.432 398.262 209.556C398.454 209.679 398.67 209.759 398.895 209.792C399.121 209.824 399.351 209.807 399.569 209.742C399.788 209.678 399.99 209.567 400.162 209.417C408.575 201.313 417.685 193.964 427.386 187.456C431.631 184.683 435.989 181.796 440.46 179.702C443.559 177.891 446.998 176.739 450.563 176.32C454.128 175.902 457.741 176.224 461.175 177.269C461.466 177.359 461.779 177.35 462.063 177.241C462.348 177.133 462.588 176.932 462.745 176.671C462.901 176.41 462.966 176.103 462.927 175.801C462.889 175.499 462.75 175.218 462.533 175.005C460.802 173.029 458.405 171.76 455.798 171.439C459.424 169.179 463.464 167.665 467.681 166.985C471.899 166.305 476.21 166.472 480.362 167.477C482.917 168.229 485.294 169.489 487.351 171.181C489.408 172.873 491.103 174.962 492.334 177.324C493.565 179.685 494.307 182.271 494.516 184.926C494.725 187.581 494.396 190.251 493.55 192.777C493.031 192.008 492.443 191.288 491.795 190.626C491.729 190.521 491.637 190.434 491.528 190.374C491.419 190.314 491.297 190.282 491.172 190.282C491.048 190.282 490.926 190.314 490.817 190.374C490.708 190.434 490.616 190.521 490.55 190.626C490.55 190.116 490.55 189.607 490.55 189.154C490.55 188.701 488.512 187.909 488.625 189.154C489.022 196.456 489.474 203.813 489.871 211.171C485.439 219.734 479.711 227.561 472.891 234.377C469.891 237.773 466.722 240.999 463.439 244.112V220.001C463.439 219.745 463.338 219.501 463.157 219.32C462.977 219.14 462.732 219.038 462.477 219.038C462.222 219.038 461.977 219.14 461.796 219.32C461.616 219.501 461.515 219.745 461.515 220.001V245.244C461.5 245.421 461.541 245.598 461.633 245.75C461.724 245.902 461.861 246.022 462.024 246.093C461.062 246.998 460.156 247.96 459.194 248.809L457.892 249.941L458.402 228.434C458.402 227.189 456.477 227.189 456.477 228.434C456.477 236.131 456.138 243.885 455.911 251.639L453.138 253.847L453.817 231.207C453.817 229.962 451.949 229.962 451.893 231.207C451.893 239.357 451.384 247.451 451.157 255.601L448.101 258.148C448.101 249.772 448.497 241.452 448.667 233.132C448.667 231.886 446.742 231.886 446.742 233.132C446.742 242.017 446.346 250.96 446.12 259.846L444.195 261.714C444.004 261.818 443.847 261.975 443.743 262.167C443.66 262.282 443.615 262.421 443.615 262.563C443.615 262.705 443.66 262.844 443.743 262.959C444.021 263.816 444.442 264.62 444.988 265.336C444.882 265.474 444.825 265.643 444.825 265.817C444.825 265.991 444.882 266.16 444.988 266.298C461.175 286.108 478.947 303.993 492.984 325.727C499.735 336.262 505.243 347.544 509.397 359.347C513.966 370.411 515.904 382.384 515.057 394.325L515.114 394.042Z" fill="#4FB7EB"/>
<path d="M225.499 69.501C227.253 70.067 229.913 67.9728 231.159 67.5766C234.633 66.9718 238.165 66.7629 241.686 66.954C250.724 66.5007 259.782 66.6709 268.797 67.4634C286.952 69.0991 304.725 73.6475 321.434 80.9339C322.509 81.4433 324.32 80.9339 324.15 79.3492C323.471 73.6893 322.848 68.0294 322.169 62.7091C321.49 57.3889 319.339 53.144 326.358 51.8422C337.555 49.7206 348.92 48.6031 360.317 48.5029C379.529 48.0242 398.642 51.4118 416.519 58.4642C450.479 72.5007 477.533 107.818 468.364 145.853C468.305 146.097 468.301 146.351 468.352 146.597C468.404 146.843 468.509 147.074 468.661 147.275C468.812 147.475 469.006 147.639 469.229 147.756C469.452 147.872 469.698 147.937 469.949 147.947C486.268 148.589 501.839 154.961 513.926 165.945C514.15 166.163 514.426 166.318 514.728 166.397C515.03 166.476 515.348 166.476 515.649 166.396C515.951 166.317 516.227 166.16 516.451 165.942C516.675 165.725 516.838 165.453 516.926 165.153C517.378 163.285 517.831 161.417 518.227 159.493C518.315 159.297 518.36 159.085 518.36 158.87C518.36 158.656 518.315 158.444 518.227 158.248C518.227 136.627 509.568 113.874 499.154 95.31C488.33 76.0109 473.557 59.2126 455.799 46.0125C418.217 18.3923 363.939 7.29899 319.283 23.373C317.774 16.2641 316.997 9.01949 316.962 1.75232C317.003 1.47462 316.967 1.19095 316.858 0.932426C316.748 0.673905 316.57 0.450526 316.342 0.286801C316.114 0.123076 315.845 0.025333 315.565 0.0042969C315.285 -0.0167391 315.005 0.039745 314.755 0.167551C297.442 10.1934 280.736 21.2304 264.722 33.2212C256.571 39.2773 248.648 45.6729 240.95 52.295C235.937 55.9327 231.189 59.9236 226.744 64.2373C225.442 65.9353 223.122 68.086 225.499 69.501ZM313.906 4.63885C313.81 11.6629 314.842 18.6569 316.962 25.354C317.048 25.6479 317.227 25.9061 317.472 26.0898C317.717 26.2735 318.014 26.3728 318.321 26.3728C318.627 26.3728 318.925 26.2735 319.17 26.0898C319.414 25.9061 319.593 25.6479 319.679 25.354C342.925 19.4157 367.148 18.3558 390.824 22.2411C412.925 26.0205 433.889 34.7366 452.155 47.7404C470.421 60.7442 485.519 77.7007 496.324 97.3476C507.247 116.761 511.605 136.967 515.907 158.248C515.897 158.417 515.897 158.588 515.907 158.757C515.907 159.663 515.397 160.625 515.114 161.587C505.081 153.238 492.975 147.762 480.08 145.739L498.644 129.722C499.606 128.93 498.248 127.571 497.286 128.364L477.986 145.004C477.954 145.134 477.954 145.27 477.986 145.4C476.401 145.4 474.759 145.004 473.118 144.891C473.118 144.211 473.118 143.532 473.514 142.853C473.571 143.01 473.662 143.152 473.783 143.267C473.903 143.382 474.049 143.468 474.208 143.517C474.367 143.567 474.536 143.578 474.7 143.551C474.865 143.525 475.02 143.46 475.156 143.362L490.154 131.646C491.116 130.854 489.758 129.496 488.796 130.231L473.797 142.004C474.061 140.268 474.288 138.514 474.476 136.74C474.631 136.83 474.807 136.877 474.986 136.877C475.165 136.877 475.34 136.83 475.495 136.74L495.758 120.61C496.776 119.817 495.361 118.459 494.399 119.195L474.59 134.986C474.759 132.46 474.759 129.927 474.59 127.401C474.768 127.539 474.987 127.614 475.212 127.614C475.438 127.614 475.656 127.539 475.835 127.401L485.966 118.572C486.872 117.723 485.513 116.365 484.551 117.157L474.476 125.987C474.476 124.572 474.476 123.213 474.024 121.855L485.004 112.29C485.966 111.441 484.551 110.082 483.645 110.931L473.684 119.591C473.684 118.459 473.288 117.327 473.062 116.252L487.607 104.083C488.57 103.29 487.211 101.932 486.249 102.724L472.326 114.384L471.816 112.29L482.344 103.687C483.306 102.894 481.891 101.479 480.929 102.272L471.194 110.309C470.684 108.611 470.062 106.969 469.439 105.385L482.683 96.159C483.702 95.4232 482.683 93.7819 481.721 94.461L468.703 103.517C466.105 97.487 462.799 91.7872 458.855 86.5372L467.968 77.8776C468.873 77.0286 467.515 75.6703 466.609 76.5192L457.44 85.1788L455.403 82.6319C459.572 79.7471 463.373 76.3639 466.722 72.5573C467.515 71.5951 466.156 70.2368 465.364 71.199C461.999 74.956 458.199 78.2999 454.044 81.1603L451.214 78.104L458.459 69.8972C459.365 68.9916 457.95 67.6332 457.101 68.4822L449.63 75.9532L447.139 73.4063C450.11 71.303 452.712 68.7209 454.837 65.7655C455.572 64.7467 453.931 63.7845 453.195 64.8033C451.092 67.6234 448.551 70.0884 445.668 72.1045C444.592 71.1424 443.46 70.1802 442.272 69.2746L451.214 62.4262C452.233 61.6338 450.818 60.2754 449.856 61.0112L440.63 68.086L436.555 65.1429L446.177 57.8983C447.196 57.1625 446.177 55.5211 445.215 56.2569L434.801 64.0675C434.407 63.7708 433.991 63.5058 433.556 63.2751C431.461 61.9734 429.311 60.7282 427.103 59.5962L436.329 52.0686C437.291 51.2762 435.876 49.9178 434.914 50.7102L425.575 58.351C425.546 58.4815 425.546 58.6168 425.575 58.7472L422.802 57.3889L431.461 50.7668C432.48 50.031 431.461 48.3331 430.499 49.1255L420.594 56.7663L417.255 55.3513L425.971 48.3331C426.934 47.5407 425.575 46.1257 424.613 46.9181L415.444 54.0495L412.218 52.861L421.67 46.0691C422.689 45.3333 421.67 43.6354 420.708 44.3712L409.954 52.1252L407.52 51.6724L413.18 45.4465C414.029 44.541 412.671 43.126 411.822 44.0316L405.596 51.1064C399.67 49.4101 393.638 48.1055 387.541 47.2011L394.502 40.862C395.408 40.0131 394.05 38.6547 393.144 39.5037C390.541 41.7676 387.994 44.0882 385.447 46.4087V46.8049L381.145 46.2955L391.842 36.4473C392.805 35.655 391.39 34.24 390.484 35.089L378.542 45.7861H374.636L385.956 35.938C386.862 35.1456 385.503 33.7306 384.541 34.5796L371.863 45.4465H365.637L374.297 38.9377C375.259 38.2019 374.297 36.5039 373.278 37.2963L363.6 44.541C363.457 44.628 363.344 44.7549 363.274 44.9058C363.203 45.0568 363.179 45.2252 363.203 45.3899H357.543L366.599 37.2397C367.561 36.3907 366.146 35.0324 365.241 35.8814L356.129 44.258C356.043 44.3374 355.974 44.4338 355.928 44.5409C355.881 44.648 355.857 44.7637 355.857 44.8806C355.857 44.9974 355.881 45.1131 355.928 45.2202C355.974 45.3273 356.043 45.4237 356.129 45.5031C353.355 45.5031 350.469 45.7861 347.865 46.0125L356.242 38.9943C357.204 38.2019 355.846 36.8435 354.883 37.6359L346.054 44.9937H345.658C345.501 44.9877 345.346 45.0223 345.207 45.0942C345.068 45.1661 344.95 45.2728 344.864 45.404C344.779 45.5351 344.729 45.6862 344.719 45.8424C344.709 45.9987 344.74 46.1548 344.809 46.2955L339.998 46.8049L351.714 36.9001C352.676 36.1077 351.261 34.7494 350.355 35.5418L337.338 46.4087C337.235 46.4906 337.152 46.5937 337.093 46.711C337.035 46.8283 337.002 46.9569 336.998 47.0879L332.017 47.7671L345.828 35.4286C346.79 34.5796 345.375 33.2212 344.469 34.0702L330.093 46.9181C330.018 46.9919 329.958 47.0799 329.917 47.1771C329.876 47.2743 329.855 47.3787 329.855 47.4841C329.855 47.5895 329.876 47.6939 329.917 47.791C329.958 47.8882 330.018 47.9763 330.093 48.0501C326.414 48.6727 322.848 49.2952 319.283 50.031C318.918 50.1282 318.595 50.3404 318.36 50.6361C318.126 50.9318 317.993 51.2952 317.981 51.6724L318.321 54.6721L308.755 64.8033C307.906 65.7089 309.265 67.0672 310.114 66.1617L318.604 57.1625C319.339 63.6713 320.075 70.1236 320.868 76.5758C299.701 67.5776 276.91 63.0309 253.911 63.2185C254.101 63.1032 254.242 62.9218 254.307 62.7091C254.381 62.7844 254.469 62.8443 254.566 62.8851C254.664 62.9259 254.768 62.947 254.873 62.947C254.979 62.947 255.083 62.9259 255.18 62.8851C255.278 62.8443 255.366 62.7844 255.439 62.7091C261.494 58.5718 267.176 53.9129 272.419 48.7859C273.325 47.9369 271.966 46.5785 271.061 47.4275C265.822 52.4583 260.139 57.0048 254.081 61.0112C253.931 61.1529 253.814 61.3271 253.741 61.5206C253.523 61.438 253.281 61.438 253.062 61.5206C252.862 61.5446 252.674 61.6273 252.521 61.7583C252.368 61.8892 252.258 62.0625 252.203 62.2562C252.149 62.45 252.153 62.6555 252.215 62.8469C252.277 63.0383 252.395 63.207 252.553 63.3317C246.091 63.5016 239.645 64.0686 233.253 65.0297L240.611 58.8038C241.516 58.0114 240.271 56.7097 239.309 57.3889C263.816 38.9377 288.267 21.2223 313.906 4.63885ZM239.309 57.5021C236.083 60.1622 232.913 62.8789 229.744 65.5957H228.215L239.309 57.5021Z" fill="#4FB7EB"/>
<path d="M325.453 88.6955C324.831 88.2427 324.265 89.2614 324.831 89.7142C342.69 102.378 357.899 118.413 369.6 136.918C380.336 155.108 388.309 174.793 393.259 195.327C393.259 196.516 395.523 196.346 395.409 195.327C391.447 152.086 360.714 111.561 325.453 88.6955Z" fill="#4FB7EB"/>
<path d="M278.473 84.2767C277.947 95.598 278.155 106.942 279.096 118.236C279.151 118.472 279.285 118.683 279.475 118.833C279.665 118.984 279.9 119.066 280.143 119.066C280.386 119.066 280.621 118.984 280.811 118.833C281.001 118.683 281.135 118.472 281.19 118.236C281.612 106.906 281.271 95.5608 280.171 84.2767C280.171 84.1652 280.149 84.0548 280.107 83.9518C280.064 83.8488 280.002 83.7552 279.923 83.6764C279.844 83.5976 279.75 83.535 279.647 83.4924C279.544 83.4497 279.434 83.4277 279.322 83.4277C279.211 83.4277 279.1 83.4497 278.997 83.4924C278.894 83.535 278.801 83.5976 278.722 83.6764C278.643 83.7552 278.581 83.8488 278.538 83.9518C278.495 84.0548 278.473 84.1652 278.473 84.2767Z" fill="#4FB7EB"/>
<path d="M295.341 364.431L295.85 405.918C295.85 407.163 297.831 407.163 297.775 405.918L297.265 364.431C297.265 364.176 297.164 363.931 296.983 363.751C296.803 363.57 296.558 363.469 296.303 363.469C296.048 363.469 295.803 363.57 295.623 363.751C295.442 363.931 295.341 364.176 295.341 364.431Z" fill="#4FB7EB"/>
<path d="M309.32 330.759V352.153C309.32 352.409 309.422 352.653 309.602 352.834C309.783 353.014 310.027 353.116 310.282 353.116C310.538 353.116 310.782 353.014 310.963 352.834C311.143 352.653 311.245 352.409 311.245 352.153V330.759C311.245 330.504 311.143 330.259 310.963 330.079C310.782 329.898 310.538 329.797 310.282 329.797C310.027 329.797 309.783 329.898 309.602 330.079C309.422 330.259 309.32 330.504 309.32 330.759Z" fill="#4FB7EB"/>
<path d="M315.151 328.837V348.93C315.151 349.185 315.253 349.43 315.433 349.61C315.613 349.791 315.858 349.892 316.113 349.892C316.368 349.892 316.613 349.791 316.794 349.61C316.974 349.43 317.075 349.185 317.075 348.93V328.837C317.075 328.582 316.974 328.337 316.794 328.157C316.613 327.976 316.368 327.875 316.113 327.875C315.858 327.875 315.613 327.976 315.433 328.157C315.253 328.337 315.151 328.582 315.151 328.837Z" fill="#4FB7EB"/>
<path d="M321.206 323.69C320.753 329.916 320.357 336.198 319.904 342.481C319.904 343.726 321.772 343.669 321.828 342.481C322.281 336.198 322.734 329.916 323.13 323.69C323.243 322.445 321.319 322.445 321.206 323.69Z" fill="#4FB7EB"/>
<path d="M327.715 319.102C327.262 326.46 326.809 333.818 326.413 341.175C326.413 342.421 328.281 342.421 328.337 341.175C328.79 333.818 329.186 326.46 329.639 319.102C329.696 317.857 327.771 317.857 327.715 319.102Z" fill="#4FB7EB"/>
<path d="M333.32 314.577C333.218 322.342 332.346 330.077 330.716 337.67C330.716 338.858 332.358 339.368 332.641 338.179C334.298 330.419 335.171 322.512 335.244 314.577C335.244 314.322 335.143 314.077 334.962 313.897C334.782 313.717 334.537 313.615 334.282 313.615C334.027 313.615 333.782 313.717 333.602 313.897C333.421 314.077 333.32 314.322 333.32 314.577Z" fill="#4FB7EB"/>
<path d="M343.788 304.842L343.278 328.84C343.332 329.062 343.459 329.26 343.638 329.402C343.818 329.543 344.04 329.62 344.269 329.62C344.498 329.62 344.72 329.543 344.899 329.402C345.079 329.26 345.206 329.062 345.259 328.84C345.259 320.86 345.259 312.879 345.712 304.842C345.769 303.597 343.788 303.597 343.788 304.842Z" fill="#4FB7EB"/>
<path d="M375.2 278.968V307.267C375.2 307.523 375.301 307.767 375.482 307.948C375.662 308.128 375.907 308.23 376.162 308.23C376.417 308.23 376.662 308.128 376.842 307.948C377.023 307.767 377.124 307.523 377.124 307.267V278.968C377.124 278.713 377.023 278.468 376.842 278.288C376.662 278.107 376.417 278.006 376.162 278.006C375.907 278.006 375.662 278.107 375.482 278.288C375.301 278.468 375.2 278.713 375.2 278.968Z" fill="#4FB7EB"/>
<path d="M380.691 275.692C380.691 285.201 380.408 294.71 380.295 303.992C380.295 305.237 382.219 305.237 382.219 303.992C382.219 294.483 382.219 284.975 382.672 275.692C382.619 275.47 382.492 275.272 382.312 275.131C382.132 274.989 381.91 274.912 381.682 274.912C381.453 274.912 381.231 274.989 381.051 275.131C380.871 275.272 380.745 275.47 380.691 275.692Z" fill="#4FB7EB"/>
<path d="M385.218 271.16C384.879 280.894 384.879 290.629 384.879 300.138C384.879 301.383 386.803 301.383 386.803 300.138L387.482 270.99C387.46 270.689 387.319 270.411 387.091 270.214C386.863 270.018 386.566 269.92 386.266 269.943C385.965 269.965 385.686 270.106 385.49 270.334C385.294 270.562 385.196 270.859 385.218 271.16Z" fill="#4FB7EB"/>
<path d="M400.67 258.203C401.057 269.031 400.622 279.873 399.368 290.634C399.368 291.823 401.179 291.823 401.293 290.634C402.546 279.873 402.982 269.031 402.594 258.203C402.594 256.958 400.613 256.958 400.67 258.203Z" fill="#4FB7EB"/>
<path d="M412.444 251.07C412.67 262.955 412.878 274.841 413.066 286.727C413.12 286.949 413.247 287.147 413.426 287.289C413.606 287.43 413.828 287.507 414.057 287.507C414.285 287.507 414.507 287.43 414.687 287.289C414.867 287.147 414.994 286.949 415.047 286.727L414.368 251.07C414.368 250.814 414.267 250.57 414.086 250.389C413.906 250.209 413.661 250.107 413.406 250.107C413.151 250.107 412.906 250.209 412.725 250.389C412.545 250.57 412.444 250.814 412.444 251.07Z" fill="#4FB7EB"/>
<path d="M457.042 312.649C457.676 318.845 457.255 325.103 455.797 331.157C455.763 331.28 455.754 331.408 455.77 331.534C455.786 331.66 455.827 331.782 455.89 331.892C455.953 332.002 456.038 332.099 456.138 332.177C456.239 332.255 456.353 332.312 456.476 332.346C456.599 332.379 456.727 332.388 456.853 332.372C456.979 332.356 457.101 332.315 457.211 332.252C457.321 332.189 457.418 332.105 457.496 332.004C457.574 331.904 457.631 331.789 457.665 331.666C459.199 325.451 459.64 319.016 458.966 312.649C458.853 311.461 456.929 311.461 457.042 312.649Z" fill="#4FB7EB"/>
<path d="M486.761 342.875C485.855 348.535 484.893 354.535 483.987 360.308C483.987 361.553 485.629 362.062 485.855 360.874C486.761 355.214 487.723 349.214 488.628 343.385C488.572 342.14 486.761 341.63 486.761 342.875Z" fill="#4FB7EB"/>
<path d="M437.573 245.241V261.428C437.627 261.651 437.754 261.849 437.933 261.99C438.113 262.132 438.335 262.209 438.564 262.209C438.792 262.209 439.015 262.132 439.194 261.99C439.374 261.849 439.501 261.651 439.554 261.428V245.241C439.501 245.019 439.374 244.821 439.194 244.679C439.015 244.538 438.792 244.461 438.564 244.461C438.335 244.461 438.113 244.538 437.933 244.679C437.754 244.821 437.627 245.019 437.573 245.241Z" fill="#4FB7EB"/>
<path d="M468.026 236.186V214.169C468.026 213.914 467.925 213.669 467.744 213.489C467.564 213.308 467.319 213.207 467.064 213.207C466.809 213.207 466.564 213.308 466.383 213.489C466.203 213.669 466.102 213.914 466.102 214.169V236.186C466.102 236.441 466.203 236.686 466.383 236.866C466.564 237.047 466.809 237.148 467.064 237.148C467.319 237.148 467.564 237.047 467.744 236.866C467.925 236.686 468.026 236.441 468.026 236.186Z" fill="#4FB7EB"/>
<path d="M473.231 234.257V204.429C473.231 204.174 473.13 203.929 472.949 203.749C472.769 203.568 472.524 203.467 472.269 203.467C472.014 203.467 471.769 203.568 471.588 203.749C471.408 203.929 471.307 204.174 471.307 204.429V234.257C471.307 234.512 471.408 234.756 471.588 234.937C471.769 235.117 472.014 235.219 472.269 235.219C472.524 235.219 472.769 235.117 472.949 234.937C473.13 234.756 473.231 234.512 473.231 234.257Z" fill="#4FB7EB"/>
<path d="M477.137 199.281V225.825C477.137 226.081 477.238 226.325 477.419 226.506C477.599 226.686 477.844 226.788 478.099 226.788C478.354 226.788 478.599 226.686 478.779 226.506C478.96 226.325 479.061 226.081 479.061 225.825V199.281C479.061 199.025 478.96 198.781 478.779 198.6C478.599 198.42 478.354 198.318 478.099 198.318C477.844 198.318 477.599 198.42 477.419 198.6C477.238 198.781 477.137 199.025 477.137 199.281Z" fill="#4FB7EB"/>
<path d="M481.097 190.848C481.549 199.677 481.946 208.563 482.398 217.393C482.398 218.638 484.379 218.638 484.323 217.393C483.87 208.563 483.474 199.677 483.078 190.848C483.134 189.603 481.097 189.603 481.097 190.848Z" fill="#4FB7EB"/>
<path d="M485.513 195.37V215.236C485.566 215.459 485.693 215.657 485.873 215.798C486.052 215.94 486.274 216.017 486.503 216.017C486.732 216.017 486.954 215.94 487.134 215.798C487.313 215.657 487.44 215.459 487.494 215.236V195.37C487.44 195.148 487.313 194.95 487.134 194.808C486.954 194.667 486.732 194.59 486.503 194.59C486.274 194.59 486.052 194.667 485.873 194.808C485.693 194.95 485.566 195.148 485.513 195.37Z" fill="#4FB7EB"/>
<path d="M355.618 198.949C355.457 198.959 355.3 199.008 355.163 199.094C355.026 199.18 354.913 199.299 354.834 199.44C354.755 199.581 354.713 199.739 354.712 199.901C354.71 200.062 354.749 200.222 354.826 200.364C354.826 204.439 354.43 208.571 354.203 212.646C354.203 213.891 356.071 213.891 356.127 212.646L356.58 200.591C356.637 200.406 356.637 200.209 356.58 200.025C356.596 199.889 356.583 199.752 356.542 199.622C356.501 199.491 356.433 199.372 356.342 199.27C356.251 199.168 356.139 199.087 356.014 199.032C355.89 198.976 355.755 198.948 355.618 198.949Z" fill="#4FB7EB"/>
<path d="M361.278 202.514L359.92 218.701C359.92 219.946 361.731 219.946 361.844 218.701C362.297 213.041 362.806 207.891 363.259 202.514C363.372 201.269 361.391 201.269 361.278 202.514Z" fill="#4FB7EB"/>
<path d="M363.882 207.033L363.373 221.296C363.427 221.519 363.553 221.717 363.733 221.858C363.913 222 364.135 222.077 364.364 222.077C364.592 222.077 364.814 222 364.994 221.858C365.174 221.717 365.301 221.519 365.354 221.296C365.354 216.542 365.354 211.788 365.807 207.033C365.863 205.788 363.882 205.788 363.882 207.033Z" fill="#4FB7EB"/>
<path d="M473.004 174.712C478.808 176.295 483.874 179.859 487.324 184.787C488.06 185.806 489.758 184.787 489.022 183.825C485.287 178.497 479.83 174.62 473.57 172.845C473.323 172.77 473.055 172.796 472.827 172.918C472.599 173.04 472.429 173.248 472.353 173.496C472.278 173.743 472.305 174.011 472.427 174.239C472.549 174.467 472.757 174.637 473.004 174.712Z" fill="#4FB7EB"/>
<path d="M35.6094 370.603L24.2896 377.848C23.2143 378.584 24.2896 380.225 25.2518 379.546L36.5716 372.244C36.7002 372.193 36.8163 372.115 36.9119 372.014C37.0074 371.914 37.0801 371.794 37.1251 371.663C37.17 371.532 37.1862 371.393 37.1723 371.255C37.1585 371.117 37.1151 370.984 37.045 370.864C36.975 370.745 36.8799 370.642 36.7663 370.562C36.6528 370.483 36.5234 370.429 36.3871 370.404C36.2508 370.379 36.1107 370.384 35.9765 370.419C35.8423 370.453 35.717 370.516 35.6094 370.603Z" fill="#4FB7EB"/>
<path d="M70.7002 418.997L60.0597 426.298C59.0409 427.034 60.0597 428.675 61.0218 427.996L71.719 420.695C72.7378 419.846 71.7756 418.148 70.7002 418.997Z" fill="#4FB7EB"/>
<path d="M85.5853 430.321C82.1839 432.822 78.5213 434.948 74.6617 436.66C73.5298 437.169 74.6617 438.811 75.6239 438.301C79.4998 436.609 83.1813 434.503 86.6041 432.019C87.5662 431.226 86.6041 429.528 85.5853 430.321Z" fill="#4FB7EB"/>
<path d="M97.3584 435.296L88.6988 441.239C87.68 441.919 88.6988 443.617 89.661 442.937L98.3206 436.938C99.396 436.259 98.3772 434.561 97.3584 435.296Z" fill="#4FB7EB"/>
<path d="M114.676 436.939L101.885 447.296C100.866 448.089 102.281 449.447 103.243 448.655L116.261 438.297C117.053 437.505 115.695 435.977 114.676 436.939Z" fill="#4FB7EB"/>
<path d="M123.28 437.732L109.13 449.052C108.168 449.844 109.583 451.203 110.545 450.41L124.695 439.09C125.657 438.298 124.525 436.94 123.28 437.732Z" fill="#4FB7EB"/>
<path d="M127.752 439.255L116.036 448.934C115.074 449.726 116.432 451.085 117.394 450.292L129.11 440.614C130.186 439.821 128.714 438.463 127.752 439.255Z" fill="#4FB7EB"/>
<path d="M129.224 444.125L122.432 451.426C121.583 452.332 122.941 453.747 123.79 452.784L130.582 445.483C131.431 444.578 130.186 443.219 129.224 444.125Z" fill="#4FB7EB"/>
<path d="M161.654 441.633C154.136 452.037 147.257 462.886 141.052 474.121C140.924 474.346 140.891 474.613 140.96 474.862C141.029 475.112 141.194 475.324 141.42 475.451C141.645 475.579 141.911 475.612 142.161 475.543C142.41 475.474 142.622 475.308 142.75 475.083C148.921 463.846 155.802 453.014 163.352 442.652C164.144 441.633 162.389 440.445 161.654 441.633Z" fill="#4FB7EB"/>
<path d="M166.182 439.771L152.258 465.637C151.636 466.712 153.334 467.731 153.9 466.599L167.879 440.79C168.445 439.658 166.748 438.696 166.182 439.771Z" fill="#4FB7EB"/>
<path d="M176.539 431.109L164.144 452.504C164.016 452.729 163.983 452.995 164.052 453.245C164.121 453.494 164.287 453.706 164.512 453.834C164.737 453.961 165.004 453.994 165.253 453.925C165.502 453.856 165.714 453.691 165.842 453.466L177.954 432.071C177.976 431.896 177.948 431.718 177.875 431.557C177.802 431.396 177.686 431.258 177.54 431.159C177.394 431.059 177.223 431.002 177.046 430.993C176.87 430.985 176.694 431.025 176.539 431.109Z" fill="#4FB7EB"/>
<path d="M185.314 426.751L173.994 446.278C173.909 446.492 173.903 446.729 173.977 446.947C174.052 447.164 174.202 447.348 174.401 447.464C174.599 447.581 174.833 447.622 175.06 447.581C175.286 447.54 175.49 447.419 175.635 447.24L186.955 427.713C187.578 426.638 185.88 425.676 185.314 426.751Z" fill="#4FB7EB"/>
<path d="M186.785 438.868L195.218 423.869C195.282 423.758 195.322 423.635 195.338 423.508C195.354 423.38 195.344 423.251 195.31 423.128C195.276 423.004 195.218 422.889 195.139 422.788C195.06 422.687 194.962 422.602 194.851 422.539C194.739 422.476 194.616 422.435 194.489 422.419C194.362 422.404 194.233 422.413 194.109 422.447C193.986 422.482 193.87 422.54 193.769 422.619C193.668 422.697 193.584 422.795 193.52 422.907L185.087 437.849C185.019 438.067 185.026 438.302 185.108 438.515C185.189 438.728 185.34 438.908 185.536 439.026C185.732 439.144 185.961 439.192 186.188 439.163C186.414 439.134 186.625 439.03 186.785 438.868Z" fill="#4FB7EB"/>
<path d="M238.969 63.5578L256.231 50.2005C257.25 49.4081 256.231 47.7101 255.269 48.5025L237.723 61.8598C236.988 62.4258 237.723 64.2936 238.969 63.5578Z" fill="#4FB7EB"/>
<path d="M245.592 63.389C253.001 59.032 260.026 54.0522 266.59 48.5035C267.552 47.7112 266.137 46.2962 265.232 47.1452C258.761 52.5499 251.872 57.4327 244.63 61.7476C244.451 61.8925 244.33 62.0967 244.288 62.3232C244.247 62.5496 244.289 62.7834 244.405 62.9819C244.521 63.1805 244.705 63.3308 244.923 63.4055C245.141 63.4802 245.378 63.4743 245.592 63.389Z" fill="#4FB7EB"/>
<path d="M267.099 61.1813L281.701 48.0504C282.664 47.258 281.249 45.8431 280.343 46.6921L266.024 59.7664C264.778 60.6153 266.024 61.9737 267.099 61.1813Z" fill="#4FB7EB"/>
<path d="M273.607 61.4103L288.662 48.1096C289.568 47.2606 288.21 45.9022 287.248 46.7512L272.249 59.9953C271.343 60.8443 272.702 62.4291 273.607 61.4103Z" fill="#4FB7EB"/>
<path d="M280.398 59.8829C279.38 60.6753 280.795 62.0337 281.757 61.2413C287.256 56.8924 292.267 51.9582 296.699 46.5256C297.491 45.5634 296.133 44.2051 295.34 45.1672C290.893 50.5863 285.885 55.519 280.398 59.8829Z" fill="#4FB7EB"/>
<path d="M288.946 62.4216C295.172 55.7996 301.397 49.2341 307.567 42.6121C308.416 41.7065 307.057 40.3481 306.208 41.2537L287.587 60.7237C286.738 61.6293 288.097 63.0442 288.946 62.4216Z" fill="#4FB7EB"/>
<path d="M297.264 64.1245L312.376 47.6543C313.225 46.6921 311.867 45.3338 311.018 46.2393L295.906 62.7662C295.057 63.6718 296.415 65.0301 297.264 64.1245Z" fill="#4FB7EB"/>
<path d="M310.905 53.9372L304.113 61.6912C303.264 62.6534 304.679 64.0118 305.472 63.1062L312.264 55.2956C313.113 54.39 311.754 52.975 310.905 53.9372Z" fill="#4FB7EB"/>
<path d="M316.338 71.1396L319.225 67.2909C319.961 66.2721 318.319 65.31 317.527 66.2721L314.64 70.1774C313.905 71.1962 315.603 72.1584 316.338 71.1396Z" fill="#4FB7EB"/>
<path d="M316.17 50.4231L323.924 41.1975C324.716 40.2353 323.358 38.8769 322.565 39.8391L314.811 49.0647C313.962 50.0269 315.377 51.3852 316.17 50.4231Z" fill="#4FB7EB"/>
<path d="M325.903 48.5029L335.129 38.3151C335.978 37.4095 334.619 35.9946 333.77 36.9567L324.488 47.1445C323.696 48.0501 325.054 49.4651 325.903 48.5029Z" fill="#4FB7EB"/>
<path d="M395.35 47.0337L402.142 40.2419C403.048 39.3929 401.689 37.978 400.784 38.8835L393.992 45.449C393.086 46.581 394.501 47.9393 395.35 47.0337Z" fill="#4FB7EB"/>
<path d="M400.107 49.3468C403.562 47.8935 406.583 45.5737 408.88 42.6115C409.672 41.6494 408.314 40.291 407.521 41.2532C405.344 44.1017 402.455 46.3269 399.145 47.7054C398.013 48.1582 398.975 49.8562 400.107 49.3468Z" fill="#4FB7EB"/>
<path d="M432.311 61.1752L440.065 54.3267C441.027 53.5344 439.669 52.176 438.707 52.9684L430.953 59.7602C430.16 60.6092 431.349 61.9676 432.311 61.1752Z" fill="#4FB7EB"/>
<path d="M465.476 82.6941L460.608 87.5616C459.703 88.4106 461.118 89.7689 461.967 88.9199L466.891 84.0524C467.74 83.2035 466.381 81.7885 465.476 82.6941Z" fill="#4FB7EB"/>
<path d="M463.778 92.9841C463.099 94.0594 464.796 95.0216 465.476 94.0028C466.762 92.1276 468.467 90.5775 470.456 89.4749C471.588 88.8524 470.456 87.211 469.494 87.777C467.222 89.0613 465.268 90.841 463.778 92.9841Z" fill="#4FB7EB"/>
<path d="M469.779 97.7479L473.175 95.3142C474.193 94.5784 473.175 92.9371 472.213 93.6162L468.817 96.05C468.024 96.7858 468.986 98.4837 469.779 97.7479Z" fill="#4FB7EB"/>
<path d="M485.229 146.083C490.719 142.299 495.768 137.914 500.284 133.009C501.133 132.103 499.775 130.745 498.926 131.65C494.53 136.429 489.613 140.7 484.267 144.385C483.191 145.121 484.21 146.819 485.229 146.083Z" fill="#4FB7EB"/>
<path d="M490.664 145.294C490.588 145.367 490.528 145.455 490.488 145.553C490.447 145.65 490.426 145.754 490.426 145.86C490.426 145.965 490.447 146.069 490.488 146.167C490.528 146.264 490.588 146.352 490.664 146.426C490.731 146.579 490.842 146.71 490.983 146.8C491.124 146.891 491.288 146.938 491.456 146.935C491.676 147.008 491.915 147.008 492.135 146.935L503.738 137.426C504.7 136.634 503.342 135.276 502.323 136.068L490.664 145.294Z" fill="#4FB7EB"/>
<path d="M499.153 149.027C498.928 149.154 498.763 149.366 498.694 149.616C498.625 149.865 498.657 150.132 498.785 150.357C498.913 150.582 499.124 150.747 499.374 150.816C499.623 150.885 499.89 150.852 500.115 150.725C502.95 149.044 505.384 146.765 507.247 144.046C507.982 143.027 506.284 142.009 505.605 143.084C503.914 145.512 501.712 147.541 499.153 149.027Z" fill="#4FB7EB"/>
<path d="M504.472 154.231C506.053 154.104 507.58 153.594 508.921 152.746C510.262 151.898 511.377 150.737 512.169 149.363C512.297 149.138 512.33 148.871 512.261 148.622C512.192 148.372 512.027 148.161 511.802 148.033C511.576 147.905 511.31 147.873 511.06 147.942C510.811 148.011 510.599 148.176 510.471 148.401C509.863 149.485 508.998 150.403 507.952 151.074C506.906 151.745 505.711 152.149 504.472 152.25C503.227 152.363 503.227 154.344 504.472 154.231Z" fill="#4FB7EB"/>
<path d="M161.258 289.329C161.258 290.574 163.239 290.574 163.182 289.329C162.335 259.069 166.975 228.905 176.879 200.299C177.275 199.111 175.407 198.601 175.011 199.79C165.06 228.561 160.4 258.897 161.258 289.329Z" fill="#4FB7EB"/>
<path d="M166.522 327.254C166.522 326.009 164.485 326.519 164.654 327.764C168.08 353.036 176.632 377.341 189.784 399.191C189.945 399.354 190.155 399.458 190.382 399.487C190.608 399.515 190.838 399.467 191.034 399.35C191.23 399.232 191.38 399.052 191.462 398.839C191.543 398.625 191.55 398.391 191.482 398.173C178.412 376.483 169.918 352.349 166.522 327.254Z" fill="#4FB7EB"/>
<path d="M204.046 437.567C203.537 436.435 201.839 437.567 202.405 438.529C213.273 461.979 231.046 481.549 253.344 494.619C253.562 494.687 253.797 494.679 254.01 494.598C254.224 494.517 254.403 494.366 254.521 494.17C254.639 493.974 254.687 493.745 254.658 493.518C254.629 493.291 254.525 493.081 254.363 492.921C232.33 480.042 214.77 460.725 204.046 437.567Z" fill="#4FB7EB"/>
<path d="M230.025 108.607C207.972 130.32 190.8 156.484 179.652 185.355C179.199 186.487 181.067 186.996 181.52 185.864C192.557 157.324 209.556 131.468 231.383 110.022C231.476 109.933 231.551 109.826 231.603 109.708C231.654 109.59 231.682 109.463 231.685 109.335C231.687 109.206 231.665 109.078 231.618 108.958C231.571 108.838 231.501 108.728 231.412 108.636C231.323 108.543 231.216 108.468 231.098 108.416C230.98 108.365 230.853 108.337 230.724 108.334C230.596 108.332 230.468 108.354 230.348 108.401C230.228 108.448 230.118 108.518 230.025 108.607Z" fill="#4FB7EB"/>
<path d="M176.087 110.196C137.541 139.622 106.059 177.292 83.9445 220.451C83.3785 221.526 85.0765 222.545 85.6424 221.413C107.586 178.546 138.813 141.112 177.049 111.838C178.068 111.102 177.106 109.404 176.087 110.196Z" fill="#4FB7EB"/>
<path d="M78.9082 239.022C73.2482 254.987 70.8239 271.918 71.7767 288.829C71.7767 290.074 73.7577 290.074 73.7011 288.829C72.7799 272.146 75.1848 255.447 80.7759 239.702C81.2287 238.343 79.2478 237.89 78.9082 239.022Z" fill="#4FB7EB"/>
<path d="M75.3982 313.951C75.3982 312.706 73.5871 312.706 73.4739 313.951C71.4311 334.268 73.197 354.787 78.681 374.455C78.7144 374.578 78.7717 374.693 78.8495 374.794C78.9274 374.894 79.0242 374.978 79.1346 375.041C79.245 375.104 79.3667 375.145 79.4928 375.161C79.6189 375.177 79.7469 375.168 79.8695 375.135C79.9922 375.101 80.107 375.044 80.2075 374.966C80.308 374.888 80.3922 374.791 80.4553 374.681C80.5184 374.571 80.5591 374.449 80.5751 374.323C80.5911 374.197 80.5822 374.069 80.5487 373.946C75.1118 354.443 73.3651 334.096 75.3982 313.951Z" fill="#4FB7EB"/>
<path d="M280.228 284.129L276.492 193.571C276.439 193.349 276.312 193.151 276.132 193.01C275.953 192.868 275.731 192.791 275.502 192.791C275.273 192.791 275.051 192.868 274.871 193.01C274.692 193.151 274.565 193.349 274.511 193.571L278.247 284.129C278.301 284.352 278.427 284.55 278.607 284.691C278.787 284.833 279.009 284.91 279.237 284.91C279.466 284.91 279.688 284.833 279.868 284.691C280.048 284.55 280.174 284.352 280.228 284.129Z" fill="#4FB7EB"/>
<path d="M283.512 431.162C283.965 452.783 285.021 474.385 286.682 495.968C286.682 497.213 288.719 497.213 288.606 495.968C286.983 474.423 285.927 452.821 285.436 431.162C285.38 429.917 283.455 429.917 283.512 431.162Z" fill="#4FB7EB"/>
<path d="M396.878 311.973C398.562 342.69 390.65 373.171 374.239 399.191C373.56 400.267 375.258 401.229 375.937 400.154C392.437 373.816 400.348 343.002 398.576 311.973C398.746 310.728 396.765 310.671 396.878 311.973Z" fill="#4FB7EB"/>
<path d="M365.694 406.093C350.715 411.905 334.785 414.88 318.717 414.865C318.495 414.919 318.297 415.046 318.156 415.226C318.014 415.405 317.937 415.627 317.937 415.856C317.937 416.085 318.014 416.307 318.156 416.486C318.297 416.666 318.495 416.793 318.717 416.846C334.957 416.823 351.054 413.811 366.204 407.96C367.336 407.677 366.826 405.64 365.694 406.093Z" fill="#4FB7EB"/>
<path d="M458.457 368.735C440.396 383.58 419.445 394.509 396.934 400.826C396.687 400.894 396.476 401.057 396.349 401.28C396.221 401.503 396.188 401.767 396.255 402.015C396.323 402.262 396.486 402.473 396.709 402.601C396.932 402.728 397.196 402.762 397.444 402.694C420.22 396.257 441.417 385.176 459.702 370.15C460.778 369.357 459.419 368.056 458.457 368.735Z" fill="#4FB7EB"/>
<path d="M381.938 425.453C369.233 448.524 354.05 470.14 336.659 489.919C335.866 490.824 337.225 492.239 338.074 491.277C355.494 471.399 370.679 449.666 383.353 426.471C384.202 425.34 382.504 424.66 381.938 425.453Z" fill="#4FB7EB"/>
<path d="M452.065 408.754C435.126 431.768 414.693 451.992 391.504 468.692C390.485 469.428 391.504 471.069 392.523 470.39C415.962 453.486 436.607 433.013 453.706 409.716C454.499 408.697 452.801 407.679 452.065 408.754Z" fill="#4FB7EB"/>
<path d="M269.137 98.8799V116.369C269.191 116.591 269.318 116.789 269.497 116.931C269.677 117.072 269.899 117.149 270.128 117.149C270.356 117.149 270.578 117.072 270.758 116.931C270.938 116.789 271.065 116.591 271.118 116.369V98.8799C271.065 98.6576 270.938 98.4597 270.758 98.3181C270.578 98.1766 270.356 98.0996 270.128 98.0996C269.899 98.0996 269.677 98.1766 269.497 98.3181C269.318 98.4597 269.191 98.6576 269.137 98.8799Z" fill="#4FB7EB"/>
<path d="M275.53 168.831C275.191 158.473 274.794 148.059 274.398 137.701C274.398 136.456 272.417 136.456 272.474 137.701C272.87 148.059 273.21 158.473 273.606 168.831C273.662 169.963 275.587 169.963 275.53 168.831Z" fill="#4FB7EB"/>
<path d="M392.974 165.949C393.08 166.156 393.254 166.32 393.466 166.415C393.679 166.51 393.917 166.529 394.141 166.469C394.366 166.41 394.564 166.275 394.701 166.088C394.839 165.901 394.909 165.672 394.899 165.44C389.288 141.918 375.957 120.955 357.034 105.898C356.072 105.106 354.657 106.464 355.619 107.256C374.326 122.055 387.488 142.736 392.974 165.949Z" fill="#4FB7EB"/>
<path d="M318.718 193.675L292.173 194.298C291.951 194.351 291.753 194.478 291.611 194.658C291.47 194.837 291.393 195.059 291.393 195.288C291.393 195.517 291.47 195.739 291.611 195.919C291.753 196.098 291.951 196.225 292.173 196.279L318.718 195.599C319.963 195.599 319.963 193.618 318.718 193.675Z" fill="#4FB7EB"/>
<path d="M217.01 196.34L249.385 197.019C249.607 196.965 249.805 196.838 249.946 196.659C250.088 196.479 250.165 196.257 250.165 196.028C250.165 195.8 250.088 195.578 249.946 195.398C249.805 195.218 249.607 195.091 249.385 195.038L217.01 194.415C215.765 194.359 215.765 196.34 217.01 196.34Z" fill="#4FB7EB"/>
<path d="M181.125 298.615C188.749 298.727 196.339 299.656 203.764 301.388C205.009 301.671 205.519 299.804 204.274 299.521C196.756 297.757 189.071 296.808 181.351 296.691C180.106 296.634 180.106 298.558 181.125 298.615Z" fill="#4FB7EB"/>
<path d="M120.792 393.861L91.6433 384.126C90.4548 383.729 89.9454 385.654 91.0774 386.05L120.226 395.728C121.414 396.351 121.924 394.257 120.792 393.861Z" fill="#4FB7EB"/>
<path d="M117.225 302.8L86.7749 301.555C85.5298 301.555 85.5298 303.479 86.7749 303.536L117.225 304.781C117.447 304.727 117.645 304.6 117.787 304.421C117.928 304.241 118.005 304.019 118.005 303.79C118.005 303.562 117.928 303.34 117.787 303.16C117.645 302.98 117.447 302.853 117.225 302.8Z" fill="#4FB7EB"/>
<path d="M108.621 223.333C109.753 222.881 108.621 221.183 107.659 221.692L85.0191 231.427C83.8872 231.88 85.0191 233.578 86.0379 233.068L108.621 223.333Z" fill="#4FB7EB"/>
<path d="M136.411 210.653L120.847 214.502C120.724 214.539 120.61 214.6 120.511 214.681C120.412 214.763 120.33 214.863 120.269 214.976C120.209 215.089 120.171 215.212 120.159 215.34C120.146 215.467 120.159 215.596 120.196 215.719C120.233 215.841 120.294 215.956 120.375 216.055C120.456 216.154 120.556 216.236 120.669 216.296C120.782 216.357 120.906 216.394 121.034 216.407C121.161 216.42 121.29 216.407 121.413 216.37L136.921 212.521C137.168 212.453 137.379 212.29 137.506 212.067C137.634 211.844 137.667 211.58 137.6 211.332C137.532 211.085 137.369 210.874 137.146 210.747C136.923 210.619 136.659 210.586 136.411 210.653Z" fill="#4FB7EB"/>
<path d="M436.893 157.233L405.877 127.009C404.971 126.16 403.613 127.518 404.462 128.367L435.818 158.648C436.384 159.44 437.799 158.082 436.893 157.233Z" fill="#4FB7EB"/>
</svg>
