<?xml version="1.0" encoding="utf-8"?>
<!-- Generator: Adobe Illustrator 25.2.0, SVG Export Plug-In . SVG Version: 6.00 Build 0)  -->
<svg version="1.1" id="Layer_1" xmlns="http://www.w3.org/2000/svg" xmlns:xlink="http://www.w3.org/1999/xlink" x="0px" y="0px"
	 viewBox="0 0 93 64" style="enable-background:new 0 0 93 64;" xml:space="preserve">
<style type="text/css">
	.st0{fill:#495CB5;}
</style>
<path class="st0" d="M1.9,46.5L1.9,46.5c0.4-0.1,0.7-0.1,1,0c1.3,0.1,2.6,0.2,3.9-0.1c1.3-0.3,2.5-1,3.1-2.1
	c0.4-0.8,0.6-1.7,0.5-2.6c-0.1-1.5-0.8-2.9-1.5-4.2c-2.6-5.4-4.9-11-6.7-16.7c-1.5-4.5-3-10-0.6-14.4c2-3.6,5.6-5.8,9.6-6.3H90
	c0.4,0.1,0.7,0.3,1,0.6c0.3,0.3,0.5,0.6,0.5,1C91.8,3.1,90,3.9,90,3.9H40.8c-5.6,0-11.2-0.1-16.8-0.1c-4.4,0-8.9-0.8-13.2,0.7
	c-3.4,1.2-6.4,4.1-6.7,7.7c-0.2,2.1,0.6,4.1,1.3,6l7.7,20.5c0.6,1.7,1.3,3.5,1,5.3c-0.4,2.2-2.3,4-4.5,4.7c-2.2,0.7-4.7,0.6-6.9,0
	c-0.4-0.1-0.8-0.2-1.1-0.5c-0.2-0.1-0.3-0.3-0.4-0.5c-0.1-0.2-0.1-0.4,0-0.6c0.1-0.1,0.2-0.2,0.3-0.3C1.6,46.6,1.7,46.6,1.9,46.5z"
	/>
<path class="st0" d="M3.4,56.6c4.6,1.7,9.7,1.9,14.5,1c7.5-1.4,12.5-6.6,10.8-14.5c-1.6-7.5-6.5-13.9-8.5-21.3
	c-0.6-2.1-0.9-4.5,0.2-6.4c2.1-3.6,8.2-4.2,11.9-4.5c5.5-0.5,10.9,0,16.4,0h38.4c0.4,0,5.8-0.3,5.9,0c0,0-1-2.7-6-4H36.9
	c-2.8,0-5.7,0.1-8.5,0c-3-0.1-6-0.4-8.8,0.9c-6.8,3-7.3,11.6-4.9,17.6c2.5,6.4,7.4,12.3,8.2,19.3c0.4,4.2-1.4,8.6-5.5,10
	c-2.2,0.8-4.6,0.7-7,0.8C8,55.5,5.5,55.6,3.4,56.6L3.4,56.6z"/>
<path class="st0" d="M89.5,51.7L89.5,51.7c2-1,1.7-3.9-0.3-4.7c-0.5-0.2-1.1-0.3-1.7-0.3c-4.1-0.1-8.5,0.7-11.1,3.8
	c-0.8,1-1.5,2.1-2.6,2.6c-4,1.6-7.1-4.6-10.3-5.9c-0.9-0.4-1.8-0.5-2.8-0.4c-0.9,0.1-1.9,0.3-2.7,0.8c-2.3,1.3-3.8,4-6.4,4.5
	c-1.9,0.3-3.7-0.7-5.2-1.9c-1.5-1.2-3-2.5-4.8-3c-0.9-0.2-2-0.2-2.8,0.3c-0.8,0.5-1.2,1.7-0.7,2.5c0.6,1,2,1,3.1,1.3
	c2.4,0.7,4,3,6.2,4.2c1,0.5,2,0.8,3.1,0.9c1.1,0.1,2.1-0.1,3.1-0.5c2.2-0.9,3.4-3,5.7-3.7c3.6-1.2,7.7,0.7,10.3,3.3
	c1.6,1.6,4.7,1.5,6.8,0.9c3.1-0.9,4.4-4.3,7.8-4.5c0.9,0,1.8,0.1,2.7,0.2C87.8,52.2,88.7,52,89.5,51.7z"/>
<path class="st0" d="M64,55.4c-3.9-0.8-8,0.9-10.7,3.8c-3,0-6.1,0.5-8.7-1.2c-1.1-0.7-2.2-1.6-3.5-1.7c-2.1-0.1-4.1,1.6-5.5,3
	c-0.7,0.7-1,1.8-1.6,2.4c-0.9,0.8-2.3,0.9-3.4,0.9L2.3,62.6c-0.5,0-1,0.1-1.1,0.6c-0.1,0.5,0.7,0.7,1.2,0.7c13.1,0,26.3,0,39.4,0
	c15.7,0,31.4,0,47.2,0.1c0.3-1.9,0.2-3.8-0.4-5.6c-0.2-0.8-0.6-1.5-1.2-2.1c-0.9-0.7-2.2-0.8-3.3-0.5c-1.1,0.3-2.1,1-3,1.6
	c-2.7,1.8-5.9,3.5-8.9,2.5c-1.9-0.6-3.3-2.2-5.1-3.2C66.2,56,65.1,55.6,64,55.4z"/>
<path class="st0" d="M89.7,18.2H37.4c-2.3,0-4.3-0.5-6.5,0.9c-3.5,2.2-3.8,6.2-1.6,9.5L36,38.7c1.2,1.8,2.2,3.9,3.8,5.5
	c0.2,0.2,0.5,0.5,0.7,0.7c2.4,2,5.8,2.9,8.8,3.1c1.4,0.1,2.9,0.1,4.2-0.4c1.4-0.5,2.8-1.6,4.2-2.3c1.6-0.8,3.5-1.3,5.2-1
	c2,0.4,3.7,1.9,5.5,2.9c1.7,0.9,3.8,1.4,5.7,1.1c2-0.3,3.8-1.5,4.7-3.3c0.6-1.4,0.9-2.1,2.4-2.2c1.1-0.1,2.2,0,3.3,0
	c0.3,0,5.1,0.2,5.1,0C89.7,34.6,89.7,26.4,89.7,18.2z M80.6,30.2c-0.2,0.3-0.4,0.5-0.7,0.7l-3.4,2.8c-0.8,0.7-2.1,0.4-3.1,0.4h-3.4
	c-2.2,0-4-0.3-6.2-0.3c-0.3,0.3-0.6,0.6-0.9,1c-0.2,0.2-0.3,0.3-0.5,0.4c-0.6,0.4-1.2,0.4-1.7-0.1l-2.2-2.6c-0.3,0-0.6,0-1,0h-6.7
	c-0.4,0-0.8,0-1.2,0c-0.3-0.1-0.7-0.2-1-0.4c-0.6-0.4-1.2-0.9-1.6-1.5c-0.3-0.4-0.2-1.2,0.1-1.6c0.5-0.7,1.6-0.9,2.4-0.8
	c1.8,0.2,3.7,0,5.6,0c2.5,0,6.2,0.7,8.4-0.9c0.4-0.3,0.9-0.7,1.4-0.6c1,0.2,0.5,1.6,1.9,3.9c0.2,0.4,2.6,0.3,3,0.3
	c1.1,0.1,2.2,0.2,3.3,0.3c0.5,0.1,1.1,0.1,1.5,0.2c0.5,0.1,1,0.2,1.5,0c0.3-0.2,0.6-0.4,0.8-0.7l1-1.2c0.2-0.2,0.4-0.4,0.7-0.6
	c0.6-0.2,1.8,0,2.1,0.7c0,0.1,0.1,0.3,0,0.5C80.8,29.9,80.7,30.1,80.6,30.2z"/>
</svg>
