<svg width="416" height="176" viewBox="0 0 416 176" fill="none" xmlns="http://www.w3.org/2000/svg">
<path d="M0.617642 70.1507C0.889928 71.56 1.50519 72.8805 2.40905 73.9956C2.51077 74.1347 2.64172 74.2498 2.79269 74.3328C2.94366 74.4158 3.11098 74.4648 3.2829 74.4762C6.72175 77.8322 10.8314 80.4231 15.3421 82.0788C22.0784 84.3413 28.9711 86.1083 35.9651 87.3656C44.0337 89.2881 52.146 91.1523 60.302 92.9583L68.3415 94.7497C68.4395 94.8119 68.5531 94.8449 68.6692 94.8449C68.7852 94.8449 68.8989 94.8119 68.9969 94.7497L102.16 102.003H102.422C118.938 105.629 135.41 109.299 151.838 113.275C152.823 114.428 153.889 115.508 155.028 116.509C154.825 116.877 154.719 117.29 154.719 117.71C154.719 118.13 154.825 118.544 155.028 118.912L154.504 119.349C150.134 123.194 152.756 129.922 155.814 133.593C156.777 134.773 157.98 135.734 159.344 136.412C160.708 137.091 162.201 137.47 163.723 137.525L164.029 137.831C164.12 137.901 164.228 137.946 164.343 137.96C164.457 137.975 164.573 137.96 164.679 137.915C164.786 137.871 164.878 137.8 164.948 137.708C165.018 137.616 165.063 137.508 165.077 137.394C165.571 137.258 166.053 137.083 166.519 136.87C166.912 137.219 167.437 136.87 167.437 136.302L168.092 135.734C167.285 137.889 167.285 140.263 168.092 142.419C168.227 144.63 169.001 146.755 170.32 148.536C173.641 152.905 181.55 156.182 185.744 150.939C186.611 149.888 187.171 148.618 187.361 147.268C191.866 152.029 197.066 156.08 202.784 159.284C208.706 162.938 215.042 165.872 221.66 168.023C233.981 171.431 251.152 174.751 262.075 166.013C262.13 165.972 262.174 165.919 262.204 165.859C262.234 165.798 262.25 165.731 262.25 165.663C262.25 165.595 262.234 165.528 262.204 165.468C262.174 165.407 262.13 165.354 262.075 165.314C262.281 165.263 262.47 165.159 262.623 165.014C262.777 164.868 262.89 164.685 262.952 164.482C263.013 164.28 263.021 164.065 262.975 163.858C262.929 163.651 262.829 163.46 262.687 163.304C247.045 149.409 232.102 134.772 216.897 120.354C226.042 123.429 235.606 125.08 245.254 125.247C251.152 125.684 262.731 127.432 267.712 122.407C273.741 123.893 279.727 125.422 285.757 126.777C290.126 127.781 294.845 128.393 298.078 124.767C298.144 124.705 298.197 124.631 298.233 124.548C298.269 124.466 298.288 124.376 298.288 124.286C298.288 124.196 298.269 124.107 298.233 124.024C298.197 123.941 298.144 123.867 298.078 123.805C298.177 123.565 298.206 123.302 298.159 123.046C298.113 122.79 297.993 122.553 297.816 122.364C291.83 116.552 285.888 110.698 279.815 104.886C280.832 103.581 281.602 102.1 282.087 100.517C288.772 90.6863 294.626 80.2 300.875 69.9322C303.671 65.5629 306.555 60.8004 309.613 56.2563C309.763 56.2063 309.891 56.1034 309.971 55.9669C310.051 55.8303 310.079 55.6693 310.05 55.5136C311.536 53.1542 312.978 50.7947 314.419 48.4353C314.514 48.4281 314.607 48.3987 314.688 48.3495C314.77 48.3003 314.839 48.2327 314.89 48.152C314.941 48.0714 314.972 47.9799 314.982 47.8849C314.991 47.79 314.978 47.6942 314.944 47.6052C315.555 46.5565 316.167 45.5079 316.822 44.503C316.856 44.374 316.856 44.2387 316.822 44.1097C318.133 41.8814 319.444 39.7405 320.711 37.4247C320.821 37.4152 320.926 37.3782 321.018 37.3171C321.11 37.256 321.184 37.1728 321.235 37.0752C321.428 36.7719 321.548 36.4278 321.585 36.0703C322.066 36.0703 322.371 35.2838 321.847 35.0216C317.739 32.7443 313.167 31.4296 308.477 31.1767H307.035C300.595 31.2716 294.346 33.38 289.165 37.2063C278.198 44.8088 271.338 56.5622 258.973 62.417C234.199 74.083 204.75 65.2571 180.632 56.3437C172.461 53.2852 164.378 50.0083 156.251 46.7313C163.504 40.3522 170.626 33.6235 177.792 27.3317C184.958 21.0399 191.293 15.5783 197.672 9.33027L200.905 6.70871C201.43 6.31547 200.905 5.48531 200.294 5.70377C200.345 5.57766 200.345 5.43665 200.294 5.31054C189.108 -3.42802 173.729 -0.0199853 162.15 5.79116C154.307 9.90121 146.746 14.5283 139.517 19.6418C132.835 23.9346 126.402 28.6026 120.249 33.6235C115.311 32.1816 110.33 30.8708 105.306 29.8222C93.6282 27.2079 81.6236 26.3683 69.696 27.3317C57.2659 28.811 45.347 33.1479 34.8728 40.0026C26.1342 45.3768 17.7015 51.3191 9.44359 57.4797L5.64231 59.8391C2.75859 61.5869 -0.605757 63.3783 0.0933283 67.2669C0.0771802 67.3829 0.0771802 67.5005 0.0933283 67.6165C0.148082 68.4816 0.324591 69.3348 0.617642 70.1507ZM47.9806 35.8518L59.3845 41.0076C54.8884 44.907 49.521 47.6688 43.7344 49.0603C37.9479 50.4518 31.9117 50.4323 26.1342 49.0033C33.0211 43.9942 40.3308 39.5937 47.9806 35.8518ZM196.755 7.9321C188.366 13.35 180.326 19.3359 172.199 25.016L162.237 32.0068C162.181 31.9257 162.106 31.8594 162.018 31.8137C161.931 31.7679 161.834 31.744 161.735 31.744C161.636 31.744 161.539 31.7679 161.451 31.8137C161.364 31.8594 161.289 31.9257 161.232 32.0068H160.97L155.683 29.8659C154.941 29.56 154.591 30.6961 155.29 31.0019L160.577 33.1865L159.616 33.8856L152.319 30.565C151.62 30.2154 151.27 31.3951 151.97 31.7447C154.11 32.6622 156.339 33.6672 158.349 34.6284L156.295 36.0703L148.693 32.5748C147.95 32.269 147.6 33.4487 148.299 33.7545L155.159 36.8567L153.586 37.9927L144.848 34.4536C144.105 34.1478 143.755 35.3275 144.498 35.5896L152.45 38.8229L151.27 39.6968L140.478 35.3275C139.736 35.0216 139.386 36.2013 140.129 36.5072L150.091 40.4832L148.78 41.4445L135.104 36.0266C134.361 35.7207 134.012 36.9004 134.711 37.2063L147.6 42.4494L147.12 42.1436C147.03 42.0915 146.929 42.063 146.826 42.0607C146.722 42.0584 146.62 42.0823 146.528 42.1304C146.436 42.1784 146.358 42.2489 146.301 42.3352C146.244 42.4216 146.21 42.521 146.202 42.6242C138.687 39.6968 131.084 36.9004 123.351 34.4973C134.973 26.5452 146.115 18.0251 158.305 10.8158C170.495 3.60652 185.963 -2.29201 199.813 5.83485L196.755 7.9321ZM150.266 43.6728C150.746 43.6728 151.052 43.4107 151.008 42.9737L152.843 41.794C152.538 42.8427 152.188 43.8913 151.882 44.9836L149.61 44.0661L150.266 43.6728ZM159.004 41.6193L159.922 36.7694L161.582 35.5023C161.468 36.2182 161.149 36.8858 160.664 37.4247C160.184 38.0364 161.014 38.954 161.538 38.3423C162.423 37.2911 162.903 35.9586 162.893 34.5847L173.466 26.8948L182.554 20.4282L176.481 26.1957L159.004 41.6193ZM154.11 45.9885L152.843 45.4205C153.324 43.8476 153.805 42.2746 154.329 40.658L155.64 39.6968C155.203 41.0949 154.81 42.4494 154.373 43.8039C153.936 45.1584 155.29 44.8962 155.552 44.1534C156.077 42.362 156.645 40.5706 157.213 38.7355L158.48 37.818L157.693 42.1873C157.67 42.3101 157.682 42.4371 157.729 42.5533C157.775 42.6694 157.854 42.7698 157.955 42.8427L154.11 45.9885ZM305.768 33.8856C302.928 38.6481 300.394 43.6728 297.467 48.3916C293.279 55.0803 288.465 61.3565 283.092 67.1358C278.299 72.5085 272.68 77.081 266.445 80.6806C258.667 85.0499 251.108 84.5256 242.545 84.045C193.984 81.2842 145.632 75.6231 97.7467 67.0922C76.8616 63.3783 56.1949 58.7031 35.4845 54.2902C35.3787 54.1887 35.2378 54.132 35.0913 54.132C34.9447 54.132 34.8038 54.1887 34.698 54.2902L22.464 51.7123L24.605 50.2267C30.8825 51.9434 37.4926 52.0424 43.8187 50.5143C50.1448 48.9863 55.9809 45.881 60.7826 41.4882C60.8532 41.4085 60.9032 41.3128 60.9285 41.2094C60.9538 41.1061 60.9535 40.9981 60.9277 40.8948C60.9019 40.7916 60.8513 40.6962 60.7804 40.6168C60.7094 40.5375 60.6202 40.4767 60.5205 40.4395L49.2914 35.1964C52.4095 33.8191 55.6218 32.6656 58.9038 31.7447C82.3232 25.4092 108.058 31.7447 130.342 39.5657C135.366 41.3134 140.391 43.2359 145.372 45.1584C145.634 45.8138 146.377 46.2944 146.989 45.8138C164.46 53.3097 182.311 59.8871 200.469 65.5192C220.96 71.2867 245.035 73.7335 264.216 62.5481C273.304 57.2176 279.465 48.6975 287.374 41.9251C292.538 37.4262 298.958 34.6201 305.768 33.8856ZM268.848 121.271C269.101 120.898 269.32 120.504 269.503 120.092C278.292 122.773 287.406 124.243 296.593 124.461C292.486 127.825 286.369 125.378 281.693 124.242L268.848 121.271ZM265.09 121.271L259.323 115.329C260.415 115.984 261.551 116.64 262.731 117.251C264.42 118.162 266.172 118.951 267.974 119.611C267.012 120.265 266.004 120.849 264.959 121.359L265.09 121.271ZM186.094 141.283C207.022 158.366 230.398 170.382 258.405 166.013L258.798 166.362C246.346 171.431 232.102 168.984 219.475 164.658C213.116 162.449 207.032 159.517 201.342 155.92C199.216 154.59 197.173 153.131 195.225 151.55C195.263 151.518 195.292 151.477 195.313 151.432C195.333 151.387 195.344 151.338 195.344 151.288C195.344 151.239 195.333 151.19 195.313 151.144C195.292 151.099 195.263 151.059 195.225 151.026C194.526 149.977 193.652 149.06 192.866 148.099C192.08 147.137 191.817 148.099 192.211 148.71L193.216 150.021L192.429 149.366C192.45 149.279 192.45 149.19 192.429 149.104C191.497 147.337 190.368 145.68 189.065 144.166C188.759 143.817 188.147 144.166 188.409 144.647L189.633 146.569C188.92 145.964 188.176 145.395 187.404 144.865C187.199 143.599 186.754 142.383 186.094 141.283ZM171.456 136.913C172.131 135.848 173.12 135.02 174.286 134.542C175.453 134.064 176.739 133.962 177.967 134.248L182.03 137.831L182.642 138.53L182.904 139.36C182.936 139.527 183.031 139.674 183.17 139.772C183.308 139.87 183.479 139.91 183.647 139.884C184.247 140.75 184.731 141.69 185.089 142.681C183.603 141.02 182.074 139.36 180.719 137.656C180.195 137.088 179.321 137.918 179.846 138.486L185.657 144.996C185.761 145.662 185.761 146.34 185.657 147.006L179.059 138.486C178.578 137.874 177.705 138.705 178.142 139.316C180.37 142.375 182.511 145.39 184.783 148.448C184.572 148.873 184.308 149.27 183.996 149.628C181.593 146.788 179.19 143.904 176.743 140.889C176.263 140.321 175.345 141.151 175.869 141.763L183.122 150.24C182.604 150.579 182.026 150.817 181.418 150.939L175.301 144.166C174.821 143.598 173.903 144.428 174.428 145.04L179.977 151.507H178.797L175.127 146.788C174.646 146.176 173.772 146.788 174.253 147.618L176.874 150.982C175.454 150.476 174.157 149.672 173.073 148.623C171.398 147.23 170.303 145.261 170.004 143.103C169.705 140.945 170.223 138.753 171.456 136.957V136.913ZM172.461 129.791C172.342 129.533 172.18 129.296 171.981 129.092C171.981 129.092 171.981 128.699 171.762 128.524L172.855 129.529L172.461 129.791ZM171.194 133.855H171.544L170.976 134.335L171.194 133.855ZM169.053 126.165C169.053 126.165 168.835 125.815 168.748 125.597L169.272 126.121L169.053 126.165ZM157.606 120.266C161.189 119.218 163.985 122.232 166.65 124.111C167.525 125.438 168.133 126.922 168.442 128.481L164.072 123.281C163.548 122.669 162.674 123.543 163.199 124.155C163.185 124.202 163.182 124.251 163.191 124.299C163.2 124.347 163.22 124.392 163.25 124.43C163.28 124.469 163.319 124.5 163.363 124.52C163.407 124.541 163.456 124.55 163.504 124.548L167.568 129.398C167.621 129.47 167.69 129.529 167.769 129.57C167.849 129.61 167.937 129.631 168.027 129.631C168.116 129.631 168.204 129.61 168.284 129.57C168.364 129.529 168.433 129.47 168.485 129.398C168.541 130.272 168.422 131.148 168.136 131.976V132.282L161.844 124.723C161.32 124.155 160.446 124.985 160.97 125.597L167.393 133.287C167.092 133.812 166.673 134.261 166.17 134.598L160.621 127.388C160.14 126.777 159.223 127.607 159.703 128.218C161.495 130.534 163.242 132.85 165.034 135.122C164.385 135.328 163.702 135.402 163.024 135.34L160.009 132.588C159.441 132.063 158.567 132.894 159.135 133.418L160.446 134.598C159.198 134.036 158.092 133.199 157.213 132.151C154.853 129.354 151.97 121.927 157.606 120.31V120.266ZM155.771 114.455L158.043 114.979L161.189 118.169C160.546 117.989 159.888 117.872 159.223 117.819C159.132 117.487 158.932 117.194 158.655 116.989C158.698 116.925 158.721 116.849 158.721 116.771C158.721 116.693 158.698 116.617 158.655 116.552C158.655 116.334 158.655 116.028 158.305 116.115L157.519 115.766C157.391 115.723 157.253 115.723 157.125 115.766H156.819C156.495 115.323 156.145 114.9 155.771 114.499V114.455ZM156.907 118.125L156.164 118.388V118.125C156.097 117.927 156.097 117.712 156.164 117.514L156.907 118.125ZM10.667 59.5333L20.8037 52.4114L23.0757 52.9794C22.9834 53.0185 22.9012 53.0784 22.8356 53.1543C22.77 53.2303 22.7227 53.3203 22.6974 53.4173C22.6721 53.5144 22.6694 53.6161 22.6895 53.7144C22.7097 53.8126 22.7521 53.905 22.8136 53.9843L28.013 60.3198C28.5373 60.9315 29.4112 60.3198 28.9306 59.4896L23.6874 53.1542L29.6734 54.6397C29.5982 54.749 29.558 54.8785 29.558 55.0111C29.558 55.1437 29.5982 55.2732 29.6734 55.3825L37.6691 65.0823C38.1498 65.694 39.0236 64.8201 38.543 64.2084L31.2026 55.2077L35.5719 56.3L46.1455 67.2232C46.6699 67.7912 47.5874 66.9611 47.0194 66.3931L37.8876 56.7807L42.9997 58.0041C42.9727 58.0584 42.9587 58.1182 42.9587 58.1788C42.9587 58.2395 42.9727 58.2993 42.9997 58.3536C46.0145 61.849 49.073 65.3008 52.1315 68.7962C52.6558 69.3642 53.5296 68.534 53.0053 67.9223C50.2527 64.7764 47.4563 61.6306 44.7037 58.441L49.9031 59.6644C49.8462 59.7175 49.8009 59.7818 49.7699 59.8532C49.7389 59.9246 49.7229 60.0016 49.7229 60.0795C49.7229 60.1573 49.7389 60.2343 49.7699 60.3057C49.8009 60.3771 49.8462 60.4414 49.9031 60.4945L54.9278 65.9998C55.4521 66.6115 56.3697 65.7377 55.8453 65.1697C54.2287 63.422 52.6121 61.6742 51.0391 59.8828L53.2238 60.4072L60.6952 68.3156C61.2196 68.8836 62.1371 68.0534 61.5691 67.4854L55.4958 61.1499L56.9377 61.4558L60.7389 62.2423L65.1082 68.8836C65.5452 69.539 66.6375 68.8836 66.2005 68.2719C64.9334 66.3931 63.6664 64.5143 62.443 62.5918H62.8362L68.3415 67.7476C68.9095 68.2719 69.7833 67.4417 69.2153 66.9174L65.1519 63.0724C103.019 71.0245 141.279 77.0832 179.933 81.2486C193.769 82.7342 207.649 83.9721 221.572 84.9625C228.825 85.4431 236.034 85.8801 243.419 86.2733C249.814 87.1345 256.319 86.6432 262.512 84.8314C273.479 80.7243 282.349 71.7236 289.602 62.6355C296.869 53.8645 302.964 44.1854 307.734 33.8419C312.04 33.7348 316.322 34.5079 320.318 36.114C320.215 36.0248 320.083 35.9757 319.947 35.9757C319.81 35.9757 319.678 36.0248 319.575 36.114C319.425 36.1378 319.281 36.1929 319.153 36.2757C319.025 36.3585 318.916 36.4671 318.832 36.5946L318.439 37.25C317.817 36.9574 317.174 36.7092 316.517 36.5072C316.036 36.5072 315.686 37.0752 316.123 37.2937L317.871 38.1238L316.997 39.4346L313.371 36.8567C312.715 36.4198 312.06 37.4684 312.715 37.9054L316.342 40.4395L314.507 42.7553L308.958 39.0414C308.826 38.9888 308.681 38.9833 308.546 39.0259C308.411 39.0685 308.295 39.1566 308.218 39.2751C308.141 39.3936 308.107 39.5352 308.122 39.6758C308.138 39.8164 308.201 39.9473 308.302 40.0463L313.851 43.8039C313.283 44.6341 312.715 45.5079 312.191 46.3818L307.822 43.4543C307.166 43.0174 306.555 44.066 307.166 44.503L311.536 47.4304L310.137 49.7024L304.851 46.6439C304.152 46.2944 303.54 47.2993 304.195 47.6926L309.482 50.751L307.385 54.2028L305.113 52.4114C304.457 51.9744 303.802 52.9794 304.457 53.46L306.904 55.164L305.768 56.7807L301.399 54.1154C300.743 53.6785 300.088 54.7271 300.743 55.1203L305.113 57.8293L303.452 60.5819L298.646 57.5671C298.507 57.4802 298.339 57.4521 298.18 57.489C298.02 57.5258 297.881 57.6247 297.794 57.7637C297.707 57.9028 297.679 58.0707 297.716 58.2305C297.753 58.3902 297.852 58.5288 297.991 58.6158L302.797 61.5869C302.404 62.3296 301.923 63.0287 301.53 63.7278L297.161 60.8441C296.505 60.3635 295.85 61.4121 296.505 61.849L300.875 64.7764L299.389 67.2232L294.277 63.99C293.622 63.553 292.966 64.6017 293.665 65.0386L298.777 68.2282L298.384 68.8836C297.991 69.4953 297.598 70.107 297.248 70.7187L292.092 67.4854C292.023 67.4424 291.947 67.4133 291.867 67.3999C291.787 67.3865 291.705 67.389 291.626 67.4072C291.547 67.4255 291.472 67.4592 291.406 67.5063C291.34 67.5535 291.283 67.6132 291.24 67.682C291.197 67.7509 291.168 67.8275 291.155 67.9076C291.141 67.9877 291.144 68.0696 291.162 68.1487C291.18 68.2279 291.214 68.3026 291.261 68.3687C291.308 68.4348 291.368 68.491 291.437 68.534C293.185 69.5826 294.889 70.675 296.593 71.7673C296.156 72.4664 295.719 73.1655 295.238 73.8645L288.291 69.8885C287.592 69.4953 286.937 70.5439 287.636 70.8934L294.758 74.8258L292.791 77.928L287.548 74.3452C286.893 73.9082 286.238 74.9569 286.893 75.3938L292.136 78.9329L290.738 81.0738L285.888 78.0591C285.751 78.0004 285.597 77.9939 285.455 78.0407C285.314 78.0875 285.194 78.1845 285.119 78.3133C285.044 78.4421 285.018 78.5939 285.047 78.7402C285.076 78.8865 285.158 79.0172 285.276 79.1077L290.082 82.1225C289.558 82.9963 289.034 83.8265 288.466 84.6567L283.354 81.5982C283.215 81.5113 283.047 81.4831 282.887 81.52C282.727 81.5569 282.589 81.6557 282.502 81.7948C282.415 81.9338 282.387 82.1017 282.424 82.2615C282.46 82.4213 282.559 82.5599 282.698 82.6468L287.854 85.7053C287.286 86.5355 286.806 87.4093 286.281 88.2395C286.285 88.1321 286.258 88.0258 286.204 87.933C286.15 87.8402 286.071 87.7647 285.975 87.7152L277.936 83.3459C277.237 82.9526 276.581 84.0013 277.28 84.3945L285.32 88.7638C285.409 88.8278 285.516 88.8622 285.626 88.8622C285.736 88.8622 285.843 88.8278 285.932 88.7638C284.184 91.6038 282.48 94.4438 280.863 97.5023C280.738 97.5349 280.629 97.6127 280.557 97.7208C279.871 98.8826 279.244 100.078 278.679 101.304C278.373 101.915 278.023 102.571 277.761 103.226C274.353 100.037 270.945 96.8906 267.406 93.7885C266.751 93.1768 265.702 94.0943 266.357 94.7934C275.096 104.144 283.834 112.97 293.097 121.839H290.738L284.402 115.853C283.834 115.285 282.961 116.115 283.529 116.683L288.772 121.621H286.849L279.552 113.8C278.984 113.232 278.111 114.062 278.635 114.63L284.97 120.965L281.082 120.397C278.941 118.125 276.712 116.028 274.572 113.625C274.047 113.057 273.13 113.887 273.698 114.455L279.028 120.004C277.543 119.698 276.013 119.349 274.659 118.956L269.94 113.057C269.416 112.445 268.542 113.275 269.023 113.887L272.649 118.256C271.044 117.78 269.469 117.211 267.93 116.552L263.561 109.955C263.124 109.299 262.075 109.955 262.512 110.523L265.92 115.635L264.347 114.848C255.225 110.064 247.547 102.929 242.108 94.1817C241.147 92.6961 238.743 93.9632 239.661 95.4925C243.91 102.614 249.594 108.774 256.352 113.581C256.303 113.63 256.264 113.688 256.237 113.752C256.211 113.815 256.197 113.884 256.197 113.953C256.197 114.022 256.211 114.09 256.237 114.154C256.264 114.217 256.303 114.275 256.352 114.324L263.692 121.927C262.602 122.359 261.476 122.695 260.328 122.932L246.914 108.294C246.39 107.726 245.472 108.557 246.04 109.125L258.886 123.15C257.867 123.218 256.846 123.218 255.827 123.15H254.211L243.069 111.659C242.545 111.091 241.627 111.921 242.195 112.489L252.419 123.106L248.4 122.8L236.471 108.6C235.947 107.989 235.073 108.819 235.598 109.43L246.696 122.538L242.545 122.32C239.18 117.951 235.86 113.581 232.495 109.212C232.015 108.557 231.141 109.212 231.621 110.042L240.884 122.32L236.515 121.839L223.407 104.712C222.927 104.1 222.053 104.712 222.533 105.542C226.699 110.901 230.864 116.247 235.03 121.577C233.151 121.315 231.272 121.009 229.437 120.66L216.635 104.755C216.154 104.144 215.237 104.974 215.761 105.586L227.645 120.397C226.116 120.048 224.587 119.611 223.276 119.174L209.076 102.396C208.595 101.784 207.678 102.614 208.202 103.226L221.31 118.562C219.693 118.082 218.077 117.601 216.416 117.251L205.581 104.843C205.056 104.231 204.182 105.061 204.663 105.673L214.013 116.858C213.849 116.95 213.702 117.068 213.576 117.208C202.522 106.765 191.293 96.4537 179.627 86.6228C178.972 86.0985 178.01 86.9287 178.666 87.5841C205.275 112.97 231.884 138.748 259.279 163.391L257.706 163.61L252.725 158.803C252.157 158.235 251.283 159.066 251.851 159.633L256.221 164.003C254.91 164.003 253.643 164.265 252.332 164.309L244.161 156.182C243.593 155.614 242.719 156.444 243.244 157.012C245.691 159.371 248.181 161.774 250.584 164.178H247.395L240.229 156.706C239.705 156.138 238.787 156.968 239.355 157.536L245.822 164.09C244.555 164.09 243.331 164.09 242.108 163.828L234.505 155.526C233.981 154.958 233.063 155.789 233.631 156.357C235.816 158.803 238.001 161.206 240.273 163.61C238.656 163.61 237.039 163.173 235.466 162.867C235.51 162.724 235.51 162.572 235.466 162.43L227.427 152.468C226.946 151.856 226.073 152.686 226.553 153.298C228.913 156.4 231.316 159.459 233.719 162.561C232.189 162.211 230.617 161.862 229.087 161.425C229.122 161.35 229.141 161.268 229.141 161.185C229.141 161.102 229.122 161.02 229.087 160.944L221.66 152.905C221.135 152.337 220.218 153.167 220.742 153.735L227.121 160.944L222.752 159.459L213.751 149.366C213.227 148.754 212.309 149.628 212.834 150.196L220.305 158.585C218.907 158.061 217.465 157.493 215.936 156.881L205.406 144.559C204.882 143.948 204.008 144.559 204.488 145.39L213.227 155.701L208.858 153.691L197.454 140.889C196.929 140.321 196.056 141.151 196.58 141.719L205.712 151.987L203.046 150.458C199.158 146.482 195.313 142.506 191.424 138.574C190.9 138.006 189.982 138.836 190.55 139.404L198.765 147.836C196.886 146.613 195.051 145.346 193.259 144.079L185.744 135.646C185.22 135.078 184.346 135.908 184.87 136.52L188.278 140.321L183.254 136.258C182.829 135.346 182.222 134.531 181.47 133.862C180.719 133.194 179.839 132.686 178.884 132.369C162.063 117.339 147.513 99.7744 130.822 84.6567C129.642 83.608 127.851 85.312 129.031 86.3607C137.464 93.9632 145.94 102.833 154.722 111.834L152.843 111.353C151.838 110.261 150.79 109.212 149.829 108.12C147.159 104.781 144.158 101.721 140.872 98.9879C140.734 98.9063 140.575 98.8711 140.416 98.8874C140.257 98.9038 140.108 98.9709 139.99 99.0788C139.872 99.1866 139.792 99.3295 139.762 99.4863C139.732 99.6431 139.754 99.8054 139.823 99.9491C142.365 103.472 145.264 106.722 148.474 109.649L149.129 110.392L144.105 109.212L130.997 91.7349C130.516 91.1232 129.642 91.7349 130.123 92.6087L142.313 108.688L137.944 107.595L127.152 93.4389C126.671 92.7835 125.798 93.4389 126.278 94.2691L136.065 107.158L132.876 106.416C132.92 106.303 132.92 106.179 132.876 106.066L121.69 91.9097C121.166 91.298 120.292 92.1281 120.773 92.7398L131.303 105.848L127.458 104.974L117.845 90.5989C117.409 89.9435 116.316 90.5989 116.753 91.1669L125.492 104.843L121.778 104.013C121.806 103.951 121.82 103.884 121.82 103.816C121.82 103.748 121.806 103.681 121.778 103.619L110.374 89.1133C109.893 88.4579 108.976 89.3318 109.456 89.9435L120.161 103.707L109.151 101.26L97.6157 87.8462C97.0914 87.2345 96.2175 88.1084 96.6981 88.6764C100.194 92.7398 103.689 96.7596 107.141 100.823L101.679 99.5996L90.2753 84.9188C89.7947 84.3071 88.9208 84.9188 89.3577 85.749L99.844 99.2064L96.6544 98.5073L87.3042 86.0985C86.8235 85.4868 85.906 86.317 86.3866 86.9287L95.1252 98.114L89.4451 96.847C89.528 96.758 89.5742 96.6409 89.5742 96.5192C89.5742 96.3976 89.528 96.2805 89.4451 96.1916C86.9109 92.3029 84.333 88.4579 81.7552 84.5693C81.3182 83.9139 80.2696 84.5693 80.7066 85.1373L88.2654 96.6285L84.5078 95.7983C84.5513 95.7022 84.5737 95.5979 84.5737 95.4925C84.5737 95.387 84.5513 95.2827 84.5078 95.1866C81.7989 92.0407 79.1336 88.8512 76.4683 85.7053C75.9877 85.0936 75.0702 85.9674 75.5945 86.5354L83.1097 95.274L79.0899 94.4002L67.7298 78.8018C67.2492 78.1901 66.3753 79.0203 66.8559 79.632C70.3514 84.4382 73.8031 89.2444 77.2985 94.0069L72.9292 93.0894L67.9919 84.613C67.5987 83.9576 66.5501 84.613 66.9433 85.181L71.3126 92.7398H70.7446L68.3415 92.2155L59.9525 79.5446C59.5155 78.8892 58.4669 79.5446 58.9038 80.1126L66.3753 91.7349L63.0547 90.9921L55.6269 78.6271C55.2336 77.928 54.1413 78.6271 54.5346 79.1951L61.438 90.6426L57.3309 89.725L52.3499 82.4283C51.913 81.7729 50.8644 82.4283 51.2576 83.04L55.6269 89.4629L51.2576 88.5016L44.5289 78.6271C44.092 78.0154 42.9997 78.6271 43.4366 79.2387L49.6847 88.3269L46.4951 87.3656L38.4993 77.7532C37.975 77.1415 37.1011 77.9717 37.5818 78.5834L44.5289 86.9287L38.7178 85.5742L29.9792 74.651C29.4986 74.0393 28.6247 74.8695 29.1053 75.4812L36.8827 85.1373L30.5035 83.608L22.1145 71.1119C21.6776 70.4565 20.6289 71.1119 21.0659 71.6799C23.6001 75.5249 26.1342 79.3698 28.7121 83.2148L26.1342 82.6031L23.4253 81.9477C19.056 76.3113 14.4246 70.6313 9.88052 64.9949C9.3999 64.3832 8.52604 65.2134 9.00666 65.8251L21.4591 81.4671C19.5803 80.9428 17.5268 80.3311 15.5606 79.5883L6.38509 67.1358C5.94816 66.5241 5.03061 67.3543 5.51124 68.0097L13.4196 78.6271C12.5021 78.2338 11.5845 77.8406 10.7107 77.36C10.6708 77.2476 10.5906 77.1541 10.4856 77.0976C10.3806 77.0411 10.2584 77.0256 10.1427 77.0541C8.02728 75.9316 6.1207 74.4536 4.5063 72.6848C4.46359 72.526 4.38929 72.3774 4.28784 72.2479C0.268099 67.0048 6.77833 62.3296 10.667 59.5333ZM1.66627 64.9075V64.558C2.11987 63.7989 2.69561 63.1198 3.37029 62.5481C2.72321 63.2743 2.15223 64.0649 1.66627 64.9075Z" fill="#4FB7EB"/>
<path d="M204.75 72.1167C204.101 70.9423 203.048 70.043 201.787 69.5851C200.526 69.1272 199.142 69.1418 197.89 69.6262C197.183 69.9044 196.547 70.3367 196.029 70.8917C195.51 71.4466 195.121 72.1101 194.891 72.8341C194.661 73.558 194.595 74.3242 194.698 75.0768C194.801 75.8295 195.071 76.5496 195.487 77.185C199.026 81.7728 207.284 77.4909 204.75 72.1167ZM201.255 70.6748C200.615 70.618 199.971 70.6934 199.362 70.8963C198.753 71.0993 198.193 71.4255 197.715 71.8545C197.138 72.4082 196.71 73.0997 196.473 73.864C196.236 74.6284 196.198 75.4404 196.361 76.2238C196.077 75.6947 195.918 75.1076 195.896 74.5076C195.874 73.9076 195.99 73.3105 196.235 72.7621C196.479 72.2138 196.846 71.7287 197.308 71.3442C197.769 70.9597 198.312 70.6858 198.895 70.5437C199.68 70.3904 200.491 70.4354 201.255 70.6748ZM202.347 72.204C201.284 72.4525 200.311 72.9933 199.539 73.7653C198.767 74.5374 198.226 75.5101 197.978 76.5733C197.774 75.9647 197.744 75.3113 197.891 74.6864C198.038 74.0616 198.356 73.4902 198.81 73.0363C199.264 72.5824 199.835 72.2641 200.46 72.1171C201.085 71.9701 201.738 72.0002 202.347 72.204ZM203.876 73.2964C203.904 73.9893 203.767 74.6789 203.475 75.3082C203.184 75.9374 202.747 76.4883 202.2 76.9153C201.654 77.3422 201.014 77.6329 200.333 77.7634C199.651 77.8939 198.949 77.8604 198.283 77.6656C198.466 77.6584 198.639 77.58 198.764 77.4472C199.187 76.4073 199.761 75.4356 200.468 74.5635C201.352 73.7836 202.446 73.282 203.614 73.1216C203.685 73.2017 203.775 73.262 203.876 73.2964Z" fill="#4FB7EB"/>
<path d="M186.617 69.0592C185.96 67.8815 184.9 66.9809 183.631 66.5233C182.362 66.0656 180.971 66.0818 179.714 66.5687C178.998 66.8559 178.355 67.2988 177.831 67.8651C177.308 68.4315 176.917 69.1073 176.687 69.8434C176.457 70.5795 176.394 71.3576 176.501 72.1213C176.609 72.8849 176.886 73.615 177.31 74.2587C180.893 78.628 189.108 74.2587 186.617 69.0592ZM185.481 69.5836C184.794 69.2391 184.028 69.082 183.261 69.128C182.494 69.1741 181.753 69.4216 181.112 69.8457C179.801 70.6759 178.447 72.7294 179.146 74.215C178.497 73.819 177.987 73.2315 177.687 72.5335C177.387 71.8355 177.31 71.0615 177.468 70.3182C177.627 69.575 178.012 68.8992 178.57 68.3841C179.129 67.869 179.834 67.5401 180.587 67.4426C181.525 67.208 182.514 67.2908 183.4 67.6782C184.285 68.0656 185.017 68.7357 185.481 69.5836ZM185.787 70.938C185.73 71.599 185.523 72.2382 185.182 72.8073C184.841 73.3764 184.375 73.8603 183.819 74.2225C183.263 74.5846 182.632 74.8154 181.974 74.8974C181.315 74.9794 180.647 74.9104 180.019 74.6956C180.141 74.6291 180.235 74.5203 180.282 74.3898C180.85 73.1227 180.719 71.8119 182.073 70.9817C182.642 70.6727 183.277 70.5072 183.925 70.4996C184.572 70.492 185.211 70.6425 185.787 70.938Z" fill="#4FB7EB"/>
<path d="M139.735 62.1965C139.052 63.4781 138.902 64.978 139.32 66.3693C139.737 67.7606 140.687 68.9306 141.964 69.6243C142.125 69.8817 142.351 70.0925 142.619 70.236C142.708 70.3 142.815 70.3344 142.925 70.3344C143.035 70.3344 143.142 70.3 143.231 70.236C144.114 70.5348 145.069 70.5434 145.958 70.2604C146.846 69.9774 147.621 69.4177 148.168 68.663C148.899 67.597 149.242 66.3119 149.139 65.0232C149.035 63.7345 148.492 62.5205 147.6 61.5848C147.089 61.0326 146.462 60.6001 145.765 60.3181C145.067 60.036 144.316 59.9114 143.565 59.9532C142.814 59.9949 142.081 60.202 141.419 60.5595C140.757 60.9171 140.182 61.4164 139.735 62.0217V62.1965ZM142.837 67.5707C142.76 66.7959 142.928 66.0164 143.318 65.3424C143.757 64.682 144.38 64.1646 145.11 63.8541C145.84 63.5435 146.645 63.4533 147.425 63.5947C147.744 64.2967 147.872 65.0708 147.796 65.8382C147.719 66.6056 147.44 67.339 146.988 67.9639C146.53 68.5087 145.909 68.892 145.217 69.0571C144.525 69.2223 143.798 69.1608 143.143 68.8815C142.919 68.4708 142.757 68.029 142.663 67.5707H142.837ZM140.784 62.8519C141.127 62.3962 141.565 62.0206 142.068 61.7512C142.571 61.4818 143.126 61.325 143.696 61.2917C144.265 61.2585 144.835 61.3495 145.366 61.5586C145.897 61.7676 146.376 62.0897 146.77 62.5023C145.879 62.3787 144.971 62.5101 144.151 62.8812C143.331 63.2524 142.633 63.8482 142.138 64.5996C141.612 65.5006 141.341 66.5274 141.352 67.5707C140.727 66.9748 140.316 66.1898 140.182 65.337C140.048 64.4842 140.198 63.6109 140.609 62.8519H140.784Z" fill="#4FB7EB"/>
<path d="M123.044 59.3157C122.673 60.0019 122.452 60.7585 122.393 61.5361C122.335 62.3138 122.441 63.095 122.705 63.8288C122.969 64.5626 123.385 65.2326 123.925 65.795C124.465 66.3575 125.118 66.7997 125.84 67.093C126.076 67.3711 126.356 67.6075 126.67 67.7921C126.732 67.8283 126.801 67.8503 126.872 67.8564C126.944 67.8625 127.015 67.8527 127.082 67.8276C127.149 67.8025 127.21 67.7627 127.26 67.7112C127.309 67.6597 127.347 67.5978 127.369 67.5299C128.141 67.6265 128.924 67.5155 129.639 67.2083C130.353 66.901 130.972 66.4087 131.433 65.7822C132.185 64.7239 132.552 63.4399 132.472 62.1441C132.393 60.8482 131.872 59.6187 130.996 58.6603C130.483 58.1486 129.867 57.7518 129.19 57.4961C128.512 57.2404 127.787 57.1316 127.064 57.1771C126.341 57.2225 125.636 57.4211 124.996 57.7597C124.356 58.0982 123.794 58.569 123.35 59.1409L123.044 59.3157ZM126.627 62.4179C127.013 61.7299 127.579 61.1594 128.263 60.7671C128.948 60.3748 129.726 60.1752 130.515 60.1895C131.023 60.9209 131.295 61.7899 131.295 62.68C131.295 63.5702 131.023 64.4391 130.515 65.1705C130.097 65.6779 129.535 66.0459 128.903 66.2254C128.27 66.405 127.598 66.3875 126.976 66.1754C126.641 65.615 126.435 64.9866 126.375 64.3363C126.314 63.6861 126.4 63.0305 126.627 62.4179ZM124.049 59.9711C124.675 59.1367 125.606 58.5851 126.639 58.4376C127.671 58.2901 128.72 58.5588 129.554 59.1846C128.664 59.1697 127.787 59.3979 127.017 59.8444C126.247 60.2909 125.614 60.939 125.185 61.7188C124.66 62.7255 124.476 63.8755 124.66 64.9957C124.012 64.3468 123.599 63.4995 123.489 62.5888C123.378 61.6782 123.575 60.7566 124.049 59.9711Z" fill="#4FB7EB"/>
<path d="M106.093 56.5193C105.64 57.4058 105.428 58.3957 105.478 59.39C105.528 60.3842 105.839 61.3478 106.379 62.1842C106.918 63.0206 107.669 63.7004 108.554 64.1555C109.439 64.6106 110.429 64.825 111.423 64.7772H111.685C112.81 64.5823 113.814 63.955 114.482 63.0295C115.061 62.2107 115.408 61.25 115.485 60.2498C115.562 59.2497 115.366 58.2473 114.919 57.3495C114.993 57.3137 115.055 57.2578 115.098 57.1883C115.142 57.1187 115.165 57.0383 115.165 56.9562C115.165 56.8741 115.142 56.7937 115.098 56.7242C115.055 56.6546 114.993 56.5988 114.919 56.563H114.394C114.248 56.3487 114.087 56.1443 113.914 55.9513C113.401 55.4396 112.785 55.0428 112.107 54.7871C111.43 54.5314 110.705 54.4226 109.982 54.4681C109.259 54.5135 108.554 54.7121 107.914 55.0507C107.273 55.3892 106.712 55.8601 106.267 56.4319C106.202 56.4438 106.141 56.4741 106.093 56.5193ZM111.161 59.4467C111.434 58.9915 111.795 58.595 112.223 58.28C112.65 57.965 113.136 57.7378 113.652 57.6116C114.093 58.333 114.316 59.1669 114.292 60.0123C114.269 60.8577 114.001 61.6781 113.52 62.3741C113.063 62.9077 112.453 63.2888 111.773 63.4665C111.323 62.9113 111.029 62.2462 110.921 61.5396C110.814 60.8331 110.896 60.1106 111.161 59.4467ZM107.098 57.1747C107.438 56.7514 107.862 56.4031 108.344 56.1519C108.825 55.9006 109.353 55.7518 109.895 55.7149C110.437 55.678 110.981 55.7536 111.492 55.9372C112.003 56.1208 112.471 56.4082 112.865 56.7815C112.23 56.9679 111.641 57.2861 111.136 57.7151C110.632 58.1442 110.224 58.6747 109.938 59.2719C109.626 59.9582 109.465 60.703 109.465 61.4566C109.465 62.2101 109.626 62.955 109.938 63.6412C109.265 63.4938 108.637 63.1894 108.104 62.7531C107.572 62.3167 107.15 61.7607 106.873 61.1303C106.596 60.4999 106.472 59.813 106.511 59.1256C106.55 58.4381 106.751 57.7697 107.098 57.1747Z" fill="#4FB7EB"/>
<path d="M88.0463 52.7174C87.38 53.8934 87.1854 55.2786 87.5017 56.5928C87.8181 57.9069 88.6218 59.0517 89.7503 59.7956C89.8665 60.234 90.1485 60.61 90.5368 60.8443C90.5855 60.8932 90.6434 60.9319 90.7071 60.9584C90.7709 60.9849 90.8392 60.9985 90.9082 60.9985C90.9772 60.9985 91.0455 60.9849 91.1093 60.9584C91.173 60.9319 91.2309 60.8932 91.2796 60.8443C92.1872 61.2162 93.1936 61.2719 94.1367 61.0025C95.0799 60.733 95.9049 60.154 96.479 59.3587C97.2685 58.2824 97.6569 56.964 97.5771 55.6315C97.4973 54.2991 96.9543 53.0365 96.0421 52.062C95.5221 51.5557 94.9019 51.1639 94.2213 50.9118C93.5408 50.6596 92.815 50.5527 92.0906 50.598C91.3663 50.6433 90.6594 50.8397 90.0156 51.1746C89.3717 51.5095 88.8051 51.9755 88.3522 52.5426L88.0463 52.7174ZM93.639 52.062L89.2697 53.0233C89.8175 52.4432 90.5271 52.0413 91.3063 51.8698C92.0856 51.6984 92.8984 51.7654 93.639 52.062ZM91.0174 58.5286C90.9783 57.7843 91.1446 57.0437 91.4981 56.3876C91.8261 55.7538 92.2771 55.1917 92.8247 54.7341C93.3724 54.2765 94.0057 53.9326 94.6876 53.7223C95.1246 53.7223 94.6876 52.9796 94.6876 52.9359C94.7279 52.8079 94.7279 52.6706 94.6876 52.5426C95.0998 52.8233 95.4556 53.1791 95.7363 53.5913C96.2437 54.3227 96.5155 55.1916 96.5155 56.0818C96.5155 56.9719 96.2437 57.8408 95.7363 58.5722C95.2276 59.2114 94.5037 59.6437 93.6998 59.7885C92.8958 59.9332 92.0666 59.7804 91.367 59.3587C91.1485 59.0529 91.0611 58.7907 91.0174 58.5286ZM88.9639 53.635C88.9639 53.9845 89.2697 54.334 89.7067 54.203L91.935 53.7223C91.1829 54.2608 90.5813 54.9828 90.1873 55.8196C89.8799 56.5272 89.6882 57.2796 89.6193 58.0479C89.0812 57.4623 88.7311 56.7287 88.6143 55.942C88.4975 55.1554 88.6192 54.3517 88.9639 53.635Z" fill="#4FB7EB"/>
<path d="M69.4343 48.9163L69.2159 49.1348C68.6028 50.197 68.385 51.4417 68.6008 52.649C68.8167 53.8563 69.4524 54.9484 70.3956 55.7324V55.9508C70.5147 56.1063 70.6849 56.2146 70.8762 56.2567C71.2875 56.5715 71.7442 56.8219 72.2307 56.9995C72.3431 57.0433 72.4678 57.0433 72.5802 56.9995C73.4633 57.2983 74.4189 57.3069 75.3072 57.0239C76.1955 56.7409 76.97 56.1812 77.5175 55.4265C78.249 54.3605 78.5917 53.0754 78.4883 51.7867C78.3849 50.498 77.8416 49.284 76.9495 48.3483C76.4326 47.8635 75.8205 47.4914 75.1521 47.2557C74.4838 47.0201 73.7737 46.926 73.067 46.9794C72.3603 47.0328 71.6724 47.2326 71.0471 47.566C70.4217 47.8995 69.8725 48.3593 69.4343 48.9163ZM73.1482 55.9945C73.0486 54.9346 73.3104 53.8721 73.891 52.9797C74.2617 52.4277 74.7536 51.9676 75.329 51.6345C75.9045 51.3013 76.5484 51.1039 77.2117 51.0572C77.4222 51.7177 77.4725 52.4188 77.3586 53.1025C77.2446 53.7863 76.9696 54.4331 76.5563 54.9896C76.1519 55.4762 75.612 55.8316 75.0051 56.0106C74.3983 56.1895 73.7519 56.1839 73.1482 55.9945ZM75.7261 50.3145C74.5929 50.5715 73.596 51.2413 72.9298 52.1933C72.1903 53.0912 71.7884 54.2196 71.7938 55.3828L71.4442 55.1207C71.0688 54.5049 70.9012 53.7848 70.9661 53.0666C71.0311 52.3483 71.3251 51.6699 71.8048 51.1314C72.2845 50.593 72.9246 50.2229 73.6306 50.0758C74.3366 49.9287 75.0712 50.0124 75.7261 50.3145ZM75.7261 49.0911C74.8923 48.775 73.9859 48.7016 73.1121 48.8794C72.2383 49.0573 71.4327 49.4791 70.7888 50.096C70.249 50.7574 69.9149 51.5625 69.8276 52.4117C69.6292 51.5001 69.7854 50.5471 70.2645 49.7465C70.5849 49.3242 70.9873 48.9711 71.4476 48.7084C71.9079 48.4456 72.4165 48.2786 72.943 48.2174C73.4695 48.1561 74.0029 48.202 74.5112 48.3521C75.0195 48.5023 75.4922 48.7536 75.9009 49.0911H75.7261Z" fill="#4FB7EB"/>
<path d="M103.602 88.0638C107.141 92.4331 110.68 96.8024 114.176 101.172C114.7 101.783 113.782 102.614 113.302 102.002L102.728 88.894C102.204 88.2823 103.121 87.3647 103.602 88.0638Z" fill="#4FB7EB"/>
<path d="M6.2109 70.8062L8.046 73.2967C8.52662 73.9521 7.65277 74.7822 7.17214 74.1705L5.33705 71.6364C4.85643 71.0247 5.77398 70.1945 6.2109 70.8062Z" fill="#4FB7EB"/>
<path d="M274.834 86.2323L282.742 91.4754C283.397 91.9124 282.742 92.961 282.087 92.524L274.178 87.3683C274.028 87.2814 273.918 87.1382 273.872 86.9702C273.827 86.8022 273.851 86.6232 273.938 86.4726C274.025 86.322 274.168 86.212 274.336 86.1669C274.504 86.1219 274.683 86.1454 274.834 86.2323Z" fill="#4FB7EB"/>
<path d="M271.601 88.6337C274.397 90.5125 277.194 92.3913 280.034 94.2263C280.645 94.6633 280.034 95.7119 279.378 95.275L270.815 89.6823C270.29 89.2454 270.815 88.1967 271.601 88.6337Z" fill="#4FB7EB"/>
<path d="M270.508 91.4747L279.552 97.7664C280.164 98.2471 279.552 99.252 278.897 98.8151L269.896 92.5233C269.241 92.0427 269.853 91.0378 270.508 91.4747Z" fill="#4FB7EB"/>
<path d="M48.3747 43.6743C48.2682 43.6854 48.1606 43.6704 48.0613 43.6303C47.9619 43.5903 47.8739 43.5265 47.805 43.4446C47.736 43.3627 47.6881 43.2651 47.6656 43.1604C47.643 43.0558 47.6465 42.9471 47.6756 42.8441C47.561 42.8737 47.4407 42.8737 47.3261 42.8441L49.1612 44.8103C49.2324 44.9047 49.2767 45.0166 49.2895 45.1341C49.3022 45.2517 49.283 45.3705 49.2337 45.478C49.1844 45.5855 49.107 45.6776 49.0096 45.7447C48.9123 45.8117 48.7985 45.8512 48.6806 45.8589C46.3851 45.7273 44.0858 46.0388 41.9082 46.7764C41.1654 47.0386 40.9032 45.8152 41.646 45.5967C43.4734 44.9601 45.3912 44.6208 47.3261 44.5918L45.1414 42.2324C45.0404 42.1334 44.9767 42.0025 44.9613 41.8619C44.9459 41.7212 44.9797 41.5796 45.057 41.4611C45.1343 41.3426 45.2502 41.2546 45.3851 41.212C45.52 41.1694 45.6655 41.1749 45.7968 41.2275L47.4135 41.6644C47.4992 41.6661 47.5829 41.6907 47.6559 41.7356C47.7289 41.7806 47.7886 41.8443 47.8287 41.92C47.8688 41.9958 47.8879 42.0809 47.8841 42.1666C47.8802 42.2523 47.8535 42.3353 47.8067 42.4072H48.1125C48.8553 42.2761 49.1175 43.6743 48.3747 43.6743Z" fill="#4FB7EB"/>
<path d="M167.086 67.2223C167.123 67.1087 167.123 66.9864 167.086 66.8728C166.833 66.1301 166.432 65.4463 165.907 64.8629C165.377 64.3373 164.74 63.933 164.038 63.6779C163.337 63.4227 162.589 63.3229 161.845 63.3852C161.101 63.4475 160.38 63.6705 159.731 64.0388C159.082 64.4071 158.521 64.9119 158.086 65.5183C157.689 66.262 157.465 67.0858 157.431 67.9283C157.397 68.7707 157.554 69.6098 157.89 70.383C158.226 71.1562 158.733 71.8434 159.372 72.3931C160.011 72.9429 160.766 73.3411 161.581 73.5578C161.707 73.6976 161.854 73.8157 162.018 73.9073C162.114 73.9933 162.239 74.0408 162.368 74.0408C162.497 74.0408 162.621 73.9933 162.717 73.9073C163.432 73.9253 164.141 73.7674 164.781 73.4474C165.421 73.1275 165.973 72.6552 166.387 72.0722C166.874 71.3741 167.19 70.5721 167.311 69.7301C167.433 68.8881 167.356 68.0293 167.086 67.2223ZM163.329 64.7755C162.737 64.7253 162.141 64.7963 161.578 64.9841C161.014 65.1719 160.495 65.4726 160.052 65.8679C159.458 66.5394 159.084 67.3777 158.983 68.2688C158.881 69.1599 159.056 70.0607 159.484 70.8488C158.877 70.2621 158.491 69.4839 158.391 68.6456C158.29 67.8073 158.482 66.9601 158.934 66.2468C159.385 65.5335 160.069 64.9977 160.87 64.7297C161.67 64.4617 162.539 64.4779 163.329 64.7755ZM164.421 66.3485C163.799 66.4049 163.197 66.594 162.654 66.903C162.111 67.2121 161.641 67.6338 161.275 68.1399C160.861 68.7841 160.606 69.5182 160.533 70.2808C160.192 69.7384 160.044 69.0966 160.114 68.4598C160.184 67.8231 160.468 67.2286 160.918 66.7731C161.369 66.3176 161.96 66.0278 162.596 65.9507C163.232 65.8736 163.875 66.0138 164.421 66.3485ZM165.907 67.4845C166.135 68.138 166.19 68.8394 166.068 69.5206C165.946 70.2019 165.649 70.84 165.208 71.3732C164.873 71.7918 164.435 72.1164 163.937 72.3155C163.44 72.5146 162.899 72.5813 162.368 72.5092C162.104 72.0971 161.926 71.6366 161.843 71.1547C161.761 70.6181 161.813 70.0694 161.995 69.5579C162.177 69.0464 162.483 68.5881 162.886 68.2242C163.289 67.8603 163.776 67.6022 164.303 67.473C164.83 67.3439 165.381 67.3479 165.907 67.4845Z" fill="#4FB7EB"/>
<path d="M153.98 55.4676C125.623 48.302 96.8734 41.8791 68.9537 33.2717C68.342 33.2717 68.6479 32.223 69.2159 32.3541C97.791 38.6022 126.017 47.0786 154.198 54.7685C154.244 54.7829 154.287 54.8061 154.324 54.8369C154.361 54.8677 154.391 54.9055 154.414 54.9481C154.436 54.9907 154.45 55.0373 154.454 55.0852C154.458 55.1331 154.453 55.1814 154.439 55.2273C154.424 55.2732 154.401 55.3158 154.37 55.3527C154.339 55.3897 154.302 55.4202 154.259 55.4425C154.216 55.4648 154.17 55.4785 154.122 55.4828C154.074 55.4871 154.026 55.4819 153.98 55.4676Z" fill="#4FB7EB"/>
<path d="M159.747 102.484C173.325 117.155 189.15 129.574 206.629 139.274C207.11 139.492 206.629 140.191 206.192 139.973C188.357 130.685 172.401 118.166 159.135 103.052C158.829 102.615 159.397 102.091 159.747 102.484Z" fill="#4FB7EB"/>
<path d="M194.483 123.062C191.468 120.266 188.454 117.47 185.745 114.324C185.351 113.887 186.007 113.319 186.444 113.712C189.502 116.421 192.473 119.261 195.444 122.101C195.794 122.8 195.007 123.543 194.483 123.062Z" fill="#4FB7EB"/>
<path d="M201.604 8.06153C201.558 8.08008 201.508 8.08698 201.458 8.08161C201.408 8.07625 201.361 8.05879 201.319 8.03077C201.278 8.00275 201.244 7.96501 201.221 7.92087C201.197 7.87672 201.185 7.8275 201.185 7.77753C201.185 7.72755 201.197 7.67834 201.221 7.63419C201.244 7.59005 201.278 7.55231 201.319 7.52429C201.361 7.49626 201.408 7.47881 201.458 7.47345C201.508 7.46808 201.558 7.47498 201.604 7.49353C201.651 7.47498 201.701 7.46808 201.751 7.47345C201.8 7.47881 201.848 7.49626 201.889 7.52429C201.931 7.55231 201.965 7.59005 201.988 7.63419C202.012 7.67834 202.024 7.72755 202.024 7.77753C202.024 7.8275 202.012 7.87672 201.988 7.92087C201.965 7.96501 201.931 8.00275 201.889 8.03077C201.848 8.05879 201.8 8.07625 201.751 8.08161C201.701 8.08698 201.651 8.08008 201.604 8.06153Z" fill="#4FB7EB"/>
<path d="M247.351 78.1019C246.609 78.1019 246.303 77.0096 247.089 76.9222C256.896 75.7564 266.199 71.9387 273.998 65.8798C281.797 59.8209 287.796 51.7501 291.35 42.5359C291.656 41.7932 292.792 42.1864 292.53 42.8855C288.927 52.3173 282.813 60.5842 274.85 66.7914C266.886 72.9987 257.377 76.9099 247.351 78.1019Z" fill="#4FB7EB"/>
<path d="M252.899 140.539L319.793 154.652C320.579 154.652 320.186 155.963 319.443 155.832L252.55 141.719C251.763 141.544 252.113 140.364 252.899 140.539Z" fill="#4FB7EB"/>
<path d="M282.523 141.414L327.832 153.953C327.989 154 328.12 154.106 328.198 154.25C328.276 154.393 328.294 154.562 328.247 154.718C328.201 154.874 328.094 155.006 327.951 155.084C327.808 155.162 327.639 155.179 327.483 155.133L282.13 142.593C281.387 142.375 281.736 141.195 282.523 141.414Z" fill="#4FB7EB"/>
<path d="M354.573 144.693L306.511 135.955C305.768 135.955 306.118 134.644 306.904 134.775L354.966 143.513C355.709 143.644 355.316 144.824 354.573 144.693Z" fill="#4FB7EB"/>
<path d="M341.945 137.001L316.341 132.937C315.555 132.937 315.599 131.583 316.341 131.714L341.989 135.821C342.775 135.909 342.732 137.132 341.945 137.001Z" fill="#4FB7EB"/>
<path d="M383.366 161.381C384.217 163.569 385.662 165.477 387.537 166.889C389.413 168.302 391.645 169.163 393.983 169.377C395.588 169.465 397.195 169.235 398.71 168.7C400.226 168.165 401.621 167.336 402.815 166.26C404.009 165.184 404.978 163.882 405.667 162.43C406.356 160.978 406.751 159.404 406.829 157.798C416.878 156.007 417.927 141.02 408.97 136.52C410.272 134.939 410.946 132.934 410.866 130.888C410.785 128.841 409.955 126.896 408.533 125.422C406.585 123.578 404.006 122.551 401.324 122.551C398.642 122.551 396.062 123.578 394.114 125.422C392.36 123.469 390.07 122.075 387.53 121.414C384.989 120.754 382.31 120.856 379.827 121.708C377.857 122.384 376.193 123.742 375.136 125.537C374.078 127.331 373.697 129.444 374.059 131.495C372.139 132.4 370.594 133.945 369.69 135.865C368.958 137.502 368.677 139.305 368.876 141.088C369.076 142.87 369.749 144.567 370.826 146.001C365.67 153.516 374.977 164.134 383.366 161.381ZM373.448 157.012C372.398 155.602 371.717 153.953 371.465 152.213C371.213 150.474 371.399 148.699 372.006 147.05C373.068 147.949 374.349 148.552 375.72 148.798C376.244 148.798 376.725 148.142 376.157 147.836C374.466 147.156 373.017 145.985 371.997 144.475C370.977 142.964 370.432 141.183 370.433 139.36C370.782 134.204 376.812 129.879 381.181 133.898C381.575 134.248 382.23 133.898 381.924 133.374C381.213 132.278 380.154 131.454 378.918 131.034C377.681 130.614 376.339 130.622 375.108 131.058C375.071 129.002 375.76 126.998 377.055 125.399C378.349 123.801 380.167 122.71 382.186 122.32C386.189 121.958 390.174 123.181 393.284 125.728C392.358 126.583 391.563 127.569 390.925 128.655C390.619 129.18 391.362 129.573 391.711 129.136C392.543 128.122 393.481 127.199 394.508 126.383C394.559 126.419 394.62 126.438 394.682 126.438C394.745 126.438 394.806 126.419 394.857 126.383C396.283 125.123 398.061 124.329 399.952 124.111C401.842 123.892 403.755 124.258 405.431 125.16C406.363 125.632 407.17 126.319 407.785 127.165C408.4 128.01 408.805 128.989 408.967 130.022C409.129 131.054 409.043 132.111 408.717 133.104C408.391 134.097 407.834 134.998 407.091 135.733C406.928 135.739 406.772 135.797 406.646 135.899C406.519 136.002 406.43 136.143 406.392 136.302C405.592 136.907 404.666 137.326 403.683 137.525C403.564 137.559 403.46 137.63 403.386 137.729C403.311 137.828 403.271 137.948 403.271 138.071C403.271 138.194 403.311 138.315 403.386 138.413C403.46 138.512 403.564 138.583 403.683 138.617C405.076 138.675 406.452 138.293 407.615 137.525C409.284 138.395 410.687 139.697 411.679 141.296C412.671 142.895 413.214 144.732 413.252 146.613C413.031 148.978 412.067 151.212 410.497 152.994C408.926 154.776 406.832 156.015 404.513 156.531C403.814 156.531 403.814 157.929 404.513 157.886H405.562C405.209 160.716 403.784 163.303 401.58 165.114C399.377 166.925 396.563 167.822 393.718 167.62C390.873 167.419 388.214 166.134 386.288 164.03C384.362 161.927 383.316 159.164 383.366 156.313C383.366 155.701 382.448 155.876 382.405 156.313C382.241 157.645 382.345 158.997 382.711 160.289C381.016 160.541 379.286 160.374 377.672 159.802C376.057 159.231 374.607 158.273 373.448 157.012Z" fill="#4FB7EB"/>
<path d="M355.272 158.017C355.173 158.05 355.065 158.05 354.966 158.017C353.945 157.089 353.317 155.806 353.209 154.431C353.101 153.056 353.522 151.691 354.386 150.615C355.25 149.54 356.492 148.834 357.858 148.642C359.224 148.451 360.612 148.788 361.738 149.584C362.044 149.846 361.738 150.458 361.389 150.283C360.417 149.836 359.328 149.714 358.281 149.934C357.234 150.154 356.287 150.706 355.578 151.506C355.011 152.374 354.731 153.397 354.778 154.432C354.825 155.468 355.197 156.462 355.84 157.274C355.859 157.36 355.859 157.45 355.84 157.536C357.026 156.604 358.527 156.17 360.028 156.325C361.528 156.48 362.909 157.212 363.879 158.366C363.96 158.366 364.038 158.398 364.096 158.456C364.153 158.513 364.185 158.591 364.185 158.672C364.185 158.753 364.153 158.831 364.096 158.888C364.038 158.946 363.96 158.978 363.879 158.978C363.908 159.083 363.9 159.195 363.856 159.296C363.812 159.396 363.736 159.478 363.639 159.529C363.543 159.58 363.431 159.596 363.324 159.576C363.217 159.555 363.12 159.498 363.049 159.415C362.487 158.822 361.784 158.38 361.006 158.131C360.228 157.882 359.399 157.833 358.597 157.99C357.795 158.147 357.045 158.504 356.418 159.028C355.791 159.552 355.307 160.226 355.01 160.988C354.801 161.72 354.764 162.491 354.903 163.24C355.041 163.989 355.351 164.695 355.808 165.305C356.265 165.914 356.856 166.409 357.537 166.752C358.217 167.094 358.967 167.275 359.729 167.28C360.428 167.28 360.646 168.459 359.729 168.59C358.682 168.675 357.632 168.484 356.683 168.034C355.734 167.585 354.92 166.895 354.322 166.031C353.725 165.168 353.365 164.163 353.278 163.117C353.192 162.07 353.382 161.02 353.83 160.07C354.164 159.293 354.655 158.594 355.272 158.017Z" fill="#4FB7EB"/>
<path d="M366.326 137.918C365.687 137.283 364.868 136.86 363.98 136.709C363.092 136.557 362.179 136.684 361.366 137.072C360.552 137.459 359.879 138.088 359.437 138.873C358.995 139.658 358.807 140.561 358.898 141.457C358.898 142.069 357.893 142.243 357.762 141.457C357.616 140.318 357.836 139.162 358.389 138.156C358.943 137.149 359.802 136.345 360.842 135.859C361.883 135.373 363.051 135.23 364.178 135.451C365.305 135.672 366.332 136.245 367.112 137.088C367.637 137.699 366.938 138.398 366.326 137.918Z" fill="#4FB7EB"/>
<path d="M360.866 121.71C344.451 118.942 328.201 115.266 312.192 110.7C311.493 110.7 311.843 109.564 312.498 109.651C328.854 112.465 345.045 116.17 360.997 120.749C361.478 120.924 361.39 121.754 360.866 121.71Z" fill="#4FB7EB"/>
<path d="M148.736 22.4401C160.097 13.0899 174.078 2.6036 189.633 7.67196C190.376 7.93412 190.026 9.11382 189.283 8.85167C174.166 3.91438 160.577 14.3133 149.567 23.314C148.999 23.8383 148.125 22.9207 148.736 22.4401Z" fill="#4FB7EB"/>
<path d="M21.7644 54.6825L24.5607 57.8284C25.0851 58.3964 24.2112 59.2266 23.6869 58.6586L20.8469 55.5127C20.3225 54.9447 21.2401 54.1145 21.7644 54.6825Z" fill="#4FB7EB"/>
<path d="M19.0115 55.776L19.5358 56.5188C20.0165 57.1305 19.1426 57.9607 18.662 57.349L18.1377 56.7809C17.6571 55.9945 18.5309 55.1206 19.0115 55.776Z" fill="#4FB7EB"/>
<path d="M71.8376 65.518L74.8524 69.4504C75.333 70.0621 74.4155 70.8923 73.9348 70.2806L70.9637 66.3482C70.4831 65.518 71.357 64.7316 71.8376 65.518Z" fill="#4FB7EB"/>
<path d="M39.5049 41.6182C39.5267 41.982 39.5267 42.3467 39.5049 42.7105C39.5049 43.0164 39.5049 43.1911 39.1554 43.2348C38.7984 44.0427 38.1521 44.6879 37.3437 45.0436C36.5352 45.3993 35.623 45.4399 34.7861 45.1573C34.0433 44.8515 34.3929 43.6718 35.1357 43.9776C35.485 44.1014 35.8585 44.1411 36.226 44.0936C36.5935 44.0461 36.9447 43.9127 37.2511 43.7042C37.5574 43.4957 37.8104 43.218 37.9894 42.8935C38.1684 42.5691 38.2685 42.207 38.2815 41.8367C38.2611 41.7505 38.2611 41.6607 38.2815 41.5745C38.2815 40.8754 39.4176 40.7444 39.5049 41.5745V41.6182Z" fill="#4FB7EB"/>
<path d="M389.964 133.766C391.592 133.639 393.215 134.075 394.559 135.002C395.904 135.929 396.89 137.29 397.35 138.857C397.811 140.423 397.72 142.101 397.091 143.608C396.462 145.116 395.334 146.361 393.896 147.136C393.416 147.136 392.804 146.655 393.285 146.262C394.482 145.555 395.412 144.472 395.929 143.181C396.446 141.89 396.52 140.464 396.141 139.126C395.762 137.788 394.95 136.614 393.832 135.786C392.715 134.959 391.354 134.525 389.964 134.552C389.44 134.552 389.483 133.809 389.964 133.766Z" fill="#4FB7EB"/>
<path d="M374.803 166.534C375.283 166.753 374.803 167.583 374.453 167.365C373.993 167.179 373.499 167.092 373.004 167.107C372.508 167.123 372.021 167.241 371.573 167.455C371.125 167.668 370.727 167.973 370.403 168.348C370.079 168.724 369.836 169.162 369.691 169.637C369.595 170.173 369.618 170.723 369.758 171.249C369.898 171.775 370.152 172.264 370.503 172.681C370.853 173.098 371.29 173.433 371.784 173.661C372.278 173.89 372.816 174.008 373.361 174.006C373.469 174.038 373.564 174.105 373.632 174.195C373.699 174.286 373.735 174.395 373.735 174.508C373.735 174.621 373.699 174.731 373.632 174.822C373.564 174.912 373.469 174.979 373.361 175.011C372.644 175.161 371.902 175.128 371.201 174.916C370.5 174.704 369.864 174.32 369.351 173.798C368.838 173.276 368.464 172.633 368.263 171.929C368.063 171.225 368.043 170.482 368.205 169.768C368.361 169.08 368.669 168.437 369.106 167.884C369.543 167.331 370.098 166.883 370.731 166.573C371.363 166.263 372.058 166.099 372.762 166.092C373.467 166.085 374.164 166.236 374.803 166.534Z" fill="#4FB7EB"/>
<path d="M308.127 121.097C308.646 120.434 309.309 119.898 310.066 119.529C310.823 119.16 311.654 118.969 312.496 118.969C313.338 118.969 314.169 119.16 314.926 119.529C315.683 119.898 316.346 120.434 316.865 121.097C316.865 121.447 316.865 121.84 316.428 121.534C316.01 120.96 315.457 120.497 314.819 120.184C314.181 119.872 313.476 119.72 312.766 119.742C312.056 119.763 311.362 119.958 310.744 120.308C310.126 120.658 309.602 121.154 309.219 121.753C308.721 122.896 308.655 124.182 309.032 125.371C309.41 126.56 310.206 127.572 311.273 128.219C311.349 128.298 311.4 128.398 311.421 128.506C311.442 128.614 311.43 128.726 311.389 128.828C311.347 128.929 311.277 129.017 311.186 129.079C311.096 129.142 310.989 129.177 310.879 129.18C310.085 128.932 309.361 128.5 308.765 127.92C308.169 127.339 307.718 126.626 307.45 125.838C307.182 125.05 307.103 124.21 307.221 123.386C307.338 122.563 307.649 121.778 308.127 121.097Z" fill="#4FB7EB"/>
<path d="M298.559 139.797C297.886 139.418 297.312 138.886 296.884 138.243C296.456 137.6 296.186 136.865 296.096 136.098C296.007 135.331 296.1 134.554 296.369 133.83C296.637 133.106 297.073 132.455 297.641 131.932C298.239 131.427 298.945 131.064 299.704 130.872C300.463 130.68 301.256 130.664 302.022 130.824C302.788 130.984 303.508 131.316 304.127 131.796C304.746 132.276 305.247 132.89 305.593 133.592C305.625 133.655 305.644 133.724 305.649 133.795C305.654 133.865 305.645 133.936 305.622 134.003C305.6 134.069 305.565 134.131 305.519 134.185C305.472 134.238 305.416 134.282 305.353 134.313C305.29 134.345 305.221 134.364 305.151 134.369C305.08 134.374 305.01 134.365 304.943 134.342C304.876 134.32 304.814 134.285 304.761 134.239C304.707 134.192 304.664 134.136 304.632 134.073C304.334 133.589 303.928 133.179 303.447 132.876C302.966 132.573 302.421 132.385 301.855 132.326C301.289 132.267 300.718 132.338 300.184 132.535C299.65 132.732 299.169 133.049 298.777 133.461C298.266 134.287 298.045 135.259 298.148 136.224C298.251 137.189 298.672 138.093 299.345 138.792C299.408 138.911 299.435 139.046 299.423 139.18C299.411 139.315 299.361 139.443 299.278 139.549C299.194 139.655 299.082 139.735 298.955 139.779C298.827 139.823 298.69 139.829 298.559 139.797Z" fill="#4FB7EB"/>
<path d="M289.995 134.247C289.342 134.005 288.641 133.922 287.949 134.005C287.257 134.089 286.596 134.337 286.019 134.728C285.065 135.485 284.327 136.479 283.878 137.612C283.833 137.725 283.755 137.823 283.653 137.891C283.552 137.96 283.433 137.996 283.31 137.996C283.188 137.996 283.069 137.96 282.967 137.891C282.866 137.823 282.788 137.725 282.742 137.612C282.262 133.592 287.68 132.063 290.563 133.505C291.219 133.636 290.607 134.553 289.995 134.247Z" fill="#4FB7EB"/>
<path d="M329.188 146.217C329.538 146.217 329.669 146.698 329.188 146.785C329.142 146.804 329.091 146.811 329.042 146.805C328.992 146.8 328.945 146.782 328.903 146.754C328.862 146.726 328.828 146.689 328.804 146.644C328.781 146.6 328.769 146.551 328.769 146.501C328.769 146.451 328.781 146.402 328.804 146.358C328.828 146.314 328.862 146.276 328.903 146.248C328.945 146.22 328.992 146.202 329.042 146.197C329.091 146.192 329.142 146.199 329.188 146.217Z" fill="#4FB7EB"/>
<path d="M321.673 149.233C321.673 149.888 320.625 150.019 320.537 149.233C320.422 148.448 320.536 147.645 320.867 146.924C321.197 146.202 321.73 145.592 322.4 145.166C323.071 144.741 323.85 144.519 324.644 144.528C325.437 144.536 326.212 144.774 326.873 145.213C327.012 145.337 327.102 145.507 327.128 145.691C327.153 145.875 327.113 146.063 327.013 146.22C326.913 146.377 326.761 146.494 326.584 146.55C326.406 146.606 326.214 146.596 326.043 146.524C325.588 146.248 325.065 146.103 324.533 146.106C324.001 146.108 323.48 146.258 323.027 146.538C322.575 146.819 322.209 147.219 321.97 147.695C321.731 148.17 321.629 148.703 321.673 149.233Z" fill="#4FB7EB"/>
<path d="M304.415 158.588C304.496 158.588 304.573 158.62 304.631 158.677C304.688 158.735 304.72 158.813 304.72 158.894C304.72 158.975 304.688 159.053 304.631 159.11C304.573 159.167 304.496 159.2 304.415 159.2C304.333 159.2 304.256 159.167 304.198 159.11C304.141 159.053 304.109 158.975 304.109 158.894C304.109 158.813 304.141 158.735 304.198 158.677C304.256 158.62 304.333 158.588 304.415 158.588Z" fill="#4FB7EB"/>
<path d="M290.082 154.653C291.27 153.55 292.83 152.938 294.451 152.938C296.072 152.938 297.633 153.55 298.82 154.653C299.345 155.09 298.558 155.789 298.078 155.352C297.078 154.499 295.792 154.056 294.478 154.113C293.165 154.169 291.922 154.721 290.999 155.658C290.182 156.639 289.734 157.876 289.734 159.153C289.734 160.43 290.182 161.667 290.999 162.648C291.071 162.758 291.103 162.888 291.089 163.018C291.076 163.148 291.018 163.269 290.926 163.362C290.834 163.454 290.712 163.512 290.582 163.525C290.453 163.538 290.322 163.507 290.213 163.435C289.627 162.867 289.159 162.19 288.835 161.441C288.511 160.692 288.338 159.887 288.326 159.071C288.314 158.255 288.463 157.445 288.764 156.687C289.065 155.929 289.513 155.238 290.082 154.653Z" fill="#4FB7EB"/>
</svg>
