<svg width="1440" height="260" viewBox="0 0 1440 260" fill="none" xmlns="http://www.w3.org/2000/svg">
<path d="M770.329 0H1027.06V194.598H770.158L770.329 0Z" fill="#3E4A8F"/>
<path d="M779.787 6.66211H1067.86V194.598H779.746L779.787 6.66211Z" fill="#233862"/>
<path d="M919.404 194.598H883.905V158.685H919.404V194.598Z" fill="#E69D43"/>
<path d="M919.403 194.598H883.905V158.688H891.856L919.403 194.598Z" fill="#E78B37"/>
<path d="M885.381 194.598H863.896V158.685H885.381V194.598Z" fill="#E29500"/>
<path d="M921.286 159.182H862.42V113.569H921.286V159.182Z" fill="#E69D43"/>
<path d="M921.289 159.181H862.42V113.568H873.464L921.289 159.181Z" fill="#E78B37"/>
<path d="M863.898 159.181H847.646V113.568H863.898V159.181Z" fill="#E29500"/>
<path d="M1169.02 171.67H1244.82C1246.67 171.67 1248.17 173.167 1248.17 175.013V204.839C1248.17 206.685 1246.67 208.182 1244.82 208.182H1169.02C1167.17 208.182 1165.67 206.685 1165.67 204.839V175.013C1165.67 173.167 1167.17 171.67 1169.02 171.67Z" fill="#B65615"/>
<path d="M895.714 224.196C893.53 206.102 906.459 189.667 924.593 187.487C942.727 185.307 959.198 198.208 961.383 216.302C963.568 234.395 950.638 250.831 932.505 253.011C914.371 255.191 897.899 242.29 895.714 224.196Z" fill="#233862"/>
<path d="M785.621 226.214C782.327 208.288 794.221 191.092 812.186 187.805C830.152 184.518 847.386 196.386 850.68 214.312C853.974 232.238 842.081 249.434 824.115 252.721C806.15 256.008 788.915 244.14 785.621 226.214Z" fill="#233862"/>
<path d="M1188.46 227.905C1184.22 210.179 1195.18 192.376 1212.94 188.14C1230.7 183.904 1248.55 194.839 1252.79 212.565C1257.04 230.291 1246.08 248.094 1228.31 252.33C1210.55 256.566 1192.71 245.63 1188.46 227.905Z" fill="#233862"/>
<path d="M1237.32 220.242C1237.32 216.948 1236.34 213.727 1234.51 210.988C1232.67 208.249 1230.06 206.114 1227.01 204.853C1223.96 203.592 1220.61 203.262 1217.37 203.905C1214.13 204.548 1211.16 206.134 1208.82 208.464C1206.49 210.793 1204.9 213.761 1204.25 216.992C1203.61 220.224 1203.94 223.573 1205.2 226.616C1206.47 229.66 1208.61 232.262 1211.35 234.092C1214.1 235.922 1217.32 236.899 1220.63 236.899C1225.05 236.899 1229.3 235.144 1232.43 232.02C1235.56 228.897 1237.32 224.66 1237.32 220.242Z" fill="#F59040"/>
<path d="M1209.51 207.818C1207.95 211.297 1207.63 215.206 1208.61 218.892C1209.59 222.577 1211.8 225.817 1214.88 228.069C1217.97 230.321 1221.73 231.45 1225.55 231.266C1229.36 231.082 1233 229.598 1235.85 227.06C1234.84 229.325 1233.32 231.334 1231.43 232.941C1229.53 234.548 1227.3 235.711 1224.89 236.346C1222.49 236.981 1219.97 237.072 1217.53 236.611C1215.08 236.15 1212.77 235.15 1210.76 233.684C1208.76 232.217 1207.1 230.322 1205.93 228.136C1204.75 225.95 1204.07 223.528 1203.95 221.049C1203.83 218.569 1204.27 216.094 1205.23 213.805C1206.19 211.516 1207.66 209.471 1209.51 207.818Z" fill="#D36E2A"/>
<path d="M1225.8 220.242C1225.8 219.22 1225.5 218.221 1224.93 217.371C1224.36 216.522 1223.55 215.859 1222.61 215.467C1221.66 215.076 1220.62 214.973 1219.62 215.172C1218.61 215.371 1217.69 215.863 1216.97 216.585C1216.24 217.307 1215.75 218.228 1215.55 219.23C1215.35 220.232 1215.45 221.271 1215.84 222.215C1216.23 223.159 1216.9 223.966 1217.75 224.533C1218.6 225.101 1219.6 225.404 1220.62 225.404C1222 225.404 1223.31 224.86 1224.28 223.893C1225.26 222.925 1225.8 221.612 1225.8 220.242Z" fill="#B65615"/>
<path d="M1231.43 229.091C1231.43 228.695 1231.32 228.309 1231.1 227.98C1230.88 227.651 1230.56 227.395 1230.2 227.244C1229.83 227.093 1229.43 227.053 1229.04 227.13C1228.65 227.207 1228.29 227.398 1228.01 227.677C1227.73 227.957 1227.54 228.313 1227.47 228.701C1227.39 229.089 1227.43 229.49 1227.58 229.856C1227.73 230.221 1227.99 230.533 1228.32 230.753C1228.65 230.973 1229.03 231.09 1229.43 231.09C1229.96 231.09 1230.47 230.879 1230.85 230.504C1231.22 230.129 1231.43 229.621 1231.43 229.091Z" fill="#B65615"/>
<path d="M1233.77 214.245C1233.77 213.85 1233.65 213.463 1233.43 213.135C1233.21 212.806 1232.9 212.55 1232.53 212.398C1232.17 212.247 1231.76 212.207 1231.38 212.285C1230.99 212.362 1230.63 212.552 1230.35 212.832C1230.07 213.111 1229.88 213.467 1229.8 213.855C1229.72 214.243 1229.76 214.645 1229.92 215.01C1230.07 215.375 1230.32 215.688 1230.65 215.907C1230.98 216.127 1231.37 216.244 1231.77 216.244C1232.03 216.245 1232.29 216.193 1232.53 216.093C1232.78 215.993 1233 215.845 1233.18 215.66C1233.37 215.474 1233.52 215.253 1233.62 215.011C1233.72 214.768 1233.77 214.508 1233.77 214.245Z" fill="#B65615"/>
<path d="M1211.74 214.245C1211.74 213.85 1211.62 213.463 1211.4 213.135C1211.18 212.806 1210.87 212.55 1210.5 212.398C1210.13 212.247 1209.73 212.207 1209.34 212.285C1208.95 212.362 1208.6 212.552 1208.32 212.832C1208.04 213.111 1207.85 213.467 1207.77 213.855C1207.69 214.243 1207.73 214.645 1207.88 215.01C1208.03 215.375 1208.29 215.688 1208.62 215.907C1208.95 216.127 1209.34 216.244 1209.73 216.244C1210 216.245 1210.26 216.193 1210.5 216.093C1210.74 215.993 1210.96 215.845 1211.15 215.66C1211.34 215.474 1211.48 215.253 1211.58 215.011C1211.69 214.768 1211.74 214.508 1211.74 214.245Z" fill="#B65615"/>
<path d="M1213.41 229.091C1213.41 228.695 1213.29 228.309 1213.07 227.98C1212.85 227.651 1212.54 227.395 1212.17 227.244C1211.8 227.093 1211.4 227.053 1211.01 227.13C1210.62 227.207 1210.27 227.398 1209.99 227.677C1209.71 227.957 1209.52 228.313 1209.44 228.701C1209.36 229.089 1209.4 229.49 1209.55 229.856C1209.7 230.221 1209.96 230.533 1210.29 230.753C1210.62 230.973 1211.01 231.09 1211.4 231.09C1211.93 231.09 1212.44 230.879 1212.82 230.504C1213.2 230.129 1213.41 229.621 1213.41 229.091Z" fill="#B65615"/>
<path d="M1222.63 207.52C1222.63 207.125 1222.51 206.739 1222.29 206.41C1222.07 206.081 1221.76 205.825 1221.39 205.674C1221.03 205.522 1220.62 205.483 1220.23 205.56C1219.85 205.637 1219.49 205.827 1219.21 206.107C1218.93 206.387 1218.74 206.743 1218.66 207.13C1218.58 207.518 1218.62 207.92 1218.77 208.285C1218.93 208.651 1219.18 208.963 1219.51 209.183C1219.84 209.402 1220.23 209.519 1220.62 209.519C1221.16 209.519 1221.67 209.309 1222.04 208.934C1222.42 208.559 1222.63 208.051 1222.63 207.52Z" fill="#B65615"/>
<path d="M945.86 220.242C945.86 216.947 944.881 213.727 943.047 210.988C941.212 208.248 938.605 206.113 935.554 204.853C932.504 203.592 929.147 203.262 925.908 203.905C922.67 204.548 919.696 206.135 917.361 208.465C915.026 210.795 913.437 213.763 912.793 216.995C912.149 220.226 912.48 223.575 913.744 226.619C915.008 229.662 917.149 232.264 919.894 234.094C922.64 235.923 925.868 236.9 929.17 236.899C931.362 236.899 933.533 236.468 935.558 235.631C937.583 234.794 939.423 233.567 940.973 232.02C942.523 230.473 943.752 228.637 944.591 226.616C945.429 224.595 945.861 222.429 945.86 220.242Z" fill="#D36E2A"/>
<path d="M934.351 220.242C934.351 219.22 934.048 218.221 933.48 217.371C932.911 216.521 932.102 215.859 931.156 215.467C930.21 215.076 929.169 214.973 928.165 215.172C927.16 215.372 926.237 215.864 925.513 216.586C924.789 217.309 924.296 218.23 924.096 219.232C923.896 220.234 923.999 221.273 924.392 222.217C924.784 223.161 925.448 223.968 926.3 224.535C927.152 225.102 928.153 225.405 929.177 225.404C929.857 225.404 930.529 225.271 931.157 225.011C931.785 224.752 932.355 224.372 932.835 223.892C933.316 223.413 933.697 222.844 933.957 222.218C934.217 221.591 934.351 220.92 934.351 220.242Z" fill="#B65615"/>
<path d="M939.986 229.091C939.986 228.695 939.869 228.309 939.649 227.98C939.429 227.651 939.116 227.395 938.75 227.244C938.384 227.093 937.981 227.053 937.592 227.13C937.203 227.207 936.847 227.398 936.566 227.677C936.286 227.957 936.095 228.313 936.018 228.701C935.941 229.089 935.98 229.49 936.132 229.856C936.284 230.221 936.54 230.533 936.87 230.753C937.199 230.973 937.587 231.09 937.983 231.09C938.514 231.089 939.023 230.878 939.399 230.503C939.774 230.129 939.985 229.621 939.986 229.091Z" fill="#B65615"/>
<path d="M940.736 214.245C940.736 213.85 940.619 213.463 940.399 213.135C940.179 212.806 939.866 212.55 939.5 212.398C939.134 212.247 938.731 212.207 938.342 212.285C937.953 212.362 937.597 212.552 937.316 212.832C937.036 213.111 936.845 213.467 936.768 213.855C936.691 214.243 936.73 214.645 936.882 215.01C937.034 215.375 937.29 215.688 937.62 215.907C937.949 216.127 938.337 216.244 938.733 216.244C939.264 216.244 939.774 216.033 940.15 215.659C940.525 215.284 940.736 214.775 940.736 214.245Z" fill="#B65615"/>
<path d="M921.959 229.091C921.959 228.695 921.841 228.309 921.621 227.98C921.401 227.651 921.088 227.395 920.722 227.244C920.356 227.093 919.953 227.053 919.565 227.13C919.176 227.207 918.819 227.398 918.539 227.677C918.259 227.957 918.068 228.313 917.991 228.701C917.913 229.089 917.953 229.49 918.105 229.856C918.256 230.221 918.513 230.533 918.843 230.753C919.172 230.973 919.559 231.09 919.956 231.09C920.487 231.089 920.996 230.878 921.371 230.503C921.747 230.129 921.958 229.621 921.959 229.091Z" fill="#B65615"/>
<path d="M941.441 207.52C941.441 207.125 941.324 206.739 941.104 206.41C940.884 206.081 940.571 205.825 940.205 205.674C939.839 205.522 939.436 205.483 939.047 205.56C938.659 205.637 938.302 205.827 938.021 206.107C937.741 206.387 937.55 206.743 937.473 207.13C937.396 207.518 937.435 207.92 937.587 208.285C937.739 208.651 937.996 208.963 938.325 209.183C938.654 209.402 939.042 209.519 939.438 209.519C939.969 209.519 940.479 209.309 940.855 208.934C941.23 208.559 941.441 208.051 941.441 207.52Z" fill="#B65615"/>
<path d="M1077.06 224.269C1074.82 206.181 1087.7 189.71 1105.83 187.479C1123.96 185.249 1140.47 198.104 1142.7 216.192C1144.94 234.279 1132.05 250.751 1113.93 252.981C1095.8 255.212 1079.29 242.357 1077.06 224.269Z" fill="#233862"/>
<path d="M1220.99 42.0655C1220.99 42.0655 1215.99 14.835 1178.12 14.835L1177.56 44.0541L1220.99 42.0655Z" fill="#E29500"/>
<path d="M1115.28 165.452H1258.9L1246.95 68.6514C1246.01 61.0479 1242.32 54.0496 1236.56 48.9747C1230.81 43.8998 1223.4 41.0985 1215.72 41.0986H1115.28V165.452Z" fill="#E69D43"/>
<path d="M1198.77 106.279H1239.04L1233.7 68.0558C1233.16 64.2501 1231.27 60.7649 1228.37 58.242C1225.46 55.719 1221.74 54.3284 1217.89 54.3262H1197.51L1198.77 106.279Z" fill="#E29500"/>
<path d="M1201.75 103.403H1228.26C1229.21 103.402 1230.14 103.201 1231 102.813C1231.85 102.424 1232.62 101.857 1233.24 101.15C1233.86 100.443 1234.33 99.6109 1234.6 98.7107C1234.87 97.8105 1234.95 96.8624 1234.83 95.9299L1231.3 69.4823C1230.37 62.498 1224.67 57.2979 1217.93 57.2979H1200.69L1201.75 103.403Z" fill="#DCE7F9"/>
<path d="M903.133 0H1179.39V194.598H903.133V0Z" fill="#495CB5"/>
<path d="M913.949 187.218H1169.25V7.38184H913.616V152.771L913.949 187.218Z" fill="#3E4A8F"/>
<path d="M1171.27 165.451H1258.9C1266.62 165.964 1267.38 169.757 1267.38 169.757L1274.86 205.937C1274.86 207.174 1273.72 208.182 1272.33 208.182H1250.3C1248.91 208.182 1247.9 207.167 1247.31 205.878C1247.31 205.878 1243.92 201.7 1241.64 200.203C1235.95 196.455 1229.76 193.998 1220.62 193.998C1209.39 193.998 1199.47 197.563 1193.49 203.006H1171.27C1168.59 203.006 1166.39 201.62 1166.39 199.888V168.535C1166.39 166.847 1168.59 165.451 1171.27 165.451Z" fill="#E29500"/>
<path d="M878.933 236.446H906.71C907.299 233.282 908.476 230.256 910.182 227.525C918.581 214.096 938.216 209.991 949.417 208.737C952.134 208.416 954.865 208.231 957.601 208.183H909.856C897.356 209.873 889.718 216.667 885.131 223.173C882.278 227.187 880.178 231.684 878.933 236.446Z" fill="#495CB5"/>
<path d="M768.993 236.446H796.77C797.436 232.862 798.856 229.46 800.936 226.465C813.62 208.21 847.636 208.183 847.636 208.183H799.891C789.447 209.596 782.378 214.581 777.67 219.979C773.557 224.736 770.589 230.368 768.993 236.446Z" fill="#495CB5"/>
<path d="M885.099 223.173C885.099 223.173 903.377 219.324 910.168 227.525C918.567 214.096 938.202 209.991 949.403 208.737L950.076 208.183H909.842C897.356 209.873 889.686 216.667 885.099 223.173Z" fill="#364172"/>
<path d="M777.676 219.993C777.676 219.993 792.953 219.647 800.939 226.475C813.623 208.221 847.639 208.193 847.639 208.193H799.894C789.457 209.6 782.388 214.582 777.676 219.993Z" fill="#364172"/>
<path d="M765.851 194.598H1173.13C1175.18 194.598 1176.85 196.259 1176.85 198.308V209.762C1176.85 211.811 1175.18 213.472 1173.13 213.472H765.851C763.797 213.472 762.132 211.811 762.132 209.762V198.308C762.132 196.259 763.797 194.598 765.851 194.598Z" fill="#364172"/>
<path d="M1080.38 199.341H1155.71C1157.69 199.341 1159.3 200.942 1159.3 202.916V237.568C1159.3 239.542 1157.69 241.143 1155.71 241.143H1080.38C1078.4 241.143 1076.8 239.542 1076.8 237.568V202.916C1076.8 200.942 1078.4 199.341 1080.38 199.341Z" fill="#364172"/>
<path d="M913.616 187.219H1168.91L1169.26 7.38281H1112.93C1098.98 48.4643 1048.9 145.912 913.616 153.208V187.219Z" fill="#495CB5"/>
<path d="M1256.29 87.5469C1256.29 87.5469 1259.88 106.799 1259.7 109.938C1259.53 113.076 1256.55 114.608 1254.3 114.608L1256.29 87.5469Z" fill="#3E4A8F"/>
<path d="M1245.39 85.9395H1254.12C1255.4 85.9395 1256.44 86.9756 1256.44 88.2537V112.294C1256.44 113.572 1255.4 114.608 1254.12 114.608H1245.39C1244.11 114.608 1243.07 113.572 1243.07 112.294V88.2537C1243.07 86.9756 1244.11 85.9395 1245.39 85.9395Z" fill="#E29500"/>
<path d="M1246.06 87.5469H1252.97C1254.06 87.5469 1254.95 88.431 1254.95 89.5216V111.24C1254.95 112.331 1254.06 113.215 1252.97 113.215H1246.06C1244.97 113.215 1244.08 112.331 1244.08 111.24V89.5216C1244.08 88.431 1244.97 87.5469 1246.06 87.5469Z" fill="#DCE7F9"/>
<path d="M1249.75 86.4617C1249.88 86.4502 1250 86.389 1250.08 86.2912C1250.17 86.1935 1250.21 86.0669 1250.2 85.9385V77.8456C1250.2 77.8248 1250.2 77.804 1250.2 77.7798C1250.2 77.7555 1249.64 73.127 1244.78 73.276C1240.34 73.4146 1238.43 73.276 1238.41 73.276C1238.35 73.2764 1238.28 73.2895 1238.22 73.3144C1238.17 73.3393 1238.11 73.3756 1238.07 73.4211C1238.03 73.4666 1237.99 73.5204 1237.97 73.5794C1237.95 73.6383 1237.93 73.7013 1237.94 73.7645C1237.92 73.8927 1237.96 74.0222 1238.03 74.1256C1238.11 74.229 1238.23 74.2982 1238.35 74.3188C1238.43 74.3188 1240.33 74.4574 1244.81 74.3188C1248.72 74.201 1249.26 77.5061 1249.32 77.8802V85.9351C1249.31 86.0615 1249.35 86.1871 1249.43 86.2853C1249.51 86.3836 1249.63 86.4468 1249.75 86.4617Z" fill="#3E4A8F"/>
<path d="M1202.5 118.737H1210.63C1211.18 118.737 1211.71 118.518 1212.1 118.129C1212.49 117.739 1212.71 117.21 1212.71 116.659C1212.71 116.107 1212.49 115.579 1212.1 115.189C1211.71 114.799 1211.18 114.58 1210.63 114.58H1202.5C1201.95 114.58 1201.42 114.799 1201.03 115.189C1200.64 115.579 1200.42 116.107 1200.42 116.659C1200.42 117.21 1200.64 117.739 1201.03 118.129C1201.42 118.518 1201.95 118.737 1202.5 118.737Z" fill="#E29500"/>
<path d="M873.468 194.352H837.97V158.931H873.468V194.352Z" fill="#E69D43"/>
<path d="M873.465 194.598H837.97V158.935H845.514L873.465 186.546V194.598Z" fill="#E78B37"/>
<path d="M839.448 194.598H823.195V158.931H839.448V194.598Z" fill="#E29500"/>
<path d="M709.735 167.143C709.04 165.653 709.415 164.853 709.415 164.853C709.415 164.853 725.387 158.939 726.946 158.544C727.987 158.274 739.987 153.299 745.983 149.817C748.959 148.085 751.268 149.945 753.99 151.844L756.229 153.41C758.934 155.298 758.274 159.753 755.111 160.941C746.202 164.298 732.446 166.789 729.821 167.406C723.304 168.93 711.439 169.332 711.439 169.332C710.731 168.723 710.151 167.979 709.735 167.143Z" fill="#91CECF"/>
<path d="M660.511 166.935L662.657 167.056C662.657 167.056 666.449 165.611 668.438 169.544C668.438 169.544 669.132 171.231 667.816 171.31C666.501 171.39 666.994 171.168 665.136 171.31C663.278 171.452 661.518 170.749 660.914 169.53L659.74 168.535L660.511 166.935Z" fill="#FFB27D"/>
<path d="M662.084 168.462C662.545 166.99 662.431 166.758 662.431 166.758C662.431 166.758 649.344 159.728 648.136 159.018C646.928 158.308 633.373 143.982 633.373 143.982L619.533 147.818C619.533 147.818 641.001 164.055 644.077 165.802C649.16 168.687 660.917 170.305 660.917 170.305C661.459 169.802 661.861 169.167 662.084 168.462Z" fill="#91CECF"/>
<path d="M647.015 177.979L701.235 189.505L713.804 130.61L659.58 119.094L647.015 177.979Z" fill="#E29500"/>
<path d="M670.115 182.885L709.79 191.314L722.359 132.418L682.677 123.979L670.115 182.885Z" fill="#E69D43"/>
<path d="M670.115 182.885L709.79 191.314L712.221 179.923L689.253 125.375L682.684 123.989L670.115 182.885Z" fill="#E78B37"/>
<path d="M698.266 244.632C698.266 244.632 696.155 246.956 691.252 245.692C691.252 245.692 687.297 244.795 686.429 246.762C686.429 246.762 691.405 249.901 692.94 250.743C694.098 251.432 695.177 252.245 696.158 253.168C696.319 253.312 696.507 253.423 696.711 253.492C696.915 253.562 697.132 253.589 697.347 253.572C697.562 253.556 697.772 253.496 697.963 253.396C698.155 253.296 698.324 253.159 698.46 252.992C698.727 252.645 699.03 252.274 699.366 251.821C700.3 250.556 702.491 246.471 702.491 246.471L698.266 244.632Z" fill="#233862"/>
<path d="M696.388 243.416C696.388 243.416 698.339 247.899 702.835 247.074C702.835 247.074 712.015 239.511 718.31 231.654C720.355 229.104 722.098 226.52 723.119 224.157C727.286 214.512 738.563 200.124 745.729 192.835L727.814 186.363C727.814 186.363 722.071 197.89 714.432 212.045C708.915 222.245 702.426 233.809 696.388 243.416Z" fill="#2B478B"/>
<path d="M714.422 212.045L718.31 231.654C720.355 229.104 722.098 226.52 723.119 224.157C727.286 214.512 738.563 200.124 745.729 192.835L727.814 186.363C727.814 186.363 722.06 197.89 714.422 212.045Z" fill="#233862"/>
<path d="M729.073 247.234C729.073 247.234 729.268 250.813 724.907 251.291C724.907 251.291 722.282 251.343 722.275 253.619H735.049C735.343 252.685 735.496 251.713 735.504 250.733C735.573 249.223 734.035 245.273 734.035 245.273L729.073 247.234Z" fill="#233862"/>
<path d="M733.682 186.363C733.682 186.363 725.696 195.117 720.626 210.891C717.87 219.476 725.682 241.052 727.223 248.55C727.223 248.55 732.466 248.993 736.049 247.611C736.049 247.611 736.32 232.128 734.227 220.193C733.053 213.514 744.74 205.906 749.851 193.839C753.323 185.628 749.098 185.767 743.903 185.569L733.682 186.363Z" fill="#2B478B"/>
<path d="M742.903 147.302C747.344 149.803 756.444 147.496 756.444 147.496C756.444 147.496 752.75 143.279 754.431 136.496L750.941 138.263L747.195 140.161C746.996 141.27 746.858 142.388 746.782 143.512C746.74 144.066 746.702 144.686 746.674 145.362C745.309 145.773 744.031 146.431 742.903 147.302Z" fill="#FFB07B"/>
<path d="M726.609 185.91C726.609 186.689 727.508 187.063 727.699 187.102C729.494 187.427 734.497 189.371 739.004 189.814C742.799 190.213 746.323 189.835 750.195 189.059C750.709 188.959 751.91 188.633 751.997 188.144C752.084 187.656 766.927 157.986 755.403 145.261C755.132 144.963 752.858 145.5 750.778 145.992C749.023 146.408 747.182 146.257 745.518 145.563L743.57 146.602C741.171 147.936 736.626 152.668 736.108 156.382C735.838 158.27 734.754 159.67 734.442 161.33C734.328 161.946 734.213 162.547 734.095 163.131C733.863 164.286 733.62 165.378 733.366 166.408C732.671 169.218 731.977 171.636 731.282 173.725C730.532 175.943 729.8 177.789 729.147 179.331C728.296 181.333 727.578 182.83 727.13 183.973C726.844 184.583 726.667 185.239 726.609 185.91Z" fill="#ABDDDA"/>
<path d="M727.12 183.962C748.046 174.123 755.296 155.231 755.296 155.231C755.296 155.231 738.439 160.775 734.245 162.389C734.008 163.536 733.62 165.358 733.37 166.397C732.675 169.207 731.981 171.625 731.286 173.714C730.536 175.932 729.804 177.778 729.151 179.32C728.276 181.319 727.557 182.815 727.12 183.962Z" fill="#91CECF"/>
<path d="M719.62 135.994L719.22 134.117C719.22 134.117 722.269 130.902 718.467 128.082C718.467 128.082 716.78 127.021 716.207 128.241C715.634 129.46 716.068 129.048 715.21 130.753C714.353 132.457 714.516 134.29 715.717 135.149L716.436 136.49L719.62 135.994Z" fill="#FFB07B"/>
<path d="M746.778 143.511C751.149 143.757 753.989 140.158 753.989 140.158C752.94 139.579 751.921 138.947 750.937 138.263L747.191 140.161C746.992 141.27 746.854 142.388 746.778 143.511Z" fill="#EA8E50"/>
<path d="M744.917 139.035C744.917 139.035 751.538 143.775 754.434 139.617C757.33 135.46 760.132 133.27 756.028 130.066C751.924 126.861 749.99 127.876 748.684 129.026C747.379 130.177 743.271 137.695 744.917 139.035Z" fill="#FFB07B"/>
<path d="M747.984 125.274C748.119 124.336 748.379 123.42 748.758 122.551C748.758 122.551 749.171 124.266 752.317 124.03C755.463 123.795 760.448 124.338 762.108 127.914C762.215 128.139 762.311 128.371 762.393 128.607C762.596 127.963 762.721 127.298 762.764 126.625C763.365 128.163 762.764 130.089 762.764 130.089C762.764 130.145 762.764 130.204 762.789 130.259C763.483 130.845 764.066 132.664 764.066 132.664C763.818 132.184 763.399 131.814 762.893 131.624C762.893 134.396 761.775 137.126 759.789 137.936C756.886 139.121 756.91 138.217 753.99 140.15C753.99 140.15 753.206 139.18 753.74 138.529C754.275 137.878 756.292 136.932 755.164 135.982C754.036 135.033 753.622 136.1 753.206 135.449C752.789 134.798 754.869 132.903 752.199 131.129C749.529 129.355 747.748 126.871 747.984 125.274Z" fill="#2B478B"/>
<path d="M592.496 243.166C592.496 243.166 590.27 245.224 590.704 246.69C591.138 248.155 593.135 249.115 593.42 250.916C593.704 252.718 594.777 253.688 595.756 253.688H600.419C600.419 253.688 601.138 252.43 599.398 252.049C597.659 251.668 597.006 249.569 597.114 247.618C597.16 246.098 597.106 244.576 596.951 243.062L593.256 242.196L592.496 243.166Z" fill="#2C3A64"/>
<path d="M620.258 253.598C620.343 253.634 620.432 253.659 620.522 253.674H632.883C632.782 253.241 632.397 252.375 630.907 252.136C628.959 251.821 625.584 250.691 624.831 248.204C624.807 248.124 624.786 248.045 624.769 247.961C624.171 245.304 619.824 248.776 619.824 248.776C619.824 248.776 619.824 248.88 619.793 249.06C619.692 250.04 619.432 253.193 620.258 253.598Z" fill="#2C3A64"/>
<path d="M630.391 182.576C630.391 182.576 629.731 190.794 628.953 200.671C627.912 214.089 626.634 230.573 626.505 233.694C626.29 239.116 625.419 247.791 625.419 247.791C625.419 247.791 623.356 249.849 619.224 248.983C619.224 248.983 615.544 236.601 614.495 223.502C614.478 223.287 614.461 223.069 614.447 222.854C613.468 209.516 611.947 181.437 611.947 181.437L630.391 182.576Z" fill="#2B478B"/>
<path d="M630.391 182.576C630.391 182.576 629.731 190.794 628.953 200.671L614.495 223.502C614.478 223.287 614.461 223.069 614.447 222.854C613.468 209.516 611.947 181.437 611.947 181.437L630.391 182.576Z" fill="#233862"/>
<path d="M627.377 183.532C627.377 183.532 615.478 213.296 607.655 227.282C599.833 241.267 597.385 245.168 597.385 245.168C597.385 245.168 592.903 243.381 592.496 242.161C592.496 242.161 595.489 215.159 600.729 208.577C603.687 204.86 607.166 193.697 607.326 189.793C607.485 185.888 608.385 178.166 608.385 178.166L627.377 183.532Z" fill="#2B478B"/>
<path d="M626.148 135.536C626.148 135.536 632.085 143.348 636.936 143.83C636.936 143.83 636.363 141.016 634.957 139.229C635.353 138.612 635.7 138.051 635.998 137.552C636.519 136.687 636.994 135.795 637.422 134.881L635.255 130.807L633.787 128.035C633.419 128.968 632.954 129.858 632.398 130.692C629.801 134.649 626.148 135.536 626.148 135.536Z" fill="#FFB27D"/>
<path d="M632.411 130.703C632.411 130.703 632.411 135.013 635.994 137.552C636.515 136.687 636.99 135.796 637.418 134.881L635.251 130.807C634.316 130.626 633.358 130.59 632.411 130.703Z" fill="#ED975D"/>
<path d="M638.768 135.335C638.768 135.335 631.206 133.492 632.432 128.808C633.657 124.124 633.505 120.736 638.383 121.717C643.261 122.697 643.73 124.727 643.702 126.39C643.674 128.053 640.768 135.696 638.768 135.335Z" fill="#FFB27D"/>
<path d="M607.193 182.164C610.665 185.94 633.074 188.632 632.432 185.785C632.009 183.917 631.758 182.016 631.682 180.103C631.654 179.479 631.643 178.814 631.65 178.111C631.699 174.255 632.345 169.214 634.532 163.196C634.692 162.743 634.879 162.289 635.043 161.828C635.946 159.511 636.653 157.123 637.157 154.688C638.081 150.156 638.136 145.93 637.018 143.321C637.018 143.321 635.556 139.139 635.549 139.125C630.741 137.632 629.355 133.929 629.355 133.929C629.355 133.929 614.259 138.744 608.328 160.459C608.328 160.446 604.186 178.876 607.193 182.164Z" fill="#ABDDDA"/>
<path d="M631.682 180.102C631.654 179.479 631.643 178.814 631.65 178.11C631.699 174.254 632.345 169.214 634.532 163.196C633.626 160.23 632.602 157.798 631.689 156.766C627.991 152.56 626.081 152.089 626.081 152.089C626.081 152.089 624.06 172.155 631.682 180.102Z" fill="#91CECF"/>
<path d="M630.302 120.694C630.236 120.604 630.077 120.518 629.705 120.455C629.932 120.356 630.18 120.314 630.427 120.331C630.563 119.815 630.941 118.914 631.861 118.782C631.705 118.854 631.567 118.959 631.457 119.091C631.347 119.223 631.268 119.378 631.226 119.544C632.382 118.578 634.698 118.037 640.785 119.198C648.816 120.736 645.566 125.701 644.448 126.213C643.33 126.726 640.878 124.717 638.892 124.658C636.906 124.599 636.233 127.429 635.524 127.741C634.816 128.053 635.156 127.395 634.306 126.885C633.455 126.376 633.202 127.873 633.351 128.881C633.5 129.889 632.129 131.046 632.129 131.046L631.032 129.55C629.938 128.053 629.4 122.167 630.101 120.999C630.177 120.909 630.247 120.802 630.302 120.694Z" fill="#233862"/>
<path d="M652.469 175.589C652.469 175.589 655.191 175.738 655.774 175.935C656.358 176.133 658.205 177.581 658.181 177.754C658.156 177.927 658.024 178.042 657.66 177.965C657.295 177.889 656.153 177.415 656.188 177.577C656.222 177.74 659.444 179.348 659.312 180.044C659.181 180.741 656.941 181.496 655.34 181.146C653.74 180.796 650.479 178.34 650.282 178.159C650.084 177.979 652.469 175.589 652.469 175.589Z" fill="#FFB27D"/>
<path d="M652.289 176.974C653.296 175.682 652.744 174.982 652.744 174.982C652.744 174.982 640.591 163.203 639.671 162.053C638.751 160.903 635.72 143.719 635.72 143.719C635.72 143.719 633.984 139.589 630.192 138.429C626.89 137.424 625.175 136.052 623.442 137.84C622.436 138.886 621.768 140.21 621.526 141.64C621.285 143.07 621.481 144.539 622.088 145.857C624.866 151.909 630.477 163.934 632.265 166.079C635.716 170.215 646.737 176.853 649.598 178.551C649.801 178.672 650.038 178.724 650.274 178.7C650.51 178.677 650.732 178.578 650.907 178.419C651.409 177.979 651.872 177.496 652.289 176.974Z" fill="#ABDDDA"/>
<path d="M715.265 135.421C715.766 134.766 716.49 134.318 717.3 134.16L719.946 133.558C719.946 133.558 729.032 148.631 729.782 150.142C729.944 150.475 730.232 151.008 730.647 151.743C730.801 152.014 731.041 152.227 731.329 152.348C731.618 152.469 731.938 152.491 732.24 152.411C735.754 151.469 739.615 150.27 742.493 148.947C744.079 148.216 745.834 147.929 747.571 148.115C749.308 148.302 750.961 148.956 752.354 150.007L754.691 151.774C755.326 152.253 755.814 152.901 756.099 153.643C756.385 154.385 756.456 155.192 756.306 155.972C756.156 156.753 755.79 157.476 755.249 158.059C754.708 158.643 754.015 159.064 753.247 159.274C744.997 161.53 732.963 162.846 727.932 163.432C725.654 163.695 722.883 158.051 721.508 154.867C718.581 148.25 715.265 135.421 715.265 135.421Z" fill="#ABDDDA"/>
<path d="M385.601 250.746C387.475 250.771 389.348 250.621 391.194 250.299C389.066 248.737 384.597 245.501 380.945 243.225C375.976 240.131 373.157 234.91 380.167 234.03C386.139 233.272 390.833 246.277 392.097 250.143C392.913 249.991 393.712 249.828 394.486 249.662C393.524 246.911 391.424 241.084 389.427 237.02C386.736 231.532 377.216 222.265 386.736 221.208C395.205 220.266 397.451 243.706 397.847 248.924C399.548 248.577 401.034 248.321 402.211 248.408C404.92 248.605 407.513 251.55 405.979 252.849H377.389C378.313 252.07 380.705 250.628 385.601 250.746Z" fill="#86D1CD"/>
<path d="M1237.17 247.975C1241.5 237.547 1250.84 217.571 1257.94 219.934C1264.95 222.265 1249.18 239.567 1240.29 248.598C1242.06 248.969 1243.66 249.333 1245.12 249.669C1251.97 243.45 1263.28 233.258 1264.31 237.45C1265.21 241.126 1255.51 246.683 1248.09 250.338C1252.71 251.346 1256.21 251.82 1260.54 250.837C1267.69 249.215 1271.34 254.055 1271.34 254.055H1216.82C1216.82 254.055 1225.8 245.837 1237.17 247.975Z" fill="#86D1CD"/>
<path d="M-82.2006 252.721H1456.2C1457.16 252.721 1457.95 253.096 1457.95 253.56V253.849C1457.95 254.312 1457.16 254.687 1456.2 254.687H-82.2006C-83.1642 254.687 -83.9454 254.312 -83.9454 253.849V253.56C-83.9454 253.096 -83.1642 252.721 -82.2006 252.721Z" fill="#2E3552"/>
<path d="M925.659 110.065H925.683C925.819 110.044 925.958 110.044 926.093 110.065C926.655 110.111 927.227 110.147 927.777 110.023C928.327 109.9 928.861 109.592 929.131 109.095C929.305 108.756 929.374 108.372 929.328 107.993C929.266 107.349 928.979 106.739 928.699 106.165C927.564 103.829 926.594 101.416 925.797 98.9445C925.17 97.0016 924.502 94.6184 925.541 92.7057C926.386 91.1614 927.94 90.2087 929.674 90H963.696C963.857 90.0547 964.002 90.1494 964.116 90.2752C964.231 90.4011 964.312 90.554 964.352 90.7196C964.496 91.2953 963.704 91.6551 963.704 91.6551H942.445C940.034 91.6551 937.624 91.6148 935.213 91.6033C933.311 91.5932 931.36 91.2737 929.521 91.9199C928.056 92.4351 926.741 93.6843 926.62 95.23C926.551 96.1165 926.869 96.9815 927.183 97.8205L930.51 106.667C930.784 107.398 931.064 108.173 930.927 108.94C930.754 109.908 929.92 110.667 928.99 110.975C928.061 111.283 926.976 111.219 926.013 110.995C925.834 110.965 925.664 110.893 925.518 110.786C925.444 110.73 925.389 110.653 925.362 110.564C925.335 110.475 925.336 110.38 925.365 110.293C925.394 110.235 925.436 110.185 925.486 110.146C925.537 110.106 925.596 110.079 925.659 110.065Z" fill="#F3F5FB"/>
<path d="M926.333 114.404C928.3 115.124 930.53 115.225 932.579 114.855C935.823 114.271 937.986 111.991 937.239 108.582C936.534 105.352 934.452 102.576 933.567 99.3909C933.312 98.4712 933.172 97.4321 933.65 96.606C934.547 95.056 937.21 94.8128 938.793 94.6675C941.151 94.4516 943.52 94.6775 945.881 94.6775H962.437C962.611 94.6775 964.95 94.5422 965 94.6775C965 94.6775 964.568 93.5262 962.41 92.9505H940.791C939.568 92.9505 938.345 93.0023 937.122 92.9505C935.844 92.9001 934.512 92.7965 933.309 93.3218C930.382 94.6056 930.178 98.3331 931.195 100.938C932.273 103.701 934.404 106.253 934.718 109.274C934.905 111.077 934.132 112.975 932.329 113.591C931.365 113.921 930.323 113.914 929.307 113.927C928.291 113.94 927.24 113.983 926.312 114.402L926.333 114.404Z" fill="#F3F5FB"/>
<path d="M963.497 112.292L963.514 112.283C964.342 111.851 964.211 110.611 963.37 110.268C963.139 110.188 962.896 110.148 962.651 110.152C960.9 110.091 958.982 110.468 957.854 111.81C957.507 112.223 957.219 112.734 956.72 112.935C955.007 113.623 953.659 110.945 952.281 110.378C951.903 110.226 951.497 110.161 951.091 110.188C950.686 110.214 950.291 110.331 949.937 110.53C948.954 111.094 948.312 112.279 947.194 112.467C946.385 112.611 945.598 112.155 944.948 111.657C944.297 111.159 943.667 110.576 942.873 110.372C942.468 110.268 942.009 110.278 941.664 110.516C941.319 110.753 941.145 111.255 941.363 111.612C941.622 112.034 942.212 112.044 942.69 112.175C943.736 112.463 944.405 113.48 945.355 114.007C945.765 114.225 946.218 114.351 946.682 114.376C947.145 114.4 947.609 114.324 948.04 114.151C948.981 113.778 949.525 112.864 950.501 112.541C952.049 112.02 953.827 112.863 954.927 113.963C955.633 114.669 956.974 114.594 957.852 114.341C959.179 113.957 959.769 112.47 961.236 112.379C961.621 112.379 962.006 112.403 962.388 112.451C962.765 112.496 963.148 112.441 963.497 112.292Z" fill="#F3F5FB"/>
<path d="M952.481 113.89C950.818 113.563 949.042 114.274 947.876 115.549C946.581 115.549 945.226 115.783 944.105 115.024C943.633 114.703 943.144 114.341 942.574 114.304C941.666 114.251 940.808 114.986 940.215 115.599C939.928 115.887 939.797 116.356 939.512 116.628C939.123 116.995 938.532 117.021 938.027 117.021L925.861 116.996C925.664 116.996 925.407 117.044 925.38 117.239C925.348 117.471 925.668 117.562 925.904 117.562C931.576 117.562 937.249 117.562 942.924 117.562C949.711 117.562 956.498 117.569 963.287 117.585C963.419 116.77 963.358 115.936 963.109 115.149C963.021 114.808 962.841 114.499 962.588 114.255C962.208 113.936 961.653 113.9 961.175 114.035C960.697 114.17 960.279 114.454 959.864 114.726C958.713 115.487 957.323 116.226 956.006 115.801C955.182 115.534 954.567 114.857 953.823 114.408C953.41 114.157 952.955 113.982 952.481 113.89Z" fill="#F3F5FB"/>
<path fill-rule="evenodd" clip-rule="evenodd" d="M940.804 107.327C941.167 107.925 941.542 108.542 942.02 109.027C942.118 109.127 942.221 109.222 942.328 109.311C943.38 110.16 944.812 110.582 946.147 110.652C946.736 110.684 947.393 110.687 947.946 110.481C948.307 110.347 948.647 110.139 948.986 109.932C949.235 109.779 949.484 109.627 949.74 109.505C950.445 109.168 951.24 108.941 952.005 109.093C952.612 109.214 953.134 109.553 953.659 109.893C953.896 110.046 954.133 110.2 954.378 110.334C955.129 110.741 956.002 110.96 956.856 110.823C957.709 110.687 958.512 110.163 958.87 109.384C958.887 109.349 958.902 109.315 958.917 109.281C959.158 108.753 959.292 108.462 959.925 108.42C960.267 108.397 960.617 108.41 960.963 108.424C961.091 108.429 961.218 108.434 961.345 108.437C961.364 108.438 961.415 108.44 961.489 108.443C961.991 108.463 963.561 108.526 963.561 108.457C963.567 106.098 963.565 103.739 963.563 101.381C963.562 100.202 963.561 99.0224 963.561 97.8433H941.013C940.803 97.8433 940.598 97.8343 940.397 97.8254C939.643 97.7923 938.944 97.7616 938.223 98.216C936.709 99.163 936.584 100.891 937.517 102.305L940.396 106.671C940.534 106.882 940.668 107.103 940.804 107.327ZM951.822 105.133C951.581 105.292 951.285 105.32 951.081 105.085L950.127 103.942H949.711H946.833C946.661 103.953 946.488 103.949 946.316 103.928C946.169 103.892 946.029 103.828 945.905 103.741C945.629 103.581 945.389 103.368 945.197 103.113C945.066 102.929 945.124 102.588 945.249 102.408C945.463 102.097 945.932 102.018 946.286 102.05C946.814 102.096 947.358 102.081 947.897 102.065C948.165 102.057 948.431 102.05 948.694 102.05C948.943 102.05 949.218 102.066 949.504 102.082C950.476 102.138 951.581 102.202 952.302 101.677C952.316 101.667 952.33 101.656 952.344 101.645C952.513 101.516 952.704 101.369 952.913 101.408C953.144 101.452 953.191 101.639 953.271 101.955C953.342 102.237 953.44 102.622 953.718 103.099C953.799 103.233 954.475 103.234 954.827 103.234C954.913 103.234 954.979 103.234 955.013 103.236C955.487 103.26 955.959 103.308 956.431 103.358C956.515 103.367 956.6 103.374 956.685 103.381C956.826 103.393 956.966 103.404 957.1 103.426C957.131 103.431 957.161 103.436 957.192 103.442C957.374 103.474 957.551 103.506 957.73 103.426C957.871 103.351 957.994 103.245 958.088 103.116L958.536 102.595C958.612 102.492 958.71 102.407 958.824 102.346C959.088 102.238 959.614 102.335 959.726 102.634C959.746 102.698 959.751 102.766 959.741 102.832C959.73 102.898 959.704 102.961 959.665 103.016C959.585 103.126 959.488 103.223 959.378 103.303L957.906 104.512C957.633 104.736 957.24 104.714 956.875 104.693C956.772 104.687 956.67 104.681 956.575 104.681H955.095C954.626 104.681 954.189 104.645 953.752 104.609C953.315 104.573 952.878 104.537 952.409 104.537C952.276 104.667 952.152 104.807 952.038 104.954C951.971 105.02 951.899 105.08 951.822 105.133Z" fill="#F3F5FB"/>
<path d="M1144.37 123.001H1139.21V108.455H1144.41C1145.87 108.455 1147.13 108.746 1148.19 109.329C1149.24 109.906 1150.05 110.737 1150.62 111.822C1151.2 112.906 1151.48 114.203 1151.48 115.714C1151.48 117.229 1151.2 118.531 1150.62 119.62C1150.05 120.709 1149.24 121.545 1148.17 122.127C1147.11 122.709 1145.84 123.001 1144.37 123.001ZM1142.28 120.366H1144.24C1145.15 120.366 1145.91 120.205 1146.53 119.883C1147.16 119.556 1147.63 119.052 1147.94 118.37C1148.26 117.683 1148.41 116.798 1148.41 115.714C1148.41 114.639 1148.26 113.76 1147.94 113.079C1147.63 112.397 1147.16 111.895 1146.54 111.573C1145.92 111.251 1145.15 111.09 1144.24 111.09H1142.28V120.366Z" fill="white"/>
<path d="M1125.3 110.991V108.455H1137.24V110.991H1132.79V123.001H1129.75V110.991H1125.3Z" fill="white"/>
<path d="M1116.32 123.001V108.455H1119.39V120.465H1125.63V123.001H1116.32Z" fill="white"/>
<path d="M1108.13 123.185C1107.66 123.185 1107.26 123.019 1106.92 122.688C1106.59 122.352 1106.42 121.949 1106.42 121.48C1106.42 121.016 1106.59 120.619 1106.92 120.287C1107.26 119.956 1107.66 119.79 1108.13 119.79C1108.58 119.79 1108.98 119.956 1109.32 120.287C1109.66 120.619 1109.83 121.016 1109.83 121.48C1109.83 121.793 1109.75 122.079 1109.59 122.34C1109.44 122.595 1109.23 122.801 1108.97 122.958C1108.72 123.109 1108.44 123.185 1108.13 123.185Z" fill="white"/>
<path d="M1093.19 110.991V108.455H1105.13V110.991H1100.68V123.001H1097.64V110.991H1093.19Z" fill="white"/>
<path d="M1081.41 108.455L1084.92 119.506H1085.06L1088.58 108.455H1091.99L1086.98 123.001H1083.01L1077.99 108.455H1081.41Z" fill="white"/>
<path d="M1065.83 123.001V108.455H1071.57C1072.67 108.455 1073.61 108.666 1074.39 109.087C1075.17 109.504 1075.76 110.084 1076.16 110.827C1076.58 111.566 1076.78 112.418 1076.78 113.384C1076.78 114.35 1076.57 115.202 1076.16 115.941C1075.74 116.68 1075.14 117.255 1074.35 117.667C1073.56 118.079 1072.61 118.285 1071.49 118.285H1067.83V115.82H1070.99C1071.59 115.82 1072.07 115.718 1072.46 115.515C1072.85 115.306 1073.13 115.02 1073.32 114.655C1073.52 114.286 1073.61 113.862 1073.61 113.384C1073.61 112.901 1073.52 112.48 1073.32 112.12C1073.13 111.755 1072.85 111.474 1072.46 111.275C1072.07 111.071 1071.58 110.969 1070.98 110.969H1068.91V123.001H1065.83Z" fill="white"/>
<path d="M1048.96 123.001V108.455H1058.76V110.991H1052.03V114.457H1058.25V116.992H1052.03V120.465H1058.79V123.001H1048.96Z" fill="white"/>
<path d="M1046.75 113.547H1043.64C1043.58 113.145 1043.47 112.787 1043.29 112.475C1043.12 112.157 1042.89 111.887 1042.62 111.665C1042.34 111.442 1042.03 111.272 1041.67 111.154C1041.31 111.035 1040.92 110.976 1040.51 110.976C1039.75 110.976 1039.1 111.163 1038.54 111.537C1037.98 111.906 1037.55 112.446 1037.24 113.156C1036.93 113.862 1036.78 114.719 1036.78 115.727C1036.78 116.764 1036.93 117.636 1037.24 118.341C1037.55 119.047 1037.99 119.579 1038.55 119.939C1039.11 120.299 1039.75 120.479 1040.49 120.479C1040.9 120.479 1041.28 120.424 1041.63 120.316C1041.98 120.207 1042.3 120.048 1042.57 119.84C1042.85 119.627 1043.08 119.369 1043.26 119.066C1043.44 118.762 1043.57 118.417 1043.64 118.029L1046.75 118.043C1046.67 118.71 1046.47 119.354 1046.15 119.975C1045.83 120.59 1045.4 121.142 1044.86 121.629C1044.33 122.112 1043.69 122.496 1042.94 122.78C1042.21 123.059 1041.37 123.199 1040.44 123.199C1039.14 123.199 1037.98 122.905 1036.96 122.318C1035.94 121.731 1035.13 120.881 1034.54 119.769C1033.95 118.656 1033.66 117.309 1033.66 115.727C1033.66 114.141 1033.96 112.792 1034.56 111.679C1035.15 110.566 1035.96 109.719 1036.98 109.137C1038.01 108.549 1039.16 108.256 1040.44 108.256C1041.28 108.256 1042.06 108.374 1042.78 108.611C1043.5 108.848 1044.15 109.193 1044.71 109.648C1045.26 110.098 1045.72 110.649 1046.07 111.303C1046.42 111.956 1046.65 112.704 1046.75 113.547Z" fill="white"/>
<path d="M1031.39 108.455V123.001H1028.31V108.455H1031.39Z" fill="white"/>
<path d="M1015.98 108.455L1019.49 119.506H1019.63L1023.15 108.455H1026.56L1021.55 123.001H1017.58L1012.56 108.455H1015.98Z" fill="white"/>
<path d="M1000.62 123.001V108.455H1006.35C1007.45 108.455 1008.39 108.652 1009.17 109.045C1009.95 109.433 1010.54 109.984 1010.95 110.699C1011.36 111.41 1011.57 112.245 1011.57 113.207C1011.57 114.172 1011.36 115.003 1010.94 115.699C1010.53 116.391 1009.92 116.921 1009.13 117.29C1008.35 117.66 1007.39 117.844 1006.28 117.844H1002.43V115.373H1005.78C1006.37 115.373 1006.85 115.292 1007.24 115.131C1007.63 114.97 1007.92 114.729 1008.11 114.407C1008.3 114.085 1008.4 113.685 1008.4 113.207C1008.4 112.724 1008.3 112.316 1008.11 111.985C1007.92 111.653 1007.63 111.403 1007.24 111.232C1006.85 111.057 1006.36 110.969 1005.76 110.969H1003.69V123.001H1000.62ZM1008.47 116.381L1012.09 123.001H1008.69L1005.15 116.381H1008.47Z" fill="white"/>
<path d="M988.37 123.001V108.455H998.171V110.991H991.445V114.457H997.667V116.992H991.445V120.465H998.199V123.001H988.37Z" fill="white"/>
<path d="M983.155 112.638C983.098 112.065 982.854 111.62 982.423 111.303C981.992 110.985 981.408 110.827 980.669 110.827C980.167 110.827 979.743 110.898 979.398 111.04C979.052 111.177 978.787 111.369 978.602 111.615C978.422 111.861 978.332 112.141 978.332 112.453C978.323 112.714 978.377 112.941 978.496 113.135C978.619 113.329 978.787 113.497 979 113.639C979.213 113.777 979.459 113.897 979.739 114.002C980.018 114.101 980.316 114.186 980.633 114.257L981.94 114.57C982.575 114.712 983.157 114.901 983.687 115.138C984.218 115.375 984.677 115.666 985.065 116.012C985.454 116.357 985.754 116.764 985.967 117.233C986.185 117.702 986.296 118.239 986.301 118.845C986.296 119.735 986.069 120.507 985.619 121.161C985.174 121.809 984.53 122.314 983.687 122.673C982.849 123.029 981.838 123.206 980.655 123.206C979.481 123.206 978.458 123.026 977.587 122.666C976.72 122.307 976.043 121.774 975.555 121.068C975.072 120.358 974.819 119.48 974.795 118.433H977.771C977.804 118.921 977.944 119.328 978.19 119.655C978.441 119.977 978.775 120.221 979.192 120.387C979.613 120.548 980.089 120.628 980.619 120.628C981.14 120.628 981.592 120.552 981.976 120.401C982.364 120.249 982.665 120.039 982.878 119.769C983.091 119.499 983.197 119.189 983.197 118.838C983.197 118.512 983.1 118.237 982.906 118.014C982.717 117.792 982.437 117.602 982.068 117.446C981.704 117.29 981.256 117.148 980.726 117.02L979.142 116.622C977.916 116.324 976.947 115.858 976.237 115.223C975.527 114.589 975.174 113.734 975.179 112.659C975.174 111.779 975.409 111.009 975.882 110.351C976.36 109.693 977.016 109.179 977.849 108.81C978.683 108.441 979.63 108.256 980.69 108.256C981.77 108.256 982.712 108.441 983.517 108.81C984.327 109.179 984.956 109.693 985.406 110.351C985.856 111.009 986.088 111.771 986.102 112.638H983.155Z" fill="white"/>
<path d="M1132.69 91.7275C1132.69 93.3136 1132.39 94.6631 1131.79 95.7757C1131.19 96.8884 1130.38 97.7383 1129.35 98.3255C1128.32 98.9078 1127.17 99.199 1125.88 99.199C1124.59 99.199 1123.43 98.9055 1122.4 98.3184C1121.37 97.7312 1120.56 96.8813 1119.97 95.7686C1119.37 94.656 1119.07 93.3089 1119.07 91.7275C1119.07 90.1413 1119.37 88.7918 1119.97 87.6792C1120.56 86.5665 1121.37 85.7189 1122.4 85.1365C1123.43 84.5494 1124.59 84.2559 1125.88 84.2559C1127.17 84.2559 1128.32 84.5494 1129.35 85.1365C1130.38 85.7189 1131.19 86.5665 1131.79 87.6792C1132.39 88.7918 1132.69 90.1413 1132.69 91.7275ZM1129.58 91.7275C1129.58 90.7 1129.42 89.8335 1129.11 89.128C1128.81 88.4225 1128.38 87.8875 1127.83 87.5229C1127.27 87.1583 1126.63 86.976 1125.88 86.976C1125.14 86.976 1124.49 87.1583 1123.94 87.5229C1123.38 87.8875 1122.95 88.4225 1122.64 89.128C1122.34 89.8335 1122.19 90.7 1122.19 91.7275C1122.19 92.7549 1122.34 93.6214 1122.64 94.3269C1122.95 95.0324 1123.38 95.5674 1123.94 95.932C1124.49 96.2966 1125.14 96.4789 1125.88 96.4789C1126.63 96.4789 1127.27 96.2966 1127.83 95.932C1128.38 95.5674 1128.81 95.0324 1129.11 94.3269C1129.42 93.6214 1129.58 92.7549 1129.58 91.7275Z" fill="white"/>
<path d="M1113.76 89.1564C1113.66 88.8108 1113.52 88.5054 1113.34 88.2402C1113.16 87.9703 1112.94 87.7431 1112.68 87.5584C1112.42 87.369 1112.13 87.2246 1111.8 87.1252C1111.47 87.0257 1111.11 86.976 1110.71 86.976C1109.97 86.976 1109.31 87.1607 1108.75 87.53C1108.19 87.8993 1107.76 88.4367 1107.44 89.1422C1107.13 89.843 1106.97 90.7 1106.97 91.7132C1106.97 92.7265 1107.13 93.5882 1107.44 94.2985C1107.74 95.0087 1108.18 95.5508 1108.74 95.9249C1109.31 96.2942 1109.97 96.4789 1110.74 96.4789C1111.43 96.4789 1112.03 96.3558 1112.52 96.1096C1113.02 95.8586 1113.4 95.5059 1113.66 95.0513C1113.92 94.5968 1114.06 94.0594 1114.06 93.4391L1114.68 93.5314H1110.93V91.2161H1117.02V93.0485C1117.02 94.3269 1116.75 95.4254 1116.21 96.3439C1115.67 97.2578 1114.92 97.9632 1113.98 98.4604C1113.03 98.9528 1111.95 99.199 1110.72 99.199C1109.36 99.199 1108.16 98.8984 1107.13 98.2971C1106.1 97.691 1105.29 96.8316 1104.72 95.7189C1104.14 94.6015 1103.86 93.2757 1103.86 91.7417C1103.86 90.5627 1104.03 89.5115 1104.37 88.5882C1104.71 87.6602 1105.2 86.8742 1105.82 86.2303C1106.44 85.5864 1107.16 85.0963 1107.98 84.7601C1108.81 84.4239 1109.7 84.2559 1110.66 84.2559C1111.48 84.2559 1112.25 84.3766 1112.96 84.6181C1113.67 84.8548 1114.3 85.191 1114.85 85.6266C1115.4 86.0622 1115.86 86.5807 1116.21 87.182C1116.56 87.7786 1116.78 88.4367 1116.88 89.1564H1113.76Z" fill="white"/>
<path d="M1090.99 99.0005V84.4551H1096.73C1097.82 84.4551 1098.76 84.6516 1099.54 85.0446C1100.32 85.4328 1100.91 85.9844 1101.32 86.6994C1101.73 87.4096 1101.94 88.2453 1101.94 89.2065C1101.94 90.1724 1101.73 91.0034 1101.31 91.6994C1100.9 92.3907 1100.29 92.921 1099.5 93.2903C1098.72 93.6596 1097.76 93.8443 1096.65 93.8443H1092.81V91.3727H1096.15C1096.74 91.3727 1097.22 91.2922 1097.61 91.1312C1098 90.9702 1098.29 90.7288 1098.48 90.4068C1098.67 90.0848 1098.77 89.6847 1098.77 89.2065C1098.77 88.7235 1098.67 88.3163 1098.48 87.9849C1098.29 87.6535 1098 87.4025 1097.61 87.2321C1097.22 87.0569 1096.73 86.9693 1096.14 86.9693H1094.06V99.0005H1090.99ZM1098.84 92.3812L1102.46 99.0005H1099.06L1095.53 92.3812H1098.84Z" fill="white"/>
<path d="M1078.53 99.0005H1075.24L1080.26 84.4551H1084.22L1089.24 99.0005H1085.94L1082.3 87.7789H1082.18L1078.53 99.0005ZM1078.33 93.2832H1086.11V95.6838H1078.33V93.2832Z" fill="white"/>
<path d="M1074.09 89.5471H1070.98C1070.93 89.1446 1070.81 88.7871 1070.64 88.4746C1070.46 88.1574 1070.24 87.8875 1069.96 87.665C1069.69 87.4424 1069.37 87.272 1069.01 87.1536C1068.65 87.0352 1068.27 86.976 1067.85 86.976C1067.1 86.976 1066.44 87.1631 1065.88 87.5371C1065.33 87.9064 1064.89 88.4462 1064.58 89.1564C1064.28 89.8619 1064.12 90.7189 1064.12 91.7275C1064.12 92.7644 1064.28 93.6356 1064.58 94.3411C1064.9 95.0466 1065.33 95.5792 1065.89 95.9391C1066.45 96.2989 1067.1 96.4789 1067.83 96.4789C1068.24 96.4789 1068.62 96.4244 1068.97 96.3155C1069.33 96.2066 1069.64 96.048 1069.92 95.8397C1070.19 95.6266 1070.42 95.3685 1070.6 95.0655C1070.78 94.7625 1070.91 94.4168 1070.98 94.0286L1074.09 94.0428C1074.01 94.7104 1073.81 95.3543 1073.49 95.9746C1073.17 96.5901 1072.74 97.1417 1072.21 97.6294C1071.67 98.1124 1071.03 98.4959 1070.29 98.78C1069.55 99.0594 1068.71 99.199 1067.78 99.199C1066.48 99.199 1065.32 98.9055 1064.3 98.3184C1063.28 97.7312 1062.48 96.8813 1061.89 95.7686C1061.3 94.656 1061 93.3089 1061 91.7275C1061 90.1413 1061.3 88.7918 1061.9 87.6792C1062.5 86.5665 1063.31 85.7189 1064.33 85.1365C1065.35 84.5494 1066.5 84.2559 1067.78 84.2559C1068.62 84.2559 1069.4 84.3742 1070.12 84.611C1070.85 84.8477 1071.49 85.1934 1072.05 85.6479C1072.61 86.0977 1073.06 86.6493 1073.41 87.3027C1073.77 87.9561 1073.99 88.7043 1074.09 89.5471Z" fill="white"/>
<path d="M1041.29 84.4551H1044.73L1048.05 90.7193H1048.19L1051.51 84.4551H1054.95L1049.65 93.8585V99.0005H1046.59V93.8585L1041.29 84.4551Z" fill="white"/>
<path d="M1028.35 99.0005V84.4551H1031.43V90.8684H1031.62L1036.85 84.4551H1040.54L1035.14 90.9679L1040.6 99.0005H1036.92L1032.94 93.0204L1031.43 94.867V99.0005H1028.35Z" fill="white"/>
<path d="M1023.14 88.638C1023.08 88.065 1022.83 87.62 1022.4 87.3027C1021.97 86.9855 1021.39 86.8269 1020.65 86.8269C1020.15 86.8269 1019.72 86.8979 1019.38 87.04C1019.03 87.1773 1018.77 87.369 1018.58 87.6152C1018.4 87.8614 1018.31 88.1408 1018.31 88.4533C1018.3 88.7137 1018.36 88.941 1018.48 89.1351C1018.6 89.3293 1018.77 89.4973 1018.98 89.6394C1019.19 89.7767 1019.44 89.8974 1019.72 90.0016C1020 90.101 1020.3 90.1863 1020.61 90.2573L1021.92 90.5698C1022.56 90.7118 1023.14 90.9012 1023.67 91.138C1024.2 91.3747 1024.66 91.6659 1025.05 92.0115C1025.43 92.3572 1025.73 92.7644 1025.95 93.2331C1026.17 93.7019 1026.28 94.2393 1026.28 94.8453C1026.28 95.7355 1026.05 96.5073 1025.6 97.1607C1025.15 97.8094 1024.51 98.3136 1023.67 98.6735C1022.83 99.0286 1021.82 99.2061 1020.64 99.2061C1019.46 99.2061 1018.44 99.0262 1017.57 98.6664C1016.7 98.3065 1016.02 97.7739 1015.54 97.0684C1015.05 96.3581 1014.8 95.4798 1014.78 94.4334H1017.75C1017.78 94.9211 1017.92 95.3283 1018.17 95.655C1018.42 95.977 1018.76 96.2208 1019.17 96.3865C1019.59 96.5475 1020.07 96.628 1020.6 96.628C1021.12 96.628 1021.57 96.5523 1021.96 96.4007C1022.34 96.2492 1022.65 96.0385 1022.86 95.7686C1023.07 95.4988 1023.18 95.1886 1023.18 94.8382C1023.18 94.5115 1023.08 94.2369 1022.89 94.0144C1022.7 93.7918 1022.42 93.6025 1022.05 93.4462C1021.68 93.29 1021.24 93.1479 1020.71 93.0201L1019.12 92.6223C1017.9 92.324 1016.93 91.8577 1016.22 91.2232C1015.51 90.5887 1015.15 89.7341 1015.16 88.6593C1015.15 87.7786 1015.39 87.0092 1015.86 86.351C1016.34 85.6929 1017 85.1792 1017.83 84.8098C1018.66 84.4405 1019.61 84.2559 1020.67 84.2559C1021.75 84.2559 1022.69 84.4405 1023.5 84.8098C1024.31 85.1792 1024.94 85.6929 1025.39 86.351C1025.84 87.0092 1026.07 87.7715 1026.08 88.638H1023.14Z" fill="white"/>
<path d="M1003.12 99.0005H999.828L1004.85 84.4551H1008.81L1013.83 99.0005H1010.53L1006.89 87.7789H1006.77L1003.12 99.0005ZM1002.92 93.2832H1010.7V95.6838H1002.92V93.2832Z" fill="#4FB7EB"/>
<path d="M988.37 99.0005V84.4551H998.171V86.9906H991.445V90.4565H997.667V92.992H991.445V96.465H998.199V99.0005H988.37Z" fill="#4FB7EB"/>
<path d="M983.155 88.638C983.098 88.065 982.854 87.62 982.423 87.3027C981.992 86.9855 981.408 86.8269 980.669 86.8269C980.167 86.8269 979.743 86.8979 979.398 87.04C979.052 87.1773 978.787 87.369 978.602 87.6152C978.422 87.8614 978.332 88.1408 978.332 88.4533C978.323 88.7137 978.377 88.941 978.496 89.1351C978.619 89.3293 978.787 89.4973 979 89.6394C979.213 89.7767 979.459 89.8974 979.739 90.0016C980.018 90.101 980.316 90.1863 980.633 90.2573L981.94 90.5698C982.575 90.7118 983.157 90.9012 983.687 91.138C984.218 91.3747 984.677 91.6659 985.065 92.0115C985.454 92.3572 985.754 92.7644 985.967 93.2331C986.185 93.7019 986.296 94.2393 986.301 94.8453C986.296 95.7355 986.069 96.5073 985.619 97.1607C985.174 97.8094 984.53 98.3136 983.687 98.6735C982.849 99.0286 981.838 99.2061 980.655 99.2061C979.481 99.2061 978.458 99.0262 977.587 98.6664C976.72 98.3065 976.043 97.7739 975.555 97.0684C975.072 96.3581 974.819 95.4798 974.795 94.4334H977.771C977.804 94.9211 977.944 95.3283 978.19 95.655C978.441 95.977 978.775 96.2208 979.192 96.3865C979.613 96.5475 980.089 96.628 980.619 96.628C981.14 96.628 981.592 96.5523 981.976 96.4007C982.364 96.2492 982.665 96.0385 982.878 95.7686C983.091 95.4988 983.197 95.1886 983.197 94.8382C983.197 94.5115 983.1 94.2369 982.906 94.0144C982.717 93.7918 982.437 93.6025 982.068 93.4462C981.704 93.29 981.256 93.1479 980.726 93.0201L979.142 92.6223C977.916 92.324 976.947 91.8577 976.237 91.2232C975.527 90.5887 975.174 89.7341 975.179 88.6593C975.174 87.7786 975.409 87.0092 975.882 86.351C976.36 85.6929 977.016 85.1792 977.849 84.8098C978.683 84.4405 979.63 84.2559 980.69 84.2559C981.77 84.2559 982.712 84.4405 983.517 84.8098C984.327 85.1792 984.956 85.6929 985.406 86.351C985.856 87.0092 986.088 87.7715 986.102 88.638H983.155Z" fill="#4FB7EB"/>
</svg>
